G04 NOT FOR FABRICATION. halo REPLICA - a reconstruction from photographs.*
G04 1. 0.30 mm at 4 layers is BELOW PCBWay's 0.40 mm four-layer floor and*
G04    JLCPCB's 0.40 mm minimum. AS DRAWN THIS CANNOT BE ORDERED AT EITHER*
G04    HOUSE. The drawing is not moved to suit a process.*
G04 2. The board's own DRC HAS ERRORS. See drc-classification.json:*
G04    they are classified, not cleared, because moving a MEASURED position*
G04    to satisfy a design rule would falsify a measurement.*
G04 3. NO NETLIST BINDING. 65 nets read from the schematic, ZERO pads*
G04    attached. The copper's connectivity is UNKNOWN and every passive*
G04    value is CANNOT DETERMINE.*
G04 4. U1 (nRF52832 WLCSP-50) has NO LAND PATTERN - the ball map is CANNOT*
G04    DETERMINE. U2 (Apple U1 UWB) is UNPOPULATED and has none either.*
G04 5. The outer diameter is a BOUND, 24.95-26.34 mm. The drawn value is*
G04    not a settled diameter, and if it moves it moves DOWN.*
G04 Board SHA-256 at cut time: a702e352c01dc2ccc85a5cb39cbec9d49c424269e2e13b2c3e06ee0da39cb86f*
G04 Cut by tools/f_fab.py at 2026-09-05T07:21:42Z*
%TF.GenerationSoftware,KiCad,Pcbnew,10.0.6*%
%TF.CreationDate,2026-09-05T15:21:41+08:00*%
%TF.ProjectId,halo_replica,68616c6f-5f72-4657-906c-6963612e6b69,rev?*%
%TF.SameCoordinates,Original*%
%TF.FileFunction,Legend,Top*%
%TF.FilePolarity,Positive*%
%FSLAX46Y46*%
G04 Gerber Fmt 4.6, Leading zero omitted, Abs format (unit mm)*
G04 Created by KiCad (PCBNEW 10.0.6) date 2026-09-05 15:21:41*
%MOMM*%
%LPD*%
G01*
G04 APERTURE LIST*
%ADD10C,0.150000*%
G04 APERTURE END LIST*
D10*
X21692349Y-3375852D02*
X21743331Y-3432472D01*
X21743331Y-3432472D02*
X21766002Y-3514584D01*
X21766002Y-3514584D02*
X21763182Y-3568385D01*
X21763182Y-3568385D02*
X21732052Y-3647676D01*
X21732052Y-3647676D02*
X21644302Y-3777949D01*
X21644302Y-3777949D02*
X21502750Y-3905403D01*
X21502750Y-3905403D02*
X21364019Y-3979055D01*
X21364019Y-3979055D02*
X21281907Y-4001726D01*
X21281907Y-4001726D02*
X21228106Y-3998907D01*
X21228106Y-3998907D02*
X21148815Y-3967777D01*
X21148815Y-3967777D02*
X21097833Y-3911156D01*
X21097833Y-3911156D02*
X21075162Y-3829045D01*
X21075162Y-3829045D02*
X21077982Y-3775244D01*
X21077982Y-3775244D02*
X21109112Y-3695952D01*
X21109112Y-3695952D02*
X21196862Y-3565679D01*
X21196862Y-3565679D02*
X21338414Y-3438226D01*
X21338414Y-3438226D02*
X21477145Y-3364573D01*
X21477145Y-3364573D02*
X21559257Y-3341902D01*
X21559257Y-3341902D02*
X21613058Y-3344722D01*
X21613058Y-3344722D02*
X21692349Y-3375852D01*
X21562305Y-4313140D02*
X21559486Y-4366940D01*
X21559486Y-4366940D02*
X21505685Y-4364121D01*
X21505685Y-4364121D02*
X21508504Y-4310320D01*
X21508504Y-4310320D02*
X21562305Y-4313140D01*
X21562305Y-4313140D02*
X21505685Y-4364121D01*
X22304126Y-4055298D02*
X22635505Y-4423332D01*
X22635505Y-4423332D02*
X22230588Y-4429086D01*
X22230588Y-4429086D02*
X22307060Y-4514016D01*
X22307060Y-4514016D02*
X22329731Y-4596128D01*
X22329731Y-4596128D02*
X22326911Y-4649929D01*
X22326911Y-4649929D02*
X22295781Y-4729220D01*
X22295781Y-4729220D02*
X22154230Y-4856674D01*
X22154230Y-4856674D02*
X22072119Y-4879345D01*
X22072119Y-4879345D02*
X22018318Y-4876525D01*
X22018318Y-4876525D02*
X21939026Y-4845395D01*
X21939026Y-4845395D02*
X21786082Y-4675534D01*
X21786082Y-4675534D02*
X21763411Y-4593422D01*
X21763411Y-4593422D02*
X21766230Y-4539621D01*
X22966884Y-4791366D02*
X23017865Y-4847986D01*
X23017865Y-4847986D02*
X23040536Y-4930098D01*
X23040536Y-4930098D02*
X23037717Y-4983899D01*
X23037717Y-4983899D02*
X23006587Y-5063190D01*
X23006587Y-5063190D02*
X22918836Y-5193463D01*
X22918836Y-5193463D02*
X22777285Y-5320917D01*
X22777285Y-5320917D02*
X22638553Y-5394569D01*
X22638553Y-5394569D02*
X22556442Y-5417240D01*
X22556442Y-5417240D02*
X22502641Y-5414421D01*
X22502641Y-5414421D02*
X22423349Y-5383291D01*
X22423349Y-5383291D02*
X22372368Y-5326670D01*
X22372368Y-5326670D02*
X22349697Y-5244559D01*
X22349697Y-5244559D02*
X22352516Y-5190758D01*
X22352516Y-5190758D02*
X22383646Y-5111466D01*
X22383646Y-5111466D02*
X22471397Y-4981193D01*
X22471397Y-4981193D02*
X22612948Y-4853740D01*
X22612948Y-4853740D02*
X22751680Y-4780087D01*
X22751680Y-4780087D02*
X22833791Y-4757416D01*
X22833791Y-4757416D02*
X22887592Y-4760236D01*
X22887592Y-4760236D02*
X22966884Y-4791366D01*
X22780219Y-5779635D02*
X23176563Y-5422765D01*
X23119943Y-5473747D02*
X23173743Y-5476566D01*
X23173743Y-5476566D02*
X23253035Y-5507696D01*
X23253035Y-5507696D02*
X23329507Y-5592627D01*
X23329507Y-5592627D02*
X23352178Y-5674738D01*
X23352178Y-5674738D02*
X23321048Y-5754030D01*
X23321048Y-5754030D02*
X23009635Y-6034427D01*
X23321048Y-5754030D02*
X23403160Y-5731359D01*
X23403160Y-5731359D02*
X23482451Y-5762489D01*
X23482451Y-5762489D02*
X23558923Y-5847419D01*
X23558923Y-5847419D02*
X23581595Y-5929531D01*
X23581595Y-5929531D02*
X23550465Y-6008822D01*
X23550465Y-6008822D02*
X23239052Y-6289220D01*
X23493959Y-6572323D02*
X23890303Y-6215453D01*
X23833682Y-6266435D02*
X23887483Y-6269254D01*
X23887483Y-6269254D02*
X23966775Y-6300384D01*
X23966775Y-6300384D02*
X24043247Y-6385315D01*
X24043247Y-6385315D02*
X24065918Y-6467426D01*
X24065918Y-6467426D02*
X24034788Y-6546718D01*
X24034788Y-6546718D02*
X23723375Y-6827116D01*
X24034788Y-6546718D02*
X24116899Y-6524047D01*
X24116899Y-6524047D02*
X24196191Y-6555177D01*
X24196191Y-6555177D02*
X24272663Y-6640108D01*
X24272663Y-6640108D02*
X24295334Y-6722219D01*
X24295334Y-6722219D02*
X24264204Y-6801510D01*
X24264204Y-6801510D02*
X23952791Y-7081908D01*
X21482871Y-7640032D02*
X21736188Y-7250076D01*
X21311622Y-7216177D02*
X22053369Y-6916492D01*
X22053369Y-6916492D02*
X22167535Y-7199062D01*
X22167535Y-7199062D02*
X22160755Y-7283975D01*
X22160755Y-7283975D02*
X22139704Y-7333567D01*
X22139704Y-7333567D02*
X22083333Y-7397430D01*
X22083333Y-7397430D02*
X21977369Y-7440242D01*
X21977369Y-7440242D02*
X21892455Y-7433462D01*
X21892455Y-7433462D02*
X21842863Y-7412412D01*
X21842863Y-7412412D02*
X21779001Y-7356040D01*
X21779001Y-7356040D02*
X21664835Y-7073470D01*
X21999841Y-7800946D02*
X22099736Y-8048195D01*
X21754014Y-8311137D02*
X21611307Y-7957924D01*
X21611307Y-7957924D02*
X22353054Y-7658239D01*
X22353054Y-7658239D02*
X22495762Y-8011452D01*
X21882451Y-8629029D02*
X22624198Y-8329344D01*
X22624198Y-8329344D02*
X22738364Y-8611914D01*
X22738364Y-8611914D02*
X22731584Y-8696827D01*
X22731584Y-8696827D02*
X22710534Y-8746419D01*
X22710534Y-8746419D02*
X22654162Y-8810282D01*
X22654162Y-8810282D02*
X22548198Y-8853094D01*
X22548198Y-8853094D02*
X22463285Y-8846314D01*
X22463285Y-8846314D02*
X22413693Y-8825264D01*
X22413693Y-8825264D02*
X22349830Y-8768892D01*
X22349830Y-8768892D02*
X22235664Y-8486322D01*
X22324844Y-9723989D02*
X22182136Y-9370776D01*
X22182136Y-9370776D02*
X22923884Y-9071091D01*
X22424739Y-9971238D02*
X23166486Y-9671553D01*
X22809337Y-10719764D02*
X22759745Y-10698714D01*
X22759745Y-10698714D02*
X22681612Y-10607021D01*
X22681612Y-10607021D02*
X22653070Y-10536378D01*
X22653070Y-10536378D02*
X22645579Y-10416143D01*
X22645579Y-10416143D02*
X22687681Y-10316959D01*
X22687681Y-10316959D02*
X22744052Y-10253097D01*
X22744052Y-10253097D02*
X22871067Y-10160693D01*
X22871067Y-10160693D02*
X22977031Y-10117880D01*
X22977031Y-10117880D02*
X23132587Y-10096119D01*
X23132587Y-10096119D02*
X23217500Y-10102899D01*
X23217500Y-10102899D02*
X23316684Y-10145000D01*
X23316684Y-10145000D02*
X23394817Y-10236693D01*
X23394817Y-10236693D02*
X23423359Y-10307335D01*
X23423359Y-10307335D02*
X23430850Y-10427570D01*
X23430850Y-10427570D02*
X23409799Y-10477162D01*
X23064788Y-10945252D02*
X23207495Y-11298465D01*
X22824319Y-10960234D02*
X23665961Y-10907797D01*
X23665961Y-10907797D02*
X23024109Y-11454732D01*
X10748176Y-22026956D02*
X9987331Y-21779742D01*
X9987331Y-21779742D02*
X10046191Y-21598589D01*
X10046191Y-21598589D02*
X10117738Y-21501669D01*
X10117738Y-21501669D02*
X10213744Y-21452751D01*
X10213744Y-21452751D02*
X10297977Y-21440065D01*
X10297977Y-21440065D02*
X10454672Y-21450922D01*
X10454672Y-21450922D02*
X10563364Y-21486238D01*
X10563364Y-21486238D02*
X10696515Y-21569558D01*
X10696515Y-21569558D02*
X10757204Y-21629332D01*
X10757204Y-21629332D02*
X10806122Y-21725338D01*
X10806122Y-21725338D02*
X10807036Y-21845802D01*
X10807036Y-21845802D02*
X10748176Y-22026956D01*
X10995389Y-21266111D02*
X10234544Y-21018897D01*
X10234544Y-21018897D02*
X11136654Y-20831342D01*
X11136654Y-20831342D02*
X10375809Y-20584128D01*
X11254375Y-20469035D02*
X10493530Y-20221821D01*
X10493530Y-20221821D02*
X10587706Y-19931976D01*
X10587706Y-19931976D02*
X10647481Y-19871286D01*
X10647481Y-19871286D02*
X10695484Y-19846828D01*
X10695484Y-19846828D02*
X10779718Y-19834141D01*
X10779718Y-19834141D02*
X10888410Y-19869457D01*
X10888410Y-19869457D02*
X10949099Y-19929232D01*
X10949099Y-19929232D02*
X10973558Y-19977235D01*
X10973558Y-19977235D02*
X10986244Y-20061468D01*
X10986244Y-20061468D02*
X10892068Y-20351314D01*
X10921719Y-23305043D02*
X11537642Y-23505168D01*
X11537642Y-23505168D02*
X11621875Y-23492481D01*
X11621875Y-23492481D02*
X11669878Y-23468023D01*
X11669878Y-23468023D02*
X11729653Y-23407333D01*
X11729653Y-23407333D02*
X11776741Y-23262410D01*
X11776741Y-23262410D02*
X11764055Y-23178177D01*
X11764055Y-23178177D02*
X11739596Y-23130174D01*
X11739596Y-23130174D02*
X11678907Y-23070399D01*
X11678907Y-23070399D02*
X11062984Y-22870274D01*
X11241394Y-22567742D02*
X11216936Y-22519739D01*
X11216936Y-22519739D02*
X11204249Y-22435505D01*
X11204249Y-22435505D02*
X11263109Y-22254352D01*
X11263109Y-22254352D02*
X11322884Y-22193662D01*
X11322884Y-22193662D02*
X11370887Y-22169204D01*
X11370887Y-22169204D02*
X11455121Y-22156517D01*
X11455121Y-22156517D02*
X11527582Y-22180061D01*
X11527582Y-22180061D02*
X11624502Y-22251608D01*
X11624502Y-22251608D02*
X11918006Y-22827642D01*
X11918006Y-22827642D02*
X12071043Y-22356642D01*
X11604500Y-21203660D02*
X12220422Y-21403786D01*
X12220422Y-21403786D02*
X12304656Y-21391099D01*
X12304656Y-21391099D02*
X12352658Y-21366640D01*
X12352658Y-21366640D02*
X12412433Y-21305951D01*
X12412433Y-21305951D02*
X12459522Y-21161028D01*
X12459522Y-21161028D02*
X12446835Y-21076795D01*
X12446835Y-21076795D02*
X12422376Y-21028792D01*
X12422376Y-21028792D02*
X12361687Y-20969017D01*
X12361687Y-20969017D02*
X11745765Y-20768892D01*
X11839941Y-20479046D02*
X12659647Y-20545106D01*
X12659647Y-20545106D02*
X12163274Y-20223602D01*
X12163274Y-20223602D02*
X12753823Y-20255260D01*
X12753823Y-20255260D02*
X12051839Y-19826893D01*
X12590727Y-19401153D02*
X12662274Y-19304233D01*
X12662274Y-19304233D02*
X12710277Y-19279774D01*
X12710277Y-19279774D02*
X12794510Y-19267087D01*
X12794510Y-19267087D02*
X12903202Y-19302404D01*
X12903202Y-19302404D02*
X12963892Y-19362178D01*
X12963892Y-19362178D02*
X12988351Y-19410181D01*
X12988351Y-19410181D02*
X13001037Y-19494415D01*
X13001037Y-19494415D02*
X12906860Y-19784261D01*
X12906860Y-19784261D02*
X12146015Y-19537047D01*
X12146015Y-19537047D02*
X12228420Y-19283432D01*
X12228420Y-19283432D02*
X12288195Y-19222743D01*
X12288195Y-19222743D02*
X12336197Y-19198284D01*
X12336197Y-19198284D02*
X12420431Y-19185597D01*
X12420431Y-19185597D02*
X12492892Y-19209142D01*
X12492892Y-19209142D02*
X12553582Y-19268916D01*
X12553582Y-19268916D02*
X12578040Y-19316919D01*
X12578040Y-19316919D02*
X12590727Y-19401153D01*
X12590727Y-19401153D02*
X12508323Y-19654768D01*
M02*
