G04 NOT FOR FABRICATION. halo REPLICA - a reconstruction from photographs.*
G04 1. 0.30 mm at 4 layers is BELOW PCBWay's 0.40 mm four-layer floor and*
G04    JLCPCB's 0.40 mm minimum. AS DRAWN THIS CANNOT BE ORDERED AT EITHER*
G04    HOUSE. The drawing is not moved to suit a process.*
G04 2. The board's own DRC HAS ERRORS. See drc-classification.json:*
G04    they are classified, not cleared, because moving a MEASURED position*
G04    to satisfy a design rule would falsify a measurement.*
G04 3. NO NETLIST BINDING. 65 nets read from the schematic, ZERO pads*
G04    attached. The copper's connectivity is UNKNOWN and every passive*
G04    value is CANNOT DETERMINE.*
G04 4. U1 (nRF52832 WLCSP-50) has NO LAND PATTERN - the ball map is CANNOT*
G04    DETERMINE. U2 (Apple U1 UWB) is UNPOPULATED and has none either.*
G04 5. The outer diameter is a BOUND, 24.95-26.34 mm. The drawn value is*
G04    not a settled diameter, and if it moves it moves DOWN.*
G04 Board SHA-256 at cut time: a702e352c01dc2ccc85a5cb39cbec9d49c424269e2e13b2c3e06ee0da39cb86f*
G04 Cut by tools/f_fab.py at 2026-09-05T07:21:42Z*
%TF.GenerationSoftware,KiCad,Pcbnew,10.0.6*%
%TF.CreationDate,2026-09-05T15:21:41+08:00*%
%TF.ProjectId,halo_replica,68616c6f-5f72-4657-906c-6963612e6b69,rev?*%
%TF.SameCoordinates,Original*%
%TF.FileFunction,Copper,L4,Bot*%
%TF.FilePolarity,Positive*%
%FSLAX46Y46*%
G04 Gerber Fmt 4.6, Leading zero omitted, Abs format (unit mm)*
G04 Created by KiCad (PCBNEW 10.0.6) date 2026-09-05 15:21:41*
%MOMM*%
%LPD*%
G01*
G04 APERTURE LIST*
%TA.AperFunction,SMDPad,CuDef*%
%ADD10C,0.210000*%
%TD*%
%TA.AperFunction,SMDPad,CuDef*%
%ADD11C,0.600000*%
%TD*%
%TA.AperFunction,SMDPad,CuDef*%
%ADD12C,1.050000*%
%TD*%
%TA.AperFunction,SMDPad,CuDef*%
%ADD13C,0.570000*%
%TD*%
%TA.AperFunction,SMDPad,CuDef*%
%ADD14C,0.590000*%
%TD*%
%TA.AperFunction,SMDPad,CuDef*%
%ADD15C,0.610000*%
%TD*%
%TA.AperFunction,SMDPad,CuDef*%
%ADD16C,0.520000*%
%TD*%
%TA.AperFunction,SMDPad,CuDef*%
%ADD17C,0.360000*%
%TD*%
%TA.AperFunction,SMDPad,CuDef*%
%ADD18C,0.340000*%
%TD*%
%TA.AperFunction,SMDPad,CuDef*%
%ADD19C,0.560000*%
%TD*%
%TA.AperFunction,SMDPad,CuDef*%
%ADD20C,0.620000*%
%TD*%
%TA.AperFunction,SMDPad,CuDef*%
%ADD21C,1.060000*%
%TD*%
%TA.AperFunction,SMDPad,CuDef*%
%ADD22C,1.030000*%
%TD*%
G04 APERTURE END LIST*
D10*
%TO.P,KP018,1*%
%TO.N,N/C*%
X4926000Y-13599829D03*
%TD*%
%TO.P,KP014,1*%
%TO.N,N/C*%
X4644000Y-11119829D03*
%TD*%
D11*
%TO.P,KP024,1*%
%TO.N,N/C*%
X12019000Y-19977829D03*
%TD*%
D12*
%TO.P,KP010,1*%
%TO.N,N/C*%
X7568000Y-7079829D03*
%TD*%
D13*
%TO.P,KP027,1*%
%TO.N,N/C*%
X13099000Y-22007829D03*
%TD*%
D12*
%TO.P,KP016,1*%
%TO.N,N/C*%
X7505000Y-12184829D03*
%TD*%
D14*
%TO.P,KP034,1*%
%TO.N,N/C*%
X22030000Y-19111829D03*
%TD*%
D11*
%TO.P,KP030,1*%
%TO.N,N/C*%
X17481000Y-19991829D03*
%TD*%
%TO.P,KP015,1*%
%TO.N,N/C*%
X5426000Y-11375829D03*
%TD*%
D15*
%TO.P,KP031,1*%
%TO.N,N/C*%
X19909000Y-20725829D03*
%TD*%
D11*
%TO.P,KP029,1*%
%TO.N,N/C*%
X14986000Y-20565829D03*
%TD*%
D14*
%TO.P,KP023,1*%
%TO.N,N/C*%
X10433000Y-21835829D03*
%TD*%
D12*
%TO.P,KP011,1*%
%TO.N,N/C*%
X7550000Y-8353829D03*
%TD*%
%TO.P,KP013,1*%
%TO.N,N/C*%
X7521000Y-10913829D03*
%TD*%
D11*
%TO.P,KP035,1*%
%TO.N,N/C*%
X20960000Y-17587829D03*
%TD*%
%TO.P,KP020,1*%
%TO.N,N/C*%
X6903000Y-17146829D03*
%TD*%
D14*
%TO.P,KP038,1*%
%TO.N,N/C*%
X23869000Y-16441829D03*
%TD*%
D13*
%TO.P,KP008,1*%
%TO.N,N/C*%
X8283000Y-4634829D03*
%TD*%
D15*
%TO.P,KP021,1*%
%TO.N,N/C*%
X7716000Y-18162829D03*
%TD*%
D13*
%TO.P,KP001,1*%
%TO.N,N/C*%
X26818000Y-9979829D03*
%TD*%
D16*
%TO.P,KP007,1*%
%TO.N,N/C*%
X10171000Y-4684829D03*
%TD*%
D17*
%TO.P,KP025,1*%
%TO.N,N/C*%
X10883000Y-23025829D03*
%TD*%
D11*
%TO.P,KP028,1*%
%TO.N,N/C*%
X13781000Y-20042829D03*
%TD*%
D14*
%TO.P,KP026,1*%
%TO.N,N/C*%
X11777000Y-21522829D03*
%TD*%
D12*
%TO.P,KP012,1*%
%TO.N,N/C*%
X7535000Y-9631829D03*
%TD*%
D18*
%TO.P,KP009,1*%
%TO.N,N/C*%
X6394000Y-4963829D03*
%TD*%
D19*
%TO.P,KP004,1*%
%TO.N,N/C*%
X22664000Y-7474829D03*
%TD*%
D20*
%TO.P,KP039,1*%
%TO.N,N/C*%
X22121000Y-15114829D03*
%TD*%
D11*
%TO.P,KP019,1*%
%TO.N,N/C*%
X6509000Y-15382829D03*
%TD*%
D15*
%TO.P,KP037,1*%
%TO.N,N/C*%
X21774000Y-16518829D03*
%TD*%
D11*
%TO.P,KP036,1*%
%TO.N,N/C*%
X22765000Y-17845829D03*
%TD*%
D21*
%TO.P,KP042,1*%
%TO.N,N/C*%
X22618000Y-12363829D03*
%TD*%
D14*
%TO.P,KP017,1*%
%TO.N,N/C*%
X5413000Y-12546829D03*
%TD*%
D11*
%TO.P,KP032,1*%
%TO.N,N/C*%
X19618000Y-18265829D03*
%TD*%
D15*
%TO.P,KP040,1*%
%TO.N,N/C*%
X23497000Y-15135829D03*
%TD*%
D11*
%TO.P,KP022,1*%
%TO.N,N/C*%
X10713000Y-19949829D03*
%TD*%
D22*
%TO.P,KP041,1*%
%TO.N,N/C*%
X22600000Y-13646829D03*
%TD*%
D12*
%TO.P,KP000,1*%
%TO.N,N/C*%
X22625000Y-11070829D03*
%TD*%
D14*
%TO.P,KP003,1*%
%TO.N,N/C*%
X25425000Y-7498829D03*
%TD*%
D11*
%TO.P,KP033,1*%
%TO.N,N/C*%
X20851000Y-19834829D03*
%TD*%
D17*
%TO.P,KP002,1*%
%TO.N,N/C*%
X26210000Y-8257829D03*
%TD*%
M02*
