G04 NOT FOR FABRICATION. halo REPLICA - a reconstruction from photographs.*
G04 1. 0.30 mm at 4 layers is BELOW PCBWay's 0.40 mm four-layer floor and*
G04    JLCPCB's 0.40 mm minimum. AS DRAWN THIS CANNOT BE ORDERED AT EITHER*
G04    HOUSE. The drawing is not moved to suit a process.*
G04 2. The board's own DRC HAS ERRORS. See drc-classification.json:*
G04    they are classified, not cleared, because moving a MEASURED position*
G04    to satisfy a design rule would falsify a measurement.*
G04 3. NO NETLIST BINDING. 65 nets read from the schematic, ZERO pads*
G04    attached. The copper's connectivity is UNKNOWN and every passive*
G04    value is CANNOT DETERMINE.*
G04 4. U1 (nRF52832 WLCSP-50) has NO LAND PATTERN - the ball map is CANNOT*
G04    DETERMINE. U2 (Apple U1 UWB) is UNPOPULATED and has none either.*
G04 5. The outer diameter is a BOUND, 24.95-26.34 mm. The drawn value is*
G04    not a settled diameter, and if it moves it moves DOWN.*
G04 Board SHA-256 at cut time: a702e352c01dc2ccc85a5cb39cbec9d49c424269e2e13b2c3e06ee0da39cb86f*
G04 Cut by tools/f_fab.py at 2026-09-05T07:21:42Z*
%TF.GenerationSoftware,KiCad,Pcbnew,10.0.6*%
%TF.CreationDate,2026-09-05T15:21:41+08:00*%
%TF.ProjectId,halo_replica,68616c6f-5f72-4657-906c-6963612e6b69,rev?*%
%TF.SameCoordinates,Original*%
%TF.FileFunction,Soldermask,Bot*%
%TF.FilePolarity,Negative*%
%FSLAX46Y46*%
G04 Gerber Fmt 4.6, Leading zero omitted, Abs format (unit mm)*
G04 Created by KiCad (PCBNEW 10.0.6) date 2026-09-05 15:21:41*
%MOMM*%
%LPD*%
G01*
G04 APERTURE LIST*
%ADD10C,0.210000*%
%ADD11C,0.600000*%
%ADD12C,1.050000*%
%ADD13C,0.570000*%
%ADD14C,0.590000*%
%ADD15C,0.610000*%
%ADD16C,0.520000*%
%ADD17C,0.360000*%
%ADD18C,0.340000*%
%ADD19C,0.560000*%
%ADD20C,0.620000*%
%ADD21C,1.060000*%
%ADD22C,1.030000*%
G04 APERTURE END LIST*
D10*
%TO.C,KP018*%
X4926000Y-13599829D03*
%TD*%
%TO.C,KP014*%
X4644000Y-11119829D03*
%TD*%
D11*
%TO.C,KP024*%
X12019000Y-19977829D03*
%TD*%
D12*
%TO.C,KP010*%
X7568000Y-7079829D03*
%TD*%
D13*
%TO.C,KP027*%
X13099000Y-22007829D03*
%TD*%
D12*
%TO.C,KP016*%
X7505000Y-12184829D03*
%TD*%
D14*
%TO.C,KP034*%
X22030000Y-19111829D03*
%TD*%
D11*
%TO.C,KP030*%
X17481000Y-19991829D03*
%TD*%
%TO.C,KP015*%
X5426000Y-11375829D03*
%TD*%
D15*
%TO.C,KP031*%
X19909000Y-20725829D03*
%TD*%
D11*
%TO.C,KP029*%
X14986000Y-20565829D03*
%TD*%
D14*
%TO.C,KP023*%
X10433000Y-21835829D03*
%TD*%
D12*
%TO.C,KP011*%
X7550000Y-8353829D03*
%TD*%
%TO.C,KP013*%
X7521000Y-10913829D03*
%TD*%
D11*
%TO.C,KP035*%
X20960000Y-17587829D03*
%TD*%
%TO.C,KP020*%
X6903000Y-17146829D03*
%TD*%
D14*
%TO.C,KP038*%
X23869000Y-16441829D03*
%TD*%
D13*
%TO.C,KP008*%
X8283000Y-4634829D03*
%TD*%
D15*
%TO.C,KP021*%
X7716000Y-18162829D03*
%TD*%
D13*
%TO.C,KP001*%
X26818000Y-9979829D03*
%TD*%
D16*
%TO.C,KP007*%
X10171000Y-4684829D03*
%TD*%
D17*
%TO.C,KP025*%
X10883000Y-23025829D03*
%TD*%
D11*
%TO.C,KP028*%
X13781000Y-20042829D03*
%TD*%
D14*
%TO.C,KP026*%
X11777000Y-21522829D03*
%TD*%
D12*
%TO.C,KP012*%
X7535000Y-9631829D03*
%TD*%
D18*
%TO.C,KP009*%
X6394000Y-4963829D03*
%TD*%
D19*
%TO.C,KP004*%
X22664000Y-7474829D03*
%TD*%
D20*
%TO.C,KP039*%
X22121000Y-15114829D03*
%TD*%
D11*
%TO.C,KP019*%
X6509000Y-15382829D03*
%TD*%
D15*
%TO.C,KP037*%
X21774000Y-16518829D03*
%TD*%
D11*
%TO.C,KP036*%
X22765000Y-17845829D03*
%TD*%
D21*
%TO.C,KP042*%
X22618000Y-12363829D03*
%TD*%
D14*
%TO.C,KP017*%
X5413000Y-12546829D03*
%TD*%
D11*
%TO.C,KP032*%
X19618000Y-18265829D03*
%TD*%
D15*
%TO.C,KP040*%
X23497000Y-15135829D03*
%TD*%
D11*
%TO.C,KP022*%
X10713000Y-19949829D03*
%TD*%
D22*
%TO.C,KP041*%
X22600000Y-13646829D03*
%TD*%
D12*
%TO.C,KP000*%
X22625000Y-11070829D03*
%TD*%
D14*
%TO.C,KP003*%
X25425000Y-7498829D03*
%TD*%
D11*
%TO.C,KP033*%
X20851000Y-19834829D03*
%TD*%
D17*
%TO.C,KP002*%
X26210000Y-8257829D03*
%TD*%
M02*
