%TF.GenerationSoftware,KiCad,Pcbnew,10.0.6*%
%TF.CreationDate,2026-09-05T15:42:51+08:00*%
%TF.ProjectId,halo_replica,68616c6f-5f72-4657-906c-6963612e6b69,rev?*%
%TF.SameCoordinates,Original*%
%TF.FileFunction,AssemblyDrawing,Bot*%
%FSLAX46Y46*%
G04 Gerber Fmt 4.6, Leading zero omitted, Abs format (unit mm)*
G04 Created by KiCad (PCBNEW 10.0.6) date 2026-09-05 15:42:51*
%MOMM*%
%LPD*%
G01*
G04 APERTURE LIST*
%ADD10C,0.075000*%
G04 APERTURE END LIST*
D10*
X7998237Y-18974238D02*
X7998237Y-18474238D01*
X7712523Y-18974238D02*
X7926808Y-18688524D01*
X7712523Y-18474238D02*
X7998237Y-18759952D01*
X7498237Y-18974238D02*
X7498237Y-18474238D01*
X7498237Y-18474238D02*
X7307761Y-18474238D01*
X7307761Y-18474238D02*
X7260142Y-18498048D01*
X7260142Y-18498048D02*
X7236332Y-18521857D01*
X7236332Y-18521857D02*
X7212523Y-18569476D01*
X7212523Y-18569476D02*
X7212523Y-18640905D01*
X7212523Y-18640905D02*
X7236332Y-18688524D01*
X7236332Y-18688524D02*
X7260142Y-18712333D01*
X7260142Y-18712333D02*
X7307761Y-18736143D01*
X7307761Y-18736143D02*
X7498237Y-18736143D01*
X6902999Y-18474238D02*
X6855380Y-18474238D01*
X6855380Y-18474238D02*
X6807761Y-18498048D01*
X6807761Y-18498048D02*
X6783951Y-18521857D01*
X6783951Y-18521857D02*
X6760142Y-18569476D01*
X6760142Y-18569476D02*
X6736332Y-18664714D01*
X6736332Y-18664714D02*
X6736332Y-18783762D01*
X6736332Y-18783762D02*
X6760142Y-18879000D01*
X6760142Y-18879000D02*
X6783951Y-18926619D01*
X6783951Y-18926619D02*
X6807761Y-18950429D01*
X6807761Y-18950429D02*
X6855380Y-18974238D01*
X6855380Y-18974238D02*
X6902999Y-18974238D01*
X6902999Y-18974238D02*
X6950618Y-18950429D01*
X6950618Y-18950429D02*
X6974427Y-18926619D01*
X6974427Y-18926619D02*
X6998237Y-18879000D01*
X6998237Y-18879000D02*
X7022046Y-18783762D01*
X7022046Y-18783762D02*
X7022046Y-18664714D01*
X7022046Y-18664714D02*
X6998237Y-18569476D01*
X6998237Y-18569476D02*
X6974427Y-18521857D01*
X6974427Y-18521857D02*
X6950618Y-18498048D01*
X6950618Y-18498048D02*
X6902999Y-18474238D01*
X6545856Y-18521857D02*
X6522047Y-18498048D01*
X6522047Y-18498048D02*
X6474428Y-18474238D01*
X6474428Y-18474238D02*
X6355380Y-18474238D01*
X6355380Y-18474238D02*
X6307761Y-18498048D01*
X6307761Y-18498048D02*
X6283952Y-18521857D01*
X6283952Y-18521857D02*
X6260142Y-18569476D01*
X6260142Y-18569476D02*
X6260142Y-18617095D01*
X6260142Y-18617095D02*
X6283952Y-18688524D01*
X6283952Y-18688524D02*
X6569666Y-18974238D01*
X6569666Y-18974238D02*
X6260142Y-18974238D01*
X5950619Y-18474238D02*
X5903000Y-18474238D01*
X5903000Y-18474238D02*
X5855381Y-18498048D01*
X5855381Y-18498048D02*
X5831571Y-18521857D01*
X5831571Y-18521857D02*
X5807762Y-18569476D01*
X5807762Y-18569476D02*
X5783952Y-18664714D01*
X5783952Y-18664714D02*
X5783952Y-18783762D01*
X5783952Y-18783762D02*
X5807762Y-18879000D01*
X5807762Y-18879000D02*
X5831571Y-18926619D01*
X5831571Y-18926619D02*
X5855381Y-18950429D01*
X5855381Y-18950429D02*
X5903000Y-18974238D01*
X5903000Y-18974238D02*
X5950619Y-18974238D01*
X5950619Y-18974238D02*
X5998238Y-18950429D01*
X5998238Y-18950429D02*
X6022047Y-18926619D01*
X6022047Y-18926619D02*
X6045857Y-18879000D01*
X6045857Y-18879000D02*
X6069666Y-18783762D01*
X6069666Y-18783762D02*
X6069666Y-18664714D01*
X6069666Y-18664714D02*
X6045857Y-18569476D01*
X6045857Y-18569476D02*
X6022047Y-18521857D01*
X6022047Y-18521857D02*
X5998238Y-18498048D01*
X5998238Y-18498048D02*
X5950619Y-18474238D01*
X23216237Y-16942238D02*
X23216237Y-16442238D01*
X22930523Y-16942238D02*
X23144808Y-16656524D01*
X22930523Y-16442238D02*
X23216237Y-16727952D01*
X22716237Y-16942238D02*
X22716237Y-16442238D01*
X22716237Y-16442238D02*
X22525761Y-16442238D01*
X22525761Y-16442238D02*
X22478142Y-16466048D01*
X22478142Y-16466048D02*
X22454332Y-16489857D01*
X22454332Y-16489857D02*
X22430523Y-16537476D01*
X22430523Y-16537476D02*
X22430523Y-16608905D01*
X22430523Y-16608905D02*
X22454332Y-16656524D01*
X22454332Y-16656524D02*
X22478142Y-16680333D01*
X22478142Y-16680333D02*
X22525761Y-16704143D01*
X22525761Y-16704143D02*
X22716237Y-16704143D01*
X22120999Y-16442238D02*
X22073380Y-16442238D01*
X22073380Y-16442238D02*
X22025761Y-16466048D01*
X22025761Y-16466048D02*
X22001951Y-16489857D01*
X22001951Y-16489857D02*
X21978142Y-16537476D01*
X21978142Y-16537476D02*
X21954332Y-16632714D01*
X21954332Y-16632714D02*
X21954332Y-16751762D01*
X21954332Y-16751762D02*
X21978142Y-16847000D01*
X21978142Y-16847000D02*
X22001951Y-16894619D01*
X22001951Y-16894619D02*
X22025761Y-16918429D01*
X22025761Y-16918429D02*
X22073380Y-16942238D01*
X22073380Y-16942238D02*
X22120999Y-16942238D01*
X22120999Y-16942238D02*
X22168618Y-16918429D01*
X22168618Y-16918429D02*
X22192427Y-16894619D01*
X22192427Y-16894619D02*
X22216237Y-16847000D01*
X22216237Y-16847000D02*
X22240046Y-16751762D01*
X22240046Y-16751762D02*
X22240046Y-16632714D01*
X22240046Y-16632714D02*
X22216237Y-16537476D01*
X22216237Y-16537476D02*
X22192427Y-16489857D01*
X22192427Y-16489857D02*
X22168618Y-16466048D01*
X22168618Y-16466048D02*
X22120999Y-16442238D01*
X21787666Y-16442238D02*
X21478142Y-16442238D01*
X21478142Y-16442238D02*
X21644809Y-16632714D01*
X21644809Y-16632714D02*
X21573380Y-16632714D01*
X21573380Y-16632714D02*
X21525761Y-16656524D01*
X21525761Y-16656524D02*
X21501952Y-16680333D01*
X21501952Y-16680333D02*
X21478142Y-16727952D01*
X21478142Y-16727952D02*
X21478142Y-16847000D01*
X21478142Y-16847000D02*
X21501952Y-16894619D01*
X21501952Y-16894619D02*
X21525761Y-16918429D01*
X21525761Y-16918429D02*
X21573380Y-16942238D01*
X21573380Y-16942238D02*
X21716237Y-16942238D01*
X21716237Y-16942238D02*
X21763856Y-16918429D01*
X21763856Y-16918429D02*
X21787666Y-16894619D01*
X21240047Y-16942238D02*
X21144809Y-16942238D01*
X21144809Y-16942238D02*
X21097190Y-16918429D01*
X21097190Y-16918429D02*
X21073381Y-16894619D01*
X21073381Y-16894619D02*
X21025762Y-16823190D01*
X21025762Y-16823190D02*
X21001952Y-16727952D01*
X21001952Y-16727952D02*
X21001952Y-16537476D01*
X21001952Y-16537476D02*
X21025762Y-16489857D01*
X21025762Y-16489857D02*
X21049571Y-16466048D01*
X21049571Y-16466048D02*
X21097190Y-16442238D01*
X21097190Y-16442238D02*
X21192428Y-16442238D01*
X21192428Y-16442238D02*
X21240047Y-16466048D01*
X21240047Y-16466048D02*
X21263857Y-16489857D01*
X21263857Y-16489857D02*
X21287666Y-16537476D01*
X21287666Y-16537476D02*
X21287666Y-16656524D01*
X21287666Y-16656524D02*
X21263857Y-16704143D01*
X21263857Y-16704143D02*
X21240047Y-16727952D01*
X21240047Y-16727952D02*
X21192428Y-16751762D01*
X21192428Y-16751762D02*
X21097190Y-16751762D01*
X21097190Y-16751762D02*
X21049571Y-16727952D01*
X21049571Y-16727952D02*
X21025762Y-16704143D01*
X21025762Y-16704143D02*
X21001952Y-16656524D01*
X16232237Y-5440238D02*
X16232237Y-4940238D01*
X15946523Y-5440238D02*
X16160808Y-5154524D01*
X15946523Y-4940238D02*
X16232237Y-5225952D01*
X15446523Y-5392619D02*
X15470332Y-5416429D01*
X15470332Y-5416429D02*
X15541761Y-5440238D01*
X15541761Y-5440238D02*
X15589380Y-5440238D01*
X15589380Y-5440238D02*
X15660808Y-5416429D01*
X15660808Y-5416429D02*
X15708427Y-5368809D01*
X15708427Y-5368809D02*
X15732237Y-5321190D01*
X15732237Y-5321190D02*
X15756046Y-5225952D01*
X15756046Y-5225952D02*
X15756046Y-5154524D01*
X15756046Y-5154524D02*
X15732237Y-5059286D01*
X15732237Y-5059286D02*
X15708427Y-5011667D01*
X15708427Y-5011667D02*
X15660808Y-4964048D01*
X15660808Y-4964048D02*
X15589380Y-4940238D01*
X15589380Y-4940238D02*
X15541761Y-4940238D01*
X15541761Y-4940238D02*
X15470332Y-4964048D01*
X15470332Y-4964048D02*
X15446523Y-4987857D01*
X15136999Y-4940238D02*
X15089380Y-4940238D01*
X15089380Y-4940238D02*
X15041761Y-4964048D01*
X15041761Y-4964048D02*
X15017951Y-4987857D01*
X15017951Y-4987857D02*
X14994142Y-5035476D01*
X14994142Y-5035476D02*
X14970332Y-5130714D01*
X14970332Y-5130714D02*
X14970332Y-5249762D01*
X14970332Y-5249762D02*
X14994142Y-5345000D01*
X14994142Y-5345000D02*
X15017951Y-5392619D01*
X15017951Y-5392619D02*
X15041761Y-5416429D01*
X15041761Y-5416429D02*
X15089380Y-5440238D01*
X15089380Y-5440238D02*
X15136999Y-5440238D01*
X15136999Y-5440238D02*
X15184618Y-5416429D01*
X15184618Y-5416429D02*
X15208427Y-5392619D01*
X15208427Y-5392619D02*
X15232237Y-5345000D01*
X15232237Y-5345000D02*
X15256046Y-5249762D01*
X15256046Y-5249762D02*
X15256046Y-5130714D01*
X15256046Y-5130714D02*
X15232237Y-5035476D01*
X15232237Y-5035476D02*
X15208427Y-4987857D01*
X15208427Y-4987857D02*
X15184618Y-4964048D01*
X15184618Y-4964048D02*
X15136999Y-4940238D01*
X14660809Y-4940238D02*
X14613190Y-4940238D01*
X14613190Y-4940238D02*
X14565571Y-4964048D01*
X14565571Y-4964048D02*
X14541761Y-4987857D01*
X14541761Y-4987857D02*
X14517952Y-5035476D01*
X14517952Y-5035476D02*
X14494142Y-5130714D01*
X14494142Y-5130714D02*
X14494142Y-5249762D01*
X14494142Y-5249762D02*
X14517952Y-5345000D01*
X14517952Y-5345000D02*
X14541761Y-5392619D01*
X14541761Y-5392619D02*
X14565571Y-5416429D01*
X14565571Y-5416429D02*
X14613190Y-5440238D01*
X14613190Y-5440238D02*
X14660809Y-5440238D01*
X14660809Y-5440238D02*
X14708428Y-5416429D01*
X14708428Y-5416429D02*
X14732237Y-5392619D01*
X14732237Y-5392619D02*
X14756047Y-5345000D01*
X14756047Y-5345000D02*
X14779856Y-5249762D01*
X14779856Y-5249762D02*
X14779856Y-5130714D01*
X14779856Y-5130714D02*
X14756047Y-5035476D01*
X14756047Y-5035476D02*
X14732237Y-4987857D01*
X14732237Y-4987857D02*
X14708428Y-4964048D01*
X14708428Y-4964048D02*
X14660809Y-4940238D01*
X14017952Y-5440238D02*
X14303666Y-5440238D01*
X14160809Y-5440238D02*
X14160809Y-4940238D01*
X14160809Y-4940238D02*
X14208428Y-5011667D01*
X14208428Y-5011667D02*
X14256047Y-5059286D01*
X14256047Y-5059286D02*
X14303666Y-5083095D01*
X11808237Y-21777238D02*
X11808237Y-21277238D01*
X11522523Y-21777238D02*
X11736808Y-21491524D01*
X11522523Y-21277238D02*
X11808237Y-21562952D01*
X11308237Y-21777238D02*
X11308237Y-21277238D01*
X11308237Y-21277238D02*
X11117761Y-21277238D01*
X11117761Y-21277238D02*
X11070142Y-21301048D01*
X11070142Y-21301048D02*
X11046332Y-21324857D01*
X11046332Y-21324857D02*
X11022523Y-21372476D01*
X11022523Y-21372476D02*
X11022523Y-21443905D01*
X11022523Y-21443905D02*
X11046332Y-21491524D01*
X11046332Y-21491524D02*
X11070142Y-21515333D01*
X11070142Y-21515333D02*
X11117761Y-21539143D01*
X11117761Y-21539143D02*
X11308237Y-21539143D01*
X10712999Y-21277238D02*
X10665380Y-21277238D01*
X10665380Y-21277238D02*
X10617761Y-21301048D01*
X10617761Y-21301048D02*
X10593951Y-21324857D01*
X10593951Y-21324857D02*
X10570142Y-21372476D01*
X10570142Y-21372476D02*
X10546332Y-21467714D01*
X10546332Y-21467714D02*
X10546332Y-21586762D01*
X10546332Y-21586762D02*
X10570142Y-21682000D01*
X10570142Y-21682000D02*
X10593951Y-21729619D01*
X10593951Y-21729619D02*
X10617761Y-21753429D01*
X10617761Y-21753429D02*
X10665380Y-21777238D01*
X10665380Y-21777238D02*
X10712999Y-21777238D01*
X10712999Y-21777238D02*
X10760618Y-21753429D01*
X10760618Y-21753429D02*
X10784427Y-21729619D01*
X10784427Y-21729619D02*
X10808237Y-21682000D01*
X10808237Y-21682000D02*
X10832046Y-21586762D01*
X10832046Y-21586762D02*
X10832046Y-21467714D01*
X10832046Y-21467714D02*
X10808237Y-21372476D01*
X10808237Y-21372476D02*
X10784427Y-21324857D01*
X10784427Y-21324857D02*
X10760618Y-21301048D01*
X10760618Y-21301048D02*
X10712999Y-21277238D01*
X10355856Y-21324857D02*
X10332047Y-21301048D01*
X10332047Y-21301048D02*
X10284428Y-21277238D01*
X10284428Y-21277238D02*
X10165380Y-21277238D01*
X10165380Y-21277238D02*
X10117761Y-21301048D01*
X10117761Y-21301048D02*
X10093952Y-21324857D01*
X10093952Y-21324857D02*
X10070142Y-21372476D01*
X10070142Y-21372476D02*
X10070142Y-21420095D01*
X10070142Y-21420095D02*
X10093952Y-21491524D01*
X10093952Y-21491524D02*
X10379666Y-21777238D01*
X10379666Y-21777238D02*
X10070142Y-21777238D01*
X9879666Y-21324857D02*
X9855857Y-21301048D01*
X9855857Y-21301048D02*
X9808238Y-21277238D01*
X9808238Y-21277238D02*
X9689190Y-21277238D01*
X9689190Y-21277238D02*
X9641571Y-21301048D01*
X9641571Y-21301048D02*
X9617762Y-21324857D01*
X9617762Y-21324857D02*
X9593952Y-21372476D01*
X9593952Y-21372476D02*
X9593952Y-21420095D01*
X9593952Y-21420095D02*
X9617762Y-21491524D01*
X9617762Y-21491524D02*
X9903476Y-21777238D01*
X9903476Y-21777238D02*
X9593952Y-21777238D01*
X23720237Y-12898238D02*
X23720237Y-12398238D01*
X23434523Y-12898238D02*
X23648808Y-12612524D01*
X23434523Y-12398238D02*
X23720237Y-12683952D01*
X23220237Y-12898238D02*
X23220237Y-12398238D01*
X23220237Y-12398238D02*
X23029761Y-12398238D01*
X23029761Y-12398238D02*
X22982142Y-12422048D01*
X22982142Y-12422048D02*
X22958332Y-12445857D01*
X22958332Y-12445857D02*
X22934523Y-12493476D01*
X22934523Y-12493476D02*
X22934523Y-12564905D01*
X22934523Y-12564905D02*
X22958332Y-12612524D01*
X22958332Y-12612524D02*
X22982142Y-12636333D01*
X22982142Y-12636333D02*
X23029761Y-12660143D01*
X23029761Y-12660143D02*
X23220237Y-12660143D01*
X22624999Y-12398238D02*
X22577380Y-12398238D01*
X22577380Y-12398238D02*
X22529761Y-12422048D01*
X22529761Y-12422048D02*
X22505951Y-12445857D01*
X22505951Y-12445857D02*
X22482142Y-12493476D01*
X22482142Y-12493476D02*
X22458332Y-12588714D01*
X22458332Y-12588714D02*
X22458332Y-12707762D01*
X22458332Y-12707762D02*
X22482142Y-12803000D01*
X22482142Y-12803000D02*
X22505951Y-12850619D01*
X22505951Y-12850619D02*
X22529761Y-12874429D01*
X22529761Y-12874429D02*
X22577380Y-12898238D01*
X22577380Y-12898238D02*
X22624999Y-12898238D01*
X22624999Y-12898238D02*
X22672618Y-12874429D01*
X22672618Y-12874429D02*
X22696427Y-12850619D01*
X22696427Y-12850619D02*
X22720237Y-12803000D01*
X22720237Y-12803000D02*
X22744046Y-12707762D01*
X22744046Y-12707762D02*
X22744046Y-12588714D01*
X22744046Y-12588714D02*
X22720237Y-12493476D01*
X22720237Y-12493476D02*
X22696427Y-12445857D01*
X22696427Y-12445857D02*
X22672618Y-12422048D01*
X22672618Y-12422048D02*
X22624999Y-12398238D01*
X22148809Y-12398238D02*
X22101190Y-12398238D01*
X22101190Y-12398238D02*
X22053571Y-12422048D01*
X22053571Y-12422048D02*
X22029761Y-12445857D01*
X22029761Y-12445857D02*
X22005952Y-12493476D01*
X22005952Y-12493476D02*
X21982142Y-12588714D01*
X21982142Y-12588714D02*
X21982142Y-12707762D01*
X21982142Y-12707762D02*
X22005952Y-12803000D01*
X22005952Y-12803000D02*
X22029761Y-12850619D01*
X22029761Y-12850619D02*
X22053571Y-12874429D01*
X22053571Y-12874429D02*
X22101190Y-12898238D01*
X22101190Y-12898238D02*
X22148809Y-12898238D01*
X22148809Y-12898238D02*
X22196428Y-12874429D01*
X22196428Y-12874429D02*
X22220237Y-12850619D01*
X22220237Y-12850619D02*
X22244047Y-12803000D01*
X22244047Y-12803000D02*
X22267856Y-12707762D01*
X22267856Y-12707762D02*
X22267856Y-12588714D01*
X22267856Y-12588714D02*
X22244047Y-12493476D01*
X22244047Y-12493476D02*
X22220237Y-12445857D01*
X22220237Y-12445857D02*
X22196428Y-12422048D01*
X22196428Y-12422048D02*
X22148809Y-12398238D01*
X21672619Y-12398238D02*
X21625000Y-12398238D01*
X21625000Y-12398238D02*
X21577381Y-12422048D01*
X21577381Y-12422048D02*
X21553571Y-12445857D01*
X21553571Y-12445857D02*
X21529762Y-12493476D01*
X21529762Y-12493476D02*
X21505952Y-12588714D01*
X21505952Y-12588714D02*
X21505952Y-12707762D01*
X21505952Y-12707762D02*
X21529762Y-12803000D01*
X21529762Y-12803000D02*
X21553571Y-12850619D01*
X21553571Y-12850619D02*
X21577381Y-12874429D01*
X21577381Y-12874429D02*
X21625000Y-12898238D01*
X21625000Y-12898238D02*
X21672619Y-12898238D01*
X21672619Y-12898238D02*
X21720238Y-12874429D01*
X21720238Y-12874429D02*
X21744047Y-12850619D01*
X21744047Y-12850619D02*
X21767857Y-12803000D01*
X21767857Y-12803000D02*
X21791666Y-12707762D01*
X21791666Y-12707762D02*
X21791666Y-12588714D01*
X21791666Y-12588714D02*
X21767857Y-12493476D01*
X21767857Y-12493476D02*
X21744047Y-12445857D01*
X21744047Y-12445857D02*
X21720238Y-12422048D01*
X21720238Y-12422048D02*
X21672619Y-12398238D01*
X14876237Y-21870238D02*
X14876237Y-21370238D01*
X14590523Y-21870238D02*
X14804808Y-21584524D01*
X14590523Y-21370238D02*
X14876237Y-21655952D01*
X14376237Y-21870238D02*
X14376237Y-21370238D01*
X14376237Y-21370238D02*
X14185761Y-21370238D01*
X14185761Y-21370238D02*
X14138142Y-21394048D01*
X14138142Y-21394048D02*
X14114332Y-21417857D01*
X14114332Y-21417857D02*
X14090523Y-21465476D01*
X14090523Y-21465476D02*
X14090523Y-21536905D01*
X14090523Y-21536905D02*
X14114332Y-21584524D01*
X14114332Y-21584524D02*
X14138142Y-21608333D01*
X14138142Y-21608333D02*
X14185761Y-21632143D01*
X14185761Y-21632143D02*
X14376237Y-21632143D01*
X13780999Y-21370238D02*
X13733380Y-21370238D01*
X13733380Y-21370238D02*
X13685761Y-21394048D01*
X13685761Y-21394048D02*
X13661951Y-21417857D01*
X13661951Y-21417857D02*
X13638142Y-21465476D01*
X13638142Y-21465476D02*
X13614332Y-21560714D01*
X13614332Y-21560714D02*
X13614332Y-21679762D01*
X13614332Y-21679762D02*
X13638142Y-21775000D01*
X13638142Y-21775000D02*
X13661951Y-21822619D01*
X13661951Y-21822619D02*
X13685761Y-21846429D01*
X13685761Y-21846429D02*
X13733380Y-21870238D01*
X13733380Y-21870238D02*
X13780999Y-21870238D01*
X13780999Y-21870238D02*
X13828618Y-21846429D01*
X13828618Y-21846429D02*
X13852427Y-21822619D01*
X13852427Y-21822619D02*
X13876237Y-21775000D01*
X13876237Y-21775000D02*
X13900046Y-21679762D01*
X13900046Y-21679762D02*
X13900046Y-21560714D01*
X13900046Y-21560714D02*
X13876237Y-21465476D01*
X13876237Y-21465476D02*
X13852427Y-21417857D01*
X13852427Y-21417857D02*
X13828618Y-21394048D01*
X13828618Y-21394048D02*
X13780999Y-21370238D01*
X13423856Y-21417857D02*
X13400047Y-21394048D01*
X13400047Y-21394048D02*
X13352428Y-21370238D01*
X13352428Y-21370238D02*
X13233380Y-21370238D01*
X13233380Y-21370238D02*
X13185761Y-21394048D01*
X13185761Y-21394048D02*
X13161952Y-21417857D01*
X13161952Y-21417857D02*
X13138142Y-21465476D01*
X13138142Y-21465476D02*
X13138142Y-21513095D01*
X13138142Y-21513095D02*
X13161952Y-21584524D01*
X13161952Y-21584524D02*
X13447666Y-21870238D01*
X13447666Y-21870238D02*
X13138142Y-21870238D01*
X12852428Y-21584524D02*
X12900047Y-21560714D01*
X12900047Y-21560714D02*
X12923857Y-21536905D01*
X12923857Y-21536905D02*
X12947666Y-21489286D01*
X12947666Y-21489286D02*
X12947666Y-21465476D01*
X12947666Y-21465476D02*
X12923857Y-21417857D01*
X12923857Y-21417857D02*
X12900047Y-21394048D01*
X12900047Y-21394048D02*
X12852428Y-21370238D01*
X12852428Y-21370238D02*
X12757190Y-21370238D01*
X12757190Y-21370238D02*
X12709571Y-21394048D01*
X12709571Y-21394048D02*
X12685762Y-21417857D01*
X12685762Y-21417857D02*
X12661952Y-21465476D01*
X12661952Y-21465476D02*
X12661952Y-21489286D01*
X12661952Y-21489286D02*
X12685762Y-21536905D01*
X12685762Y-21536905D02*
X12709571Y-21560714D01*
X12709571Y-21560714D02*
X12757190Y-21584524D01*
X12757190Y-21584524D02*
X12852428Y-21584524D01*
X12852428Y-21584524D02*
X12900047Y-21608333D01*
X12900047Y-21608333D02*
X12923857Y-21632143D01*
X12923857Y-21632143D02*
X12947666Y-21679762D01*
X12947666Y-21679762D02*
X12947666Y-21775000D01*
X12947666Y-21775000D02*
X12923857Y-21822619D01*
X12923857Y-21822619D02*
X12900047Y-21846429D01*
X12900047Y-21846429D02*
X12852428Y-21870238D01*
X12852428Y-21870238D02*
X12757190Y-21870238D01*
X12757190Y-21870238D02*
X12709571Y-21846429D01*
X12709571Y-21846429D02*
X12685762Y-21822619D01*
X12685762Y-21822619D02*
X12661952Y-21775000D01*
X12661952Y-21775000D02*
X12661952Y-21679762D01*
X12661952Y-21679762D02*
X12685762Y-21632143D01*
X12685762Y-21632143D02*
X12709571Y-21608333D01*
X12709571Y-21608333D02*
X12757190Y-21584524D01*
X5739237Y-12947238D02*
X5739237Y-12447238D01*
X5453523Y-12947238D02*
X5667808Y-12661524D01*
X5453523Y-12447238D02*
X5739237Y-12732952D01*
X5239237Y-12947238D02*
X5239237Y-12447238D01*
X5239237Y-12447238D02*
X5048761Y-12447238D01*
X5048761Y-12447238D02*
X5001142Y-12471048D01*
X5001142Y-12471048D02*
X4977332Y-12494857D01*
X4977332Y-12494857D02*
X4953523Y-12542476D01*
X4953523Y-12542476D02*
X4953523Y-12613905D01*
X4953523Y-12613905D02*
X4977332Y-12661524D01*
X4977332Y-12661524D02*
X5001142Y-12685333D01*
X5001142Y-12685333D02*
X5048761Y-12709143D01*
X5048761Y-12709143D02*
X5239237Y-12709143D01*
X4643999Y-12447238D02*
X4596380Y-12447238D01*
X4596380Y-12447238D02*
X4548761Y-12471048D01*
X4548761Y-12471048D02*
X4524951Y-12494857D01*
X4524951Y-12494857D02*
X4501142Y-12542476D01*
X4501142Y-12542476D02*
X4477332Y-12637714D01*
X4477332Y-12637714D02*
X4477332Y-12756762D01*
X4477332Y-12756762D02*
X4501142Y-12852000D01*
X4501142Y-12852000D02*
X4524951Y-12899619D01*
X4524951Y-12899619D02*
X4548761Y-12923429D01*
X4548761Y-12923429D02*
X4596380Y-12947238D01*
X4596380Y-12947238D02*
X4643999Y-12947238D01*
X4643999Y-12947238D02*
X4691618Y-12923429D01*
X4691618Y-12923429D02*
X4715427Y-12899619D01*
X4715427Y-12899619D02*
X4739237Y-12852000D01*
X4739237Y-12852000D02*
X4763046Y-12756762D01*
X4763046Y-12756762D02*
X4763046Y-12637714D01*
X4763046Y-12637714D02*
X4739237Y-12542476D01*
X4739237Y-12542476D02*
X4715427Y-12494857D01*
X4715427Y-12494857D02*
X4691618Y-12471048D01*
X4691618Y-12471048D02*
X4643999Y-12447238D01*
X4001142Y-12947238D02*
X4286856Y-12947238D01*
X4143999Y-12947238D02*
X4143999Y-12447238D01*
X4143999Y-12447238D02*
X4191618Y-12518667D01*
X4191618Y-12518667D02*
X4239237Y-12566286D01*
X4239237Y-12566286D02*
X4286856Y-12590095D01*
X3572571Y-12613905D02*
X3572571Y-12947238D01*
X3691619Y-12423429D02*
X3810666Y-12780571D01*
X3810666Y-12780571D02*
X3501143Y-12780571D01*
X27305237Y-10085238D02*
X27305237Y-9585238D01*
X27019523Y-10085238D02*
X27233808Y-9799524D01*
X27019523Y-9585238D02*
X27305237Y-9870952D01*
X26805237Y-10085238D02*
X26805237Y-9585238D01*
X26805237Y-9585238D02*
X26614761Y-9585238D01*
X26614761Y-9585238D02*
X26567142Y-9609048D01*
X26567142Y-9609048D02*
X26543332Y-9632857D01*
X26543332Y-9632857D02*
X26519523Y-9680476D01*
X26519523Y-9680476D02*
X26519523Y-9751905D01*
X26519523Y-9751905D02*
X26543332Y-9799524D01*
X26543332Y-9799524D02*
X26567142Y-9823333D01*
X26567142Y-9823333D02*
X26614761Y-9847143D01*
X26614761Y-9847143D02*
X26805237Y-9847143D01*
X26209999Y-9585238D02*
X26162380Y-9585238D01*
X26162380Y-9585238D02*
X26114761Y-9609048D01*
X26114761Y-9609048D02*
X26090951Y-9632857D01*
X26090951Y-9632857D02*
X26067142Y-9680476D01*
X26067142Y-9680476D02*
X26043332Y-9775714D01*
X26043332Y-9775714D02*
X26043332Y-9894762D01*
X26043332Y-9894762D02*
X26067142Y-9990000D01*
X26067142Y-9990000D02*
X26090951Y-10037619D01*
X26090951Y-10037619D02*
X26114761Y-10061429D01*
X26114761Y-10061429D02*
X26162380Y-10085238D01*
X26162380Y-10085238D02*
X26209999Y-10085238D01*
X26209999Y-10085238D02*
X26257618Y-10061429D01*
X26257618Y-10061429D02*
X26281427Y-10037619D01*
X26281427Y-10037619D02*
X26305237Y-9990000D01*
X26305237Y-9990000D02*
X26329046Y-9894762D01*
X26329046Y-9894762D02*
X26329046Y-9775714D01*
X26329046Y-9775714D02*
X26305237Y-9680476D01*
X26305237Y-9680476D02*
X26281427Y-9632857D01*
X26281427Y-9632857D02*
X26257618Y-9609048D01*
X26257618Y-9609048D02*
X26209999Y-9585238D01*
X25733809Y-9585238D02*
X25686190Y-9585238D01*
X25686190Y-9585238D02*
X25638571Y-9609048D01*
X25638571Y-9609048D02*
X25614761Y-9632857D01*
X25614761Y-9632857D02*
X25590952Y-9680476D01*
X25590952Y-9680476D02*
X25567142Y-9775714D01*
X25567142Y-9775714D02*
X25567142Y-9894762D01*
X25567142Y-9894762D02*
X25590952Y-9990000D01*
X25590952Y-9990000D02*
X25614761Y-10037619D01*
X25614761Y-10037619D02*
X25638571Y-10061429D01*
X25638571Y-10061429D02*
X25686190Y-10085238D01*
X25686190Y-10085238D02*
X25733809Y-10085238D01*
X25733809Y-10085238D02*
X25781428Y-10061429D01*
X25781428Y-10061429D02*
X25805237Y-10037619D01*
X25805237Y-10037619D02*
X25829047Y-9990000D01*
X25829047Y-9990000D02*
X25852856Y-9894762D01*
X25852856Y-9894762D02*
X25852856Y-9775714D01*
X25852856Y-9775714D02*
X25829047Y-9680476D01*
X25829047Y-9680476D02*
X25805237Y-9632857D01*
X25805237Y-9632857D02*
X25781428Y-9609048D01*
X25781428Y-9609048D02*
X25733809Y-9585238D01*
X25376666Y-9632857D02*
X25352857Y-9609048D01*
X25352857Y-9609048D02*
X25305238Y-9585238D01*
X25305238Y-9585238D02*
X25186190Y-9585238D01*
X25186190Y-9585238D02*
X25138571Y-9609048D01*
X25138571Y-9609048D02*
X25114762Y-9632857D01*
X25114762Y-9632857D02*
X25090952Y-9680476D01*
X25090952Y-9680476D02*
X25090952Y-9728095D01*
X25090952Y-9728095D02*
X25114762Y-9799524D01*
X25114762Y-9799524D02*
X25400476Y-10085238D01*
X25400476Y-10085238D02*
X25090952Y-10085238D01*
X8663237Y-8907238D02*
X8663237Y-8407238D01*
X8377523Y-8907238D02*
X8591808Y-8621524D01*
X8377523Y-8407238D02*
X8663237Y-8692952D01*
X8163237Y-8907238D02*
X8163237Y-8407238D01*
X8163237Y-8407238D02*
X7972761Y-8407238D01*
X7972761Y-8407238D02*
X7925142Y-8431048D01*
X7925142Y-8431048D02*
X7901332Y-8454857D01*
X7901332Y-8454857D02*
X7877523Y-8502476D01*
X7877523Y-8502476D02*
X7877523Y-8573905D01*
X7877523Y-8573905D02*
X7901332Y-8621524D01*
X7901332Y-8621524D02*
X7925142Y-8645333D01*
X7925142Y-8645333D02*
X7972761Y-8669143D01*
X7972761Y-8669143D02*
X8163237Y-8669143D01*
X7567999Y-8407238D02*
X7520380Y-8407238D01*
X7520380Y-8407238D02*
X7472761Y-8431048D01*
X7472761Y-8431048D02*
X7448951Y-8454857D01*
X7448951Y-8454857D02*
X7425142Y-8502476D01*
X7425142Y-8502476D02*
X7401332Y-8597714D01*
X7401332Y-8597714D02*
X7401332Y-8716762D01*
X7401332Y-8716762D02*
X7425142Y-8812000D01*
X7425142Y-8812000D02*
X7448951Y-8859619D01*
X7448951Y-8859619D02*
X7472761Y-8883429D01*
X7472761Y-8883429D02*
X7520380Y-8907238D01*
X7520380Y-8907238D02*
X7567999Y-8907238D01*
X7567999Y-8907238D02*
X7615618Y-8883429D01*
X7615618Y-8883429D02*
X7639427Y-8859619D01*
X7639427Y-8859619D02*
X7663237Y-8812000D01*
X7663237Y-8812000D02*
X7687046Y-8716762D01*
X7687046Y-8716762D02*
X7687046Y-8597714D01*
X7687046Y-8597714D02*
X7663237Y-8502476D01*
X7663237Y-8502476D02*
X7639427Y-8454857D01*
X7639427Y-8454857D02*
X7615618Y-8431048D01*
X7615618Y-8431048D02*
X7567999Y-8407238D01*
X6925142Y-8907238D02*
X7210856Y-8907238D01*
X7067999Y-8907238D02*
X7067999Y-8407238D01*
X7067999Y-8407238D02*
X7115618Y-8478667D01*
X7115618Y-8478667D02*
X7163237Y-8526286D01*
X7163237Y-8526286D02*
X7210856Y-8550095D01*
X6615619Y-8407238D02*
X6568000Y-8407238D01*
X6568000Y-8407238D02*
X6520381Y-8431048D01*
X6520381Y-8431048D02*
X6496571Y-8454857D01*
X6496571Y-8454857D02*
X6472762Y-8502476D01*
X6472762Y-8502476D02*
X6448952Y-8597714D01*
X6448952Y-8597714D02*
X6448952Y-8716762D01*
X6448952Y-8716762D02*
X6472762Y-8812000D01*
X6472762Y-8812000D02*
X6496571Y-8859619D01*
X6496571Y-8859619D02*
X6520381Y-8883429D01*
X6520381Y-8883429D02*
X6568000Y-8907238D01*
X6568000Y-8907238D02*
X6615619Y-8907238D01*
X6615619Y-8907238D02*
X6663238Y-8883429D01*
X6663238Y-8883429D02*
X6687047Y-8859619D01*
X6687047Y-8859619D02*
X6710857Y-8812000D01*
X6710857Y-8812000D02*
X6734666Y-8716762D01*
X6734666Y-8716762D02*
X6734666Y-8597714D01*
X6734666Y-8597714D02*
X6710857Y-8502476D01*
X6710857Y-8502476D02*
X6687047Y-8454857D01*
X6687047Y-8454857D02*
X6663238Y-8431048D01*
X6663238Y-8431048D02*
X6615619Y-8407238D01*
X18576237Y-21819238D02*
X18576237Y-21319238D01*
X18290523Y-21819238D02*
X18504808Y-21533524D01*
X18290523Y-21319238D02*
X18576237Y-21604952D01*
X18076237Y-21819238D02*
X18076237Y-21319238D01*
X18076237Y-21319238D02*
X17885761Y-21319238D01*
X17885761Y-21319238D02*
X17838142Y-21343048D01*
X17838142Y-21343048D02*
X17814332Y-21366857D01*
X17814332Y-21366857D02*
X17790523Y-21414476D01*
X17790523Y-21414476D02*
X17790523Y-21485905D01*
X17790523Y-21485905D02*
X17814332Y-21533524D01*
X17814332Y-21533524D02*
X17838142Y-21557333D01*
X17838142Y-21557333D02*
X17885761Y-21581143D01*
X17885761Y-21581143D02*
X18076237Y-21581143D01*
X17480999Y-21319238D02*
X17433380Y-21319238D01*
X17433380Y-21319238D02*
X17385761Y-21343048D01*
X17385761Y-21343048D02*
X17361951Y-21366857D01*
X17361951Y-21366857D02*
X17338142Y-21414476D01*
X17338142Y-21414476D02*
X17314332Y-21509714D01*
X17314332Y-21509714D02*
X17314332Y-21628762D01*
X17314332Y-21628762D02*
X17338142Y-21724000D01*
X17338142Y-21724000D02*
X17361951Y-21771619D01*
X17361951Y-21771619D02*
X17385761Y-21795429D01*
X17385761Y-21795429D02*
X17433380Y-21819238D01*
X17433380Y-21819238D02*
X17480999Y-21819238D01*
X17480999Y-21819238D02*
X17528618Y-21795429D01*
X17528618Y-21795429D02*
X17552427Y-21771619D01*
X17552427Y-21771619D02*
X17576237Y-21724000D01*
X17576237Y-21724000D02*
X17600046Y-21628762D01*
X17600046Y-21628762D02*
X17600046Y-21509714D01*
X17600046Y-21509714D02*
X17576237Y-21414476D01*
X17576237Y-21414476D02*
X17552427Y-21366857D01*
X17552427Y-21366857D02*
X17528618Y-21343048D01*
X17528618Y-21343048D02*
X17480999Y-21319238D01*
X17147666Y-21319238D02*
X16838142Y-21319238D01*
X16838142Y-21319238D02*
X17004809Y-21509714D01*
X17004809Y-21509714D02*
X16933380Y-21509714D01*
X16933380Y-21509714D02*
X16885761Y-21533524D01*
X16885761Y-21533524D02*
X16861952Y-21557333D01*
X16861952Y-21557333D02*
X16838142Y-21604952D01*
X16838142Y-21604952D02*
X16838142Y-21724000D01*
X16838142Y-21724000D02*
X16861952Y-21771619D01*
X16861952Y-21771619D02*
X16885761Y-21795429D01*
X16885761Y-21795429D02*
X16933380Y-21819238D01*
X16933380Y-21819238D02*
X17076237Y-21819238D01*
X17076237Y-21819238D02*
X17123856Y-21795429D01*
X17123856Y-21795429D02*
X17147666Y-21771619D01*
X16528619Y-21319238D02*
X16481000Y-21319238D01*
X16481000Y-21319238D02*
X16433381Y-21343048D01*
X16433381Y-21343048D02*
X16409571Y-21366857D01*
X16409571Y-21366857D02*
X16385762Y-21414476D01*
X16385762Y-21414476D02*
X16361952Y-21509714D01*
X16361952Y-21509714D02*
X16361952Y-21628762D01*
X16361952Y-21628762D02*
X16385762Y-21724000D01*
X16385762Y-21724000D02*
X16409571Y-21771619D01*
X16409571Y-21771619D02*
X16433381Y-21795429D01*
X16433381Y-21795429D02*
X16481000Y-21819238D01*
X16481000Y-21819238D02*
X16528619Y-21819238D01*
X16528619Y-21819238D02*
X16576238Y-21795429D01*
X16576238Y-21795429D02*
X16600047Y-21771619D01*
X16600047Y-21771619D02*
X16623857Y-21724000D01*
X16623857Y-21724000D02*
X16647666Y-21628762D01*
X16647666Y-21628762D02*
X16647666Y-21509714D01*
X16647666Y-21509714D02*
X16623857Y-21414476D01*
X16623857Y-21414476D02*
X16600047Y-21366857D01*
X16600047Y-21366857D02*
X16576238Y-21343048D01*
X16576238Y-21343048D02*
X16528619Y-21319238D01*
X23695237Y-15474238D02*
X23695237Y-14974238D01*
X23409523Y-15474238D02*
X23623808Y-15188524D01*
X23409523Y-14974238D02*
X23695237Y-15259952D01*
X23195237Y-15474238D02*
X23195237Y-14974238D01*
X23195237Y-14974238D02*
X23004761Y-14974238D01*
X23004761Y-14974238D02*
X22957142Y-14998048D01*
X22957142Y-14998048D02*
X22933332Y-15021857D01*
X22933332Y-15021857D02*
X22909523Y-15069476D01*
X22909523Y-15069476D02*
X22909523Y-15140905D01*
X22909523Y-15140905D02*
X22933332Y-15188524D01*
X22933332Y-15188524D02*
X22957142Y-15212333D01*
X22957142Y-15212333D02*
X23004761Y-15236143D01*
X23004761Y-15236143D02*
X23195237Y-15236143D01*
X22599999Y-14974238D02*
X22552380Y-14974238D01*
X22552380Y-14974238D02*
X22504761Y-14998048D01*
X22504761Y-14998048D02*
X22480951Y-15021857D01*
X22480951Y-15021857D02*
X22457142Y-15069476D01*
X22457142Y-15069476D02*
X22433332Y-15164714D01*
X22433332Y-15164714D02*
X22433332Y-15283762D01*
X22433332Y-15283762D02*
X22457142Y-15379000D01*
X22457142Y-15379000D02*
X22480951Y-15426619D01*
X22480951Y-15426619D02*
X22504761Y-15450429D01*
X22504761Y-15450429D02*
X22552380Y-15474238D01*
X22552380Y-15474238D02*
X22599999Y-15474238D01*
X22599999Y-15474238D02*
X22647618Y-15450429D01*
X22647618Y-15450429D02*
X22671427Y-15426619D01*
X22671427Y-15426619D02*
X22695237Y-15379000D01*
X22695237Y-15379000D02*
X22719046Y-15283762D01*
X22719046Y-15283762D02*
X22719046Y-15164714D01*
X22719046Y-15164714D02*
X22695237Y-15069476D01*
X22695237Y-15069476D02*
X22671427Y-15021857D01*
X22671427Y-15021857D02*
X22647618Y-14998048D01*
X22647618Y-14998048D02*
X22599999Y-14974238D01*
X22004761Y-15140905D02*
X22004761Y-15474238D01*
X22123809Y-14950429D02*
X22242856Y-15307571D01*
X22242856Y-15307571D02*
X21933333Y-15307571D01*
X21480952Y-15474238D02*
X21766666Y-15474238D01*
X21623809Y-15474238D02*
X21623809Y-14974238D01*
X21623809Y-14974238D02*
X21671428Y-15045667D01*
X21671428Y-15045667D02*
X21719047Y-15093286D01*
X21719047Y-15093286D02*
X21766666Y-15117095D01*
X6508237Y-14374238D02*
X6508237Y-13874238D01*
X6222523Y-14374238D02*
X6436808Y-14088524D01*
X6222523Y-13874238D02*
X6508237Y-14159952D01*
X6008237Y-14374238D02*
X6008237Y-13874238D01*
X6008237Y-13874238D02*
X5817761Y-13874238D01*
X5817761Y-13874238D02*
X5770142Y-13898048D01*
X5770142Y-13898048D02*
X5746332Y-13921857D01*
X5746332Y-13921857D02*
X5722523Y-13969476D01*
X5722523Y-13969476D02*
X5722523Y-14040905D01*
X5722523Y-14040905D02*
X5746332Y-14088524D01*
X5746332Y-14088524D02*
X5770142Y-14112333D01*
X5770142Y-14112333D02*
X5817761Y-14136143D01*
X5817761Y-14136143D02*
X6008237Y-14136143D01*
X5412999Y-13874238D02*
X5365380Y-13874238D01*
X5365380Y-13874238D02*
X5317761Y-13898048D01*
X5317761Y-13898048D02*
X5293951Y-13921857D01*
X5293951Y-13921857D02*
X5270142Y-13969476D01*
X5270142Y-13969476D02*
X5246332Y-14064714D01*
X5246332Y-14064714D02*
X5246332Y-14183762D01*
X5246332Y-14183762D02*
X5270142Y-14279000D01*
X5270142Y-14279000D02*
X5293951Y-14326619D01*
X5293951Y-14326619D02*
X5317761Y-14350429D01*
X5317761Y-14350429D02*
X5365380Y-14374238D01*
X5365380Y-14374238D02*
X5412999Y-14374238D01*
X5412999Y-14374238D02*
X5460618Y-14350429D01*
X5460618Y-14350429D02*
X5484427Y-14326619D01*
X5484427Y-14326619D02*
X5508237Y-14279000D01*
X5508237Y-14279000D02*
X5532046Y-14183762D01*
X5532046Y-14183762D02*
X5532046Y-14064714D01*
X5532046Y-14064714D02*
X5508237Y-13969476D01*
X5508237Y-13969476D02*
X5484427Y-13921857D01*
X5484427Y-13921857D02*
X5460618Y-13898048D01*
X5460618Y-13898048D02*
X5412999Y-13874238D01*
X4770142Y-14374238D02*
X5055856Y-14374238D01*
X4912999Y-14374238D02*
X4912999Y-13874238D01*
X4912999Y-13874238D02*
X4960618Y-13945667D01*
X4960618Y-13945667D02*
X5008237Y-13993286D01*
X5008237Y-13993286D02*
X5055856Y-14017095D01*
X4603476Y-13874238D02*
X4270143Y-13874238D01*
X4270143Y-13874238D02*
X4484428Y-14374238D01*
X23125237Y-20939238D02*
X23125237Y-20439238D01*
X22839523Y-20939238D02*
X23053808Y-20653524D01*
X22839523Y-20439238D02*
X23125237Y-20724952D01*
X22625237Y-20939238D02*
X22625237Y-20439238D01*
X22625237Y-20439238D02*
X22434761Y-20439238D01*
X22434761Y-20439238D02*
X22387142Y-20463048D01*
X22387142Y-20463048D02*
X22363332Y-20486857D01*
X22363332Y-20486857D02*
X22339523Y-20534476D01*
X22339523Y-20534476D02*
X22339523Y-20605905D01*
X22339523Y-20605905D02*
X22363332Y-20653524D01*
X22363332Y-20653524D02*
X22387142Y-20677333D01*
X22387142Y-20677333D02*
X22434761Y-20701143D01*
X22434761Y-20701143D02*
X22625237Y-20701143D01*
X22029999Y-20439238D02*
X21982380Y-20439238D01*
X21982380Y-20439238D02*
X21934761Y-20463048D01*
X21934761Y-20463048D02*
X21910951Y-20486857D01*
X21910951Y-20486857D02*
X21887142Y-20534476D01*
X21887142Y-20534476D02*
X21863332Y-20629714D01*
X21863332Y-20629714D02*
X21863332Y-20748762D01*
X21863332Y-20748762D02*
X21887142Y-20844000D01*
X21887142Y-20844000D02*
X21910951Y-20891619D01*
X21910951Y-20891619D02*
X21934761Y-20915429D01*
X21934761Y-20915429D02*
X21982380Y-20939238D01*
X21982380Y-20939238D02*
X22029999Y-20939238D01*
X22029999Y-20939238D02*
X22077618Y-20915429D01*
X22077618Y-20915429D02*
X22101427Y-20891619D01*
X22101427Y-20891619D02*
X22125237Y-20844000D01*
X22125237Y-20844000D02*
X22149046Y-20748762D01*
X22149046Y-20748762D02*
X22149046Y-20629714D01*
X22149046Y-20629714D02*
X22125237Y-20534476D01*
X22125237Y-20534476D02*
X22101427Y-20486857D01*
X22101427Y-20486857D02*
X22077618Y-20463048D01*
X22077618Y-20463048D02*
X22029999Y-20439238D01*
X21696666Y-20439238D02*
X21387142Y-20439238D01*
X21387142Y-20439238D02*
X21553809Y-20629714D01*
X21553809Y-20629714D02*
X21482380Y-20629714D01*
X21482380Y-20629714D02*
X21434761Y-20653524D01*
X21434761Y-20653524D02*
X21410952Y-20677333D01*
X21410952Y-20677333D02*
X21387142Y-20724952D01*
X21387142Y-20724952D02*
X21387142Y-20844000D01*
X21387142Y-20844000D02*
X21410952Y-20891619D01*
X21410952Y-20891619D02*
X21434761Y-20915429D01*
X21434761Y-20915429D02*
X21482380Y-20939238D01*
X21482380Y-20939238D02*
X21625237Y-20939238D01*
X21625237Y-20939238D02*
X21672856Y-20915429D01*
X21672856Y-20915429D02*
X21696666Y-20891619D01*
X20958571Y-20605905D02*
X20958571Y-20939238D01*
X21077619Y-20415429D02*
X21196666Y-20772571D01*
X21196666Y-20772571D02*
X20887143Y-20772571D01*
X24592237Y-16963238D02*
X24592237Y-16463238D01*
X24306523Y-16963238D02*
X24520808Y-16677524D01*
X24306523Y-16463238D02*
X24592237Y-16748952D01*
X24092237Y-16963238D02*
X24092237Y-16463238D01*
X24092237Y-16463238D02*
X23901761Y-16463238D01*
X23901761Y-16463238D02*
X23854142Y-16487048D01*
X23854142Y-16487048D02*
X23830332Y-16510857D01*
X23830332Y-16510857D02*
X23806523Y-16558476D01*
X23806523Y-16558476D02*
X23806523Y-16629905D01*
X23806523Y-16629905D02*
X23830332Y-16677524D01*
X23830332Y-16677524D02*
X23854142Y-16701333D01*
X23854142Y-16701333D02*
X23901761Y-16725143D01*
X23901761Y-16725143D02*
X24092237Y-16725143D01*
X23496999Y-16463238D02*
X23449380Y-16463238D01*
X23449380Y-16463238D02*
X23401761Y-16487048D01*
X23401761Y-16487048D02*
X23377951Y-16510857D01*
X23377951Y-16510857D02*
X23354142Y-16558476D01*
X23354142Y-16558476D02*
X23330332Y-16653714D01*
X23330332Y-16653714D02*
X23330332Y-16772762D01*
X23330332Y-16772762D02*
X23354142Y-16868000D01*
X23354142Y-16868000D02*
X23377951Y-16915619D01*
X23377951Y-16915619D02*
X23401761Y-16939429D01*
X23401761Y-16939429D02*
X23449380Y-16963238D01*
X23449380Y-16963238D02*
X23496999Y-16963238D01*
X23496999Y-16963238D02*
X23544618Y-16939429D01*
X23544618Y-16939429D02*
X23568427Y-16915619D01*
X23568427Y-16915619D02*
X23592237Y-16868000D01*
X23592237Y-16868000D02*
X23616046Y-16772762D01*
X23616046Y-16772762D02*
X23616046Y-16653714D01*
X23616046Y-16653714D02*
X23592237Y-16558476D01*
X23592237Y-16558476D02*
X23568427Y-16510857D01*
X23568427Y-16510857D02*
X23544618Y-16487048D01*
X23544618Y-16487048D02*
X23496999Y-16463238D01*
X22901761Y-16629905D02*
X22901761Y-16963238D01*
X23020809Y-16439429D02*
X23139856Y-16796571D01*
X23139856Y-16796571D02*
X22830333Y-16796571D01*
X22544619Y-16463238D02*
X22497000Y-16463238D01*
X22497000Y-16463238D02*
X22449381Y-16487048D01*
X22449381Y-16487048D02*
X22425571Y-16510857D01*
X22425571Y-16510857D02*
X22401762Y-16558476D01*
X22401762Y-16558476D02*
X22377952Y-16653714D01*
X22377952Y-16653714D02*
X22377952Y-16772762D01*
X22377952Y-16772762D02*
X22401762Y-16868000D01*
X22401762Y-16868000D02*
X22425571Y-16915619D01*
X22425571Y-16915619D02*
X22449381Y-16939429D01*
X22449381Y-16939429D02*
X22497000Y-16963238D01*
X22497000Y-16963238D02*
X22544619Y-16963238D01*
X22544619Y-16963238D02*
X22592238Y-16939429D01*
X22592238Y-16939429D02*
X22616047Y-16915619D01*
X22616047Y-16915619D02*
X22639857Y-16868000D01*
X22639857Y-16868000D02*
X22663666Y-16772762D01*
X22663666Y-16772762D02*
X22663666Y-16653714D01*
X22663666Y-16653714D02*
X22639857Y-16558476D01*
X22639857Y-16558476D02*
X22616047Y-16510857D01*
X22616047Y-16510857D02*
X22592238Y-16487048D01*
X22592238Y-16487048D02*
X22544619Y-16463238D01*
X13114237Y-21805238D02*
X13114237Y-21305238D01*
X12828523Y-21805238D02*
X13042808Y-21519524D01*
X12828523Y-21305238D02*
X13114237Y-21590952D01*
X12614237Y-21805238D02*
X12614237Y-21305238D01*
X12614237Y-21305238D02*
X12423761Y-21305238D01*
X12423761Y-21305238D02*
X12376142Y-21329048D01*
X12376142Y-21329048D02*
X12352332Y-21352857D01*
X12352332Y-21352857D02*
X12328523Y-21400476D01*
X12328523Y-21400476D02*
X12328523Y-21471905D01*
X12328523Y-21471905D02*
X12352332Y-21519524D01*
X12352332Y-21519524D02*
X12376142Y-21543333D01*
X12376142Y-21543333D02*
X12423761Y-21567143D01*
X12423761Y-21567143D02*
X12614237Y-21567143D01*
X12018999Y-21305238D02*
X11971380Y-21305238D01*
X11971380Y-21305238D02*
X11923761Y-21329048D01*
X11923761Y-21329048D02*
X11899951Y-21352857D01*
X11899951Y-21352857D02*
X11876142Y-21400476D01*
X11876142Y-21400476D02*
X11852332Y-21495714D01*
X11852332Y-21495714D02*
X11852332Y-21614762D01*
X11852332Y-21614762D02*
X11876142Y-21710000D01*
X11876142Y-21710000D02*
X11899951Y-21757619D01*
X11899951Y-21757619D02*
X11923761Y-21781429D01*
X11923761Y-21781429D02*
X11971380Y-21805238D01*
X11971380Y-21805238D02*
X12018999Y-21805238D01*
X12018999Y-21805238D02*
X12066618Y-21781429D01*
X12066618Y-21781429D02*
X12090427Y-21757619D01*
X12090427Y-21757619D02*
X12114237Y-21710000D01*
X12114237Y-21710000D02*
X12138046Y-21614762D01*
X12138046Y-21614762D02*
X12138046Y-21495714D01*
X12138046Y-21495714D02*
X12114237Y-21400476D01*
X12114237Y-21400476D02*
X12090427Y-21352857D01*
X12090427Y-21352857D02*
X12066618Y-21329048D01*
X12066618Y-21329048D02*
X12018999Y-21305238D01*
X11661856Y-21352857D02*
X11638047Y-21329048D01*
X11638047Y-21329048D02*
X11590428Y-21305238D01*
X11590428Y-21305238D02*
X11471380Y-21305238D01*
X11471380Y-21305238D02*
X11423761Y-21329048D01*
X11423761Y-21329048D02*
X11399952Y-21352857D01*
X11399952Y-21352857D02*
X11376142Y-21400476D01*
X11376142Y-21400476D02*
X11376142Y-21448095D01*
X11376142Y-21448095D02*
X11399952Y-21519524D01*
X11399952Y-21519524D02*
X11685666Y-21805238D01*
X11685666Y-21805238D02*
X11376142Y-21805238D01*
X10947571Y-21471905D02*
X10947571Y-21805238D01*
X11066619Y-21281429D02*
X11185666Y-21638571D01*
X11185666Y-21638571D02*
X10876143Y-21638571D01*
X23860237Y-19673238D02*
X23860237Y-19173238D01*
X23574523Y-19673238D02*
X23788808Y-19387524D01*
X23574523Y-19173238D02*
X23860237Y-19458952D01*
X23360237Y-19673238D02*
X23360237Y-19173238D01*
X23360237Y-19173238D02*
X23169761Y-19173238D01*
X23169761Y-19173238D02*
X23122142Y-19197048D01*
X23122142Y-19197048D02*
X23098332Y-19220857D01*
X23098332Y-19220857D02*
X23074523Y-19268476D01*
X23074523Y-19268476D02*
X23074523Y-19339905D01*
X23074523Y-19339905D02*
X23098332Y-19387524D01*
X23098332Y-19387524D02*
X23122142Y-19411333D01*
X23122142Y-19411333D02*
X23169761Y-19435143D01*
X23169761Y-19435143D02*
X23360237Y-19435143D01*
X22764999Y-19173238D02*
X22717380Y-19173238D01*
X22717380Y-19173238D02*
X22669761Y-19197048D01*
X22669761Y-19197048D02*
X22645951Y-19220857D01*
X22645951Y-19220857D02*
X22622142Y-19268476D01*
X22622142Y-19268476D02*
X22598332Y-19363714D01*
X22598332Y-19363714D02*
X22598332Y-19482762D01*
X22598332Y-19482762D02*
X22622142Y-19578000D01*
X22622142Y-19578000D02*
X22645951Y-19625619D01*
X22645951Y-19625619D02*
X22669761Y-19649429D01*
X22669761Y-19649429D02*
X22717380Y-19673238D01*
X22717380Y-19673238D02*
X22764999Y-19673238D01*
X22764999Y-19673238D02*
X22812618Y-19649429D01*
X22812618Y-19649429D02*
X22836427Y-19625619D01*
X22836427Y-19625619D02*
X22860237Y-19578000D01*
X22860237Y-19578000D02*
X22884046Y-19482762D01*
X22884046Y-19482762D02*
X22884046Y-19363714D01*
X22884046Y-19363714D02*
X22860237Y-19268476D01*
X22860237Y-19268476D02*
X22836427Y-19220857D01*
X22836427Y-19220857D02*
X22812618Y-19197048D01*
X22812618Y-19197048D02*
X22764999Y-19173238D01*
X22431666Y-19173238D02*
X22122142Y-19173238D01*
X22122142Y-19173238D02*
X22288809Y-19363714D01*
X22288809Y-19363714D02*
X22217380Y-19363714D01*
X22217380Y-19363714D02*
X22169761Y-19387524D01*
X22169761Y-19387524D02*
X22145952Y-19411333D01*
X22145952Y-19411333D02*
X22122142Y-19458952D01*
X22122142Y-19458952D02*
X22122142Y-19578000D01*
X22122142Y-19578000D02*
X22145952Y-19625619D01*
X22145952Y-19625619D02*
X22169761Y-19649429D01*
X22169761Y-19649429D02*
X22217380Y-19673238D01*
X22217380Y-19673238D02*
X22360237Y-19673238D01*
X22360237Y-19673238D02*
X22407856Y-19649429D01*
X22407856Y-19649429D02*
X22431666Y-19625619D01*
X21693571Y-19173238D02*
X21788809Y-19173238D01*
X21788809Y-19173238D02*
X21836428Y-19197048D01*
X21836428Y-19197048D02*
X21860238Y-19220857D01*
X21860238Y-19220857D02*
X21907857Y-19292286D01*
X21907857Y-19292286D02*
X21931666Y-19387524D01*
X21931666Y-19387524D02*
X21931666Y-19578000D01*
X21931666Y-19578000D02*
X21907857Y-19625619D01*
X21907857Y-19625619D02*
X21884047Y-19649429D01*
X21884047Y-19649429D02*
X21836428Y-19673238D01*
X21836428Y-19673238D02*
X21741190Y-19673238D01*
X21741190Y-19673238D02*
X21693571Y-19649429D01*
X21693571Y-19649429D02*
X21669762Y-19625619D01*
X21669762Y-19625619D02*
X21645952Y-19578000D01*
X21645952Y-19578000D02*
X21645952Y-19458952D01*
X21645952Y-19458952D02*
X21669762Y-19411333D01*
X21669762Y-19411333D02*
X21693571Y-19387524D01*
X21693571Y-19387524D02*
X21741190Y-19363714D01*
X21741190Y-19363714D02*
X21836428Y-19363714D01*
X21836428Y-19363714D02*
X21884047Y-19387524D01*
X21884047Y-19387524D02*
X21907857Y-19411333D01*
X21907857Y-19411333D02*
X21931666Y-19458952D01*
X6521237Y-13203238D02*
X6521237Y-12703238D01*
X6235523Y-13203238D02*
X6449808Y-12917524D01*
X6235523Y-12703238D02*
X6521237Y-12988952D01*
X6021237Y-13203238D02*
X6021237Y-12703238D01*
X6021237Y-12703238D02*
X5830761Y-12703238D01*
X5830761Y-12703238D02*
X5783142Y-12727048D01*
X5783142Y-12727048D02*
X5759332Y-12750857D01*
X5759332Y-12750857D02*
X5735523Y-12798476D01*
X5735523Y-12798476D02*
X5735523Y-12869905D01*
X5735523Y-12869905D02*
X5759332Y-12917524D01*
X5759332Y-12917524D02*
X5783142Y-12941333D01*
X5783142Y-12941333D02*
X5830761Y-12965143D01*
X5830761Y-12965143D02*
X6021237Y-12965143D01*
X5425999Y-12703238D02*
X5378380Y-12703238D01*
X5378380Y-12703238D02*
X5330761Y-12727048D01*
X5330761Y-12727048D02*
X5306951Y-12750857D01*
X5306951Y-12750857D02*
X5283142Y-12798476D01*
X5283142Y-12798476D02*
X5259332Y-12893714D01*
X5259332Y-12893714D02*
X5259332Y-13012762D01*
X5259332Y-13012762D02*
X5283142Y-13108000D01*
X5283142Y-13108000D02*
X5306951Y-13155619D01*
X5306951Y-13155619D02*
X5330761Y-13179429D01*
X5330761Y-13179429D02*
X5378380Y-13203238D01*
X5378380Y-13203238D02*
X5425999Y-13203238D01*
X5425999Y-13203238D02*
X5473618Y-13179429D01*
X5473618Y-13179429D02*
X5497427Y-13155619D01*
X5497427Y-13155619D02*
X5521237Y-13108000D01*
X5521237Y-13108000D02*
X5545046Y-13012762D01*
X5545046Y-13012762D02*
X5545046Y-12893714D01*
X5545046Y-12893714D02*
X5521237Y-12798476D01*
X5521237Y-12798476D02*
X5497427Y-12750857D01*
X5497427Y-12750857D02*
X5473618Y-12727048D01*
X5473618Y-12727048D02*
X5425999Y-12703238D01*
X4783142Y-13203238D02*
X5068856Y-13203238D01*
X4925999Y-13203238D02*
X4925999Y-12703238D01*
X4925999Y-12703238D02*
X4973618Y-12774667D01*
X4973618Y-12774667D02*
X5021237Y-12822286D01*
X5021237Y-12822286D02*
X5068856Y-12846095D01*
X4330762Y-12703238D02*
X4568857Y-12703238D01*
X4568857Y-12703238D02*
X4592666Y-12941333D01*
X4592666Y-12941333D02*
X4568857Y-12917524D01*
X4568857Y-12917524D02*
X4521238Y-12893714D01*
X4521238Y-12893714D02*
X4402190Y-12893714D01*
X4402190Y-12893714D02*
X4354571Y-12917524D01*
X4354571Y-12917524D02*
X4330762Y-12941333D01*
X4330762Y-12941333D02*
X4306952Y-12988952D01*
X4306952Y-12988952D02*
X4306952Y-13108000D01*
X4306952Y-13108000D02*
X4330762Y-13155619D01*
X4330762Y-13155619D02*
X4354571Y-13179429D01*
X4354571Y-13179429D02*
X4402190Y-13203238D01*
X4402190Y-13203238D02*
X4521238Y-13203238D01*
X4521238Y-13203238D02*
X4568857Y-13179429D01*
X4568857Y-13179429D02*
X4592666Y-13155619D01*
X11266237Y-6512238D02*
X11266237Y-6012238D01*
X10980523Y-6512238D02*
X11194808Y-6226524D01*
X10980523Y-6012238D02*
X11266237Y-6297952D01*
X10766237Y-6512238D02*
X10766237Y-6012238D01*
X10766237Y-6012238D02*
X10575761Y-6012238D01*
X10575761Y-6012238D02*
X10528142Y-6036048D01*
X10528142Y-6036048D02*
X10504332Y-6059857D01*
X10504332Y-6059857D02*
X10480523Y-6107476D01*
X10480523Y-6107476D02*
X10480523Y-6178905D01*
X10480523Y-6178905D02*
X10504332Y-6226524D01*
X10504332Y-6226524D02*
X10528142Y-6250333D01*
X10528142Y-6250333D02*
X10575761Y-6274143D01*
X10575761Y-6274143D02*
X10766237Y-6274143D01*
X10170999Y-6012238D02*
X10123380Y-6012238D01*
X10123380Y-6012238D02*
X10075761Y-6036048D01*
X10075761Y-6036048D02*
X10051951Y-6059857D01*
X10051951Y-6059857D02*
X10028142Y-6107476D01*
X10028142Y-6107476D02*
X10004332Y-6202714D01*
X10004332Y-6202714D02*
X10004332Y-6321762D01*
X10004332Y-6321762D02*
X10028142Y-6417000D01*
X10028142Y-6417000D02*
X10051951Y-6464619D01*
X10051951Y-6464619D02*
X10075761Y-6488429D01*
X10075761Y-6488429D02*
X10123380Y-6512238D01*
X10123380Y-6512238D02*
X10170999Y-6512238D01*
X10170999Y-6512238D02*
X10218618Y-6488429D01*
X10218618Y-6488429D02*
X10242427Y-6464619D01*
X10242427Y-6464619D02*
X10266237Y-6417000D01*
X10266237Y-6417000D02*
X10290046Y-6321762D01*
X10290046Y-6321762D02*
X10290046Y-6202714D01*
X10290046Y-6202714D02*
X10266237Y-6107476D01*
X10266237Y-6107476D02*
X10242427Y-6059857D01*
X10242427Y-6059857D02*
X10218618Y-6036048D01*
X10218618Y-6036048D02*
X10170999Y-6012238D01*
X9694809Y-6012238D02*
X9647190Y-6012238D01*
X9647190Y-6012238D02*
X9599571Y-6036048D01*
X9599571Y-6036048D02*
X9575761Y-6059857D01*
X9575761Y-6059857D02*
X9551952Y-6107476D01*
X9551952Y-6107476D02*
X9528142Y-6202714D01*
X9528142Y-6202714D02*
X9528142Y-6321762D01*
X9528142Y-6321762D02*
X9551952Y-6417000D01*
X9551952Y-6417000D02*
X9575761Y-6464619D01*
X9575761Y-6464619D02*
X9599571Y-6488429D01*
X9599571Y-6488429D02*
X9647190Y-6512238D01*
X9647190Y-6512238D02*
X9694809Y-6512238D01*
X9694809Y-6512238D02*
X9742428Y-6488429D01*
X9742428Y-6488429D02*
X9766237Y-6464619D01*
X9766237Y-6464619D02*
X9790047Y-6417000D01*
X9790047Y-6417000D02*
X9813856Y-6321762D01*
X9813856Y-6321762D02*
X9813856Y-6202714D01*
X9813856Y-6202714D02*
X9790047Y-6107476D01*
X9790047Y-6107476D02*
X9766237Y-6059857D01*
X9766237Y-6059857D02*
X9742428Y-6036048D01*
X9742428Y-6036048D02*
X9694809Y-6012238D01*
X9361476Y-6012238D02*
X9028143Y-6012238D01*
X9028143Y-6012238D02*
X9242428Y-6512238D01*
X21946237Y-21662238D02*
X21946237Y-21162238D01*
X21660523Y-21662238D02*
X21874808Y-21376524D01*
X21660523Y-21162238D02*
X21946237Y-21447952D01*
X21446237Y-21662238D02*
X21446237Y-21162238D01*
X21446237Y-21162238D02*
X21255761Y-21162238D01*
X21255761Y-21162238D02*
X21208142Y-21186048D01*
X21208142Y-21186048D02*
X21184332Y-21209857D01*
X21184332Y-21209857D02*
X21160523Y-21257476D01*
X21160523Y-21257476D02*
X21160523Y-21328905D01*
X21160523Y-21328905D02*
X21184332Y-21376524D01*
X21184332Y-21376524D02*
X21208142Y-21400333D01*
X21208142Y-21400333D02*
X21255761Y-21424143D01*
X21255761Y-21424143D02*
X21446237Y-21424143D01*
X20850999Y-21162238D02*
X20803380Y-21162238D01*
X20803380Y-21162238D02*
X20755761Y-21186048D01*
X20755761Y-21186048D02*
X20731951Y-21209857D01*
X20731951Y-21209857D02*
X20708142Y-21257476D01*
X20708142Y-21257476D02*
X20684332Y-21352714D01*
X20684332Y-21352714D02*
X20684332Y-21471762D01*
X20684332Y-21471762D02*
X20708142Y-21567000D01*
X20708142Y-21567000D02*
X20731951Y-21614619D01*
X20731951Y-21614619D02*
X20755761Y-21638429D01*
X20755761Y-21638429D02*
X20803380Y-21662238D01*
X20803380Y-21662238D02*
X20850999Y-21662238D01*
X20850999Y-21662238D02*
X20898618Y-21638429D01*
X20898618Y-21638429D02*
X20922427Y-21614619D01*
X20922427Y-21614619D02*
X20946237Y-21567000D01*
X20946237Y-21567000D02*
X20970046Y-21471762D01*
X20970046Y-21471762D02*
X20970046Y-21352714D01*
X20970046Y-21352714D02*
X20946237Y-21257476D01*
X20946237Y-21257476D02*
X20922427Y-21209857D01*
X20922427Y-21209857D02*
X20898618Y-21186048D01*
X20898618Y-21186048D02*
X20850999Y-21162238D01*
X20517666Y-21162238D02*
X20208142Y-21162238D01*
X20208142Y-21162238D02*
X20374809Y-21352714D01*
X20374809Y-21352714D02*
X20303380Y-21352714D01*
X20303380Y-21352714D02*
X20255761Y-21376524D01*
X20255761Y-21376524D02*
X20231952Y-21400333D01*
X20231952Y-21400333D02*
X20208142Y-21447952D01*
X20208142Y-21447952D02*
X20208142Y-21567000D01*
X20208142Y-21567000D02*
X20231952Y-21614619D01*
X20231952Y-21614619D02*
X20255761Y-21638429D01*
X20255761Y-21638429D02*
X20303380Y-21662238D01*
X20303380Y-21662238D02*
X20446237Y-21662238D01*
X20446237Y-21662238D02*
X20493856Y-21638429D01*
X20493856Y-21638429D02*
X20517666Y-21614619D01*
X20041476Y-21162238D02*
X19731952Y-21162238D01*
X19731952Y-21162238D02*
X19898619Y-21352714D01*
X19898619Y-21352714D02*
X19827190Y-21352714D01*
X19827190Y-21352714D02*
X19779571Y-21376524D01*
X19779571Y-21376524D02*
X19755762Y-21400333D01*
X19755762Y-21400333D02*
X19731952Y-21447952D01*
X19731952Y-21447952D02*
X19731952Y-21567000D01*
X19731952Y-21567000D02*
X19755762Y-21614619D01*
X19755762Y-21614619D02*
X19779571Y-21638429D01*
X19779571Y-21638429D02*
X19827190Y-21662238D01*
X19827190Y-21662238D02*
X19970047Y-21662238D01*
X19970047Y-21662238D02*
X20017666Y-21638429D01*
X20017666Y-21638429D02*
X20041476Y-21614619D01*
X8645237Y-10181238D02*
X8645237Y-9681238D01*
X8359523Y-10181238D02*
X8573808Y-9895524D01*
X8359523Y-9681238D02*
X8645237Y-9966952D01*
X8145237Y-10181238D02*
X8145237Y-9681238D01*
X8145237Y-9681238D02*
X7954761Y-9681238D01*
X7954761Y-9681238D02*
X7907142Y-9705048D01*
X7907142Y-9705048D02*
X7883332Y-9728857D01*
X7883332Y-9728857D02*
X7859523Y-9776476D01*
X7859523Y-9776476D02*
X7859523Y-9847905D01*
X7859523Y-9847905D02*
X7883332Y-9895524D01*
X7883332Y-9895524D02*
X7907142Y-9919333D01*
X7907142Y-9919333D02*
X7954761Y-9943143D01*
X7954761Y-9943143D02*
X8145237Y-9943143D01*
X7549999Y-9681238D02*
X7502380Y-9681238D01*
X7502380Y-9681238D02*
X7454761Y-9705048D01*
X7454761Y-9705048D02*
X7430951Y-9728857D01*
X7430951Y-9728857D02*
X7407142Y-9776476D01*
X7407142Y-9776476D02*
X7383332Y-9871714D01*
X7383332Y-9871714D02*
X7383332Y-9990762D01*
X7383332Y-9990762D02*
X7407142Y-10086000D01*
X7407142Y-10086000D02*
X7430951Y-10133619D01*
X7430951Y-10133619D02*
X7454761Y-10157429D01*
X7454761Y-10157429D02*
X7502380Y-10181238D01*
X7502380Y-10181238D02*
X7549999Y-10181238D01*
X7549999Y-10181238D02*
X7597618Y-10157429D01*
X7597618Y-10157429D02*
X7621427Y-10133619D01*
X7621427Y-10133619D02*
X7645237Y-10086000D01*
X7645237Y-10086000D02*
X7669046Y-9990762D01*
X7669046Y-9990762D02*
X7669046Y-9871714D01*
X7669046Y-9871714D02*
X7645237Y-9776476D01*
X7645237Y-9776476D02*
X7621427Y-9728857D01*
X7621427Y-9728857D02*
X7597618Y-9705048D01*
X7597618Y-9705048D02*
X7549999Y-9681238D01*
X6907142Y-10181238D02*
X7192856Y-10181238D01*
X7049999Y-10181238D02*
X7049999Y-9681238D01*
X7049999Y-9681238D02*
X7097618Y-9752667D01*
X7097618Y-9752667D02*
X7145237Y-9800286D01*
X7145237Y-9800286D02*
X7192856Y-9824095D01*
X6430952Y-10181238D02*
X6716666Y-10181238D01*
X6573809Y-10181238D02*
X6573809Y-9681238D01*
X6573809Y-9681238D02*
X6621428Y-9752667D01*
X6621428Y-9752667D02*
X6669047Y-9800286D01*
X6669047Y-9800286D02*
X6716666Y-9824095D01*
X27913237Y-11807238D02*
X27913237Y-11307238D01*
X27627523Y-11807238D02*
X27841808Y-11521524D01*
X27627523Y-11307238D02*
X27913237Y-11592952D01*
X27413237Y-11807238D02*
X27413237Y-11307238D01*
X27413237Y-11307238D02*
X27222761Y-11307238D01*
X27222761Y-11307238D02*
X27175142Y-11331048D01*
X27175142Y-11331048D02*
X27151332Y-11354857D01*
X27151332Y-11354857D02*
X27127523Y-11402476D01*
X27127523Y-11402476D02*
X27127523Y-11473905D01*
X27127523Y-11473905D02*
X27151332Y-11521524D01*
X27151332Y-11521524D02*
X27175142Y-11545333D01*
X27175142Y-11545333D02*
X27222761Y-11569143D01*
X27222761Y-11569143D02*
X27413237Y-11569143D01*
X26817999Y-11307238D02*
X26770380Y-11307238D01*
X26770380Y-11307238D02*
X26722761Y-11331048D01*
X26722761Y-11331048D02*
X26698951Y-11354857D01*
X26698951Y-11354857D02*
X26675142Y-11402476D01*
X26675142Y-11402476D02*
X26651332Y-11497714D01*
X26651332Y-11497714D02*
X26651332Y-11616762D01*
X26651332Y-11616762D02*
X26675142Y-11712000D01*
X26675142Y-11712000D02*
X26698951Y-11759619D01*
X26698951Y-11759619D02*
X26722761Y-11783429D01*
X26722761Y-11783429D02*
X26770380Y-11807238D01*
X26770380Y-11807238D02*
X26817999Y-11807238D01*
X26817999Y-11807238D02*
X26865618Y-11783429D01*
X26865618Y-11783429D02*
X26889427Y-11759619D01*
X26889427Y-11759619D02*
X26913237Y-11712000D01*
X26913237Y-11712000D02*
X26937046Y-11616762D01*
X26937046Y-11616762D02*
X26937046Y-11497714D01*
X26937046Y-11497714D02*
X26913237Y-11402476D01*
X26913237Y-11402476D02*
X26889427Y-11354857D01*
X26889427Y-11354857D02*
X26865618Y-11331048D01*
X26865618Y-11331048D02*
X26817999Y-11307238D01*
X26341809Y-11307238D02*
X26294190Y-11307238D01*
X26294190Y-11307238D02*
X26246571Y-11331048D01*
X26246571Y-11331048D02*
X26222761Y-11354857D01*
X26222761Y-11354857D02*
X26198952Y-11402476D01*
X26198952Y-11402476D02*
X26175142Y-11497714D01*
X26175142Y-11497714D02*
X26175142Y-11616762D01*
X26175142Y-11616762D02*
X26198952Y-11712000D01*
X26198952Y-11712000D02*
X26222761Y-11759619D01*
X26222761Y-11759619D02*
X26246571Y-11783429D01*
X26246571Y-11783429D02*
X26294190Y-11807238D01*
X26294190Y-11807238D02*
X26341809Y-11807238D01*
X26341809Y-11807238D02*
X26389428Y-11783429D01*
X26389428Y-11783429D02*
X26413237Y-11759619D01*
X26413237Y-11759619D02*
X26437047Y-11712000D01*
X26437047Y-11712000D02*
X26460856Y-11616762D01*
X26460856Y-11616762D02*
X26460856Y-11497714D01*
X26460856Y-11497714D02*
X26437047Y-11402476D01*
X26437047Y-11402476D02*
X26413237Y-11354857D01*
X26413237Y-11354857D02*
X26389428Y-11331048D01*
X26389428Y-11331048D02*
X26341809Y-11307238D01*
X25698952Y-11807238D02*
X25984666Y-11807238D01*
X25841809Y-11807238D02*
X25841809Y-11307238D01*
X25841809Y-11307238D02*
X25889428Y-11378667D01*
X25889428Y-11378667D02*
X25937047Y-11426286D01*
X25937047Y-11426286D02*
X25984666Y-11450095D01*
X16081237Y-22393238D02*
X16081237Y-21893238D01*
X15795523Y-22393238D02*
X16009808Y-22107524D01*
X15795523Y-21893238D02*
X16081237Y-22178952D01*
X15581237Y-22393238D02*
X15581237Y-21893238D01*
X15581237Y-21893238D02*
X15390761Y-21893238D01*
X15390761Y-21893238D02*
X15343142Y-21917048D01*
X15343142Y-21917048D02*
X15319332Y-21940857D01*
X15319332Y-21940857D02*
X15295523Y-21988476D01*
X15295523Y-21988476D02*
X15295523Y-22059905D01*
X15295523Y-22059905D02*
X15319332Y-22107524D01*
X15319332Y-22107524D02*
X15343142Y-22131333D01*
X15343142Y-22131333D02*
X15390761Y-22155143D01*
X15390761Y-22155143D02*
X15581237Y-22155143D01*
X14985999Y-21893238D02*
X14938380Y-21893238D01*
X14938380Y-21893238D02*
X14890761Y-21917048D01*
X14890761Y-21917048D02*
X14866951Y-21940857D01*
X14866951Y-21940857D02*
X14843142Y-21988476D01*
X14843142Y-21988476D02*
X14819332Y-22083714D01*
X14819332Y-22083714D02*
X14819332Y-22202762D01*
X14819332Y-22202762D02*
X14843142Y-22298000D01*
X14843142Y-22298000D02*
X14866951Y-22345619D01*
X14866951Y-22345619D02*
X14890761Y-22369429D01*
X14890761Y-22369429D02*
X14938380Y-22393238D01*
X14938380Y-22393238D02*
X14985999Y-22393238D01*
X14985999Y-22393238D02*
X15033618Y-22369429D01*
X15033618Y-22369429D02*
X15057427Y-22345619D01*
X15057427Y-22345619D02*
X15081237Y-22298000D01*
X15081237Y-22298000D02*
X15105046Y-22202762D01*
X15105046Y-22202762D02*
X15105046Y-22083714D01*
X15105046Y-22083714D02*
X15081237Y-21988476D01*
X15081237Y-21988476D02*
X15057427Y-21940857D01*
X15057427Y-21940857D02*
X15033618Y-21917048D01*
X15033618Y-21917048D02*
X14985999Y-21893238D01*
X14628856Y-21940857D02*
X14605047Y-21917048D01*
X14605047Y-21917048D02*
X14557428Y-21893238D01*
X14557428Y-21893238D02*
X14438380Y-21893238D01*
X14438380Y-21893238D02*
X14390761Y-21917048D01*
X14390761Y-21917048D02*
X14366952Y-21940857D01*
X14366952Y-21940857D02*
X14343142Y-21988476D01*
X14343142Y-21988476D02*
X14343142Y-22036095D01*
X14343142Y-22036095D02*
X14366952Y-22107524D01*
X14366952Y-22107524D02*
X14652666Y-22393238D01*
X14652666Y-22393238D02*
X14343142Y-22393238D01*
X14105047Y-22393238D02*
X14009809Y-22393238D01*
X14009809Y-22393238D02*
X13962190Y-22369429D01*
X13962190Y-22369429D02*
X13938381Y-22345619D01*
X13938381Y-22345619D02*
X13890762Y-22274190D01*
X13890762Y-22274190D02*
X13866952Y-22178952D01*
X13866952Y-22178952D02*
X13866952Y-21988476D01*
X13866952Y-21988476D02*
X13890762Y-21940857D01*
X13890762Y-21940857D02*
X13914571Y-21917048D01*
X13914571Y-21917048D02*
X13962190Y-21893238D01*
X13962190Y-21893238D02*
X14057428Y-21893238D01*
X14057428Y-21893238D02*
X14105047Y-21917048D01*
X14105047Y-21917048D02*
X14128857Y-21940857D01*
X14128857Y-21940857D02*
X14152666Y-21988476D01*
X14152666Y-21988476D02*
X14152666Y-22107524D01*
X14152666Y-22107524D02*
X14128857Y-22155143D01*
X14128857Y-22155143D02*
X14105047Y-22178952D01*
X14105047Y-22178952D02*
X14057428Y-22202762D01*
X14057428Y-22202762D02*
X13962190Y-22202762D01*
X13962190Y-22202762D02*
X13914571Y-22178952D01*
X13914571Y-22178952D02*
X13890762Y-22155143D01*
X13890762Y-22155143D02*
X13866952Y-22107524D01*
X24964237Y-18269238D02*
X24964237Y-17769238D01*
X24678523Y-18269238D02*
X24892808Y-17983524D01*
X24678523Y-17769238D02*
X24964237Y-18054952D01*
X24464237Y-18269238D02*
X24464237Y-17769238D01*
X24464237Y-17769238D02*
X24273761Y-17769238D01*
X24273761Y-17769238D02*
X24226142Y-17793048D01*
X24226142Y-17793048D02*
X24202332Y-17816857D01*
X24202332Y-17816857D02*
X24178523Y-17864476D01*
X24178523Y-17864476D02*
X24178523Y-17935905D01*
X24178523Y-17935905D02*
X24202332Y-17983524D01*
X24202332Y-17983524D02*
X24226142Y-18007333D01*
X24226142Y-18007333D02*
X24273761Y-18031143D01*
X24273761Y-18031143D02*
X24464237Y-18031143D01*
X23868999Y-17769238D02*
X23821380Y-17769238D01*
X23821380Y-17769238D02*
X23773761Y-17793048D01*
X23773761Y-17793048D02*
X23749951Y-17816857D01*
X23749951Y-17816857D02*
X23726142Y-17864476D01*
X23726142Y-17864476D02*
X23702332Y-17959714D01*
X23702332Y-17959714D02*
X23702332Y-18078762D01*
X23702332Y-18078762D02*
X23726142Y-18174000D01*
X23726142Y-18174000D02*
X23749951Y-18221619D01*
X23749951Y-18221619D02*
X23773761Y-18245429D01*
X23773761Y-18245429D02*
X23821380Y-18269238D01*
X23821380Y-18269238D02*
X23868999Y-18269238D01*
X23868999Y-18269238D02*
X23916618Y-18245429D01*
X23916618Y-18245429D02*
X23940427Y-18221619D01*
X23940427Y-18221619D02*
X23964237Y-18174000D01*
X23964237Y-18174000D02*
X23988046Y-18078762D01*
X23988046Y-18078762D02*
X23988046Y-17959714D01*
X23988046Y-17959714D02*
X23964237Y-17864476D01*
X23964237Y-17864476D02*
X23940427Y-17816857D01*
X23940427Y-17816857D02*
X23916618Y-17793048D01*
X23916618Y-17793048D02*
X23868999Y-17769238D01*
X23535666Y-17769238D02*
X23226142Y-17769238D01*
X23226142Y-17769238D02*
X23392809Y-17959714D01*
X23392809Y-17959714D02*
X23321380Y-17959714D01*
X23321380Y-17959714D02*
X23273761Y-17983524D01*
X23273761Y-17983524D02*
X23249952Y-18007333D01*
X23249952Y-18007333D02*
X23226142Y-18054952D01*
X23226142Y-18054952D02*
X23226142Y-18174000D01*
X23226142Y-18174000D02*
X23249952Y-18221619D01*
X23249952Y-18221619D02*
X23273761Y-18245429D01*
X23273761Y-18245429D02*
X23321380Y-18269238D01*
X23321380Y-18269238D02*
X23464237Y-18269238D01*
X23464237Y-18269238D02*
X23511856Y-18245429D01*
X23511856Y-18245429D02*
X23535666Y-18221619D01*
X22940428Y-17983524D02*
X22988047Y-17959714D01*
X22988047Y-17959714D02*
X23011857Y-17935905D01*
X23011857Y-17935905D02*
X23035666Y-17888286D01*
X23035666Y-17888286D02*
X23035666Y-17864476D01*
X23035666Y-17864476D02*
X23011857Y-17816857D01*
X23011857Y-17816857D02*
X22988047Y-17793048D01*
X22988047Y-17793048D02*
X22940428Y-17769238D01*
X22940428Y-17769238D02*
X22845190Y-17769238D01*
X22845190Y-17769238D02*
X22797571Y-17793048D01*
X22797571Y-17793048D02*
X22773762Y-17816857D01*
X22773762Y-17816857D02*
X22749952Y-17864476D01*
X22749952Y-17864476D02*
X22749952Y-17888286D01*
X22749952Y-17888286D02*
X22773762Y-17935905D01*
X22773762Y-17935905D02*
X22797571Y-17959714D01*
X22797571Y-17959714D02*
X22845190Y-17983524D01*
X22845190Y-17983524D02*
X22940428Y-17983524D01*
X22940428Y-17983524D02*
X22988047Y-18007333D01*
X22988047Y-18007333D02*
X23011857Y-18031143D01*
X23011857Y-18031143D02*
X23035666Y-18078762D01*
X23035666Y-18078762D02*
X23035666Y-18174000D01*
X23035666Y-18174000D02*
X23011857Y-18221619D01*
X23011857Y-18221619D02*
X22988047Y-18245429D01*
X22988047Y-18245429D02*
X22940428Y-18269238D01*
X22940428Y-18269238D02*
X22845190Y-18269238D01*
X22845190Y-18269238D02*
X22797571Y-18245429D01*
X22797571Y-18245429D02*
X22773762Y-18221619D01*
X22773762Y-18221619D02*
X22749952Y-18174000D01*
X22749952Y-18174000D02*
X22749952Y-18078762D01*
X22749952Y-18078762D02*
X22773762Y-18031143D01*
X22773762Y-18031143D02*
X22797571Y-18007333D01*
X22797571Y-18007333D02*
X22845190Y-17983524D01*
X13740237Y-6081238D02*
X13740237Y-5581238D01*
X13454523Y-6081238D02*
X13668808Y-5795524D01*
X13454523Y-5581238D02*
X13740237Y-5866952D01*
X12954523Y-6033619D02*
X12978332Y-6057429D01*
X12978332Y-6057429D02*
X13049761Y-6081238D01*
X13049761Y-6081238D02*
X13097380Y-6081238D01*
X13097380Y-6081238D02*
X13168808Y-6057429D01*
X13168808Y-6057429D02*
X13216427Y-6009809D01*
X13216427Y-6009809D02*
X13240237Y-5962190D01*
X13240237Y-5962190D02*
X13264046Y-5866952D01*
X13264046Y-5866952D02*
X13264046Y-5795524D01*
X13264046Y-5795524D02*
X13240237Y-5700286D01*
X13240237Y-5700286D02*
X13216427Y-5652667D01*
X13216427Y-5652667D02*
X13168808Y-5605048D01*
X13168808Y-5605048D02*
X13097380Y-5581238D01*
X13097380Y-5581238D02*
X13049761Y-5581238D01*
X13049761Y-5581238D02*
X12978332Y-5605048D01*
X12978332Y-5605048D02*
X12954523Y-5628857D01*
X12644999Y-5581238D02*
X12597380Y-5581238D01*
X12597380Y-5581238D02*
X12549761Y-5605048D01*
X12549761Y-5605048D02*
X12525951Y-5628857D01*
X12525951Y-5628857D02*
X12502142Y-5676476D01*
X12502142Y-5676476D02*
X12478332Y-5771714D01*
X12478332Y-5771714D02*
X12478332Y-5890762D01*
X12478332Y-5890762D02*
X12502142Y-5986000D01*
X12502142Y-5986000D02*
X12525951Y-6033619D01*
X12525951Y-6033619D02*
X12549761Y-6057429D01*
X12549761Y-6057429D02*
X12597380Y-6081238D01*
X12597380Y-6081238D02*
X12644999Y-6081238D01*
X12644999Y-6081238D02*
X12692618Y-6057429D01*
X12692618Y-6057429D02*
X12716427Y-6033619D01*
X12716427Y-6033619D02*
X12740237Y-5986000D01*
X12740237Y-5986000D02*
X12764046Y-5890762D01*
X12764046Y-5890762D02*
X12764046Y-5771714D01*
X12764046Y-5771714D02*
X12740237Y-5676476D01*
X12740237Y-5676476D02*
X12716427Y-5628857D01*
X12716427Y-5628857D02*
X12692618Y-5605048D01*
X12692618Y-5605048D02*
X12644999Y-5581238D01*
X12168809Y-5581238D02*
X12121190Y-5581238D01*
X12121190Y-5581238D02*
X12073571Y-5605048D01*
X12073571Y-5605048D02*
X12049761Y-5628857D01*
X12049761Y-5628857D02*
X12025952Y-5676476D01*
X12025952Y-5676476D02*
X12002142Y-5771714D01*
X12002142Y-5771714D02*
X12002142Y-5890762D01*
X12002142Y-5890762D02*
X12025952Y-5986000D01*
X12025952Y-5986000D02*
X12049761Y-6033619D01*
X12049761Y-6033619D02*
X12073571Y-6057429D01*
X12073571Y-6057429D02*
X12121190Y-6081238D01*
X12121190Y-6081238D02*
X12168809Y-6081238D01*
X12168809Y-6081238D02*
X12216428Y-6057429D01*
X12216428Y-6057429D02*
X12240237Y-6033619D01*
X12240237Y-6033619D02*
X12264047Y-5986000D01*
X12264047Y-5986000D02*
X12287856Y-5890762D01*
X12287856Y-5890762D02*
X12287856Y-5771714D01*
X12287856Y-5771714D02*
X12264047Y-5676476D01*
X12264047Y-5676476D02*
X12240237Y-5628857D01*
X12240237Y-5628857D02*
X12216428Y-5605048D01*
X12216428Y-5605048D02*
X12168809Y-5581238D01*
X11811666Y-5628857D02*
X11787857Y-5605048D01*
X11787857Y-5605048D02*
X11740238Y-5581238D01*
X11740238Y-5581238D02*
X11621190Y-5581238D01*
X11621190Y-5581238D02*
X11573571Y-5605048D01*
X11573571Y-5605048D02*
X11549762Y-5628857D01*
X11549762Y-5628857D02*
X11525952Y-5676476D01*
X11525952Y-5676476D02*
X11525952Y-5724095D01*
X11525952Y-5724095D02*
X11549762Y-5795524D01*
X11549762Y-5795524D02*
X11835476Y-6081238D01*
X11835476Y-6081238D02*
X11525952Y-6081238D01*
X23759237Y-9302238D02*
X23759237Y-8802238D01*
X23473523Y-9302238D02*
X23687808Y-9016524D01*
X23473523Y-8802238D02*
X23759237Y-9087952D01*
X23259237Y-9302238D02*
X23259237Y-8802238D01*
X23259237Y-8802238D02*
X23068761Y-8802238D01*
X23068761Y-8802238D02*
X23021142Y-8826048D01*
X23021142Y-8826048D02*
X22997332Y-8849857D01*
X22997332Y-8849857D02*
X22973523Y-8897476D01*
X22973523Y-8897476D02*
X22973523Y-8968905D01*
X22973523Y-8968905D02*
X22997332Y-9016524D01*
X22997332Y-9016524D02*
X23021142Y-9040333D01*
X23021142Y-9040333D02*
X23068761Y-9064143D01*
X23068761Y-9064143D02*
X23259237Y-9064143D01*
X22663999Y-8802238D02*
X22616380Y-8802238D01*
X22616380Y-8802238D02*
X22568761Y-8826048D01*
X22568761Y-8826048D02*
X22544951Y-8849857D01*
X22544951Y-8849857D02*
X22521142Y-8897476D01*
X22521142Y-8897476D02*
X22497332Y-8992714D01*
X22497332Y-8992714D02*
X22497332Y-9111762D01*
X22497332Y-9111762D02*
X22521142Y-9207000D01*
X22521142Y-9207000D02*
X22544951Y-9254619D01*
X22544951Y-9254619D02*
X22568761Y-9278429D01*
X22568761Y-9278429D02*
X22616380Y-9302238D01*
X22616380Y-9302238D02*
X22663999Y-9302238D01*
X22663999Y-9302238D02*
X22711618Y-9278429D01*
X22711618Y-9278429D02*
X22735427Y-9254619D01*
X22735427Y-9254619D02*
X22759237Y-9207000D01*
X22759237Y-9207000D02*
X22783046Y-9111762D01*
X22783046Y-9111762D02*
X22783046Y-8992714D01*
X22783046Y-8992714D02*
X22759237Y-8897476D01*
X22759237Y-8897476D02*
X22735427Y-8849857D01*
X22735427Y-8849857D02*
X22711618Y-8826048D01*
X22711618Y-8826048D02*
X22663999Y-8802238D01*
X22187809Y-8802238D02*
X22140190Y-8802238D01*
X22140190Y-8802238D02*
X22092571Y-8826048D01*
X22092571Y-8826048D02*
X22068761Y-8849857D01*
X22068761Y-8849857D02*
X22044952Y-8897476D01*
X22044952Y-8897476D02*
X22021142Y-8992714D01*
X22021142Y-8992714D02*
X22021142Y-9111762D01*
X22021142Y-9111762D02*
X22044952Y-9207000D01*
X22044952Y-9207000D02*
X22068761Y-9254619D01*
X22068761Y-9254619D02*
X22092571Y-9278429D01*
X22092571Y-9278429D02*
X22140190Y-9302238D01*
X22140190Y-9302238D02*
X22187809Y-9302238D01*
X22187809Y-9302238D02*
X22235428Y-9278429D01*
X22235428Y-9278429D02*
X22259237Y-9254619D01*
X22259237Y-9254619D02*
X22283047Y-9207000D01*
X22283047Y-9207000D02*
X22306856Y-9111762D01*
X22306856Y-9111762D02*
X22306856Y-8992714D01*
X22306856Y-8992714D02*
X22283047Y-8897476D01*
X22283047Y-8897476D02*
X22259237Y-8849857D01*
X22259237Y-8849857D02*
X22235428Y-8826048D01*
X22235428Y-8826048D02*
X22187809Y-8802238D01*
X21592571Y-8968905D02*
X21592571Y-9302238D01*
X21711619Y-8778429D02*
X21830666Y-9135571D01*
X21830666Y-9135571D02*
X21521143Y-9135571D01*
X23713237Y-14191238D02*
X23713237Y-13691238D01*
X23427523Y-14191238D02*
X23641808Y-13905524D01*
X23427523Y-13691238D02*
X23713237Y-13976952D01*
X23213237Y-14191238D02*
X23213237Y-13691238D01*
X23213237Y-13691238D02*
X23022761Y-13691238D01*
X23022761Y-13691238D02*
X22975142Y-13715048D01*
X22975142Y-13715048D02*
X22951332Y-13738857D01*
X22951332Y-13738857D02*
X22927523Y-13786476D01*
X22927523Y-13786476D02*
X22927523Y-13857905D01*
X22927523Y-13857905D02*
X22951332Y-13905524D01*
X22951332Y-13905524D02*
X22975142Y-13929333D01*
X22975142Y-13929333D02*
X23022761Y-13953143D01*
X23022761Y-13953143D02*
X23213237Y-13953143D01*
X22617999Y-13691238D02*
X22570380Y-13691238D01*
X22570380Y-13691238D02*
X22522761Y-13715048D01*
X22522761Y-13715048D02*
X22498951Y-13738857D01*
X22498951Y-13738857D02*
X22475142Y-13786476D01*
X22475142Y-13786476D02*
X22451332Y-13881714D01*
X22451332Y-13881714D02*
X22451332Y-14000762D01*
X22451332Y-14000762D02*
X22475142Y-14096000D01*
X22475142Y-14096000D02*
X22498951Y-14143619D01*
X22498951Y-14143619D02*
X22522761Y-14167429D01*
X22522761Y-14167429D02*
X22570380Y-14191238D01*
X22570380Y-14191238D02*
X22617999Y-14191238D01*
X22617999Y-14191238D02*
X22665618Y-14167429D01*
X22665618Y-14167429D02*
X22689427Y-14143619D01*
X22689427Y-14143619D02*
X22713237Y-14096000D01*
X22713237Y-14096000D02*
X22737046Y-14000762D01*
X22737046Y-14000762D02*
X22737046Y-13881714D01*
X22737046Y-13881714D02*
X22713237Y-13786476D01*
X22713237Y-13786476D02*
X22689427Y-13738857D01*
X22689427Y-13738857D02*
X22665618Y-13715048D01*
X22665618Y-13715048D02*
X22617999Y-13691238D01*
X22022761Y-13857905D02*
X22022761Y-14191238D01*
X22141809Y-13667429D02*
X22260856Y-14024571D01*
X22260856Y-14024571D02*
X21951333Y-14024571D01*
X21784666Y-13738857D02*
X21760857Y-13715048D01*
X21760857Y-13715048D02*
X21713238Y-13691238D01*
X21713238Y-13691238D02*
X21594190Y-13691238D01*
X21594190Y-13691238D02*
X21546571Y-13715048D01*
X21546571Y-13715048D02*
X21522762Y-13738857D01*
X21522762Y-13738857D02*
X21498952Y-13786476D01*
X21498952Y-13786476D02*
X21498952Y-13834095D01*
X21498952Y-13834095D02*
X21522762Y-13905524D01*
X21522762Y-13905524D02*
X21808476Y-14191238D01*
X21808476Y-14191238D02*
X21498952Y-14191238D01*
X21004237Y-22553238D02*
X21004237Y-22053238D01*
X20718523Y-22553238D02*
X20932808Y-22267524D01*
X20718523Y-22053238D02*
X21004237Y-22338952D01*
X20504237Y-22553238D02*
X20504237Y-22053238D01*
X20504237Y-22053238D02*
X20313761Y-22053238D01*
X20313761Y-22053238D02*
X20266142Y-22077048D01*
X20266142Y-22077048D02*
X20242332Y-22100857D01*
X20242332Y-22100857D02*
X20218523Y-22148476D01*
X20218523Y-22148476D02*
X20218523Y-22219905D01*
X20218523Y-22219905D02*
X20242332Y-22267524D01*
X20242332Y-22267524D02*
X20266142Y-22291333D01*
X20266142Y-22291333D02*
X20313761Y-22315143D01*
X20313761Y-22315143D02*
X20504237Y-22315143D01*
X19908999Y-22053238D02*
X19861380Y-22053238D01*
X19861380Y-22053238D02*
X19813761Y-22077048D01*
X19813761Y-22077048D02*
X19789951Y-22100857D01*
X19789951Y-22100857D02*
X19766142Y-22148476D01*
X19766142Y-22148476D02*
X19742332Y-22243714D01*
X19742332Y-22243714D02*
X19742332Y-22362762D01*
X19742332Y-22362762D02*
X19766142Y-22458000D01*
X19766142Y-22458000D02*
X19789951Y-22505619D01*
X19789951Y-22505619D02*
X19813761Y-22529429D01*
X19813761Y-22529429D02*
X19861380Y-22553238D01*
X19861380Y-22553238D02*
X19908999Y-22553238D01*
X19908999Y-22553238D02*
X19956618Y-22529429D01*
X19956618Y-22529429D02*
X19980427Y-22505619D01*
X19980427Y-22505619D02*
X20004237Y-22458000D01*
X20004237Y-22458000D02*
X20028046Y-22362762D01*
X20028046Y-22362762D02*
X20028046Y-22243714D01*
X20028046Y-22243714D02*
X20004237Y-22148476D01*
X20004237Y-22148476D02*
X19980427Y-22100857D01*
X19980427Y-22100857D02*
X19956618Y-22077048D01*
X19956618Y-22077048D02*
X19908999Y-22053238D01*
X19575666Y-22053238D02*
X19266142Y-22053238D01*
X19266142Y-22053238D02*
X19432809Y-22243714D01*
X19432809Y-22243714D02*
X19361380Y-22243714D01*
X19361380Y-22243714D02*
X19313761Y-22267524D01*
X19313761Y-22267524D02*
X19289952Y-22291333D01*
X19289952Y-22291333D02*
X19266142Y-22338952D01*
X19266142Y-22338952D02*
X19266142Y-22458000D01*
X19266142Y-22458000D02*
X19289952Y-22505619D01*
X19289952Y-22505619D02*
X19313761Y-22529429D01*
X19313761Y-22529429D02*
X19361380Y-22553238D01*
X19361380Y-22553238D02*
X19504237Y-22553238D01*
X19504237Y-22553238D02*
X19551856Y-22529429D01*
X19551856Y-22529429D02*
X19575666Y-22505619D01*
X18789952Y-22553238D02*
X19075666Y-22553238D01*
X18932809Y-22553238D02*
X18932809Y-22053238D01*
X18932809Y-22053238D02*
X18980428Y-22124667D01*
X18980428Y-22124667D02*
X19028047Y-22172286D01*
X19028047Y-22172286D02*
X19075666Y-22196095D01*
X14194237Y-23835238D02*
X14194237Y-23335238D01*
X13908523Y-23835238D02*
X14122808Y-23549524D01*
X13908523Y-23335238D02*
X14194237Y-23620952D01*
X13694237Y-23835238D02*
X13694237Y-23335238D01*
X13694237Y-23335238D02*
X13503761Y-23335238D01*
X13503761Y-23335238D02*
X13456142Y-23359048D01*
X13456142Y-23359048D02*
X13432332Y-23382857D01*
X13432332Y-23382857D02*
X13408523Y-23430476D01*
X13408523Y-23430476D02*
X13408523Y-23501905D01*
X13408523Y-23501905D02*
X13432332Y-23549524D01*
X13432332Y-23549524D02*
X13456142Y-23573333D01*
X13456142Y-23573333D02*
X13503761Y-23597143D01*
X13503761Y-23597143D02*
X13694237Y-23597143D01*
X13098999Y-23335238D02*
X13051380Y-23335238D01*
X13051380Y-23335238D02*
X13003761Y-23359048D01*
X13003761Y-23359048D02*
X12979951Y-23382857D01*
X12979951Y-23382857D02*
X12956142Y-23430476D01*
X12956142Y-23430476D02*
X12932332Y-23525714D01*
X12932332Y-23525714D02*
X12932332Y-23644762D01*
X12932332Y-23644762D02*
X12956142Y-23740000D01*
X12956142Y-23740000D02*
X12979951Y-23787619D01*
X12979951Y-23787619D02*
X13003761Y-23811429D01*
X13003761Y-23811429D02*
X13051380Y-23835238D01*
X13051380Y-23835238D02*
X13098999Y-23835238D01*
X13098999Y-23835238D02*
X13146618Y-23811429D01*
X13146618Y-23811429D02*
X13170427Y-23787619D01*
X13170427Y-23787619D02*
X13194237Y-23740000D01*
X13194237Y-23740000D02*
X13218046Y-23644762D01*
X13218046Y-23644762D02*
X13218046Y-23525714D01*
X13218046Y-23525714D02*
X13194237Y-23430476D01*
X13194237Y-23430476D02*
X13170427Y-23382857D01*
X13170427Y-23382857D02*
X13146618Y-23359048D01*
X13146618Y-23359048D02*
X13098999Y-23335238D01*
X12741856Y-23382857D02*
X12718047Y-23359048D01*
X12718047Y-23359048D02*
X12670428Y-23335238D01*
X12670428Y-23335238D02*
X12551380Y-23335238D01*
X12551380Y-23335238D02*
X12503761Y-23359048D01*
X12503761Y-23359048D02*
X12479952Y-23382857D01*
X12479952Y-23382857D02*
X12456142Y-23430476D01*
X12456142Y-23430476D02*
X12456142Y-23478095D01*
X12456142Y-23478095D02*
X12479952Y-23549524D01*
X12479952Y-23549524D02*
X12765666Y-23835238D01*
X12765666Y-23835238D02*
X12456142Y-23835238D01*
X12289476Y-23335238D02*
X11956143Y-23335238D01*
X11956143Y-23335238D02*
X12170428Y-23835238D01*
X9378237Y-6462238D02*
X9378237Y-5962238D01*
X9092523Y-6462238D02*
X9306808Y-6176524D01*
X9092523Y-5962238D02*
X9378237Y-6247952D01*
X8878237Y-6462238D02*
X8878237Y-5962238D01*
X8878237Y-5962238D02*
X8687761Y-5962238D01*
X8687761Y-5962238D02*
X8640142Y-5986048D01*
X8640142Y-5986048D02*
X8616332Y-6009857D01*
X8616332Y-6009857D02*
X8592523Y-6057476D01*
X8592523Y-6057476D02*
X8592523Y-6128905D01*
X8592523Y-6128905D02*
X8616332Y-6176524D01*
X8616332Y-6176524D02*
X8640142Y-6200333D01*
X8640142Y-6200333D02*
X8687761Y-6224143D01*
X8687761Y-6224143D02*
X8878237Y-6224143D01*
X8282999Y-5962238D02*
X8235380Y-5962238D01*
X8235380Y-5962238D02*
X8187761Y-5986048D01*
X8187761Y-5986048D02*
X8163951Y-6009857D01*
X8163951Y-6009857D02*
X8140142Y-6057476D01*
X8140142Y-6057476D02*
X8116332Y-6152714D01*
X8116332Y-6152714D02*
X8116332Y-6271762D01*
X8116332Y-6271762D02*
X8140142Y-6367000D01*
X8140142Y-6367000D02*
X8163951Y-6414619D01*
X8163951Y-6414619D02*
X8187761Y-6438429D01*
X8187761Y-6438429D02*
X8235380Y-6462238D01*
X8235380Y-6462238D02*
X8282999Y-6462238D01*
X8282999Y-6462238D02*
X8330618Y-6438429D01*
X8330618Y-6438429D02*
X8354427Y-6414619D01*
X8354427Y-6414619D02*
X8378237Y-6367000D01*
X8378237Y-6367000D02*
X8402046Y-6271762D01*
X8402046Y-6271762D02*
X8402046Y-6152714D01*
X8402046Y-6152714D02*
X8378237Y-6057476D01*
X8378237Y-6057476D02*
X8354427Y-6009857D01*
X8354427Y-6009857D02*
X8330618Y-5986048D01*
X8330618Y-5986048D02*
X8282999Y-5962238D01*
X7806809Y-5962238D02*
X7759190Y-5962238D01*
X7759190Y-5962238D02*
X7711571Y-5986048D01*
X7711571Y-5986048D02*
X7687761Y-6009857D01*
X7687761Y-6009857D02*
X7663952Y-6057476D01*
X7663952Y-6057476D02*
X7640142Y-6152714D01*
X7640142Y-6152714D02*
X7640142Y-6271762D01*
X7640142Y-6271762D02*
X7663952Y-6367000D01*
X7663952Y-6367000D02*
X7687761Y-6414619D01*
X7687761Y-6414619D02*
X7711571Y-6438429D01*
X7711571Y-6438429D02*
X7759190Y-6462238D01*
X7759190Y-6462238D02*
X7806809Y-6462238D01*
X7806809Y-6462238D02*
X7854428Y-6438429D01*
X7854428Y-6438429D02*
X7878237Y-6414619D01*
X7878237Y-6414619D02*
X7902047Y-6367000D01*
X7902047Y-6367000D02*
X7925856Y-6271762D01*
X7925856Y-6271762D02*
X7925856Y-6152714D01*
X7925856Y-6152714D02*
X7902047Y-6057476D01*
X7902047Y-6057476D02*
X7878237Y-6009857D01*
X7878237Y-6009857D02*
X7854428Y-5986048D01*
X7854428Y-5986048D02*
X7806809Y-5962238D01*
X7354428Y-6176524D02*
X7402047Y-6152714D01*
X7402047Y-6152714D02*
X7425857Y-6128905D01*
X7425857Y-6128905D02*
X7449666Y-6081286D01*
X7449666Y-6081286D02*
X7449666Y-6057476D01*
X7449666Y-6057476D02*
X7425857Y-6009857D01*
X7425857Y-6009857D02*
X7402047Y-5986048D01*
X7402047Y-5986048D02*
X7354428Y-5962238D01*
X7354428Y-5962238D02*
X7259190Y-5962238D01*
X7259190Y-5962238D02*
X7211571Y-5986048D01*
X7211571Y-5986048D02*
X7187762Y-6009857D01*
X7187762Y-6009857D02*
X7163952Y-6057476D01*
X7163952Y-6057476D02*
X7163952Y-6081286D01*
X7163952Y-6081286D02*
X7187762Y-6128905D01*
X7187762Y-6128905D02*
X7211571Y-6152714D01*
X7211571Y-6152714D02*
X7259190Y-6176524D01*
X7259190Y-6176524D02*
X7354428Y-6176524D01*
X7354428Y-6176524D02*
X7402047Y-6200333D01*
X7402047Y-6200333D02*
X7425857Y-6224143D01*
X7425857Y-6224143D02*
X7449666Y-6271762D01*
X7449666Y-6271762D02*
X7449666Y-6367000D01*
X7449666Y-6367000D02*
X7425857Y-6414619D01*
X7425857Y-6414619D02*
X7402047Y-6438429D01*
X7402047Y-6438429D02*
X7354428Y-6462238D01*
X7354428Y-6462238D02*
X7259190Y-6462238D01*
X7259190Y-6462238D02*
X7211571Y-6438429D01*
X7211571Y-6438429D02*
X7187762Y-6414619D01*
X7187762Y-6414619D02*
X7163952Y-6367000D01*
X7163952Y-6367000D02*
X7163952Y-6271762D01*
X7163952Y-6271762D02*
X7187762Y-6224143D01*
X7187762Y-6224143D02*
X7211571Y-6200333D01*
X7211571Y-6200333D02*
X7259190Y-6176524D01*
X7489237Y-6791238D02*
X7489237Y-6291238D01*
X7203523Y-6791238D02*
X7417808Y-6505524D01*
X7203523Y-6291238D02*
X7489237Y-6576952D01*
X6989237Y-6791238D02*
X6989237Y-6291238D01*
X6989237Y-6291238D02*
X6798761Y-6291238D01*
X6798761Y-6291238D02*
X6751142Y-6315048D01*
X6751142Y-6315048D02*
X6727332Y-6338857D01*
X6727332Y-6338857D02*
X6703523Y-6386476D01*
X6703523Y-6386476D02*
X6703523Y-6457905D01*
X6703523Y-6457905D02*
X6727332Y-6505524D01*
X6727332Y-6505524D02*
X6751142Y-6529333D01*
X6751142Y-6529333D02*
X6798761Y-6553143D01*
X6798761Y-6553143D02*
X6989237Y-6553143D01*
X6393999Y-6291238D02*
X6346380Y-6291238D01*
X6346380Y-6291238D02*
X6298761Y-6315048D01*
X6298761Y-6315048D02*
X6274951Y-6338857D01*
X6274951Y-6338857D02*
X6251142Y-6386476D01*
X6251142Y-6386476D02*
X6227332Y-6481714D01*
X6227332Y-6481714D02*
X6227332Y-6600762D01*
X6227332Y-6600762D02*
X6251142Y-6696000D01*
X6251142Y-6696000D02*
X6274951Y-6743619D01*
X6274951Y-6743619D02*
X6298761Y-6767429D01*
X6298761Y-6767429D02*
X6346380Y-6791238D01*
X6346380Y-6791238D02*
X6393999Y-6791238D01*
X6393999Y-6791238D02*
X6441618Y-6767429D01*
X6441618Y-6767429D02*
X6465427Y-6743619D01*
X6465427Y-6743619D02*
X6489237Y-6696000D01*
X6489237Y-6696000D02*
X6513046Y-6600762D01*
X6513046Y-6600762D02*
X6513046Y-6481714D01*
X6513046Y-6481714D02*
X6489237Y-6386476D01*
X6489237Y-6386476D02*
X6465427Y-6338857D01*
X6465427Y-6338857D02*
X6441618Y-6315048D01*
X6441618Y-6315048D02*
X6393999Y-6291238D01*
X5917809Y-6291238D02*
X5870190Y-6291238D01*
X5870190Y-6291238D02*
X5822571Y-6315048D01*
X5822571Y-6315048D02*
X5798761Y-6338857D01*
X5798761Y-6338857D02*
X5774952Y-6386476D01*
X5774952Y-6386476D02*
X5751142Y-6481714D01*
X5751142Y-6481714D02*
X5751142Y-6600762D01*
X5751142Y-6600762D02*
X5774952Y-6696000D01*
X5774952Y-6696000D02*
X5798761Y-6743619D01*
X5798761Y-6743619D02*
X5822571Y-6767429D01*
X5822571Y-6767429D02*
X5870190Y-6791238D01*
X5870190Y-6791238D02*
X5917809Y-6791238D01*
X5917809Y-6791238D02*
X5965428Y-6767429D01*
X5965428Y-6767429D02*
X5989237Y-6743619D01*
X5989237Y-6743619D02*
X6013047Y-6696000D01*
X6013047Y-6696000D02*
X6036856Y-6600762D01*
X6036856Y-6600762D02*
X6036856Y-6481714D01*
X6036856Y-6481714D02*
X6013047Y-6386476D01*
X6013047Y-6386476D02*
X5989237Y-6338857D01*
X5989237Y-6338857D02*
X5965428Y-6315048D01*
X5965428Y-6315048D02*
X5917809Y-6291238D01*
X5513047Y-6791238D02*
X5417809Y-6791238D01*
X5417809Y-6791238D02*
X5370190Y-6767429D01*
X5370190Y-6767429D02*
X5346381Y-6743619D01*
X5346381Y-6743619D02*
X5298762Y-6672190D01*
X5298762Y-6672190D02*
X5274952Y-6576952D01*
X5274952Y-6576952D02*
X5274952Y-6386476D01*
X5274952Y-6386476D02*
X5298762Y-6338857D01*
X5298762Y-6338857D02*
X5322571Y-6315048D01*
X5322571Y-6315048D02*
X5370190Y-6291238D01*
X5370190Y-6291238D02*
X5465428Y-6291238D01*
X5465428Y-6291238D02*
X5513047Y-6315048D01*
X5513047Y-6315048D02*
X5536857Y-6338857D01*
X5536857Y-6338857D02*
X5560666Y-6386476D01*
X5560666Y-6386476D02*
X5560666Y-6505524D01*
X5560666Y-6505524D02*
X5536857Y-6553143D01*
X5536857Y-6553143D02*
X5513047Y-6576952D01*
X5513047Y-6576952D02*
X5465428Y-6600762D01*
X5465428Y-6600762D02*
X5370190Y-6600762D01*
X5370190Y-6600762D02*
X5322571Y-6576952D01*
X5322571Y-6576952D02*
X5298762Y-6553143D01*
X5298762Y-6553143D02*
X5274952Y-6505524D01*
X22869237Y-18346238D02*
X22869237Y-17846238D01*
X22583523Y-18346238D02*
X22797808Y-18060524D01*
X22583523Y-17846238D02*
X22869237Y-18131952D01*
X22369237Y-18346238D02*
X22369237Y-17846238D01*
X22369237Y-17846238D02*
X22178761Y-17846238D01*
X22178761Y-17846238D02*
X22131142Y-17870048D01*
X22131142Y-17870048D02*
X22107332Y-17893857D01*
X22107332Y-17893857D02*
X22083523Y-17941476D01*
X22083523Y-17941476D02*
X22083523Y-18012905D01*
X22083523Y-18012905D02*
X22107332Y-18060524D01*
X22107332Y-18060524D02*
X22131142Y-18084333D01*
X22131142Y-18084333D02*
X22178761Y-18108143D01*
X22178761Y-18108143D02*
X22369237Y-18108143D01*
X21773999Y-17846238D02*
X21726380Y-17846238D01*
X21726380Y-17846238D02*
X21678761Y-17870048D01*
X21678761Y-17870048D02*
X21654951Y-17893857D01*
X21654951Y-17893857D02*
X21631142Y-17941476D01*
X21631142Y-17941476D02*
X21607332Y-18036714D01*
X21607332Y-18036714D02*
X21607332Y-18155762D01*
X21607332Y-18155762D02*
X21631142Y-18251000D01*
X21631142Y-18251000D02*
X21654951Y-18298619D01*
X21654951Y-18298619D02*
X21678761Y-18322429D01*
X21678761Y-18322429D02*
X21726380Y-18346238D01*
X21726380Y-18346238D02*
X21773999Y-18346238D01*
X21773999Y-18346238D02*
X21821618Y-18322429D01*
X21821618Y-18322429D02*
X21845427Y-18298619D01*
X21845427Y-18298619D02*
X21869237Y-18251000D01*
X21869237Y-18251000D02*
X21893046Y-18155762D01*
X21893046Y-18155762D02*
X21893046Y-18036714D01*
X21893046Y-18036714D02*
X21869237Y-17941476D01*
X21869237Y-17941476D02*
X21845427Y-17893857D01*
X21845427Y-17893857D02*
X21821618Y-17870048D01*
X21821618Y-17870048D02*
X21773999Y-17846238D01*
X21440666Y-17846238D02*
X21131142Y-17846238D01*
X21131142Y-17846238D02*
X21297809Y-18036714D01*
X21297809Y-18036714D02*
X21226380Y-18036714D01*
X21226380Y-18036714D02*
X21178761Y-18060524D01*
X21178761Y-18060524D02*
X21154952Y-18084333D01*
X21154952Y-18084333D02*
X21131142Y-18131952D01*
X21131142Y-18131952D02*
X21131142Y-18251000D01*
X21131142Y-18251000D02*
X21154952Y-18298619D01*
X21154952Y-18298619D02*
X21178761Y-18322429D01*
X21178761Y-18322429D02*
X21226380Y-18346238D01*
X21226380Y-18346238D02*
X21369237Y-18346238D01*
X21369237Y-18346238D02*
X21416856Y-18322429D01*
X21416856Y-18322429D02*
X21440666Y-18298619D01*
X20964476Y-17846238D02*
X20631143Y-17846238D01*
X20631143Y-17846238D02*
X20845428Y-18346238D01*
X20713237Y-20093238D02*
X20713237Y-19593238D01*
X20427523Y-20093238D02*
X20641808Y-19807524D01*
X20427523Y-19593238D02*
X20713237Y-19878952D01*
X20213237Y-20093238D02*
X20213237Y-19593238D01*
X20213237Y-19593238D02*
X20022761Y-19593238D01*
X20022761Y-19593238D02*
X19975142Y-19617048D01*
X19975142Y-19617048D02*
X19951332Y-19640857D01*
X19951332Y-19640857D02*
X19927523Y-19688476D01*
X19927523Y-19688476D02*
X19927523Y-19759905D01*
X19927523Y-19759905D02*
X19951332Y-19807524D01*
X19951332Y-19807524D02*
X19975142Y-19831333D01*
X19975142Y-19831333D02*
X20022761Y-19855143D01*
X20022761Y-19855143D02*
X20213237Y-19855143D01*
X19617999Y-19593238D02*
X19570380Y-19593238D01*
X19570380Y-19593238D02*
X19522761Y-19617048D01*
X19522761Y-19617048D02*
X19498951Y-19640857D01*
X19498951Y-19640857D02*
X19475142Y-19688476D01*
X19475142Y-19688476D02*
X19451332Y-19783714D01*
X19451332Y-19783714D02*
X19451332Y-19902762D01*
X19451332Y-19902762D02*
X19475142Y-19998000D01*
X19475142Y-19998000D02*
X19498951Y-20045619D01*
X19498951Y-20045619D02*
X19522761Y-20069429D01*
X19522761Y-20069429D02*
X19570380Y-20093238D01*
X19570380Y-20093238D02*
X19617999Y-20093238D01*
X19617999Y-20093238D02*
X19665618Y-20069429D01*
X19665618Y-20069429D02*
X19689427Y-20045619D01*
X19689427Y-20045619D02*
X19713237Y-19998000D01*
X19713237Y-19998000D02*
X19737046Y-19902762D01*
X19737046Y-19902762D02*
X19737046Y-19783714D01*
X19737046Y-19783714D02*
X19713237Y-19688476D01*
X19713237Y-19688476D02*
X19689427Y-19640857D01*
X19689427Y-19640857D02*
X19665618Y-19617048D01*
X19665618Y-19617048D02*
X19617999Y-19593238D01*
X19284666Y-19593238D02*
X18975142Y-19593238D01*
X18975142Y-19593238D02*
X19141809Y-19783714D01*
X19141809Y-19783714D02*
X19070380Y-19783714D01*
X19070380Y-19783714D02*
X19022761Y-19807524D01*
X19022761Y-19807524D02*
X18998952Y-19831333D01*
X18998952Y-19831333D02*
X18975142Y-19878952D01*
X18975142Y-19878952D02*
X18975142Y-19998000D01*
X18975142Y-19998000D02*
X18998952Y-20045619D01*
X18998952Y-20045619D02*
X19022761Y-20069429D01*
X19022761Y-20069429D02*
X19070380Y-20093238D01*
X19070380Y-20093238D02*
X19213237Y-20093238D01*
X19213237Y-20093238D02*
X19260856Y-20069429D01*
X19260856Y-20069429D02*
X19284666Y-20045619D01*
X18784666Y-19640857D02*
X18760857Y-19617048D01*
X18760857Y-19617048D02*
X18713238Y-19593238D01*
X18713238Y-19593238D02*
X18594190Y-19593238D01*
X18594190Y-19593238D02*
X18546571Y-19617048D01*
X18546571Y-19617048D02*
X18522762Y-19640857D01*
X18522762Y-19640857D02*
X18498952Y-19688476D01*
X18498952Y-19688476D02*
X18498952Y-19736095D01*
X18498952Y-19736095D02*
X18522762Y-19807524D01*
X18522762Y-19807524D02*
X18808476Y-20093238D01*
X18808476Y-20093238D02*
X18498952Y-20093238D01*
X18780237Y-6146238D02*
X18780237Y-5646238D01*
X18494523Y-6146238D02*
X18708808Y-5860524D01*
X18494523Y-5646238D02*
X18780237Y-5931952D01*
X17994523Y-6098619D02*
X18018332Y-6122429D01*
X18018332Y-6122429D02*
X18089761Y-6146238D01*
X18089761Y-6146238D02*
X18137380Y-6146238D01*
X18137380Y-6146238D02*
X18208808Y-6122429D01*
X18208808Y-6122429D02*
X18256427Y-6074809D01*
X18256427Y-6074809D02*
X18280237Y-6027190D01*
X18280237Y-6027190D02*
X18304046Y-5931952D01*
X18304046Y-5931952D02*
X18304046Y-5860524D01*
X18304046Y-5860524D02*
X18280237Y-5765286D01*
X18280237Y-5765286D02*
X18256427Y-5717667D01*
X18256427Y-5717667D02*
X18208808Y-5670048D01*
X18208808Y-5670048D02*
X18137380Y-5646238D01*
X18137380Y-5646238D02*
X18089761Y-5646238D01*
X18089761Y-5646238D02*
X18018332Y-5670048D01*
X18018332Y-5670048D02*
X17994523Y-5693857D01*
X17684999Y-5646238D02*
X17637380Y-5646238D01*
X17637380Y-5646238D02*
X17589761Y-5670048D01*
X17589761Y-5670048D02*
X17565951Y-5693857D01*
X17565951Y-5693857D02*
X17542142Y-5741476D01*
X17542142Y-5741476D02*
X17518332Y-5836714D01*
X17518332Y-5836714D02*
X17518332Y-5955762D01*
X17518332Y-5955762D02*
X17542142Y-6051000D01*
X17542142Y-6051000D02*
X17565951Y-6098619D01*
X17565951Y-6098619D02*
X17589761Y-6122429D01*
X17589761Y-6122429D02*
X17637380Y-6146238D01*
X17637380Y-6146238D02*
X17684999Y-6146238D01*
X17684999Y-6146238D02*
X17732618Y-6122429D01*
X17732618Y-6122429D02*
X17756427Y-6098619D01*
X17756427Y-6098619D02*
X17780237Y-6051000D01*
X17780237Y-6051000D02*
X17804046Y-5955762D01*
X17804046Y-5955762D02*
X17804046Y-5836714D01*
X17804046Y-5836714D02*
X17780237Y-5741476D01*
X17780237Y-5741476D02*
X17756427Y-5693857D01*
X17756427Y-5693857D02*
X17732618Y-5670048D01*
X17732618Y-5670048D02*
X17684999Y-5646238D01*
X17208809Y-5646238D02*
X17161190Y-5646238D01*
X17161190Y-5646238D02*
X17113571Y-5670048D01*
X17113571Y-5670048D02*
X17089761Y-5693857D01*
X17089761Y-5693857D02*
X17065952Y-5741476D01*
X17065952Y-5741476D02*
X17042142Y-5836714D01*
X17042142Y-5836714D02*
X17042142Y-5955762D01*
X17042142Y-5955762D02*
X17065952Y-6051000D01*
X17065952Y-6051000D02*
X17089761Y-6098619D01*
X17089761Y-6098619D02*
X17113571Y-6122429D01*
X17113571Y-6122429D02*
X17161190Y-6146238D01*
X17161190Y-6146238D02*
X17208809Y-6146238D01*
X17208809Y-6146238D02*
X17256428Y-6122429D01*
X17256428Y-6122429D02*
X17280237Y-6098619D01*
X17280237Y-6098619D02*
X17304047Y-6051000D01*
X17304047Y-6051000D02*
X17327856Y-5955762D01*
X17327856Y-5955762D02*
X17327856Y-5836714D01*
X17327856Y-5836714D02*
X17304047Y-5741476D01*
X17304047Y-5741476D02*
X17280237Y-5693857D01*
X17280237Y-5693857D02*
X17256428Y-5670048D01*
X17256428Y-5670048D02*
X17208809Y-5646238D01*
X16732619Y-5646238D02*
X16685000Y-5646238D01*
X16685000Y-5646238D02*
X16637381Y-5670048D01*
X16637381Y-5670048D02*
X16613571Y-5693857D01*
X16613571Y-5693857D02*
X16589762Y-5741476D01*
X16589762Y-5741476D02*
X16565952Y-5836714D01*
X16565952Y-5836714D02*
X16565952Y-5955762D01*
X16565952Y-5955762D02*
X16589762Y-6051000D01*
X16589762Y-6051000D02*
X16613571Y-6098619D01*
X16613571Y-6098619D02*
X16637381Y-6122429D01*
X16637381Y-6122429D02*
X16685000Y-6146238D01*
X16685000Y-6146238D02*
X16732619Y-6146238D01*
X16732619Y-6146238D02*
X16780238Y-6122429D01*
X16780238Y-6122429D02*
X16804047Y-6098619D01*
X16804047Y-6098619D02*
X16827857Y-6051000D01*
X16827857Y-6051000D02*
X16851666Y-5955762D01*
X16851666Y-5955762D02*
X16851666Y-5836714D01*
X16851666Y-5836714D02*
X16827857Y-5741476D01*
X16827857Y-5741476D02*
X16804047Y-5693857D01*
X16804047Y-5693857D02*
X16780238Y-5670048D01*
X16780238Y-5670048D02*
X16732619Y-5646238D01*
X8811237Y-19990238D02*
X8811237Y-19490238D01*
X8525523Y-19990238D02*
X8739808Y-19704524D01*
X8525523Y-19490238D02*
X8811237Y-19775952D01*
X8311237Y-19990238D02*
X8311237Y-19490238D01*
X8311237Y-19490238D02*
X8120761Y-19490238D01*
X8120761Y-19490238D02*
X8073142Y-19514048D01*
X8073142Y-19514048D02*
X8049332Y-19537857D01*
X8049332Y-19537857D02*
X8025523Y-19585476D01*
X8025523Y-19585476D02*
X8025523Y-19656905D01*
X8025523Y-19656905D02*
X8049332Y-19704524D01*
X8049332Y-19704524D02*
X8073142Y-19728333D01*
X8073142Y-19728333D02*
X8120761Y-19752143D01*
X8120761Y-19752143D02*
X8311237Y-19752143D01*
X7715999Y-19490238D02*
X7668380Y-19490238D01*
X7668380Y-19490238D02*
X7620761Y-19514048D01*
X7620761Y-19514048D02*
X7596951Y-19537857D01*
X7596951Y-19537857D02*
X7573142Y-19585476D01*
X7573142Y-19585476D02*
X7549332Y-19680714D01*
X7549332Y-19680714D02*
X7549332Y-19799762D01*
X7549332Y-19799762D02*
X7573142Y-19895000D01*
X7573142Y-19895000D02*
X7596951Y-19942619D01*
X7596951Y-19942619D02*
X7620761Y-19966429D01*
X7620761Y-19966429D02*
X7668380Y-19990238D01*
X7668380Y-19990238D02*
X7715999Y-19990238D01*
X7715999Y-19990238D02*
X7763618Y-19966429D01*
X7763618Y-19966429D02*
X7787427Y-19942619D01*
X7787427Y-19942619D02*
X7811237Y-19895000D01*
X7811237Y-19895000D02*
X7835046Y-19799762D01*
X7835046Y-19799762D02*
X7835046Y-19680714D01*
X7835046Y-19680714D02*
X7811237Y-19585476D01*
X7811237Y-19585476D02*
X7787427Y-19537857D01*
X7787427Y-19537857D02*
X7763618Y-19514048D01*
X7763618Y-19514048D02*
X7715999Y-19490238D01*
X7358856Y-19537857D02*
X7335047Y-19514048D01*
X7335047Y-19514048D02*
X7287428Y-19490238D01*
X7287428Y-19490238D02*
X7168380Y-19490238D01*
X7168380Y-19490238D02*
X7120761Y-19514048D01*
X7120761Y-19514048D02*
X7096952Y-19537857D01*
X7096952Y-19537857D02*
X7073142Y-19585476D01*
X7073142Y-19585476D02*
X7073142Y-19633095D01*
X7073142Y-19633095D02*
X7096952Y-19704524D01*
X7096952Y-19704524D02*
X7382666Y-19990238D01*
X7382666Y-19990238D02*
X7073142Y-19990238D01*
X6596952Y-19990238D02*
X6882666Y-19990238D01*
X6739809Y-19990238D02*
X6739809Y-19490238D01*
X6739809Y-19490238D02*
X6787428Y-19561667D01*
X6787428Y-19561667D02*
X6835047Y-19609286D01*
X6835047Y-19609286D02*
X6882666Y-19633095D01*
X11978237Y-24853238D02*
X11978237Y-24353238D01*
X11692523Y-24853238D02*
X11906808Y-24567524D01*
X11692523Y-24353238D02*
X11978237Y-24638952D01*
X11478237Y-24853238D02*
X11478237Y-24353238D01*
X11478237Y-24353238D02*
X11287761Y-24353238D01*
X11287761Y-24353238D02*
X11240142Y-24377048D01*
X11240142Y-24377048D02*
X11216332Y-24400857D01*
X11216332Y-24400857D02*
X11192523Y-24448476D01*
X11192523Y-24448476D02*
X11192523Y-24519905D01*
X11192523Y-24519905D02*
X11216332Y-24567524D01*
X11216332Y-24567524D02*
X11240142Y-24591333D01*
X11240142Y-24591333D02*
X11287761Y-24615143D01*
X11287761Y-24615143D02*
X11478237Y-24615143D01*
X10882999Y-24353238D02*
X10835380Y-24353238D01*
X10835380Y-24353238D02*
X10787761Y-24377048D01*
X10787761Y-24377048D02*
X10763951Y-24400857D01*
X10763951Y-24400857D02*
X10740142Y-24448476D01*
X10740142Y-24448476D02*
X10716332Y-24543714D01*
X10716332Y-24543714D02*
X10716332Y-24662762D01*
X10716332Y-24662762D02*
X10740142Y-24758000D01*
X10740142Y-24758000D02*
X10763951Y-24805619D01*
X10763951Y-24805619D02*
X10787761Y-24829429D01*
X10787761Y-24829429D02*
X10835380Y-24853238D01*
X10835380Y-24853238D02*
X10882999Y-24853238D01*
X10882999Y-24853238D02*
X10930618Y-24829429D01*
X10930618Y-24829429D02*
X10954427Y-24805619D01*
X10954427Y-24805619D02*
X10978237Y-24758000D01*
X10978237Y-24758000D02*
X11002046Y-24662762D01*
X11002046Y-24662762D02*
X11002046Y-24543714D01*
X11002046Y-24543714D02*
X10978237Y-24448476D01*
X10978237Y-24448476D02*
X10954427Y-24400857D01*
X10954427Y-24400857D02*
X10930618Y-24377048D01*
X10930618Y-24377048D02*
X10882999Y-24353238D01*
X10525856Y-24400857D02*
X10502047Y-24377048D01*
X10502047Y-24377048D02*
X10454428Y-24353238D01*
X10454428Y-24353238D02*
X10335380Y-24353238D01*
X10335380Y-24353238D02*
X10287761Y-24377048D01*
X10287761Y-24377048D02*
X10263952Y-24400857D01*
X10263952Y-24400857D02*
X10240142Y-24448476D01*
X10240142Y-24448476D02*
X10240142Y-24496095D01*
X10240142Y-24496095D02*
X10263952Y-24567524D01*
X10263952Y-24567524D02*
X10549666Y-24853238D01*
X10549666Y-24853238D02*
X10240142Y-24853238D01*
X9787762Y-24353238D02*
X10025857Y-24353238D01*
X10025857Y-24353238D02*
X10049666Y-24591333D01*
X10049666Y-24591333D02*
X10025857Y-24567524D01*
X10025857Y-24567524D02*
X9978238Y-24543714D01*
X9978238Y-24543714D02*
X9859190Y-24543714D01*
X9859190Y-24543714D02*
X9811571Y-24567524D01*
X9811571Y-24567524D02*
X9787762Y-24591333D01*
X9787762Y-24591333D02*
X9763952Y-24638952D01*
X9763952Y-24638952D02*
X9763952Y-24758000D01*
X9763952Y-24758000D02*
X9787762Y-24805619D01*
X9787762Y-24805619D02*
X9811571Y-24829429D01*
X9811571Y-24829429D02*
X9859190Y-24853238D01*
X9859190Y-24853238D02*
X9978238Y-24853238D01*
X9978238Y-24853238D02*
X10025857Y-24829429D01*
X10025857Y-24829429D02*
X10049666Y-24805619D01*
X6021237Y-15427238D02*
X6021237Y-14927238D01*
X5735523Y-15427238D02*
X5949808Y-15141524D01*
X5735523Y-14927238D02*
X6021237Y-15212952D01*
X5521237Y-15427238D02*
X5521237Y-14927238D01*
X5521237Y-14927238D02*
X5330761Y-14927238D01*
X5330761Y-14927238D02*
X5283142Y-14951048D01*
X5283142Y-14951048D02*
X5259332Y-14974857D01*
X5259332Y-14974857D02*
X5235523Y-15022476D01*
X5235523Y-15022476D02*
X5235523Y-15093905D01*
X5235523Y-15093905D02*
X5259332Y-15141524D01*
X5259332Y-15141524D02*
X5283142Y-15165333D01*
X5283142Y-15165333D02*
X5330761Y-15189143D01*
X5330761Y-15189143D02*
X5521237Y-15189143D01*
X4925999Y-14927238D02*
X4878380Y-14927238D01*
X4878380Y-14927238D02*
X4830761Y-14951048D01*
X4830761Y-14951048D02*
X4806951Y-14974857D01*
X4806951Y-14974857D02*
X4783142Y-15022476D01*
X4783142Y-15022476D02*
X4759332Y-15117714D01*
X4759332Y-15117714D02*
X4759332Y-15236762D01*
X4759332Y-15236762D02*
X4783142Y-15332000D01*
X4783142Y-15332000D02*
X4806951Y-15379619D01*
X4806951Y-15379619D02*
X4830761Y-15403429D01*
X4830761Y-15403429D02*
X4878380Y-15427238D01*
X4878380Y-15427238D02*
X4925999Y-15427238D01*
X4925999Y-15427238D02*
X4973618Y-15403429D01*
X4973618Y-15403429D02*
X4997427Y-15379619D01*
X4997427Y-15379619D02*
X5021237Y-15332000D01*
X5021237Y-15332000D02*
X5045046Y-15236762D01*
X5045046Y-15236762D02*
X5045046Y-15117714D01*
X5045046Y-15117714D02*
X5021237Y-15022476D01*
X5021237Y-15022476D02*
X4997427Y-14974857D01*
X4997427Y-14974857D02*
X4973618Y-14951048D01*
X4973618Y-14951048D02*
X4925999Y-14927238D01*
X4283142Y-15427238D02*
X4568856Y-15427238D01*
X4425999Y-15427238D02*
X4425999Y-14927238D01*
X4425999Y-14927238D02*
X4473618Y-14998667D01*
X4473618Y-14998667D02*
X4521237Y-15046286D01*
X4521237Y-15046286D02*
X4568856Y-15070095D01*
X3997428Y-15141524D02*
X4045047Y-15117714D01*
X4045047Y-15117714D02*
X4068857Y-15093905D01*
X4068857Y-15093905D02*
X4092666Y-15046286D01*
X4092666Y-15046286D02*
X4092666Y-15022476D01*
X4092666Y-15022476D02*
X4068857Y-14974857D01*
X4068857Y-14974857D02*
X4045047Y-14951048D01*
X4045047Y-14951048D02*
X3997428Y-14927238D01*
X3997428Y-14927238D02*
X3902190Y-14927238D01*
X3902190Y-14927238D02*
X3854571Y-14951048D01*
X3854571Y-14951048D02*
X3830762Y-14974857D01*
X3830762Y-14974857D02*
X3806952Y-15022476D01*
X3806952Y-15022476D02*
X3806952Y-15046286D01*
X3806952Y-15046286D02*
X3830762Y-15093905D01*
X3830762Y-15093905D02*
X3854571Y-15117714D01*
X3854571Y-15117714D02*
X3902190Y-15141524D01*
X3902190Y-15141524D02*
X3997428Y-15141524D01*
X3997428Y-15141524D02*
X4045047Y-15165333D01*
X4045047Y-15165333D02*
X4068857Y-15189143D01*
X4068857Y-15189143D02*
X4092666Y-15236762D01*
X4092666Y-15236762D02*
X4092666Y-15332000D01*
X4092666Y-15332000D02*
X4068857Y-15379619D01*
X4068857Y-15379619D02*
X4045047Y-15403429D01*
X4045047Y-15403429D02*
X3997428Y-15427238D01*
X3997428Y-15427238D02*
X3902190Y-15427238D01*
X3902190Y-15427238D02*
X3854571Y-15403429D01*
X3854571Y-15403429D02*
X3830762Y-15379619D01*
X3830762Y-15379619D02*
X3806952Y-15332000D01*
X3806952Y-15332000D02*
X3806952Y-15236762D01*
X3806952Y-15236762D02*
X3830762Y-15189143D01*
X3830762Y-15189143D02*
X3854571Y-15165333D01*
X3854571Y-15165333D02*
X3902190Y-15141524D01*
X8616237Y-12741238D02*
X8616237Y-12241238D01*
X8330523Y-12741238D02*
X8544808Y-12455524D01*
X8330523Y-12241238D02*
X8616237Y-12526952D01*
X8116237Y-12741238D02*
X8116237Y-12241238D01*
X8116237Y-12241238D02*
X7925761Y-12241238D01*
X7925761Y-12241238D02*
X7878142Y-12265048D01*
X7878142Y-12265048D02*
X7854332Y-12288857D01*
X7854332Y-12288857D02*
X7830523Y-12336476D01*
X7830523Y-12336476D02*
X7830523Y-12407905D01*
X7830523Y-12407905D02*
X7854332Y-12455524D01*
X7854332Y-12455524D02*
X7878142Y-12479333D01*
X7878142Y-12479333D02*
X7925761Y-12503143D01*
X7925761Y-12503143D02*
X8116237Y-12503143D01*
X7520999Y-12241238D02*
X7473380Y-12241238D01*
X7473380Y-12241238D02*
X7425761Y-12265048D01*
X7425761Y-12265048D02*
X7401951Y-12288857D01*
X7401951Y-12288857D02*
X7378142Y-12336476D01*
X7378142Y-12336476D02*
X7354332Y-12431714D01*
X7354332Y-12431714D02*
X7354332Y-12550762D01*
X7354332Y-12550762D02*
X7378142Y-12646000D01*
X7378142Y-12646000D02*
X7401951Y-12693619D01*
X7401951Y-12693619D02*
X7425761Y-12717429D01*
X7425761Y-12717429D02*
X7473380Y-12741238D01*
X7473380Y-12741238D02*
X7520999Y-12741238D01*
X7520999Y-12741238D02*
X7568618Y-12717429D01*
X7568618Y-12717429D02*
X7592427Y-12693619D01*
X7592427Y-12693619D02*
X7616237Y-12646000D01*
X7616237Y-12646000D02*
X7640046Y-12550762D01*
X7640046Y-12550762D02*
X7640046Y-12431714D01*
X7640046Y-12431714D02*
X7616237Y-12336476D01*
X7616237Y-12336476D02*
X7592427Y-12288857D01*
X7592427Y-12288857D02*
X7568618Y-12265048D01*
X7568618Y-12265048D02*
X7520999Y-12241238D01*
X6878142Y-12741238D02*
X7163856Y-12741238D01*
X7020999Y-12741238D02*
X7020999Y-12241238D01*
X7020999Y-12241238D02*
X7068618Y-12312667D01*
X7068618Y-12312667D02*
X7116237Y-12360286D01*
X7116237Y-12360286D02*
X7163856Y-12384095D01*
X6711476Y-12241238D02*
X6401952Y-12241238D01*
X6401952Y-12241238D02*
X6568619Y-12431714D01*
X6568619Y-12431714D02*
X6497190Y-12431714D01*
X6497190Y-12431714D02*
X6449571Y-12455524D01*
X6449571Y-12455524D02*
X6425762Y-12479333D01*
X6425762Y-12479333D02*
X6401952Y-12526952D01*
X6401952Y-12526952D02*
X6401952Y-12646000D01*
X6401952Y-12646000D02*
X6425762Y-12693619D01*
X6425762Y-12693619D02*
X6449571Y-12717429D01*
X6449571Y-12717429D02*
X6497190Y-12741238D01*
X6497190Y-12741238D02*
X6640047Y-12741238D01*
X6640047Y-12741238D02*
X6687666Y-12717429D01*
X6687666Y-12717429D02*
X6711476Y-12693619D01*
X22055237Y-19415238D02*
X22055237Y-18915238D01*
X21769523Y-19415238D02*
X21983808Y-19129524D01*
X21769523Y-18915238D02*
X22055237Y-19200952D01*
X21555237Y-19415238D02*
X21555237Y-18915238D01*
X21555237Y-18915238D02*
X21364761Y-18915238D01*
X21364761Y-18915238D02*
X21317142Y-18939048D01*
X21317142Y-18939048D02*
X21293332Y-18962857D01*
X21293332Y-18962857D02*
X21269523Y-19010476D01*
X21269523Y-19010476D02*
X21269523Y-19081905D01*
X21269523Y-19081905D02*
X21293332Y-19129524D01*
X21293332Y-19129524D02*
X21317142Y-19153333D01*
X21317142Y-19153333D02*
X21364761Y-19177143D01*
X21364761Y-19177143D02*
X21555237Y-19177143D01*
X20959999Y-18915238D02*
X20912380Y-18915238D01*
X20912380Y-18915238D02*
X20864761Y-18939048D01*
X20864761Y-18939048D02*
X20840951Y-18962857D01*
X20840951Y-18962857D02*
X20817142Y-19010476D01*
X20817142Y-19010476D02*
X20793332Y-19105714D01*
X20793332Y-19105714D02*
X20793332Y-19224762D01*
X20793332Y-19224762D02*
X20817142Y-19320000D01*
X20817142Y-19320000D02*
X20840951Y-19367619D01*
X20840951Y-19367619D02*
X20864761Y-19391429D01*
X20864761Y-19391429D02*
X20912380Y-19415238D01*
X20912380Y-19415238D02*
X20959999Y-19415238D01*
X20959999Y-19415238D02*
X21007618Y-19391429D01*
X21007618Y-19391429D02*
X21031427Y-19367619D01*
X21031427Y-19367619D02*
X21055237Y-19320000D01*
X21055237Y-19320000D02*
X21079046Y-19224762D01*
X21079046Y-19224762D02*
X21079046Y-19105714D01*
X21079046Y-19105714D02*
X21055237Y-19010476D01*
X21055237Y-19010476D02*
X21031427Y-18962857D01*
X21031427Y-18962857D02*
X21007618Y-18939048D01*
X21007618Y-18939048D02*
X20959999Y-18915238D01*
X20626666Y-18915238D02*
X20317142Y-18915238D01*
X20317142Y-18915238D02*
X20483809Y-19105714D01*
X20483809Y-19105714D02*
X20412380Y-19105714D01*
X20412380Y-19105714D02*
X20364761Y-19129524D01*
X20364761Y-19129524D02*
X20340952Y-19153333D01*
X20340952Y-19153333D02*
X20317142Y-19200952D01*
X20317142Y-19200952D02*
X20317142Y-19320000D01*
X20317142Y-19320000D02*
X20340952Y-19367619D01*
X20340952Y-19367619D02*
X20364761Y-19391429D01*
X20364761Y-19391429D02*
X20412380Y-19415238D01*
X20412380Y-19415238D02*
X20555237Y-19415238D01*
X20555237Y-19415238D02*
X20602856Y-19391429D01*
X20602856Y-19391429D02*
X20626666Y-19367619D01*
X19864762Y-18915238D02*
X20102857Y-18915238D01*
X20102857Y-18915238D02*
X20126666Y-19153333D01*
X20126666Y-19153333D02*
X20102857Y-19129524D01*
X20102857Y-19129524D02*
X20055238Y-19105714D01*
X20055238Y-19105714D02*
X19936190Y-19105714D01*
X19936190Y-19105714D02*
X19888571Y-19129524D01*
X19888571Y-19129524D02*
X19864762Y-19153333D01*
X19864762Y-19153333D02*
X19840952Y-19200952D01*
X19840952Y-19200952D02*
X19840952Y-19320000D01*
X19840952Y-19320000D02*
X19864762Y-19367619D01*
X19864762Y-19367619D02*
X19888571Y-19391429D01*
X19888571Y-19391429D02*
X19936190Y-19415238D01*
X19936190Y-19415238D02*
X20055238Y-19415238D01*
X20055238Y-19415238D02*
X20102857Y-19391429D01*
X20102857Y-19391429D02*
X20126666Y-19367619D01*
X11528237Y-23663238D02*
X11528237Y-23163238D01*
X11242523Y-23663238D02*
X11456808Y-23377524D01*
X11242523Y-23163238D02*
X11528237Y-23448952D01*
X11028237Y-23663238D02*
X11028237Y-23163238D01*
X11028237Y-23163238D02*
X10837761Y-23163238D01*
X10837761Y-23163238D02*
X10790142Y-23187048D01*
X10790142Y-23187048D02*
X10766332Y-23210857D01*
X10766332Y-23210857D02*
X10742523Y-23258476D01*
X10742523Y-23258476D02*
X10742523Y-23329905D01*
X10742523Y-23329905D02*
X10766332Y-23377524D01*
X10766332Y-23377524D02*
X10790142Y-23401333D01*
X10790142Y-23401333D02*
X10837761Y-23425143D01*
X10837761Y-23425143D02*
X11028237Y-23425143D01*
X10432999Y-23163238D02*
X10385380Y-23163238D01*
X10385380Y-23163238D02*
X10337761Y-23187048D01*
X10337761Y-23187048D02*
X10313951Y-23210857D01*
X10313951Y-23210857D02*
X10290142Y-23258476D01*
X10290142Y-23258476D02*
X10266332Y-23353714D01*
X10266332Y-23353714D02*
X10266332Y-23472762D01*
X10266332Y-23472762D02*
X10290142Y-23568000D01*
X10290142Y-23568000D02*
X10313951Y-23615619D01*
X10313951Y-23615619D02*
X10337761Y-23639429D01*
X10337761Y-23639429D02*
X10385380Y-23663238D01*
X10385380Y-23663238D02*
X10432999Y-23663238D01*
X10432999Y-23663238D02*
X10480618Y-23639429D01*
X10480618Y-23639429D02*
X10504427Y-23615619D01*
X10504427Y-23615619D02*
X10528237Y-23568000D01*
X10528237Y-23568000D02*
X10552046Y-23472762D01*
X10552046Y-23472762D02*
X10552046Y-23353714D01*
X10552046Y-23353714D02*
X10528237Y-23258476D01*
X10528237Y-23258476D02*
X10504427Y-23210857D01*
X10504427Y-23210857D02*
X10480618Y-23187048D01*
X10480618Y-23187048D02*
X10432999Y-23163238D01*
X10075856Y-23210857D02*
X10052047Y-23187048D01*
X10052047Y-23187048D02*
X10004428Y-23163238D01*
X10004428Y-23163238D02*
X9885380Y-23163238D01*
X9885380Y-23163238D02*
X9837761Y-23187048D01*
X9837761Y-23187048D02*
X9813952Y-23210857D01*
X9813952Y-23210857D02*
X9790142Y-23258476D01*
X9790142Y-23258476D02*
X9790142Y-23306095D01*
X9790142Y-23306095D02*
X9813952Y-23377524D01*
X9813952Y-23377524D02*
X10099666Y-23663238D01*
X10099666Y-23663238D02*
X9790142Y-23663238D01*
X9623476Y-23163238D02*
X9313952Y-23163238D01*
X9313952Y-23163238D02*
X9480619Y-23353714D01*
X9480619Y-23353714D02*
X9409190Y-23353714D01*
X9409190Y-23353714D02*
X9361571Y-23377524D01*
X9361571Y-23377524D02*
X9337762Y-23401333D01*
X9337762Y-23401333D02*
X9313952Y-23448952D01*
X9313952Y-23448952D02*
X9313952Y-23568000D01*
X9313952Y-23568000D02*
X9337762Y-23615619D01*
X9337762Y-23615619D02*
X9361571Y-23639429D01*
X9361571Y-23639429D02*
X9409190Y-23663238D01*
X9409190Y-23663238D02*
X9552047Y-23663238D01*
X9552047Y-23663238D02*
X9599666Y-23639429D01*
X9599666Y-23639429D02*
X9623476Y-23615619D01*
X12872237Y-23350238D02*
X12872237Y-22850238D01*
X12586523Y-23350238D02*
X12800808Y-23064524D01*
X12586523Y-22850238D02*
X12872237Y-23135952D01*
X12372237Y-23350238D02*
X12372237Y-22850238D01*
X12372237Y-22850238D02*
X12181761Y-22850238D01*
X12181761Y-22850238D02*
X12134142Y-22874048D01*
X12134142Y-22874048D02*
X12110332Y-22897857D01*
X12110332Y-22897857D02*
X12086523Y-22945476D01*
X12086523Y-22945476D02*
X12086523Y-23016905D01*
X12086523Y-23016905D02*
X12110332Y-23064524D01*
X12110332Y-23064524D02*
X12134142Y-23088333D01*
X12134142Y-23088333D02*
X12181761Y-23112143D01*
X12181761Y-23112143D02*
X12372237Y-23112143D01*
X11776999Y-22850238D02*
X11729380Y-22850238D01*
X11729380Y-22850238D02*
X11681761Y-22874048D01*
X11681761Y-22874048D02*
X11657951Y-22897857D01*
X11657951Y-22897857D02*
X11634142Y-22945476D01*
X11634142Y-22945476D02*
X11610332Y-23040714D01*
X11610332Y-23040714D02*
X11610332Y-23159762D01*
X11610332Y-23159762D02*
X11634142Y-23255000D01*
X11634142Y-23255000D02*
X11657951Y-23302619D01*
X11657951Y-23302619D02*
X11681761Y-23326429D01*
X11681761Y-23326429D02*
X11729380Y-23350238D01*
X11729380Y-23350238D02*
X11776999Y-23350238D01*
X11776999Y-23350238D02*
X11824618Y-23326429D01*
X11824618Y-23326429D02*
X11848427Y-23302619D01*
X11848427Y-23302619D02*
X11872237Y-23255000D01*
X11872237Y-23255000D02*
X11896046Y-23159762D01*
X11896046Y-23159762D02*
X11896046Y-23040714D01*
X11896046Y-23040714D02*
X11872237Y-22945476D01*
X11872237Y-22945476D02*
X11848427Y-22897857D01*
X11848427Y-22897857D02*
X11824618Y-22874048D01*
X11824618Y-22874048D02*
X11776999Y-22850238D01*
X11419856Y-22897857D02*
X11396047Y-22874048D01*
X11396047Y-22874048D02*
X11348428Y-22850238D01*
X11348428Y-22850238D02*
X11229380Y-22850238D01*
X11229380Y-22850238D02*
X11181761Y-22874048D01*
X11181761Y-22874048D02*
X11157952Y-22897857D01*
X11157952Y-22897857D02*
X11134142Y-22945476D01*
X11134142Y-22945476D02*
X11134142Y-22993095D01*
X11134142Y-22993095D02*
X11157952Y-23064524D01*
X11157952Y-23064524D02*
X11443666Y-23350238D01*
X11443666Y-23350238D02*
X11134142Y-23350238D01*
X10705571Y-22850238D02*
X10800809Y-22850238D01*
X10800809Y-22850238D02*
X10848428Y-22874048D01*
X10848428Y-22874048D02*
X10872238Y-22897857D01*
X10872238Y-22897857D02*
X10919857Y-22969286D01*
X10919857Y-22969286D02*
X10943666Y-23064524D01*
X10943666Y-23064524D02*
X10943666Y-23255000D01*
X10943666Y-23255000D02*
X10919857Y-23302619D01*
X10919857Y-23302619D02*
X10896047Y-23326429D01*
X10896047Y-23326429D02*
X10848428Y-23350238D01*
X10848428Y-23350238D02*
X10753190Y-23350238D01*
X10753190Y-23350238D02*
X10705571Y-23326429D01*
X10705571Y-23326429D02*
X10681762Y-23302619D01*
X10681762Y-23302619D02*
X10657952Y-23255000D01*
X10657952Y-23255000D02*
X10657952Y-23135952D01*
X10657952Y-23135952D02*
X10681762Y-23088333D01*
X10681762Y-23088333D02*
X10705571Y-23064524D01*
X10705571Y-23064524D02*
X10753190Y-23040714D01*
X10753190Y-23040714D02*
X10848428Y-23040714D01*
X10848428Y-23040714D02*
X10896047Y-23064524D01*
X10896047Y-23064524D02*
X10919857Y-23088333D01*
X10919857Y-23088333D02*
X10943666Y-23135952D01*
X8630237Y-11459238D02*
X8630237Y-10959238D01*
X8344523Y-11459238D02*
X8558808Y-11173524D01*
X8344523Y-10959238D02*
X8630237Y-11244952D01*
X8130237Y-11459238D02*
X8130237Y-10959238D01*
X8130237Y-10959238D02*
X7939761Y-10959238D01*
X7939761Y-10959238D02*
X7892142Y-10983048D01*
X7892142Y-10983048D02*
X7868332Y-11006857D01*
X7868332Y-11006857D02*
X7844523Y-11054476D01*
X7844523Y-11054476D02*
X7844523Y-11125905D01*
X7844523Y-11125905D02*
X7868332Y-11173524D01*
X7868332Y-11173524D02*
X7892142Y-11197333D01*
X7892142Y-11197333D02*
X7939761Y-11221143D01*
X7939761Y-11221143D02*
X8130237Y-11221143D01*
X7534999Y-10959238D02*
X7487380Y-10959238D01*
X7487380Y-10959238D02*
X7439761Y-10983048D01*
X7439761Y-10983048D02*
X7415951Y-11006857D01*
X7415951Y-11006857D02*
X7392142Y-11054476D01*
X7392142Y-11054476D02*
X7368332Y-11149714D01*
X7368332Y-11149714D02*
X7368332Y-11268762D01*
X7368332Y-11268762D02*
X7392142Y-11364000D01*
X7392142Y-11364000D02*
X7415951Y-11411619D01*
X7415951Y-11411619D02*
X7439761Y-11435429D01*
X7439761Y-11435429D02*
X7487380Y-11459238D01*
X7487380Y-11459238D02*
X7534999Y-11459238D01*
X7534999Y-11459238D02*
X7582618Y-11435429D01*
X7582618Y-11435429D02*
X7606427Y-11411619D01*
X7606427Y-11411619D02*
X7630237Y-11364000D01*
X7630237Y-11364000D02*
X7654046Y-11268762D01*
X7654046Y-11268762D02*
X7654046Y-11149714D01*
X7654046Y-11149714D02*
X7630237Y-11054476D01*
X7630237Y-11054476D02*
X7606427Y-11006857D01*
X7606427Y-11006857D02*
X7582618Y-10983048D01*
X7582618Y-10983048D02*
X7534999Y-10959238D01*
X6892142Y-11459238D02*
X7177856Y-11459238D01*
X7034999Y-11459238D02*
X7034999Y-10959238D01*
X7034999Y-10959238D02*
X7082618Y-11030667D01*
X7082618Y-11030667D02*
X7130237Y-11078286D01*
X7130237Y-11078286D02*
X7177856Y-11102095D01*
X6701666Y-11006857D02*
X6677857Y-10983048D01*
X6677857Y-10983048D02*
X6630238Y-10959238D01*
X6630238Y-10959238D02*
X6511190Y-10959238D01*
X6511190Y-10959238D02*
X6463571Y-10983048D01*
X6463571Y-10983048D02*
X6439762Y-11006857D01*
X6439762Y-11006857D02*
X6415952Y-11054476D01*
X6415952Y-11054476D02*
X6415952Y-11102095D01*
X6415952Y-11102095D02*
X6439762Y-11173524D01*
X6439762Y-11173524D02*
X6725476Y-11459238D01*
X6725476Y-11459238D02*
X6415952Y-11459238D01*
X7604237Y-17210238D02*
X7604237Y-16710238D01*
X7318523Y-17210238D02*
X7532808Y-16924524D01*
X7318523Y-16710238D02*
X7604237Y-16995952D01*
X7104237Y-17210238D02*
X7104237Y-16710238D01*
X7104237Y-16710238D02*
X6913761Y-16710238D01*
X6913761Y-16710238D02*
X6866142Y-16734048D01*
X6866142Y-16734048D02*
X6842332Y-16757857D01*
X6842332Y-16757857D02*
X6818523Y-16805476D01*
X6818523Y-16805476D02*
X6818523Y-16876905D01*
X6818523Y-16876905D02*
X6842332Y-16924524D01*
X6842332Y-16924524D02*
X6866142Y-16948333D01*
X6866142Y-16948333D02*
X6913761Y-16972143D01*
X6913761Y-16972143D02*
X7104237Y-16972143D01*
X6508999Y-16710238D02*
X6461380Y-16710238D01*
X6461380Y-16710238D02*
X6413761Y-16734048D01*
X6413761Y-16734048D02*
X6389951Y-16757857D01*
X6389951Y-16757857D02*
X6366142Y-16805476D01*
X6366142Y-16805476D02*
X6342332Y-16900714D01*
X6342332Y-16900714D02*
X6342332Y-17019762D01*
X6342332Y-17019762D02*
X6366142Y-17115000D01*
X6366142Y-17115000D02*
X6389951Y-17162619D01*
X6389951Y-17162619D02*
X6413761Y-17186429D01*
X6413761Y-17186429D02*
X6461380Y-17210238D01*
X6461380Y-17210238D02*
X6508999Y-17210238D01*
X6508999Y-17210238D02*
X6556618Y-17186429D01*
X6556618Y-17186429D02*
X6580427Y-17162619D01*
X6580427Y-17162619D02*
X6604237Y-17115000D01*
X6604237Y-17115000D02*
X6628046Y-17019762D01*
X6628046Y-17019762D02*
X6628046Y-16900714D01*
X6628046Y-16900714D02*
X6604237Y-16805476D01*
X6604237Y-16805476D02*
X6580427Y-16757857D01*
X6580427Y-16757857D02*
X6556618Y-16734048D01*
X6556618Y-16734048D02*
X6508999Y-16710238D01*
X5866142Y-17210238D02*
X6151856Y-17210238D01*
X6008999Y-17210238D02*
X6008999Y-16710238D01*
X6008999Y-16710238D02*
X6056618Y-16781667D01*
X6056618Y-16781667D02*
X6104237Y-16829286D01*
X6104237Y-16829286D02*
X6151856Y-16853095D01*
X5628047Y-17210238D02*
X5532809Y-17210238D01*
X5532809Y-17210238D02*
X5485190Y-17186429D01*
X5485190Y-17186429D02*
X5461381Y-17162619D01*
X5461381Y-17162619D02*
X5413762Y-17091190D01*
X5413762Y-17091190D02*
X5389952Y-16995952D01*
X5389952Y-16995952D02*
X5389952Y-16805476D01*
X5389952Y-16805476D02*
X5413762Y-16757857D01*
X5413762Y-16757857D02*
X5437571Y-16734048D01*
X5437571Y-16734048D02*
X5485190Y-16710238D01*
X5485190Y-16710238D02*
X5580428Y-16710238D01*
X5580428Y-16710238D02*
X5628047Y-16734048D01*
X5628047Y-16734048D02*
X5651857Y-16757857D01*
X5651857Y-16757857D02*
X5675666Y-16805476D01*
X5675666Y-16805476D02*
X5675666Y-16924524D01*
X5675666Y-16924524D02*
X5651857Y-16972143D01*
X5651857Y-16972143D02*
X5628047Y-16995952D01*
X5628047Y-16995952D02*
X5580428Y-17019762D01*
X5580428Y-17019762D02*
X5485190Y-17019762D01*
X5485190Y-17019762D02*
X5437571Y-16995952D01*
X5437571Y-16995952D02*
X5413762Y-16972143D01*
X5413762Y-16972143D02*
X5389952Y-16924524D01*
X26520237Y-9326238D02*
X26520237Y-8826238D01*
X26234523Y-9326238D02*
X26448808Y-9040524D01*
X26234523Y-8826238D02*
X26520237Y-9111952D01*
X26020237Y-9326238D02*
X26020237Y-8826238D01*
X26020237Y-8826238D02*
X25829761Y-8826238D01*
X25829761Y-8826238D02*
X25782142Y-8850048D01*
X25782142Y-8850048D02*
X25758332Y-8873857D01*
X25758332Y-8873857D02*
X25734523Y-8921476D01*
X25734523Y-8921476D02*
X25734523Y-8992905D01*
X25734523Y-8992905D02*
X25758332Y-9040524D01*
X25758332Y-9040524D02*
X25782142Y-9064333D01*
X25782142Y-9064333D02*
X25829761Y-9088143D01*
X25829761Y-9088143D02*
X26020237Y-9088143D01*
X25424999Y-8826238D02*
X25377380Y-8826238D01*
X25377380Y-8826238D02*
X25329761Y-8850048D01*
X25329761Y-8850048D02*
X25305951Y-8873857D01*
X25305951Y-8873857D02*
X25282142Y-8921476D01*
X25282142Y-8921476D02*
X25258332Y-9016714D01*
X25258332Y-9016714D02*
X25258332Y-9135762D01*
X25258332Y-9135762D02*
X25282142Y-9231000D01*
X25282142Y-9231000D02*
X25305951Y-9278619D01*
X25305951Y-9278619D02*
X25329761Y-9302429D01*
X25329761Y-9302429D02*
X25377380Y-9326238D01*
X25377380Y-9326238D02*
X25424999Y-9326238D01*
X25424999Y-9326238D02*
X25472618Y-9302429D01*
X25472618Y-9302429D02*
X25496427Y-9278619D01*
X25496427Y-9278619D02*
X25520237Y-9231000D01*
X25520237Y-9231000D02*
X25544046Y-9135762D01*
X25544046Y-9135762D02*
X25544046Y-9016714D01*
X25544046Y-9016714D02*
X25520237Y-8921476D01*
X25520237Y-8921476D02*
X25496427Y-8873857D01*
X25496427Y-8873857D02*
X25472618Y-8850048D01*
X25472618Y-8850048D02*
X25424999Y-8826238D01*
X24948809Y-8826238D02*
X24901190Y-8826238D01*
X24901190Y-8826238D02*
X24853571Y-8850048D01*
X24853571Y-8850048D02*
X24829761Y-8873857D01*
X24829761Y-8873857D02*
X24805952Y-8921476D01*
X24805952Y-8921476D02*
X24782142Y-9016714D01*
X24782142Y-9016714D02*
X24782142Y-9135762D01*
X24782142Y-9135762D02*
X24805952Y-9231000D01*
X24805952Y-9231000D02*
X24829761Y-9278619D01*
X24829761Y-9278619D02*
X24853571Y-9302429D01*
X24853571Y-9302429D02*
X24901190Y-9326238D01*
X24901190Y-9326238D02*
X24948809Y-9326238D01*
X24948809Y-9326238D02*
X24996428Y-9302429D01*
X24996428Y-9302429D02*
X25020237Y-9278619D01*
X25020237Y-9278619D02*
X25044047Y-9231000D01*
X25044047Y-9231000D02*
X25067856Y-9135762D01*
X25067856Y-9135762D02*
X25067856Y-9016714D01*
X25067856Y-9016714D02*
X25044047Y-8921476D01*
X25044047Y-8921476D02*
X25020237Y-8873857D01*
X25020237Y-8873857D02*
X24996428Y-8850048D01*
X24996428Y-8850048D02*
X24948809Y-8826238D01*
X24615476Y-8826238D02*
X24305952Y-8826238D01*
X24305952Y-8826238D02*
X24472619Y-9016714D01*
X24472619Y-9016714D02*
X24401190Y-9016714D01*
X24401190Y-9016714D02*
X24353571Y-9040524D01*
X24353571Y-9040524D02*
X24329762Y-9064333D01*
X24329762Y-9064333D02*
X24305952Y-9111952D01*
X24305952Y-9111952D02*
X24305952Y-9231000D01*
X24305952Y-9231000D02*
X24329762Y-9278619D01*
X24329762Y-9278619D02*
X24353571Y-9302429D01*
X24353571Y-9302429D02*
X24401190Y-9326238D01*
X24401190Y-9326238D02*
X24544047Y-9326238D01*
X24544047Y-9326238D02*
X24591666Y-9302429D01*
X24591666Y-9302429D02*
X24615476Y-9278619D01*
X8600237Y-14012238D02*
X8600237Y-13512238D01*
X8314523Y-14012238D02*
X8528808Y-13726524D01*
X8314523Y-13512238D02*
X8600237Y-13797952D01*
X8100237Y-14012238D02*
X8100237Y-13512238D01*
X8100237Y-13512238D02*
X7909761Y-13512238D01*
X7909761Y-13512238D02*
X7862142Y-13536048D01*
X7862142Y-13536048D02*
X7838332Y-13559857D01*
X7838332Y-13559857D02*
X7814523Y-13607476D01*
X7814523Y-13607476D02*
X7814523Y-13678905D01*
X7814523Y-13678905D02*
X7838332Y-13726524D01*
X7838332Y-13726524D02*
X7862142Y-13750333D01*
X7862142Y-13750333D02*
X7909761Y-13774143D01*
X7909761Y-13774143D02*
X8100237Y-13774143D01*
X7504999Y-13512238D02*
X7457380Y-13512238D01*
X7457380Y-13512238D02*
X7409761Y-13536048D01*
X7409761Y-13536048D02*
X7385951Y-13559857D01*
X7385951Y-13559857D02*
X7362142Y-13607476D01*
X7362142Y-13607476D02*
X7338332Y-13702714D01*
X7338332Y-13702714D02*
X7338332Y-13821762D01*
X7338332Y-13821762D02*
X7362142Y-13917000D01*
X7362142Y-13917000D02*
X7385951Y-13964619D01*
X7385951Y-13964619D02*
X7409761Y-13988429D01*
X7409761Y-13988429D02*
X7457380Y-14012238D01*
X7457380Y-14012238D02*
X7504999Y-14012238D01*
X7504999Y-14012238D02*
X7552618Y-13988429D01*
X7552618Y-13988429D02*
X7576427Y-13964619D01*
X7576427Y-13964619D02*
X7600237Y-13917000D01*
X7600237Y-13917000D02*
X7624046Y-13821762D01*
X7624046Y-13821762D02*
X7624046Y-13702714D01*
X7624046Y-13702714D02*
X7600237Y-13607476D01*
X7600237Y-13607476D02*
X7576427Y-13559857D01*
X7576427Y-13559857D02*
X7552618Y-13536048D01*
X7552618Y-13536048D02*
X7504999Y-13512238D01*
X6862142Y-14012238D02*
X7147856Y-14012238D01*
X7004999Y-14012238D02*
X7004999Y-13512238D01*
X7004999Y-13512238D02*
X7052618Y-13583667D01*
X7052618Y-13583667D02*
X7100237Y-13631286D01*
X7100237Y-13631286D02*
X7147856Y-13655095D01*
X6433571Y-13512238D02*
X6528809Y-13512238D01*
X6528809Y-13512238D02*
X6576428Y-13536048D01*
X6576428Y-13536048D02*
X6600238Y-13559857D01*
X6600238Y-13559857D02*
X6647857Y-13631286D01*
X6647857Y-13631286D02*
X6671666Y-13726524D01*
X6671666Y-13726524D02*
X6671666Y-13917000D01*
X6671666Y-13917000D02*
X6647857Y-13964619D01*
X6647857Y-13964619D02*
X6624047Y-13988429D01*
X6624047Y-13988429D02*
X6576428Y-14012238D01*
X6576428Y-14012238D02*
X6481190Y-14012238D01*
X6481190Y-14012238D02*
X6433571Y-13988429D01*
X6433571Y-13988429D02*
X6409762Y-13964619D01*
X6409762Y-13964619D02*
X6385952Y-13917000D01*
X6385952Y-13917000D02*
X6385952Y-13797952D01*
X6385952Y-13797952D02*
X6409762Y-13750333D01*
X6409762Y-13750333D02*
X6433571Y-13726524D01*
X6433571Y-13726524D02*
X6481190Y-13702714D01*
X6481190Y-13702714D02*
X6576428Y-13702714D01*
X6576428Y-13702714D02*
X6624047Y-13726524D01*
X6624047Y-13726524D02*
X6647857Y-13750333D01*
X6647857Y-13750333D02*
X6671666Y-13797952D01*
M02*
