%TF.GenerationSoftware,KiCad,Pcbnew,10.0.6*%
%TF.CreationDate,2026-09-04T18:13:08+08:00*%
%TF.ProjectId,halo_rev_a,68616c6f-5f72-4657-965f-612e6b696361,rev?*%
%TF.SameCoordinates,Original*%
%TF.FileFunction,Copper,L1,Top*%
%TF.FilePolarity,Positive*%
%FSLAX46Y46*%
G04 Gerber Fmt 4.6, Leading zero omitted, Abs format (unit mm)*
G04 Created by KiCad (PCBNEW 10.0.6) date 2026-09-04 18:13:08*
%MOMM*%
%LPD*%
G01*
G04 APERTURE LIST*
G04 Aperture macros list*
%AMRoundRect*
0 Rectangle with rounded corners*
0 $1 Rounding radius*
0 $2 $3 $4 $5 $6 $7 $8 $9 X,Y pos of 4 corners*
0 Add a 4 corners polygon primitive as box body*
4,1,4,$2,$3,$4,$5,$6,$7,$8,$9,$2,$3,0*
0 Add four circle primitives for the rounded corners*
1,1,$1+$1,$2,$3*
1,1,$1+$1,$4,$5*
1,1,$1+$1,$6,$7*
1,1,$1+$1,$8,$9*
0 Add four rect primitives between the rounded corners*
20,1,$1+$1,$2,$3,$4,$5,0*
20,1,$1+$1,$4,$5,$6,$7,0*
20,1,$1+$1,$6,$7,$8,$9,0*
20,1,$1+$1,$8,$9,$2,$3,0*%
G04 Aperture macros list end*
%TA.AperFunction,SMDPad,CuDef*%
%ADD10RoundRect,0.100000X0.021603X-0.162583X0.151603X0.062583X-0.021603X0.162583X-0.151603X-0.062583X0*%
%TD*%
%TA.AperFunction,SMDPad,CuDef*%
%ADD11C,0.800000*%
%TD*%
%TA.AperFunction,SMDPad,CuDef*%
%ADD12RoundRect,0.100000X0.120790X0.110950X-0.138221X0.088289X-0.120790X-0.110950X0.138221X-0.088289X0*%
%TD*%
%TA.AperFunction,SMDPad,CuDef*%
%ADD13RoundRect,0.100000X0.151452X0.062946X-0.099688X0.130239X-0.151452X-0.062946X0.099688X-0.130239X0*%
%TD*%
%TA.AperFunction,SMDPad,CuDef*%
%ADD14RoundRect,0.100000X-0.161730X-0.027263X0.067836X-0.149326X0.161730X0.027263X-0.067836X0.149326X0*%
%TD*%
%TA.AperFunction,SMDPad,CuDef*%
%ADD15RoundRect,0.100000X-0.101946X-0.128479X0.150331X-0.065580X0.101946X0.128479X-0.150331X0.065580X0*%
%TD*%
%TA.AperFunction,SMDPad,CuDef*%
%ADD16RoundRect,0.100000X-0.139741X-0.085863X0.118835X-0.113041X0.139741X0.085863X-0.118835X0.113041X0*%
%TD*%
%TA.AperFunction,SMDPad,CuDef*%
%ADD17RoundRect,0.100000X0.156480X-0.049132X0.007350X0.163847X-0.156480X0.049132X-0.007350X-0.163847X0*%
%TD*%
%TA.AperFunction,SMDPad,CuDef*%
%ADD18C,0.500000*%
%TD*%
%TA.AperFunction,SMDPad,CuDef*%
%ADD19RoundRect,0.160000X-0.275824X-0.418475X0.501170X-0.005340X0.275824X0.418475X-0.501170X0.005340X0*%
%TD*%
%TA.AperFunction,SMDPad,CuDef*%
%ADD20RoundRect,0.100000X-0.062946X0.151452X-0.130239X-0.099688X0.062946X-0.151452X0.130239X0.099688X0*%
%TD*%
%TA.AperFunction,SMDPad,CuDef*%
%ADD21RoundRect,0.120000X-0.180000X-0.180000X0.180000X-0.180000X0.180000X0.180000X-0.180000X0.180000X0*%
%TD*%
%TA.AperFunction,SMDPad,CuDef*%
%ADD22RoundRect,0.100000X-0.021603X0.162583X-0.151603X-0.062583X0.021603X-0.162583X0.151603X0.062583X0*%
%TD*%
%TA.AperFunction,SMDPad,CuDef*%
%ADD23RoundRect,0.100000X-0.138432X0.087958X-0.049507X-0.156362X0.138432X-0.087958X0.049507X0.156362X0*%
%TD*%
%TA.AperFunction,SMDPad,CuDef*%
%ADD24RoundRect,0.100000X-0.067836X-0.149326X0.161730X-0.027263X0.067836X0.149326X-0.161730X0.027263X0*%
%TD*%
%TA.AperFunction,SMDPad,CuDef*%
%ADD25RoundRect,0.160000X0.182976X-0.561890X0.539685X-0.240707X-0.182976X0.561890X-0.539685X0.240707X0*%
%TD*%
%TA.AperFunction,SMDPad,CuDef*%
%ADD26RoundRect,0.100000X-0.160167X0.035307X0.006958X-0.163865X0.160167X-0.035307X-0.006958X0.163865X0*%
%TD*%
%TA.AperFunction,SMDPad,CuDef*%
%ADD27RoundRect,0.100000X0.138432X-0.087958X0.049507X0.156362X-0.138432X0.087958X-0.049507X-0.156362X0*%
%TD*%
%TA.AperFunction,SMDPad,CuDef*%
%ADD28RoundRect,0.100000X-0.035307X-0.160167X0.163865X0.006958X0.035307X0.160167X-0.163865X-0.006958X0*%
%TD*%
%TA.AperFunction,SMDPad,CuDef*%
%ADD29RoundRect,0.100000X0.035307X0.160167X-0.163865X-0.006958X-0.035307X-0.160167X0.163865X0.006958X0*%
%TD*%
%TA.AperFunction,SMDPad,CuDef*%
%ADD30RoundRect,0.120000X0.480000X-0.180000X0.480000X0.180000X-0.480000X0.180000X-0.480000X-0.180000X0*%
%TD*%
%TA.AperFunction,Conductor*%
%ADD31C,0.600000*%
%TD*%
G04 APERTURE END LIST*
D10*
%TO.P,C25,1*%
%TO.N,NFC2*%
X7384040Y-10127128D03*
%TO.P,C25,2*%
%TO.N,GND*%
X7704040Y-9572872D03*
%TD*%
D11*
%TO.P,TP8,1*%
%TO.N,I2C_SDA*%
X8226011Y-7880524D03*
%TD*%
D10*
%TO.P,C24,1*%
%TO.N,NFC1*%
X8769681Y-10927128D03*
%TO.P,C24,2*%
%TO.N,GND*%
X9089681Y-10372872D03*
%TD*%
D11*
%TO.P,TP10,1*%
%TO.N,NFC1*%
X20781000Y-13544100D03*
%TD*%
D12*
%TO.P,R8,1*%
%TO.N,VDD*%
X13867863Y-19248137D03*
%TO.P,R8,2*%
%TO.N,I2C_SDA*%
X13230299Y-19303917D03*
%TD*%
D13*
%TO.P,R6,1*%
%TO.N,ACC_SA0*%
X11678536Y-19168155D03*
%TO.P,R6,2*%
%TO.N,GND*%
X11060344Y-19002511D03*
%TD*%
D14*
%TO.P,L4,1*%
%TO.N,RF_B*%
X16426282Y-5874483D03*
%TO.P,L4,2*%
%TO.N,RF_50*%
X16991368Y-6174945D03*
%TD*%
D15*
%TO.P,C21,1*%
%TO.N,ANT_FEED*%
X10778322Y-5412079D03*
%TO.P,C21,2*%
%TO.N,GND*%
X11399312Y-5257249D03*
%TD*%
D16*
%TO.P,C19,1*%
%TO.N,RF_B*%
X13507528Y-5109828D03*
%TO.P,C19,2*%
%TO.N,GND*%
X14144022Y-5176726D03*
%TD*%
D17*
%TO.P,R2,1*%
%TO.N,VBAT_SNS*%
X5401600Y-18711105D03*
%TO.P,R2,2*%
%TO.N,SNS_EN*%
X5034512Y-18186847D03*
%TD*%
D18*
%TO.P,FID2,*%
%TO.N,*%
X9248845Y-16884435D03*
%TD*%
D17*
%TO.P,C13,1*%
%TO.N,VBAT_SNS*%
X4090956Y-19628827D03*
%TO.P,C13,2*%
%TO.N,SNS_EN*%
X3723868Y-19104569D03*
%TD*%
D19*
%TO.P,LS1,1*%
%TO.N,PIEZO_DRV*%
X7281495Y-4375112D03*
%TO.P,LS1,2*%
%TO.N,PIEZO_N*%
X9047391Y-3436168D03*
%TD*%
D14*
%TO.P,L3,1*%
%TO.N,RF_A*%
X15675128Y-7287199D03*
%TO.P,L3,2*%
%TO.N,RF_B*%
X16240214Y-7587661D03*
%TD*%
D20*
%TO.P,R10,1*%
%TO.N,VDD*%
X19168155Y-14321464D03*
%TO.P,R10,2*%
%TO.N,nRESET*%
X19002511Y-14939656D03*
%TD*%
D21*
%TO.P,AE1,1*%
%TO.N,ANT_FEED*%
X24182342Y-8929960D03*
%TD*%
D11*
%TO.P,TP2,1*%
%TO.N,VDD*%
X9612938Y-12703670D03*
%TD*%
D16*
%TO.P,C22,1*%
%TO.N,RF_50*%
X13674773Y-3518593D03*
%TO.P,C22,2*%
%TO.N,GND*%
X14311267Y-3585491D03*
%TD*%
D11*
%TO.P,TP4,1*%
%TO.N,GND*%
X19184897Y-12567510D03*
%TD*%
%TO.P,TP7,1*%
%TO.N,VBAT_SNS*%
X6610090Y-15325737D03*
%TD*%
D22*
%TO.P,C8,1*%
%TO.N,DECA*%
X17230319Y-15072872D03*
%TO.P,C8,2*%
%TO.N,GND*%
X16910319Y-15627128D03*
%TD*%
D18*
%TO.P,FID1,*%
%TO.N,*%
X9716607Y-22021049D03*
%TD*%
D16*
%TO.P,C18,1*%
%TO.N,RF_A*%
X13340282Y-6701063D03*
%TO.P,C18,2*%
%TO.N,GND*%
X13976776Y-6767961D03*
%TD*%
D14*
%TO.P,L2,1*%
%TO.N,RF_ANT*%
X14923973Y-8699915D03*
%TO.P,L2,2*%
%TO.N,RF_A*%
X15489059Y-9000377D03*
%TD*%
D23*
%TO.P,C4,1*%
%TO.N,VDD*%
X17307109Y-11091803D03*
%TO.P,C4,2*%
%TO.N,GND*%
X17526001Y-11693207D03*
%TD*%
D24*
%TO.P,R9,1*%
%TO.N,PIEZO_P*%
X9008632Y-6174945D03*
%TO.P,R9,2*%
%TO.N,PIEZO_DRV*%
X9573718Y-5874483D03*
%TD*%
D16*
%TO.P,C23,1*%
%TO.N,RF_ANT*%
X13173037Y-8292298D03*
%TO.P,C23,2*%
%TO.N,GND*%
X13809531Y-8359196D03*
%TD*%
D25*
%TO.P,J1,1*%
%TO.N,VDD*%
X17064169Y-22258680D03*
%TO.P,J1,2*%
%TO.N,SWDIO*%
X18007963Y-21408884D03*
%TO.P,J1,3*%
%TO.N,nRESET*%
X18951757Y-20559088D03*
%TO.P,J1,4*%
%TO.N,SWDCLK*%
X19895551Y-19709292D03*
%TO.P,J1,5*%
%TO.N,GND*%
X20839345Y-18859496D03*
%TO.P,J1,6*%
%TO.N,SWO*%
X21783139Y-18009700D03*
%TD*%
D26*
%TO.P,C7,1*%
%TO.N,DECD*%
X18846059Y-7676844D03*
%TO.P,C7,2*%
%TO.N,GND*%
X19257443Y-8167112D03*
%TD*%
D11*
%TO.P,TP9,1*%
%TO.N,I2C_SCL*%
X9078599Y-19038428D03*
%TD*%
D17*
%TO.P,R1,1*%
%TO.N,VBAT_SNS_HI*%
X6712243Y-17793383D03*
%TO.P,R1,2*%
%TO.N,VBAT_SNS*%
X6345155Y-17269125D03*
%TD*%
D14*
%TO.P,L10,1*%
%TO.N,RF_50*%
X17177437Y-4461767D03*
%TO.P,L10,2*%
%TO.N,ANT_FEED*%
X17742523Y-4762229D03*
%TD*%
D11*
%TO.P,TP6,1*%
%TO.N,PIEZO_N*%
X19348347Y-10563098D03*
%TD*%
D26*
%TO.P,C6,1*%
%TO.N,DECD*%
X17620388Y-8705304D03*
%TO.P,C6,2*%
%TO.N,GND*%
X18031772Y-9195572D03*
%TD*%
D11*
%TO.P,TP3,1*%
%TO.N,GND*%
X7613154Y-12623315D03*
%TD*%
%TO.P,TP11,1*%
%TO.N,NFC2*%
X12163772Y-20956175D03*
%TD*%
D12*
%TO.P,R7,1*%
%TO.N,VDD*%
X13728414Y-17654225D03*
%TO.P,R7,2*%
%TO.N,I2C_SCL*%
X13090850Y-17710005D03*
%TD*%
D11*
%TO.P,TP5,1*%
%TO.N,PIEZO_P*%
X12120015Y-9715852D03*
%TD*%
D15*
%TO.P,C20,1*%
%TO.N,RF_50*%
X11165397Y-6964552D03*
%TO.P,C20,2*%
%TO.N,GND*%
X11786387Y-6809722D03*
%TD*%
D27*
%TO.P,C2,1*%
%TO.N,VDD*%
X8692891Y-14908197D03*
%TO.P,C2,2*%
%TO.N,GND*%
X8473999Y-14306793D03*
%TD*%
D28*
%TO.P,C1,1*%
%TO.N,VDD*%
X9733764Y-9605283D03*
%TO.P,C1,2*%
%TO.N,GND*%
X10224032Y-9193899D03*
%TD*%
D29*
%TO.P,C3,1*%
%TO.N,VDD*%
X16266236Y-16394717D03*
%TO.P,C3,2*%
%TO.N,GND*%
X15775968Y-16806101D03*
%TD*%
D30*
%TO.P,J2,1*%
%TO.N,VDD*%
X1900000Y-16500000D03*
%TO.P,J2,2*%
%TO.N,GND*%
X1900000Y-15500000D03*
%TO.P,J2,3*%
%TO.N,SPI_SCK*%
X1900000Y-14500000D03*
%TO.P,J2,4*%
%TO.N,SPI_MOSI*%
X1900000Y-13500000D03*
%TO.P,J2,5*%
%TO.N,SPI_MISO*%
X1900000Y-12500000D03*
%TO.P,J2,6*%
%TO.N,UWB_CS*%
X1900000Y-11500000D03*
%TO.P,J2,7*%
%TO.N,UWB_IRQ*%
X1900000Y-10500000D03*
%TO.P,J2,8*%
%TO.N,UWB_RST*%
X1900000Y-9500000D03*
%TD*%
D13*
%TO.P,R5,1*%
%TO.N,VDD*%
X12092646Y-17622673D03*
%TO.P,R5,2*%
%TO.N,ACC_CS*%
X11474454Y-17457029D03*
%TD*%
D26*
%TO.P,C5,1*%
%TO.N,DECD*%
X16394717Y-9733764D03*
%TO.P,C5,2*%
%TO.N,GND*%
X16806101Y-10224032D03*
%TD*%
D11*
%TO.P,TP1,1*%
%TO.N,VDD*%
X16391718Y-13237172D03*
%TD*%
%TO.N,ANT_FEED*%
D31*
X15651977Y-2363500D02*
X15878871Y-1453481D01*
X19287615Y-4020355D02*
X19825560Y-3252091D01*
X11549755Y-1188701D02*
X10121129Y-1453481D01*
X22865547Y-6345604D02*
X20962654Y-4156577D01*
X13000000Y-2037878D02*
X11664053Y-2119588D01*
X13000000Y-1100000D02*
X13000000Y-2037878D01*
X16928473Y-2765977D02*
X15651977Y-2363500D01*
X20335091Y-4853556D02*
X19287615Y-4020355D01*
X22088011Y-6870059D02*
X22865547Y-6345604D01*
X23602978Y-7597513D02*
X22767322Y-8023301D01*
X17264579Y-1890393D02*
X16928473Y-2765977D01*
X11664053Y-2119588D02*
X11549755Y-1188701D01*
X24182342Y-8929960D02*
X23602978Y-7597513D01*
X20962654Y-4156577D02*
X20335091Y-4853556D01*
X19825560Y-3252091D02*
X17264579Y-1890393D01*
X15878871Y-1453481D02*
X13000000Y-1100000D01*
X22767322Y-8023301D02*
X22088011Y-6870059D01*
%TD*%
%TA.AperFunction,Conductor*%
%TO.N,GND*%
G36*
X9472527Y-1502038D02*
G01*
X9499024Y-1548828D01*
X9540630Y-1684913D01*
X9864626Y-2744657D01*
X9865402Y-2814522D01*
X9828283Y-2873716D01*
X9765053Y-2903445D01*
X9695788Y-2894271D01*
X9642480Y-2849105D01*
X9636558Y-2839124D01*
X9625457Y-2818246D01*
X9625454Y-2818240D01*
X9583544Y-2761162D01*
X9583542Y-2761161D01*
X9583542Y-2761160D01*
X9486143Y-2690533D01*
X9371084Y-2655356D01*
X9250849Y-2659444D01*
X9250836Y-2659446D01*
X9184188Y-2683324D01*
X9184171Y-2683332D01*
X8346775Y-3128585D01*
X8346763Y-3128592D01*
X8289688Y-3170500D01*
X8219061Y-3267899D01*
X8183884Y-3382958D01*
X8187972Y-3503202D01*
X8211853Y-3569858D01*
X8211859Y-3569871D01*
X8285686Y-3708718D01*
X8469328Y-4054096D01*
X8511238Y-4111174D01*
X8608639Y-4181803D01*
X8723695Y-4216979D01*
X8723696Y-4216978D01*
X8723697Y-4216979D01*
X8751550Y-4216032D01*
X8843940Y-4212891D01*
X8910602Y-4189008D01*
X9748014Y-3743747D01*
X9805092Y-3701837D01*
X9875721Y-3604436D01*
X9877570Y-3598390D01*
X9883022Y-3580556D01*
X9921446Y-3522200D01*
X9985319Y-3493882D01*
X10054363Y-3504592D01*
X10060179Y-3509745D01*
X10060921Y-3508379D01*
X10105518Y-3532582D01*
X10105519Y-3532581D01*
X10105520Y-3532583D01*
X10428754Y-3439769D01*
X10432749Y-3438696D01*
X10756917Y-3357496D01*
X10761019Y-3356543D01*
X11087741Y-3286475D01*
X11091852Y-3285666D01*
X11420812Y-3226798D01*
X11424931Y-3226134D01*
X11755724Y-3178539D01*
X11759812Y-3178022D01*
X12092052Y-3141758D01*
X12096213Y-3141375D01*
X12429457Y-3116489D01*
X12433674Y-3116247D01*
X12767566Y-3102764D01*
X12771686Y-3102668D01*
X13105948Y-3100601D01*
X13110074Y-3100647D01*
X13172832Y-3102404D01*
X13239293Y-3123957D01*
X13283551Y-3178022D01*
X13291555Y-3247431D01*
X13276939Y-3288019D01*
X13267301Y-3304832D01*
X13267296Y-3304844D01*
X13261777Y-3329506D01*
X13261774Y-3329521D01*
X13231490Y-3617662D01*
X13231761Y-3642960D01*
X13265311Y-3747307D01*
X13266149Y-3749912D01*
X13309951Y-3804004D01*
X13333058Y-3832539D01*
X13336851Y-3837222D01*
X13434319Y-3893095D01*
X13459002Y-3898621D01*
X13806816Y-3935176D01*
X13832109Y-3934905D01*
X13939064Y-3900517D01*
X14026374Y-3829815D01*
X14082247Y-3732348D01*
X14082489Y-3731270D01*
X14087208Y-3710182D01*
X14087772Y-3707664D01*
X14118056Y-3419522D01*
X14117785Y-3394228D01*
X14116369Y-3389825D01*
X14100176Y-3339459D01*
X14098395Y-3269612D01*
X14134660Y-3209891D01*
X14197455Y-3179256D01*
X14234362Y-3178559D01*
X14421265Y-3203095D01*
X14454074Y-3207403D01*
X14458267Y-3208026D01*
X14478030Y-3211311D01*
X14787907Y-3262819D01*
X14792070Y-3263586D01*
X14879425Y-3281193D01*
X15119598Y-3329602D01*
X15123689Y-3330499D01*
X15448833Y-3407684D01*
X15452868Y-3408714D01*
X15763917Y-3493882D01*
X15775184Y-3496967D01*
X15779247Y-3498154D01*
X16098320Y-3597356D01*
X16102288Y-3598665D01*
X16417842Y-3708732D01*
X16421725Y-3710161D01*
X16733326Y-3830945D01*
X16737236Y-3832539D01*
X16866572Y-3887827D01*
X16920478Y-3932278D01*
X16941795Y-3998817D01*
X16923754Y-4066317D01*
X16894478Y-4099321D01*
X16879708Y-4110934D01*
X16865337Y-4131752D01*
X16729319Y-4387565D01*
X16720097Y-4411116D01*
X16720096Y-4411119D01*
X16711913Y-4523167D01*
X16744761Y-4630607D01*
X16814202Y-4718926D01*
X16835009Y-4733288D01*
X16835012Y-4733289D01*
X16835017Y-4733293D01*
X17143810Y-4897480D01*
X17167364Y-4906704D01*
X17243598Y-4912270D01*
X17309024Y-4936785D01*
X17332043Y-4959299D01*
X17379286Y-5019386D01*
X17379288Y-5019387D01*
X17400095Y-5033750D01*
X17400098Y-5033751D01*
X17400103Y-5033755D01*
X17708896Y-5197942D01*
X17732450Y-5207166D01*
X17828132Y-5214152D01*
X17844496Y-5215348D01*
X17844496Y-5215347D01*
X17844498Y-5215348D01*
X17951935Y-5182501D01*
X18040252Y-5113061D01*
X18054622Y-5092245D01*
X18190641Y-4836429D01*
X18199864Y-4812875D01*
X18201229Y-4794169D01*
X18225744Y-4728744D01*
X18281739Y-4686956D01*
X18351438Y-4682075D01*
X18392322Y-4699133D01*
X18522292Y-4783335D01*
X18525809Y-4785700D01*
X18799857Y-4976850D01*
X18803280Y-4979325D01*
X19070673Y-5179755D01*
X19073967Y-5182314D01*
X19249592Y-5323583D01*
X19334328Y-5391743D01*
X19337585Y-5394456D01*
X19590620Y-5612646D01*
X19593781Y-5615467D01*
X19839221Y-5842183D01*
X19842285Y-5845112D01*
X20079831Y-6080081D01*
X20082784Y-6083104D01*
X20305634Y-6319139D01*
X20312157Y-6326047D01*
X20315003Y-6329166D01*
X20375265Y-6397530D01*
X20535975Y-6579847D01*
X20538722Y-6583074D01*
X20651567Y-6720270D01*
X20745176Y-6834080D01*
X20750944Y-6841092D01*
X20753571Y-6844399D01*
X20956912Y-7109597D01*
X20959397Y-7112955D01*
X21153538Y-7384921D01*
X21155931Y-7388398D01*
X21337362Y-7661862D01*
X21340662Y-7666835D01*
X21342935Y-7670393D01*
X21495091Y-7917677D01*
X21518035Y-7954966D01*
X21520194Y-7958613D01*
X21685459Y-8248992D01*
X21687492Y-8252710D01*
X21744338Y-8361042D01*
X21810444Y-8487023D01*
X21842749Y-8548586D01*
X21844648Y-8552362D01*
X21936621Y-8743219D01*
X21989696Y-8853358D01*
X21991470Y-8857206D01*
X22126145Y-9162975D01*
X22127787Y-9166882D01*
X22251942Y-9477096D01*
X22253449Y-9481057D01*
X22366923Y-9795311D01*
X22368294Y-9799321D01*
X22470959Y-10117257D01*
X22472193Y-10121312D01*
X22563945Y-10442609D01*
X22565039Y-10446703D01*
X22646264Y-10772985D01*
X24667491Y-10306347D01*
X24737239Y-10310447D01*
X24793700Y-10351604D01*
X24816445Y-10400330D01*
X24834840Y-10483303D01*
X24835290Y-10485420D01*
X24876962Y-10690242D01*
X24877375Y-10692367D01*
X24915472Y-10897920D01*
X24915839Y-10900005D01*
X24939872Y-11043616D01*
X24950333Y-11106132D01*
X24950671Y-11108269D01*
X24981570Y-11315018D01*
X24981871Y-11317160D01*
X25009147Y-11524338D01*
X25009411Y-11526487D01*
X25033078Y-11734215D01*
X25033304Y-11736367D01*
X25053334Y-11944380D01*
X25053523Y-11946537D01*
X25069920Y-12154896D01*
X25070071Y-12157054D01*
X25082831Y-12365680D01*
X25082944Y-12367841D01*
X25092062Y-12576674D01*
X25092138Y-12578837D01*
X25097609Y-12787767D01*
X25097646Y-12789931D01*
X25099470Y-12998917D01*
X25099470Y-13001081D01*
X25097646Y-13210067D01*
X25097609Y-13212231D01*
X25092138Y-13421161D01*
X25092062Y-13423324D01*
X25082944Y-13632157D01*
X25082831Y-13634318D01*
X25070071Y-13842944D01*
X25069920Y-13845102D01*
X25053523Y-14053461D01*
X25053334Y-14055618D01*
X25033304Y-14263631D01*
X25033078Y-14265783D01*
X25009411Y-14473511D01*
X25009147Y-14475660D01*
X24981871Y-14682838D01*
X24981570Y-14684980D01*
X24950671Y-14891729D01*
X24950333Y-14893866D01*
X24924316Y-15049344D01*
X24915848Y-15099946D01*
X24915472Y-15102078D01*
X24877380Y-15307606D01*
X24876967Y-15309731D01*
X24835290Y-15514579D01*
X24834840Y-15516696D01*
X24788627Y-15725144D01*
X24788540Y-15725531D01*
X24774304Y-15788782D01*
X24774256Y-15789342D01*
X24774220Y-15789739D01*
X24774164Y-15790356D01*
X24774165Y-15790383D01*
X24774165Y-15790385D01*
X24776077Y-15834186D01*
X24776989Y-15855059D01*
X24777006Y-15855458D01*
X24779634Y-15920472D01*
X24779771Y-15921243D01*
X24779844Y-15921658D01*
X24779908Y-15922028D01*
X24779912Y-15922043D01*
X24779913Y-15922044D01*
X24795883Y-15972697D01*
X24799372Y-15983761D01*
X24799491Y-15984141D01*
X24818860Y-16046268D01*
X24819008Y-16046585D01*
X24819196Y-16046990D01*
X24819525Y-16047703D01*
X24819541Y-16047728D01*
X24854542Y-16102670D01*
X24873527Y-16132682D01*
X24889318Y-16157645D01*
X24889943Y-16158390D01*
X24890179Y-16158673D01*
X24890345Y-16158873D01*
X24936513Y-16201176D01*
X24938457Y-16202957D01*
X24989563Y-16250091D01*
X24997494Y-16257405D01*
X25033429Y-16317325D01*
X25032917Y-16381695D01*
X25015565Y-16444264D01*
X25014969Y-16446344D01*
X24953609Y-16653491D01*
X24952976Y-16655561D01*
X24888025Y-16861556D01*
X24887356Y-16863615D01*
X24818823Y-17068434D01*
X24818119Y-17070478D01*
X24746017Y-17274092D01*
X24745276Y-17276127D01*
X24669669Y-17478347D01*
X24668894Y-17480367D01*
X24589720Y-17681363D01*
X24588909Y-17683370D01*
X24506246Y-17882935D01*
X24505400Y-17884927D01*
X24419253Y-18083052D01*
X24418373Y-18085030D01*
X24328847Y-18281474D01*
X24327933Y-18283434D01*
X24234909Y-18478465D01*
X24233960Y-18480411D01*
X24137604Y-18673670D01*
X24136621Y-18675598D01*
X24036880Y-18867198D01*
X24035864Y-18869109D01*
X23932796Y-19058937D01*
X23931747Y-19060830D01*
X23825375Y-19248841D01*
X23824293Y-19250715D01*
X23714704Y-19436761D01*
X23713589Y-19438616D01*
X23600715Y-19622810D01*
X23599578Y-19624629D01*
X23555990Y-19693049D01*
X23483552Y-19806753D01*
X23482374Y-19808567D01*
X23363154Y-19988690D01*
X23361944Y-19990484D01*
X23239577Y-20168529D01*
X23238335Y-20170302D01*
X23112893Y-20346164D01*
X23111622Y-20347915D01*
X23095504Y-20369698D01*
X22983149Y-20521536D01*
X22981892Y-20523204D01*
X22921984Y-20601278D01*
X22850373Y-20694603D01*
X22849040Y-20696308D01*
X22714590Y-20865333D01*
X22713229Y-20867015D01*
X22575834Y-21033689D01*
X22574443Y-21035346D01*
X22434194Y-21199559D01*
X22432773Y-21201193D01*
X22289628Y-21362988D01*
X22288180Y-21364596D01*
X22142282Y-21523816D01*
X22140806Y-21525399D01*
X21992118Y-21682083D01*
X21990615Y-21683640D01*
X21839202Y-21837718D01*
X21837671Y-21839248D01*
X21683672Y-21990581D01*
X21682117Y-21992084D01*
X21525425Y-22140782D01*
X21523841Y-22142259D01*
X21364552Y-22288219D01*
X21362944Y-22289666D01*
X21201246Y-22432725D01*
X21199613Y-22434145D01*
X21035352Y-22574437D01*
X21033694Y-22575829D01*
X20866952Y-22713280D01*
X20865270Y-22714642D01*
X20696342Y-22849013D01*
X20694637Y-22850344D01*
X20523183Y-22981907D01*
X20521454Y-22983210D01*
X20347865Y-23111659D01*
X20346114Y-23112931D01*
X20170299Y-23238338D01*
X20168526Y-23239580D01*
X19990518Y-23361921D01*
X19988724Y-23363131D01*
X19808605Y-23482348D01*
X19806791Y-23483526D01*
X19624652Y-23599563D01*
X19622816Y-23600710D01*
X19438607Y-23713594D01*
X19436751Y-23714709D01*
X19250718Y-23824290D01*
X19248845Y-23825372D01*
X19060756Y-23931789D01*
X19058864Y-23932837D01*
X18890720Y-24024132D01*
X18869123Y-24035858D01*
X18867212Y-24036874D01*
X18675603Y-24136619D01*
X18673675Y-24137602D01*
X18480393Y-24233969D01*
X18478447Y-24234918D01*
X18283455Y-24327923D01*
X18281495Y-24328837D01*
X18084990Y-24418391D01*
X18083012Y-24419271D01*
X17884971Y-24505382D01*
X17882979Y-24506228D01*
X17683370Y-24588909D01*
X17681363Y-24589720D01*
X17480367Y-24668894D01*
X17478347Y-24669669D01*
X17276127Y-24745276D01*
X17274093Y-24746017D01*
X17070421Y-24818140D01*
X17068375Y-24818844D01*
X16863584Y-24887367D01*
X16861525Y-24888036D01*
X16655586Y-24952968D01*
X16653517Y-24953601D01*
X16446344Y-25014969D01*
X16444263Y-25015565D01*
X16236109Y-25073291D01*
X16234019Y-25073851D01*
X16024983Y-25127912D01*
X16022883Y-25128436D01*
X15812837Y-25178863D01*
X15810728Y-25179350D01*
X15599803Y-25226110D01*
X15597686Y-25226560D01*
X15386100Y-25269607D01*
X15383977Y-25270020D01*
X15171539Y-25309394D01*
X15169406Y-25309769D01*
X14956419Y-25345410D01*
X14954283Y-25345749D01*
X14740640Y-25377679D01*
X14738496Y-25377980D01*
X14524367Y-25406170D01*
X14522219Y-25406434D01*
X14307626Y-25430884D01*
X14305474Y-25431110D01*
X14090478Y-25451812D01*
X14088321Y-25452001D01*
X13873004Y-25468946D01*
X13870846Y-25469097D01*
X13655240Y-25482284D01*
X13653079Y-25482397D01*
X13437338Y-25491817D01*
X13435175Y-25491893D01*
X13219177Y-25497549D01*
X13217013Y-25497586D01*
X13001082Y-25499470D01*
X12998918Y-25499470D01*
X12782987Y-25497586D01*
X12780823Y-25497549D01*
X12564822Y-25491893D01*
X12562659Y-25491817D01*
X12346919Y-25482397D01*
X12344758Y-25482284D01*
X12129152Y-25469097D01*
X12126993Y-25468946D01*
X11911630Y-25451997D01*
X11909474Y-25451808D01*
X11694542Y-25431112D01*
X11692390Y-25430886D01*
X11477773Y-25406433D01*
X11475625Y-25406169D01*
X11261492Y-25377978D01*
X11259349Y-25377677D01*
X11045740Y-25345753D01*
X11043603Y-25345415D01*
X10830518Y-25309758D01*
X10828385Y-25309381D01*
X10616086Y-25270032D01*
X10613963Y-25269620D01*
X10402312Y-25226560D01*
X10400195Y-25226110D01*
X10189270Y-25179350D01*
X10187174Y-25178866D01*
X10150802Y-25170134D01*
X9977130Y-25128439D01*
X9975030Y-25127915D01*
X9912176Y-25111660D01*
X9852201Y-25075818D01*
X9822249Y-25018838D01*
X9804610Y-24940468D01*
X9804523Y-24940076D01*
X9790489Y-24876767D01*
X9790281Y-24876201D01*
X9790149Y-24875841D01*
X9789942Y-24875272D01*
X9759663Y-24817561D01*
X9729640Y-24759888D01*
X9729639Y-24759887D01*
X9729628Y-24759865D01*
X9729067Y-24759069D01*
X9728869Y-24758788D01*
X9728712Y-24758565D01*
X9728708Y-24758561D01*
X9728708Y-24758560D01*
X9684590Y-24710724D01*
X9667240Y-24691789D01*
X9640607Y-24662722D01*
X9640431Y-24662576D01*
X9640157Y-24662347D01*
X9639388Y-24661702D01*
X9639365Y-24661687D01*
X9639364Y-24661686D01*
X9584559Y-24627018D01*
X9584344Y-24626881D01*
X9529444Y-24591906D01*
X9528828Y-24591622D01*
X9528422Y-24591433D01*
X9528013Y-24591242D01*
X9523131Y-24589720D01*
X9465911Y-24571880D01*
X9465531Y-24571761D01*
X9262083Y-24507614D01*
X9260025Y-24506945D01*
X9061792Y-24440617D01*
X9059786Y-24439927D01*
X8862648Y-24370116D01*
X8860726Y-24369416D01*
X8826034Y-24356445D01*
X8664941Y-24296214D01*
X8663011Y-24295473D01*
X8468442Y-24218832D01*
X8466457Y-24218030D01*
X8273397Y-24138062D01*
X8271405Y-24137217D01*
X8079650Y-24053840D01*
X8077673Y-24052959D01*
X7887563Y-23966320D01*
X7885602Y-23965406D01*
X7696898Y-23875399D01*
X7694953Y-23874450D01*
X7584634Y-23819448D01*
X7507889Y-23781184D01*
X7506029Y-23780237D01*
X7320594Y-23683705D01*
X7318699Y-23682698D01*
X7237392Y-23638552D01*
X7134992Y-23582952D01*
X7133178Y-23581947D01*
X6951164Y-23478969D01*
X6949317Y-23477902D01*
X6786428Y-23381954D01*
X6769238Y-23371828D01*
X6767434Y-23370745D01*
X6589140Y-23261486D01*
X6587321Y-23260349D01*
X6554720Y-23239580D01*
X6475226Y-23188936D01*
X6411106Y-23148087D01*
X6409291Y-23146909D01*
X6234955Y-23031519D01*
X6233161Y-23030309D01*
X6060916Y-22911928D01*
X6059172Y-22910707D01*
X5888921Y-22789268D01*
X5887270Y-22788069D01*
X5875280Y-22779197D01*
X5719204Y-22663705D01*
X5717477Y-22662403D01*
X5623367Y-22590191D01*
X5551635Y-22535150D01*
X5549999Y-22533872D01*
X5423765Y-22433460D01*
X5386442Y-22403772D01*
X5384760Y-22402410D01*
X5223399Y-22269394D01*
X5221742Y-22268003D01*
X5062836Y-22132285D01*
X5061202Y-22130865D01*
X4943505Y-22026735D01*
X4904672Y-21992379D01*
X4903063Y-21990930D01*
X4849657Y-21941992D01*
X9116107Y-21941992D01*
X9116107Y-22100106D01*
X9156993Y-22252693D01*
X9157030Y-22252832D01*
X9157033Y-22252839D01*
X9236082Y-22389758D01*
X9236086Y-22389763D01*
X9236087Y-22389765D01*
X9347891Y-22501569D01*
X9347893Y-22501570D01*
X9347897Y-22501573D01*
X9480843Y-22578328D01*
X9484823Y-22580626D01*
X9637550Y-22621549D01*
X9637552Y-22621549D01*
X9795662Y-22621549D01*
X9795664Y-22621549D01*
X9948391Y-22580626D01*
X10085323Y-22501569D01*
X10197127Y-22389765D01*
X10276184Y-22252833D01*
X10317107Y-22100106D01*
X10317107Y-22059178D01*
X16161328Y-22059178D01*
X16194386Y-22174864D01*
X16216059Y-22207349D01*
X16233686Y-22233768D01*
X16543927Y-22578325D01*
X16951446Y-23030921D01*
X17002135Y-23087216D01*
X17056609Y-23132460D01*
X17168204Y-23177427D01*
X17276383Y-23183096D01*
X17288350Y-23183724D01*
X17288350Y-23183723D01*
X17288352Y-23183724D01*
X17404036Y-23150667D01*
X17462940Y-23111368D01*
X17870501Y-22744396D01*
X17915744Y-22689923D01*
X17960712Y-22578328D01*
X17967009Y-22458180D01*
X17967547Y-22447919D01*
X17970430Y-22448070D01*
X17979655Y-22395119D01*
X18026957Y-22343696D01*
X18094551Y-22326010D01*
X18104375Y-22327231D01*
X18111996Y-22327630D01*
X18111998Y-22327631D01*
X18209078Y-22332719D01*
X18232144Y-22333928D01*
X18232144Y-22333927D01*
X18232146Y-22333928D01*
X18347830Y-22300871D01*
X18406734Y-22261572D01*
X18814295Y-21894600D01*
X18859538Y-21840127D01*
X18904506Y-21728532D01*
X18910803Y-21608384D01*
X18911341Y-21598123D01*
X18914224Y-21598274D01*
X18923449Y-21545323D01*
X18970751Y-21493900D01*
X19038345Y-21476214D01*
X19048169Y-21477435D01*
X19055790Y-21477834D01*
X19055792Y-21477835D01*
X19152872Y-21482923D01*
X19175938Y-21484132D01*
X19175938Y-21484131D01*
X19175940Y-21484132D01*
X19291624Y-21451075D01*
X19350528Y-21411776D01*
X19758089Y-21044804D01*
X19803332Y-20990331D01*
X19848300Y-20878736D01*
X19854597Y-20758588D01*
X19855135Y-20748327D01*
X19858018Y-20748478D01*
X19867243Y-20695527D01*
X19914545Y-20644104D01*
X19982139Y-20626418D01*
X19991963Y-20627639D01*
X19999584Y-20628038D01*
X19999586Y-20628039D01*
X20096666Y-20633127D01*
X20119732Y-20634336D01*
X20119732Y-20634335D01*
X20119734Y-20634336D01*
X20235418Y-20601279D01*
X20294322Y-20561980D01*
X20701883Y-20195008D01*
X20747126Y-20140535D01*
X20792094Y-20028940D01*
X20798391Y-19908792D01*
X20765334Y-19793108D01*
X20726034Y-19734204D01*
X20190701Y-19139657D01*
X19957587Y-18880758D01*
X19957579Y-18880751D01*
X19922740Y-18851815D01*
X19903111Y-18835512D01*
X19791516Y-18790545D01*
X19671369Y-18784247D01*
X19555682Y-18817305D01*
X19496786Y-18856599D01*
X19496781Y-18856602D01*
X19496780Y-18856604D01*
X19091317Y-19221687D01*
X19089215Y-19223580D01*
X19089214Y-19223580D01*
X19043975Y-19278048D01*
X18999009Y-19389638D01*
X18999008Y-19389646D01*
X18992173Y-19520053D01*
X18989291Y-19519902D01*
X18980053Y-19572874D01*
X18932742Y-19624287D01*
X18865144Y-19641961D01*
X18855318Y-19640739D01*
X18727575Y-19634043D01*
X18611888Y-19667101D01*
X18552992Y-19706395D01*
X18552987Y-19706398D01*
X18552986Y-19706400D01*
X18145425Y-20073372D01*
X18145421Y-20073376D01*
X18145420Y-20073376D01*
X18100181Y-20127844D01*
X18055215Y-20239434D01*
X18055214Y-20239442D01*
X18048379Y-20369849D01*
X18045497Y-20369698D01*
X18036259Y-20422670D01*
X17988948Y-20474083D01*
X17921350Y-20491757D01*
X17911524Y-20490535D01*
X17783781Y-20483839D01*
X17668094Y-20516897D01*
X17609198Y-20556191D01*
X17609193Y-20556194D01*
X17609192Y-20556196D01*
X17242968Y-20885948D01*
X17201627Y-20923172D01*
X17201626Y-20923172D01*
X17156387Y-20977640D01*
X17111421Y-21089230D01*
X17111420Y-21089238D01*
X17104585Y-21219645D01*
X17101703Y-21219494D01*
X17092465Y-21272466D01*
X17045154Y-21323879D01*
X16977556Y-21341553D01*
X16967730Y-21340331D01*
X16839987Y-21333635D01*
X16724300Y-21366693D01*
X16665404Y-21405987D01*
X16665399Y-21405990D01*
X16665398Y-21405992D01*
X16257837Y-21772964D01*
X16257833Y-21772968D01*
X16257832Y-21772968D01*
X16212593Y-21827436D01*
X16167627Y-21939026D01*
X16167626Y-21939034D01*
X16161328Y-22059178D01*
X10317107Y-22059178D01*
X10317107Y-21941992D01*
X10276184Y-21789265D01*
X10265841Y-21771350D01*
X10197131Y-21652339D01*
X10197125Y-21652331D01*
X10085324Y-21540530D01*
X10085316Y-21540524D01*
X9948397Y-21461475D01*
X9948393Y-21461473D01*
X9948391Y-21461472D01*
X9795664Y-21420549D01*
X9637550Y-21420549D01*
X9484823Y-21461472D01*
X9484816Y-21461475D01*
X9347897Y-21540524D01*
X9347889Y-21540530D01*
X9236088Y-21652331D01*
X9236082Y-21652339D01*
X9157033Y-21789258D01*
X9157030Y-21789265D01*
X9116107Y-21941992D01*
X4849657Y-21941992D01*
X4745823Y-21846846D01*
X4745529Y-21846576D01*
X4697686Y-21802452D01*
X4697263Y-21802156D01*
X4696878Y-21801885D01*
X4696397Y-21801546D01*
X4638744Y-21771532D01*
X4638394Y-21771350D01*
X4619488Y-21761431D01*
X4581004Y-21741240D01*
X4581002Y-21741239D01*
X4580971Y-21741223D01*
X4580205Y-21740945D01*
X4579756Y-21740781D01*
X4579492Y-21740684D01*
X4515944Y-21726595D01*
X4515557Y-21726509D01*
X4452415Y-21712298D01*
X4451934Y-21712256D01*
X4451568Y-21712223D01*
X4450845Y-21712157D01*
X4386058Y-21714986D01*
X4385662Y-21715003D01*
X4339987Y-21716850D01*
X4320760Y-21717628D01*
X4320759Y-21717628D01*
X4320737Y-21717629D01*
X4320234Y-21717718D01*
X4319792Y-21717795D01*
X4319183Y-21717900D01*
X4257219Y-21737436D01*
X4256841Y-21737554D01*
X4180256Y-21761431D01*
X4110396Y-21762592D01*
X4054906Y-21729964D01*
X4042872Y-21717718D01*
X4009384Y-21683640D01*
X4007913Y-21682117D01*
X3979654Y-21652339D01*
X3859210Y-21525418D01*
X3857739Y-21523841D01*
X3711779Y-21364552D01*
X3710332Y-21362944D01*
X3567273Y-21201246D01*
X3565853Y-21199613D01*
X3425561Y-21035352D01*
X3424170Y-21033694D01*
X3353418Y-20947865D01*
X3353417Y-20947864D01*
X3295099Y-20877118D01*
X11563272Y-20877118D01*
X11563272Y-21035232D01*
X11601268Y-21177033D01*
X11604195Y-21187958D01*
X11604198Y-21187965D01*
X11683247Y-21324884D01*
X11683251Y-21324889D01*
X11683252Y-21324891D01*
X11795056Y-21436695D01*
X11795058Y-21436696D01*
X11795062Y-21436699D01*
X11865620Y-21477435D01*
X11931988Y-21515752D01*
X12084715Y-21556675D01*
X12084717Y-21556675D01*
X12242827Y-21556675D01*
X12242829Y-21556675D01*
X12395556Y-21515752D01*
X12532488Y-21436695D01*
X12644292Y-21324891D01*
X12723349Y-21187959D01*
X12764272Y-21035232D01*
X12764272Y-20877118D01*
X12723349Y-20724391D01*
X12707155Y-20696342D01*
X12644296Y-20587465D01*
X12644290Y-20587457D01*
X12532489Y-20475656D01*
X12532481Y-20475650D01*
X12395562Y-20396601D01*
X12395558Y-20396599D01*
X12395556Y-20396598D01*
X12242829Y-20355675D01*
X12084715Y-20355675D01*
X11931988Y-20396598D01*
X11931981Y-20396601D01*
X11795062Y-20475650D01*
X11795054Y-20475656D01*
X11683253Y-20587457D01*
X11683247Y-20587465D01*
X11604198Y-20724384D01*
X11604195Y-20724391D01*
X11563272Y-20877118D01*
X3295099Y-20877118D01*
X3286718Y-20866951D01*
X3285401Y-20865326D01*
X3150958Y-20696308D01*
X3149654Y-20694637D01*
X3018091Y-20523183D01*
X3016832Y-20521513D01*
X2888307Y-20347821D01*
X2887099Y-20346159D01*
X2805681Y-20232014D01*
X2761660Y-20170299D01*
X2760418Y-20168526D01*
X2638077Y-19990518D01*
X2636867Y-19988724D01*
X2517650Y-19808605D01*
X2516472Y-19806791D01*
X2400435Y-19624652D01*
X2399288Y-19622816D01*
X2387729Y-19603953D01*
X2286397Y-19438596D01*
X2285304Y-19436776D01*
X2175691Y-19250689D01*
X2174609Y-19248816D01*
X2159259Y-19221685D01*
X2068209Y-19060755D01*
X2067201Y-19058937D01*
X2067003Y-19058573D01*
X3261699Y-19058573D01*
X3261699Y-19058581D01*
X3283473Y-19168786D01*
X3283474Y-19168791D01*
X3295497Y-19191042D01*
X3295499Y-19191045D01*
X3335951Y-19248816D01*
X3471934Y-19443020D01*
X3496096Y-19477526D01*
X3512896Y-19496437D01*
X3578292Y-19536006D01*
X3625458Y-19587553D01*
X3635747Y-19618060D01*
X3641210Y-19645708D01*
X3650563Y-19693049D01*
X3662585Y-19715300D01*
X3855271Y-19990484D01*
X3863184Y-20001784D01*
X3879984Y-20020695D01*
X3952485Y-20064563D01*
X3972356Y-20076587D01*
X3976105Y-20078855D01*
X3976108Y-20078856D01*
X4031424Y-20088609D01*
X4086744Y-20098363D01*
X4196960Y-20076587D01*
X4219214Y-20064563D01*
X4456546Y-19898381D01*
X4475457Y-19881581D01*
X4519635Y-19808567D01*
X4533614Y-19785464D01*
X4533614Y-19785462D01*
X4533616Y-19785460D01*
X4553125Y-19674821D01*
X4550661Y-19662352D01*
X4531350Y-19564609D01*
X4531349Y-19564604D01*
X4519326Y-19542353D01*
X4503711Y-19520053D01*
X4318728Y-19255870D01*
X4301928Y-19236959D01*
X4236531Y-19197389D01*
X4189366Y-19145843D01*
X4179076Y-19115333D01*
X4177908Y-19109419D01*
X4164261Y-19040347D01*
X4152237Y-19018093D01*
X3951640Y-18731612D01*
X3934840Y-18712701D01*
X3873520Y-18675598D01*
X3838720Y-18654541D01*
X3838715Y-18654539D01*
X3728082Y-18635033D01*
X3728081Y-18635033D01*
X3728080Y-18635033D01*
X3674258Y-18645667D01*
X3617863Y-18656809D01*
X3595612Y-18668831D01*
X3358278Y-18835014D01*
X3358275Y-18835017D01*
X3339365Y-18851816D01*
X3281209Y-18947931D01*
X3281207Y-18947939D01*
X3261699Y-19058573D01*
X2067003Y-19058573D01*
X1964083Y-18869016D01*
X1963155Y-18867272D01*
X1863363Y-18675573D01*
X1862396Y-18673675D01*
X1860479Y-18669831D01*
X1766022Y-18480380D01*
X1765080Y-18478447D01*
X1672065Y-18283434D01*
X1671151Y-18281474D01*
X1670328Y-18279668D01*
X1607065Y-18140851D01*
X4572343Y-18140851D01*
X4572343Y-18140859D01*
X4594117Y-18251064D01*
X4594118Y-18251069D01*
X4606141Y-18273320D01*
X4606143Y-18273323D01*
X4645370Y-18329345D01*
X4798178Y-18547577D01*
X4806740Y-18559804D01*
X4823540Y-18578715D01*
X4888936Y-18618284D01*
X4936102Y-18669831D01*
X4946391Y-18700338D01*
X4952570Y-18731612D01*
X4961207Y-18775327D01*
X4966026Y-18784247D01*
X4973231Y-18797581D01*
X5018610Y-18862388D01*
X5161393Y-19066304D01*
X5173828Y-19084062D01*
X5190628Y-19102973D01*
X5233896Y-19129153D01*
X5283000Y-19158865D01*
X5286749Y-19161133D01*
X5286752Y-19161134D01*
X5330181Y-19168791D01*
X5397388Y-19180641D01*
X5507604Y-19158865D01*
X5529858Y-19146841D01*
X5767190Y-18980659D01*
X5786101Y-18963859D01*
X5788817Y-18959371D01*
X8478099Y-18959371D01*
X8478099Y-19117485D01*
X8515179Y-19255867D01*
X8519022Y-19270211D01*
X8519025Y-19270218D01*
X8598074Y-19407137D01*
X8598078Y-19407142D01*
X8598079Y-19407144D01*
X8709883Y-19518948D01*
X8709885Y-19518949D01*
X8709889Y-19518952D01*
X8827270Y-19586721D01*
X8846815Y-19598005D01*
X8999542Y-19638928D01*
X8999544Y-19638928D01*
X9157654Y-19638928D01*
X9157656Y-19638928D01*
X9310383Y-19598005D01*
X9447315Y-19518948D01*
X9559119Y-19407144D01*
X9638176Y-19270212D01*
X9651178Y-19221687D01*
X11221524Y-19221687D01*
X11238757Y-19332704D01*
X11294930Y-19429999D01*
X11382457Y-19500431D01*
X11405972Y-19509750D01*
X11405982Y-19509752D01*
X11405983Y-19509753D01*
X11426735Y-19515313D01*
X11743785Y-19600265D01*
X11768810Y-19603954D01*
X11879827Y-19586721D01*
X11977122Y-19530548D01*
X12047554Y-19443021D01*
X12056873Y-19419505D01*
X12109878Y-19221687D01*
X12116460Y-19197122D01*
X12788811Y-19197122D01*
X12788811Y-19197126D01*
X12814064Y-19485751D01*
X12819156Y-19510526D01*
X12819156Y-19510527D01*
X12819157Y-19510528D01*
X12870567Y-19603953D01*
X12873321Y-19608956D01*
X12959383Y-19681170D01*
X12959384Y-19681171D01*
X13031095Y-19705615D01*
X13065721Y-19717419D01*
X13091005Y-19718133D01*
X13439403Y-19687652D01*
X13464181Y-19682559D01*
X13531147Y-19645707D01*
X13599371Y-19630633D01*
X13630936Y-19636976D01*
X13703285Y-19661639D01*
X13728569Y-19662353D01*
X14076967Y-19631872D01*
X14101745Y-19626779D01*
X14105611Y-19624652D01*
X14200171Y-19572616D01*
X14200170Y-19572616D01*
X14200173Y-19572615D01*
X14272388Y-19486553D01*
X14308637Y-19380215D01*
X14309351Y-19354930D01*
X14284098Y-19066304D01*
X14279005Y-19041526D01*
X14224842Y-18943099D01*
X14207380Y-18928447D01*
X14138778Y-18870883D01*
X14138777Y-18870882D01*
X14032442Y-18834635D01*
X14032443Y-18834635D01*
X14007158Y-18833921D01*
X14007153Y-18833921D01*
X13658758Y-18864401D01*
X13633981Y-18869494D01*
X13567014Y-18906346D01*
X13498790Y-18921420D01*
X13467224Y-18915077D01*
X13441611Y-18906346D01*
X13394877Y-18890415D01*
X13382235Y-18890058D01*
X13369594Y-18889701D01*
X13369589Y-18889701D01*
X13021194Y-18920181D01*
X12996416Y-18925275D01*
X12996412Y-18925276D01*
X12897990Y-18979437D01*
X12825772Y-19065503D01*
X12789525Y-19171836D01*
X12788811Y-19197122D01*
X12116460Y-19197122D01*
X12125038Y-19165110D01*
X12125038Y-19165108D01*
X12131858Y-19139657D01*
X12131859Y-19139650D01*
X12131860Y-19139648D01*
X12135548Y-19114623D01*
X12118315Y-19003606D01*
X12062142Y-18906311D01*
X11974615Y-18835879D01*
X11974613Y-18835878D01*
X11951097Y-18826559D01*
X11951088Y-18826556D01*
X11613283Y-18736044D01*
X11588265Y-18732356D01*
X11588263Y-18732356D01*
X11588262Y-18732356D01*
X11477245Y-18749589D01*
X11477244Y-18749589D01*
X11477242Y-18749590D01*
X11379951Y-18805761D01*
X11379950Y-18805761D01*
X11379950Y-18805762D01*
X11329737Y-18868163D01*
X11309518Y-18893289D01*
X11309515Y-18893293D01*
X11300200Y-18916800D01*
X11225212Y-19196660D01*
X11225105Y-19197390D01*
X11221524Y-19221687D01*
X9651178Y-19221687D01*
X9679099Y-19117485D01*
X9679099Y-18959371D01*
X9638176Y-18806644D01*
X9620095Y-18775327D01*
X9559123Y-18669718D01*
X9559117Y-18669710D01*
X9447316Y-18557909D01*
X9447308Y-18557903D01*
X9310389Y-18478854D01*
X9310385Y-18478852D01*
X9310383Y-18478851D01*
X9157656Y-18437928D01*
X8999542Y-18437928D01*
X8846815Y-18478851D01*
X8846808Y-18478854D01*
X8709889Y-18557903D01*
X8709881Y-18557909D01*
X8598080Y-18669710D01*
X8598074Y-18669718D01*
X8519025Y-18806637D01*
X8519022Y-18806644D01*
X8478099Y-18959371D01*
X5788817Y-18959371D01*
X5844260Y-18867738D01*
X5863769Y-18757099D01*
X5862285Y-18749590D01*
X5841994Y-18646887D01*
X5841993Y-18646882D01*
X5829970Y-18624631D01*
X5797819Y-18578715D01*
X5629372Y-18338148D01*
X5612572Y-18319237D01*
X5547175Y-18279667D01*
X5500010Y-18228121D01*
X5489720Y-18197611D01*
X5487278Y-18185250D01*
X5474905Y-18122625D01*
X5462881Y-18100371D01*
X5262284Y-17813890D01*
X5245484Y-17794979D01*
X5174633Y-17752109D01*
X5149364Y-17736819D01*
X5149359Y-17736817D01*
X5038726Y-17717311D01*
X5038725Y-17717311D01*
X5038724Y-17717311D01*
X4978752Y-17729160D01*
X4928507Y-17739087D01*
X4906256Y-17751109D01*
X4668922Y-17917292D01*
X4668919Y-17917295D01*
X4650009Y-17934094D01*
X4591853Y-18030209D01*
X4591851Y-18030217D01*
X4572343Y-18140851D01*
X1607065Y-18140851D01*
X1581574Y-18084915D01*
X1580745Y-18083052D01*
X1494596Y-17884924D01*
X1493770Y-17882979D01*
X1492476Y-17879856D01*
X1411077Y-17683341D01*
X1410278Y-17681363D01*
X1407946Y-17675444D01*
X1331104Y-17480367D01*
X1330329Y-17478347D01*
X1328102Y-17472390D01*
X1254686Y-17276029D01*
X1254001Y-17274148D01*
X1235934Y-17223129D01*
X5882986Y-17223129D01*
X5882986Y-17223137D01*
X5904760Y-17333342D01*
X5904761Y-17333347D01*
X5913319Y-17349185D01*
X5916786Y-17355601D01*
X5962175Y-17420423D01*
X6083831Y-17594166D01*
X6117383Y-17642082D01*
X6134183Y-17660993D01*
X6199579Y-17700562D01*
X6246745Y-17752109D01*
X6257034Y-17782616D01*
X6263213Y-17813890D01*
X6271850Y-17857605D01*
X6280720Y-17874023D01*
X6283874Y-17879859D01*
X6290372Y-17889139D01*
X6466624Y-18140853D01*
X6484471Y-18166340D01*
X6501271Y-18185251D01*
X6572122Y-18228121D01*
X6593643Y-18241143D01*
X6597392Y-18243411D01*
X6597395Y-18243412D01*
X6640824Y-18251069D01*
X6708031Y-18262919D01*
X6818247Y-18241143D01*
X6840501Y-18229119D01*
X7077833Y-18062937D01*
X7096744Y-18046137D01*
X7146280Y-17964268D01*
X7154901Y-17950020D01*
X7154901Y-17950018D01*
X7154903Y-17950016D01*
X7174412Y-17839377D01*
X7169376Y-17813890D01*
X7152637Y-17729165D01*
X7152636Y-17729160D01*
X7140613Y-17706909D01*
X7128805Y-17690046D01*
X7003128Y-17510561D01*
X11017442Y-17510561D01*
X11034675Y-17621578D01*
X11090848Y-17718873D01*
X11178375Y-17789305D01*
X11201890Y-17798624D01*
X11539703Y-17889139D01*
X11564728Y-17892828D01*
X11640260Y-17881103D01*
X11709523Y-17890270D01*
X11737009Y-17907024D01*
X11796567Y-17954949D01*
X11820082Y-17964268D01*
X12157895Y-18054783D01*
X12182920Y-18058472D01*
X12293937Y-18041239D01*
X12391232Y-17985066D01*
X12461664Y-17897539D01*
X12461664Y-17897536D01*
X12467510Y-17890273D01*
X12469928Y-17892219D01*
X12509151Y-17855090D01*
X12577805Y-17842115D01*
X12642576Y-17868316D01*
X12672657Y-17909848D01*
X12675211Y-17908443D01*
X12679707Y-17916614D01*
X12679708Y-17916616D01*
X12723469Y-17996140D01*
X12733872Y-18015044D01*
X12819934Y-18087258D01*
X12819935Y-18087259D01*
X12858407Y-18100373D01*
X12926272Y-18123507D01*
X12951556Y-18124221D01*
X13299954Y-18093740D01*
X13324732Y-18088647D01*
X13391698Y-18051795D01*
X13459922Y-18036721D01*
X13491487Y-18043064D01*
X13563836Y-18067727D01*
X13589120Y-18068441D01*
X13937518Y-18037960D01*
X13962296Y-18032867D01*
X13967127Y-18030209D01*
X14060722Y-17978704D01*
X14060721Y-17978704D01*
X14060724Y-17978703D01*
X14132939Y-17892641D01*
X14161043Y-17810198D01*
X20880298Y-17810198D01*
X20913356Y-17925884D01*
X20929456Y-17950016D01*
X20952656Y-17984788D01*
X21270823Y-18338148D01*
X21718982Y-18835879D01*
X21721105Y-18838236D01*
X21775579Y-18883480D01*
X21887174Y-18928447D01*
X21995353Y-18934116D01*
X22007320Y-18934744D01*
X22007320Y-18934743D01*
X22007322Y-18934744D01*
X22123006Y-18901687D01*
X22181910Y-18862388D01*
X22589471Y-18495416D01*
X22634714Y-18440943D01*
X22679682Y-18329348D01*
X22685979Y-18209200D01*
X22652922Y-18093516D01*
X22613622Y-18034612D01*
X22038024Y-17395346D01*
X21845175Y-17181166D01*
X21845167Y-17181159D01*
X21790700Y-17135921D01*
X21790699Y-17135920D01*
X21679104Y-17090953D01*
X21558957Y-17084655D01*
X21443270Y-17117713D01*
X21384374Y-17157007D01*
X21384369Y-17157010D01*
X21384368Y-17157012D01*
X21020175Y-17484935D01*
X20976803Y-17523988D01*
X20976802Y-17523988D01*
X20931563Y-17578456D01*
X20886597Y-17690046D01*
X20886596Y-17690054D01*
X20880298Y-17810198D01*
X14161043Y-17810198D01*
X14169188Y-17786303D01*
X14169902Y-17761018D01*
X14144649Y-17472392D01*
X14139556Y-17447614D01*
X14085393Y-17349187D01*
X14066005Y-17332919D01*
X13999329Y-17276971D01*
X13999328Y-17276970D01*
X13892993Y-17240723D01*
X13892994Y-17240723D01*
X13867709Y-17240009D01*
X13867704Y-17240009D01*
X13519309Y-17270489D01*
X13494532Y-17275582D01*
X13427565Y-17312434D01*
X13359341Y-17327508D01*
X13327775Y-17321165D01*
X13302162Y-17312434D01*
X13255428Y-17296503D01*
X13242786Y-17296146D01*
X13230145Y-17295789D01*
X13230140Y-17295789D01*
X12881745Y-17326269D01*
X12856967Y-17331363D01*
X12856963Y-17331364D01*
X12758541Y-17385525D01*
X12758540Y-17385525D01*
X12713591Y-17439094D01*
X12655419Y-17477795D01*
X12585558Y-17478903D01*
X12526188Y-17442065D01*
X12511215Y-17421387D01*
X12478634Y-17364955D01*
X12476252Y-17360829D01*
X12388725Y-17290397D01*
X12388723Y-17290396D01*
X12365207Y-17281077D01*
X12365198Y-17281074D01*
X12027393Y-17190562D01*
X12002375Y-17186874D01*
X12002373Y-17186874D01*
X12002372Y-17186874D01*
X11926839Y-17198598D01*
X11857575Y-17189430D01*
X11830083Y-17172672D01*
X11770533Y-17124753D01*
X11747018Y-17115434D01*
X11747016Y-17115433D01*
X11747015Y-17115433D01*
X11747006Y-17115430D01*
X11437511Y-17032503D01*
X11409205Y-17024919D01*
X11409204Y-17024918D01*
X11409201Y-17024918D01*
X11384183Y-17021230D01*
X11384181Y-17021230D01*
X11384180Y-17021230D01*
X11273163Y-17038463D01*
X11273162Y-17038463D01*
X11273160Y-17038464D01*
X11175869Y-17094635D01*
X11175868Y-17094635D01*
X11175868Y-17094636D01*
X11125679Y-17157007D01*
X11105436Y-17182163D01*
X11105433Y-17182167D01*
X11096118Y-17205674D01*
X11021130Y-17485534D01*
X11021130Y-17485536D01*
X11017442Y-17510561D01*
X7003128Y-17510561D01*
X6940015Y-17420426D01*
X6923215Y-17401515D01*
X6857818Y-17361945D01*
X6810653Y-17310399D01*
X6800363Y-17279889D01*
X6799787Y-17276972D01*
X6785548Y-17204903D01*
X6773524Y-17182649D01*
X6572927Y-16896168D01*
X6556127Y-16877257D01*
X6556128Y-16877257D01*
X6460007Y-16819097D01*
X6460002Y-16819095D01*
X6382203Y-16805378D01*
X8648345Y-16805378D01*
X8648345Y-16963492D01*
X8689058Y-17115433D01*
X8689268Y-17116218D01*
X8689271Y-17116225D01*
X8768320Y-17253144D01*
X8768324Y-17253149D01*
X8768325Y-17253151D01*
X8880129Y-17364955D01*
X8880131Y-17364956D01*
X8880135Y-17364959D01*
X8932768Y-17395346D01*
X9017061Y-17444012D01*
X9169788Y-17484935D01*
X9169790Y-17484935D01*
X9327900Y-17484935D01*
X9327902Y-17484935D01*
X9480629Y-17444012D01*
X9617561Y-17364955D01*
X9729365Y-17253151D01*
X9808422Y-17116219D01*
X9849345Y-16963492D01*
X9849345Y-16805378D01*
X9808422Y-16652651D01*
X9771741Y-16589117D01*
X9729369Y-16515725D01*
X9729363Y-16515717D01*
X9645086Y-16431440D01*
X15798118Y-16431440D01*
X15798119Y-16431447D01*
X15829418Y-16539340D01*
X15829419Y-16539343D01*
X15843336Y-16560464D01*
X15843341Y-16560471D01*
X16029568Y-16782407D01*
X16029574Y-16782413D01*
X16045036Y-16797025D01*
X16047955Y-16799784D01*
X16148779Y-16849344D01*
X16171162Y-16851302D01*
X16260694Y-16859136D01*
X16260694Y-16859135D01*
X16260698Y-16859136D01*
X16368597Y-16827837D01*
X16389718Y-16813919D01*
X16657625Y-16589117D01*
X16675001Y-16570733D01*
X16724561Y-16469909D01*
X16734353Y-16357990D01*
X16703053Y-16250091D01*
X16689136Y-16228970D01*
X16689132Y-16228965D01*
X16689130Y-16228962D01*
X16502903Y-16007026D01*
X16502897Y-16007020D01*
X16484520Y-15989653D01*
X16484517Y-15989650D01*
X16484514Y-15989648D01*
X16484512Y-15989647D01*
X16383691Y-15940089D01*
X16271777Y-15930297D01*
X16271774Y-15930298D01*
X16163875Y-15961597D01*
X16142748Y-15975519D01*
X15874849Y-16200314D01*
X15874839Y-16200324D01*
X15857475Y-16218695D01*
X15857472Y-16218699D01*
X15857471Y-16218701D01*
X15807911Y-16319525D01*
X15807910Y-16319528D01*
X15798118Y-16431440D01*
X9645086Y-16431440D01*
X9617562Y-16403916D01*
X9617554Y-16403910D01*
X9480635Y-16324861D01*
X9480631Y-16324859D01*
X9480629Y-16324858D01*
X9327902Y-16283935D01*
X9169788Y-16283935D01*
X9017061Y-16324858D01*
X9017054Y-16324861D01*
X8880135Y-16403910D01*
X8880127Y-16403916D01*
X8768326Y-16515717D01*
X8768320Y-16515725D01*
X8689271Y-16652644D01*
X8689268Y-16652651D01*
X8648345Y-16805378D01*
X6382203Y-16805378D01*
X6349369Y-16799589D01*
X6349368Y-16799589D01*
X6349367Y-16799589D01*
X6276863Y-16813914D01*
X6239150Y-16821365D01*
X6216899Y-16833387D01*
X5979565Y-16999570D01*
X5979562Y-16999573D01*
X5960652Y-17016372D01*
X5902496Y-17112487D01*
X5902494Y-17112495D01*
X5882986Y-17223129D01*
X1235934Y-17223129D01*
X1213622Y-17160123D01*
X1209801Y-17090359D01*
X1209801Y-17090358D01*
X1244303Y-17029602D01*
X1306176Y-16997143D01*
X1346693Y-16995793D01*
X1382446Y-17000500D01*
X1382448Y-17000500D01*
X2417555Y-17000500D01*
X2433113Y-16998451D01*
X2464231Y-16994355D01*
X2566667Y-16946588D01*
X2646588Y-16866667D01*
X2694355Y-16764231D01*
X2700500Y-16717554D01*
X2700500Y-16282446D01*
X2694355Y-16235769D01*
X2646588Y-16133333D01*
X2566667Y-16053412D01*
X2464231Y-16005645D01*
X2464229Y-16005644D01*
X2464230Y-16005644D01*
X2417555Y-15999500D01*
X2417554Y-15999500D01*
X1382446Y-15999500D01*
X1382445Y-15999500D01*
X1335770Y-16005644D01*
X1233332Y-16053412D01*
X1153412Y-16133332D01*
X1136431Y-16169747D01*
X1090257Y-16222185D01*
X1023063Y-16241335D01*
X956182Y-16221117D01*
X910849Y-16167951D01*
X904002Y-16148394D01*
X872066Y-16024903D01*
X871581Y-16022959D01*
X821112Y-15812740D01*
X820664Y-15810799D01*
X787066Y-15659248D01*
X773888Y-15599803D01*
X773438Y-15597686D01*
X753504Y-15499706D01*
X730388Y-15386087D01*
X729978Y-15383977D01*
X725957Y-15362281D01*
X704531Y-15246680D01*
X6009590Y-15246680D01*
X6009590Y-15404794D01*
X6042648Y-15528166D01*
X6050513Y-15557520D01*
X6050516Y-15557527D01*
X6129565Y-15694446D01*
X6129569Y-15694451D01*
X6129570Y-15694453D01*
X6241374Y-15806257D01*
X6241376Y-15806258D01*
X6241380Y-15806261D01*
X6325902Y-15855059D01*
X6378306Y-15885314D01*
X6531033Y-15926237D01*
X6531035Y-15926237D01*
X6689145Y-15926237D01*
X6689147Y-15926237D01*
X6841874Y-15885314D01*
X6978806Y-15806257D01*
X7090610Y-15694453D01*
X7169667Y-15557521D01*
X7210590Y-15404794D01*
X7210590Y-15246680D01*
X7169667Y-15093953D01*
X7142718Y-15047275D01*
X7090614Y-14957027D01*
X7090608Y-14957019D01*
X6989837Y-14856248D01*
X8250882Y-14856248D01*
X8256735Y-14880854D01*
X8334296Y-15093946D01*
X8364476Y-15176866D01*
X8376355Y-15209501D01*
X8387684Y-15232110D01*
X8465473Y-15313162D01*
X8465475Y-15313163D01*
X8465477Y-15313165D01*
X8567298Y-15360644D01*
X8679394Y-15368136D01*
X8699378Y-15363381D01*
X8703999Y-15362282D01*
X8704002Y-15362281D01*
X8976258Y-15263187D01*
X8998873Y-15251855D01*
X9079928Y-15174062D01*
X9086965Y-15158971D01*
X16773917Y-15158971D01*
X16798805Y-15251856D01*
X16802995Y-15267490D01*
X16839926Y-15317993D01*
X16869310Y-15358176D01*
X16869309Y-15358176D01*
X16888884Y-15372722D01*
X16889612Y-15373263D01*
X17140525Y-15518127D01*
X17140534Y-15518131D01*
X17140540Y-15518134D01*
X17151562Y-15522899D01*
X17163741Y-15528166D01*
X17163740Y-15528166D01*
X17163743Y-15528167D01*
X17275437Y-15540255D01*
X17383956Y-15511177D01*
X17474642Y-15444862D01*
X17489730Y-15424560D01*
X17664593Y-15121685D01*
X17674633Y-15098467D01*
X17682051Y-15029926D01*
X18566712Y-15029926D01*
X18566712Y-15029927D01*
X18566712Y-15029930D01*
X18583945Y-15140947D01*
X18640118Y-15238242D01*
X18727645Y-15308674D01*
X18727647Y-15308675D01*
X18727649Y-15308676D01*
X18750148Y-15317591D01*
X18751161Y-15317993D01*
X19031018Y-15392980D01*
X19056043Y-15396668D01*
X19167060Y-15379435D01*
X19264355Y-15323262D01*
X19334787Y-15235735D01*
X19344106Y-15212220D01*
X19434621Y-14874407D01*
X19438310Y-14849382D01*
X19426585Y-14773849D01*
X19435752Y-14704587D01*
X19452506Y-14677100D01*
X19500431Y-14617543D01*
X19509750Y-14594028D01*
X19600265Y-14256215D01*
X19603954Y-14231190D01*
X19586721Y-14120173D01*
X19530548Y-14022878D01*
X19443021Y-13952446D01*
X19443018Y-13952445D01*
X19443016Y-13952443D01*
X19419509Y-13943128D01*
X19139649Y-13868140D01*
X19114624Y-13864452D01*
X19114623Y-13864452D01*
X19003606Y-13881685D01*
X19003605Y-13881685D01*
X19003603Y-13881686D01*
X18906312Y-13937857D01*
X18906311Y-13937857D01*
X18906311Y-13937858D01*
X18877516Y-13973642D01*
X18835878Y-14025386D01*
X18826559Y-14048902D01*
X18826556Y-14048911D01*
X18736044Y-14386716D01*
X18732356Y-14411734D01*
X18732356Y-14411735D01*
X18732356Y-14411738D01*
X18744080Y-14487270D01*
X18734912Y-14556533D01*
X18718155Y-14584025D01*
X18670235Y-14643576D01*
X18660915Y-14667094D01*
X18660912Y-14667103D01*
X18570400Y-15004908D01*
X18566712Y-15029926D01*
X17682051Y-15029926D01*
X17686721Y-14986773D01*
X17657643Y-14878254D01*
X17591328Y-14787568D01*
X17591327Y-14787567D01*
X17591328Y-14787567D01*
X17571029Y-14772483D01*
X17571018Y-14772476D01*
X17372184Y-14657680D01*
X17320113Y-14627617D01*
X17320108Y-14627615D01*
X17320097Y-14627609D01*
X17296895Y-14617577D01*
X17296897Y-14617577D01*
X17241048Y-14611533D01*
X17185201Y-14605489D01*
X17185200Y-14605489D01*
X17185199Y-14605489D01*
X17076682Y-14634566D01*
X16985999Y-14700879D01*
X16985992Y-14700886D01*
X16970907Y-14721183D01*
X16796052Y-15024045D01*
X16796037Y-15024074D01*
X16786005Y-15047275D01*
X16773917Y-15158971D01*
X9086965Y-15158971D01*
X9127408Y-15072241D01*
X9134900Y-14960145D01*
X9130085Y-14939906D01*
X9129046Y-14935539D01*
X9070196Y-14773852D01*
X9009430Y-14606900D01*
X8998098Y-14584285D01*
X8998097Y-14584283D01*
X8920308Y-14503231D01*
X8920306Y-14503230D01*
X8920305Y-14503229D01*
X8818484Y-14455750D01*
X8818481Y-14455749D01*
X8818480Y-14455749D01*
X8706388Y-14448258D01*
X8681782Y-14454111D01*
X8409519Y-14553209D01*
X8386911Y-14564537D01*
X8305854Y-14642331D01*
X8258373Y-14744153D01*
X8250882Y-14856248D01*
X6989837Y-14856248D01*
X6978807Y-14845218D01*
X6978799Y-14845212D01*
X6841880Y-14766163D01*
X6841876Y-14766161D01*
X6841874Y-14766160D01*
X6689147Y-14725237D01*
X6531033Y-14725237D01*
X6378306Y-14766160D01*
X6378299Y-14766163D01*
X6241380Y-14845212D01*
X6241372Y-14845218D01*
X6129571Y-14957019D01*
X6129565Y-14957027D01*
X6050516Y-15093946D01*
X6050513Y-15093953D01*
X6009590Y-15246680D01*
X704531Y-15246680D01*
X690598Y-15171509D01*
X690229Y-15169406D01*
X654588Y-14956419D01*
X654258Y-14954341D01*
X622315Y-14740614D01*
X622018Y-14738496D01*
X620272Y-14725237D01*
X593826Y-14524355D01*
X593564Y-14522219D01*
X591401Y-14503231D01*
X569111Y-14307600D01*
X568888Y-14305474D01*
X548178Y-14090394D01*
X548003Y-14088394D01*
X531052Y-13873004D01*
X530901Y-13870846D01*
X517713Y-13655224D01*
X517601Y-13653079D01*
X516735Y-13633253D01*
X508179Y-13437298D01*
X508105Y-13435175D01*
X507324Y-13405361D01*
X502448Y-13219159D01*
X502412Y-13217013D01*
X502361Y-13211194D01*
X500528Y-13001031D01*
X500528Y-12998917D01*
X501056Y-12938478D01*
X502412Y-12782963D01*
X502449Y-12780821D01*
X502879Y-12764398D01*
X508106Y-12564781D01*
X508181Y-12562660D01*
X509051Y-12542754D01*
X517602Y-12346897D01*
X517714Y-12344758D01*
X529195Y-12157054D01*
X530901Y-12129144D01*
X531052Y-12126994D01*
X534146Y-12087681D01*
X548004Y-11911594D01*
X548177Y-11909614D01*
X568892Y-11694485D01*
X569114Y-11692372D01*
X573449Y-11654331D01*
X593567Y-11477753D01*
X593828Y-11475631D01*
X599116Y-11435462D01*
X622023Y-11261459D01*
X622319Y-11259358D01*
X622844Y-11255846D01*
X654260Y-11045640D01*
X654588Y-11043579D01*
X690229Y-10830592D01*
X690604Y-10828459D01*
X691072Y-10825938D01*
X729984Y-10615986D01*
X730391Y-10613898D01*
X734336Y-10594511D01*
X773440Y-10402300D01*
X773888Y-10400195D01*
X789160Y-10331307D01*
X820670Y-10189174D01*
X821106Y-10187283D01*
X871563Y-9977112D01*
X871788Y-9976720D01*
X872083Y-9975026D01*
X904001Y-9851609D01*
X939842Y-9791637D01*
X1002421Y-9760560D01*
X1071866Y-9768249D01*
X1126130Y-9812262D01*
X1136430Y-9830250D01*
X1153412Y-9866667D01*
X1153413Y-9866668D01*
X1199064Y-9912319D01*
X1208205Y-9929060D01*
X1221417Y-9942828D01*
X1224606Y-9959096D01*
X1232549Y-9973642D01*
X1231188Y-9992669D01*
X1234859Y-10011393D01*
X1228747Y-10026801D01*
X1227565Y-10043334D01*
X1213523Y-10065181D01*
X1209098Y-10076340D01*
X1204006Y-10079989D01*
X1199064Y-10087681D01*
X1153412Y-10133332D01*
X1105644Y-10235770D01*
X1099500Y-10282445D01*
X1099500Y-10717554D01*
X1105644Y-10764229D01*
X1153412Y-10866667D01*
X1199064Y-10912319D01*
X1232549Y-10973642D01*
X1227565Y-11043334D01*
X1199064Y-11087681D01*
X1153412Y-11133332D01*
X1105644Y-11235770D01*
X1099500Y-11282445D01*
X1099500Y-11717554D01*
X1105644Y-11764229D01*
X1153412Y-11866667D01*
X1199064Y-11912319D01*
X1232549Y-11973642D01*
X1227565Y-12043334D01*
X1199064Y-12087681D01*
X1153412Y-12133332D01*
X1105644Y-12235770D01*
X1099500Y-12282445D01*
X1099500Y-12717554D01*
X1105644Y-12764229D01*
X1153412Y-12866667D01*
X1199064Y-12912319D01*
X1232549Y-12973642D01*
X1227565Y-13043334D01*
X1199064Y-13087681D01*
X1153412Y-13133332D01*
X1105644Y-13235770D01*
X1099500Y-13282445D01*
X1099500Y-13717554D01*
X1105644Y-13764229D01*
X1153412Y-13866667D01*
X1199064Y-13912319D01*
X1232549Y-13973642D01*
X1227565Y-14043334D01*
X1199064Y-14087681D01*
X1153412Y-14133332D01*
X1105644Y-14235770D01*
X1099500Y-14282445D01*
X1099500Y-14717554D01*
X1105644Y-14764229D01*
X1133172Y-14823262D01*
X1153412Y-14866667D01*
X1233333Y-14946588D01*
X1335769Y-14994355D01*
X1382445Y-15000500D01*
X1382446Y-15000500D01*
X2417555Y-15000500D01*
X2433113Y-14998451D01*
X2464231Y-14994355D01*
X2566667Y-14946588D01*
X2646588Y-14866667D01*
X2694355Y-14764231D01*
X2700500Y-14717554D01*
X2700500Y-14282446D01*
X2694355Y-14235769D01*
X2646588Y-14133333D01*
X2600936Y-14087681D01*
X2567451Y-14026358D01*
X2572435Y-13956666D01*
X2600936Y-13912319D01*
X2646588Y-13866667D01*
X2694355Y-13764231D01*
X2700500Y-13717554D01*
X2700500Y-13282446D01*
X2694355Y-13235769D01*
X2646588Y-13133333D01*
X2600936Y-13087681D01*
X2567451Y-13026358D01*
X2572435Y-12956666D01*
X2600936Y-12912319D01*
X2646588Y-12866667D01*
X2694355Y-12764231D01*
X2700500Y-12717554D01*
X2700500Y-12624613D01*
X9012438Y-12624613D01*
X9012438Y-12782727D01*
X9035409Y-12868454D01*
X9053361Y-12935453D01*
X9053364Y-12935460D01*
X9132413Y-13072379D01*
X9132415Y-13072381D01*
X9132418Y-13072386D01*
X9244222Y-13184190D01*
X9244224Y-13184191D01*
X9244228Y-13184194D01*
X9321155Y-13228607D01*
X9381154Y-13263247D01*
X9533881Y-13304170D01*
X9533883Y-13304170D01*
X9691993Y-13304170D01*
X9691995Y-13304170D01*
X9844722Y-13263247D01*
X9981654Y-13184190D01*
X10007729Y-13158115D01*
X15791218Y-13158115D01*
X15791218Y-13316229D01*
X15823373Y-13436231D01*
X15832141Y-13468955D01*
X15832144Y-13468962D01*
X15911193Y-13605881D01*
X15911197Y-13605886D01*
X15911198Y-13605888D01*
X16023002Y-13717692D01*
X16023004Y-13717693D01*
X16023008Y-13717696D01*
X16123794Y-13775884D01*
X16159934Y-13796749D01*
X16312661Y-13837672D01*
X16312663Y-13837672D01*
X16470773Y-13837672D01*
X16470775Y-13837672D01*
X16623502Y-13796749D01*
X16760434Y-13717692D01*
X16872238Y-13605888D01*
X16951295Y-13468956D01*
X16952343Y-13465043D01*
X20180500Y-13465043D01*
X20180500Y-13623157D01*
X20220452Y-13772258D01*
X20221423Y-13775883D01*
X20221426Y-13775890D01*
X20300475Y-13912809D01*
X20300479Y-13912814D01*
X20300480Y-13912816D01*
X20412284Y-14024620D01*
X20412286Y-14024621D01*
X20412290Y-14024624D01*
X20526354Y-14090478D01*
X20549216Y-14103677D01*
X20701943Y-14144600D01*
X20701945Y-14144600D01*
X20860055Y-14144600D01*
X20860057Y-14144600D01*
X21012784Y-14103677D01*
X21149716Y-14024620D01*
X21261520Y-13912816D01*
X21340577Y-13775884D01*
X21381500Y-13623157D01*
X21381500Y-13465043D01*
X21340577Y-13312316D01*
X21286205Y-13218140D01*
X21261524Y-13175390D01*
X21261518Y-13175382D01*
X21149717Y-13063581D01*
X21149709Y-13063575D01*
X21012790Y-12984526D01*
X21012786Y-12984524D01*
X21012784Y-12984523D01*
X20860057Y-12943600D01*
X20701943Y-12943600D01*
X20549216Y-12984523D01*
X20549209Y-12984526D01*
X20412290Y-13063575D01*
X20412282Y-13063581D01*
X20300481Y-13175382D01*
X20300475Y-13175390D01*
X20221426Y-13312309D01*
X20221423Y-13312316D01*
X20180500Y-13465043D01*
X16952343Y-13465043D01*
X16992218Y-13316229D01*
X16992218Y-13158115D01*
X16951295Y-13005388D01*
X16944925Y-12994355D01*
X16872242Y-12868462D01*
X16872236Y-12868454D01*
X16760435Y-12756653D01*
X16760427Y-12756647D01*
X16623508Y-12677598D01*
X16623504Y-12677596D01*
X16623502Y-12677595D01*
X16470775Y-12636672D01*
X16312661Y-12636672D01*
X16159934Y-12677595D01*
X16159927Y-12677598D01*
X16023008Y-12756647D01*
X16023000Y-12756653D01*
X15911199Y-12868454D01*
X15911193Y-12868462D01*
X15832144Y-13005381D01*
X15832141Y-13005388D01*
X15791218Y-13158115D01*
X10007729Y-13158115D01*
X10093458Y-13072386D01*
X10097250Y-13065819D01*
X10120032Y-13026358D01*
X10172515Y-12935454D01*
X10213438Y-12782727D01*
X10213438Y-12624613D01*
X10172515Y-12471886D01*
X10119539Y-12380128D01*
X10093462Y-12334960D01*
X10093456Y-12334952D01*
X9981655Y-12223151D01*
X9981647Y-12223145D01*
X9844728Y-12144096D01*
X9844724Y-12144094D01*
X9844722Y-12144093D01*
X9691995Y-12103170D01*
X9533881Y-12103170D01*
X9381154Y-12144093D01*
X9381147Y-12144096D01*
X9244228Y-12223145D01*
X9244220Y-12223151D01*
X9132419Y-12334952D01*
X9132413Y-12334960D01*
X9053364Y-12471879D01*
X9053361Y-12471886D01*
X9012438Y-12624613D01*
X2700500Y-12624613D01*
X2700500Y-12282446D01*
X2694355Y-12235769D01*
X2646588Y-12133333D01*
X2600936Y-12087681D01*
X2567451Y-12026358D01*
X2572435Y-11956666D01*
X2600936Y-11912319D01*
X2603735Y-11909520D01*
X2646588Y-11866667D01*
X2694355Y-11764231D01*
X2700500Y-11717554D01*
X2700500Y-11282446D01*
X2694355Y-11235769D01*
X2646588Y-11133333D01*
X2600936Y-11087681D01*
X2567451Y-11026358D01*
X2568390Y-11013227D01*
X8313279Y-11013227D01*
X8341659Y-11119143D01*
X8342357Y-11121746D01*
X8372961Y-11163597D01*
X8408672Y-11212432D01*
X8408671Y-11212432D01*
X8428246Y-11226978D01*
X8428974Y-11227519D01*
X8679887Y-11372383D01*
X8679896Y-11372387D01*
X8679902Y-11372390D01*
X8690924Y-11377155D01*
X8703103Y-11382422D01*
X8703102Y-11382422D01*
X8703105Y-11382423D01*
X8814799Y-11394511D01*
X8923318Y-11365433D01*
X9014004Y-11299118D01*
X9029092Y-11278816D01*
X9167055Y-11039854D01*
X16865100Y-11039854D01*
X16870953Y-11064460D01*
X16942275Y-11260411D01*
X16986683Y-11382422D01*
X16990573Y-11393107D01*
X17001902Y-11415716D01*
X17079691Y-11496768D01*
X17079693Y-11496769D01*
X17079695Y-11496771D01*
X17181516Y-11544250D01*
X17293612Y-11551742D01*
X17313596Y-11546987D01*
X17318217Y-11545888D01*
X17318220Y-11545887D01*
X17590476Y-11446793D01*
X17613091Y-11435461D01*
X17694146Y-11357668D01*
X17741626Y-11255847D01*
X17749118Y-11143751D01*
X17745276Y-11127606D01*
X17743264Y-11119145D01*
X17699898Y-11000000D01*
X17623648Y-10790506D01*
X17623413Y-10790038D01*
X17612315Y-10767889D01*
X17534526Y-10686837D01*
X17534524Y-10686836D01*
X17534523Y-10686835D01*
X17432702Y-10639356D01*
X17432699Y-10639355D01*
X17432698Y-10639355D01*
X17320606Y-10631864D01*
X17296000Y-10637717D01*
X17080504Y-10716153D01*
X17035565Y-10732510D01*
X17023737Y-10736815D01*
X17001129Y-10748143D01*
X16920072Y-10825937D01*
X16872591Y-10927759D01*
X16865100Y-11039854D01*
X9167055Y-11039854D01*
X9203955Y-10975941D01*
X9213995Y-10952723D01*
X9226083Y-10841029D01*
X9197005Y-10732510D01*
X9130690Y-10641824D01*
X9130689Y-10641823D01*
X9130690Y-10641823D01*
X9110391Y-10626739D01*
X9110380Y-10626732D01*
X9035155Y-10583301D01*
X9035153Y-10583299D01*
X8863231Y-10484041D01*
X18747847Y-10484041D01*
X18747847Y-10642155D01*
X18787598Y-10790506D01*
X18788770Y-10794881D01*
X18788773Y-10794888D01*
X18867822Y-10931807D01*
X18867826Y-10931812D01*
X18867827Y-10931814D01*
X18979631Y-11043618D01*
X18979633Y-11043619D01*
X18979637Y-11043622D01*
X19055951Y-11087681D01*
X19116563Y-11122675D01*
X19269290Y-11163598D01*
X19269292Y-11163598D01*
X19427402Y-11163598D01*
X19427404Y-11163598D01*
X19580131Y-11122675D01*
X19717063Y-11043618D01*
X19828867Y-10931814D01*
X19907924Y-10794882D01*
X19948847Y-10642155D01*
X19948847Y-10484041D01*
X19907924Y-10331314D01*
X19895877Y-10310447D01*
X19828871Y-10194388D01*
X19828865Y-10194380D01*
X19717064Y-10082579D01*
X19717056Y-10082573D01*
X19580137Y-10003524D01*
X19580133Y-10003522D01*
X19580131Y-10003521D01*
X19427404Y-9962598D01*
X19269290Y-9962598D01*
X19116563Y-10003521D01*
X19116556Y-10003524D01*
X18979637Y-10082573D01*
X18979629Y-10082579D01*
X18867828Y-10194380D01*
X18867822Y-10194388D01*
X18788773Y-10331307D01*
X18788770Y-10331314D01*
X18747847Y-10484041D01*
X8863231Y-10484041D01*
X8859488Y-10481880D01*
X8859479Y-10481875D01*
X8859475Y-10481873D01*
X8859471Y-10481871D01*
X8859459Y-10481865D01*
X8836257Y-10471833D01*
X8836259Y-10471833D01*
X8780410Y-10465789D01*
X8724563Y-10459745D01*
X8724562Y-10459745D01*
X8724561Y-10459745D01*
X8616044Y-10488822D01*
X8525361Y-10555135D01*
X8525354Y-10555142D01*
X8510269Y-10575439D01*
X8335414Y-10878301D01*
X8335399Y-10878330D01*
X8325367Y-10901531D01*
X8313279Y-11013227D01*
X2568390Y-11013227D01*
X2572435Y-10956666D01*
X2600936Y-10912319D01*
X2623477Y-10889778D01*
X2646588Y-10866667D01*
X2694355Y-10764231D01*
X2700500Y-10717554D01*
X2700500Y-10282446D01*
X2694355Y-10235769D01*
X2683843Y-10213227D01*
X6927638Y-10213227D01*
X6955270Y-10316352D01*
X6956716Y-10321746D01*
X7015631Y-10402312D01*
X7023031Y-10412432D01*
X7023030Y-10412432D01*
X7038583Y-10423989D01*
X7043333Y-10427519D01*
X7294246Y-10572383D01*
X7294255Y-10572387D01*
X7294261Y-10572390D01*
X7301313Y-10575439D01*
X7317462Y-10582422D01*
X7317461Y-10582422D01*
X7317464Y-10582423D01*
X7429158Y-10594511D01*
X7537677Y-10565433D01*
X7628363Y-10499118D01*
X7643451Y-10478816D01*
X7818314Y-10175941D01*
X7828354Y-10152723D01*
X7840442Y-10041029D01*
X7811364Y-9932510D01*
X7745049Y-9841824D01*
X7745048Y-9841823D01*
X7745049Y-9841823D01*
X7724750Y-9826739D01*
X7724732Y-9826727D01*
X7591897Y-9750036D01*
X7591896Y-9750036D01*
X7573309Y-9739305D01*
X7473834Y-9681873D01*
X7473829Y-9681871D01*
X7473818Y-9681865D01*
X7450616Y-9671833D01*
X7450618Y-9671833D01*
X7394769Y-9665789D01*
X7338922Y-9659745D01*
X7338921Y-9659745D01*
X7338920Y-9659745D01*
X7230403Y-9688822D01*
X7139720Y-9755135D01*
X7139713Y-9755142D01*
X7124628Y-9775439D01*
X6949773Y-10078301D01*
X6949758Y-10078330D01*
X6939726Y-10101531D01*
X6927638Y-10213227D01*
X2683843Y-10213227D01*
X2646588Y-10133333D01*
X2590264Y-10077009D01*
X2582466Y-10064094D01*
X2577254Y-10044310D01*
X2567451Y-10026358D01*
X2568534Y-10011212D01*
X2564666Y-9996530D01*
X2570975Y-9977073D01*
X2572435Y-9956666D01*
X2582847Y-9940465D01*
X2586219Y-9930067D01*
X2593205Y-9924347D01*
X2600936Y-9912319D01*
X2614217Y-9899038D01*
X2646588Y-9866667D01*
X2694355Y-9764231D01*
X2700500Y-9717554D01*
X2700500Y-9642006D01*
X9265646Y-9642006D01*
X9265647Y-9642013D01*
X9290657Y-9728226D01*
X9296947Y-9749909D01*
X9309032Y-9768249D01*
X9310869Y-9771037D01*
X9497096Y-9992973D01*
X9497102Y-9992979D01*
X9510505Y-10005645D01*
X9515483Y-10010350D01*
X9616307Y-10059910D01*
X9638690Y-10061868D01*
X9728222Y-10069702D01*
X9728222Y-10069701D01*
X9728226Y-10069702D01*
X9836125Y-10038403D01*
X9857246Y-10024485D01*
X10125153Y-9799683D01*
X10142529Y-9781299D01*
X10192089Y-9680475D01*
X10195454Y-9642013D01*
X10195911Y-9636795D01*
X11519515Y-9636795D01*
X11519515Y-9794909D01*
X11558681Y-9941076D01*
X11560438Y-9947635D01*
X11560441Y-9947642D01*
X11639490Y-10084561D01*
X11639494Y-10084566D01*
X11639495Y-10084568D01*
X11751299Y-10196372D01*
X11751301Y-10196373D01*
X11751305Y-10196376D01*
X11849642Y-10253150D01*
X11888231Y-10275429D01*
X12040958Y-10316352D01*
X12040960Y-10316352D01*
X12199070Y-10316352D01*
X12199072Y-10316352D01*
X12351799Y-10275429D01*
X12488731Y-10196372D01*
X12600535Y-10084568D01*
X12679592Y-9947636D01*
X12720515Y-9794909D01*
X12720515Y-9728222D01*
X15930297Y-9728222D01*
X15930298Y-9728225D01*
X15930298Y-9728226D01*
X15961597Y-9836125D01*
X15975515Y-9857246D01*
X15975518Y-9857249D01*
X15975519Y-9857251D01*
X16200314Y-10125150D01*
X16200324Y-10125160D01*
X16218695Y-10142524D01*
X16218696Y-10142525D01*
X16218701Y-10142529D01*
X16319525Y-10192089D01*
X16367490Y-10196285D01*
X16431440Y-10201881D01*
X16431441Y-10201880D01*
X16431444Y-10201881D01*
X16539343Y-10170581D01*
X16560464Y-10156664D01*
X16701401Y-10038403D01*
X16782407Y-9970431D01*
X16782413Y-9970425D01*
X16789810Y-9962598D01*
X16799784Y-9952045D01*
X16849344Y-9851221D01*
X16855974Y-9775439D01*
X16859136Y-9739305D01*
X16859135Y-9739304D01*
X16859136Y-9739302D01*
X16827837Y-9631403D01*
X16813919Y-9610282D01*
X16734373Y-9515483D01*
X16589119Y-9342377D01*
X16589109Y-9342367D01*
X16570738Y-9325003D01*
X16570735Y-9325001D01*
X16570733Y-9324999D01*
X16469909Y-9275439D01*
X16469906Y-9275438D01*
X16469905Y-9275438D01*
X16357993Y-9265646D01*
X16357986Y-9265647D01*
X16250093Y-9296946D01*
X16228962Y-9310869D01*
X16007026Y-9497096D01*
X16007020Y-9497102D01*
X15989653Y-9515479D01*
X15989647Y-9515487D01*
X15940089Y-9616308D01*
X15940089Y-9616309D01*
X15930297Y-9728222D01*
X12720515Y-9728222D01*
X12720515Y-9636795D01*
X12679592Y-9484068D01*
X12666076Y-9460657D01*
X12600539Y-9347142D01*
X12600533Y-9347134D01*
X12488732Y-9235333D01*
X12488724Y-9235327D01*
X12351805Y-9156278D01*
X12351801Y-9156276D01*
X12351799Y-9156275D01*
X12199072Y-9115352D01*
X12040958Y-9115352D01*
X11888231Y-9156275D01*
X11888224Y-9156278D01*
X11751305Y-9235327D01*
X11751297Y-9235333D01*
X11639496Y-9347134D01*
X11639490Y-9347142D01*
X11560441Y-9484061D01*
X11560438Y-9484068D01*
X11519515Y-9636795D01*
X10195911Y-9636795D01*
X10197568Y-9617860D01*
X10197568Y-9617859D01*
X10201881Y-9568559D01*
X10201880Y-9568552D01*
X10177370Y-9484061D01*
X10170581Y-9460657D01*
X10156664Y-9439536D01*
X10156660Y-9439531D01*
X10156658Y-9439528D01*
X9970431Y-9217592D01*
X9970425Y-9217586D01*
X9952048Y-9200219D01*
X9952045Y-9200216D01*
X9952042Y-9200214D01*
X9952040Y-9200213D01*
X9851219Y-9150655D01*
X9739305Y-9140863D01*
X9739302Y-9140864D01*
X9631403Y-9172163D01*
X9610276Y-9186085D01*
X9342377Y-9410880D01*
X9342367Y-9410890D01*
X9325003Y-9429261D01*
X9325000Y-9429265D01*
X9324999Y-9429267D01*
X9282622Y-9515479D01*
X9275438Y-9530094D01*
X9265646Y-9642006D01*
X2700500Y-9642006D01*
X2700500Y-9282446D01*
X2694355Y-9235769D01*
X2646588Y-9133333D01*
X2566667Y-9053412D01*
X2464231Y-9005645D01*
X2464229Y-9005644D01*
X2464230Y-9005644D01*
X2417555Y-8999500D01*
X2417554Y-8999500D01*
X1382446Y-8999500D01*
X1382444Y-8999500D01*
X1346695Y-9004206D01*
X1277660Y-8993440D01*
X1225404Y-8947059D01*
X1206520Y-8879790D01*
X1213623Y-8839876D01*
X1235871Y-8777048D01*
X1241442Y-8761315D01*
X14458449Y-8761315D01*
X14491297Y-8868755D01*
X14560738Y-8957074D01*
X14581545Y-8971436D01*
X14581548Y-8971437D01*
X14581553Y-8971441D01*
X14890346Y-9135628D01*
X14913900Y-9144852D01*
X14990134Y-9150418D01*
X15055560Y-9174933D01*
X15078579Y-9197447D01*
X15125822Y-9257534D01*
X15125824Y-9257535D01*
X15146631Y-9271898D01*
X15146634Y-9271899D01*
X15146639Y-9271903D01*
X15455432Y-9436090D01*
X15478986Y-9445314D01*
X15574668Y-9452300D01*
X15591032Y-9453496D01*
X15591032Y-9453495D01*
X15591034Y-9453496D01*
X15698471Y-9420649D01*
X15786788Y-9351209D01*
X15801158Y-9330393D01*
X15937177Y-9074577D01*
X15946400Y-9051023D01*
X15954582Y-8938975D01*
X15921735Y-8831537D01*
X15921733Y-8831535D01*
X15921732Y-8831532D01*
X15878893Y-8777048D01*
X15878892Y-8777047D01*
X15852295Y-8743219D01*
X15852293Y-8743218D01*
X15831486Y-8728855D01*
X15831480Y-8728852D01*
X15831479Y-8728851D01*
X15776770Y-8699762D01*
X17155968Y-8699762D01*
X17155969Y-8699765D01*
X17155969Y-8699766D01*
X17187268Y-8807665D01*
X17201186Y-8828786D01*
X17201189Y-8828789D01*
X17201190Y-8828791D01*
X17425985Y-9096690D01*
X17425995Y-9096700D01*
X17444366Y-9114064D01*
X17444367Y-9114065D01*
X17444372Y-9114069D01*
X17545196Y-9163629D01*
X17582377Y-9166882D01*
X17657111Y-9173421D01*
X17657112Y-9173420D01*
X17657115Y-9173421D01*
X17765014Y-9142121D01*
X17786135Y-9128204D01*
X17875987Y-9052809D01*
X18008078Y-8941971D01*
X18008084Y-8941965D01*
X18018851Y-8930572D01*
X18025455Y-8923585D01*
X18075015Y-8822761D01*
X18083231Y-8728855D01*
X18084807Y-8710845D01*
X18084806Y-8710844D01*
X18084807Y-8710842D01*
X18053508Y-8602943D01*
X18039590Y-8581822D01*
X18013271Y-8550456D01*
X17814790Y-8313917D01*
X17814780Y-8313907D01*
X17796409Y-8296543D01*
X17796406Y-8296541D01*
X17796404Y-8296539D01*
X17695580Y-8246979D01*
X17695577Y-8246978D01*
X17695576Y-8246978D01*
X17583664Y-8237186D01*
X17583657Y-8237187D01*
X17475764Y-8268486D01*
X17454633Y-8282409D01*
X17232697Y-8468636D01*
X17232691Y-8468642D01*
X17215324Y-8487019D01*
X17215318Y-8487027D01*
X17165760Y-8587848D01*
X17165760Y-8587849D01*
X17155968Y-8699762D01*
X15776770Y-8699762D01*
X15637507Y-8625715D01*
X15522685Y-8564663D01*
X15499133Y-8555440D01*
X15422899Y-8549873D01*
X15357471Y-8525357D01*
X15334453Y-8502845D01*
X15287207Y-8442755D01*
X15266400Y-8428393D01*
X15266394Y-8428390D01*
X15266393Y-8428389D01*
X15117237Y-8349082D01*
X14957599Y-8264201D01*
X14934047Y-8254978D01*
X14821999Y-8246795D01*
X14714560Y-8279643D01*
X14714556Y-8279645D01*
X14626244Y-8349082D01*
X14611873Y-8369900D01*
X14475855Y-8625713D01*
X14466633Y-8649264D01*
X14466632Y-8649267D01*
X14458449Y-8761315D01*
X1241442Y-8761315D01*
X1254001Y-8725849D01*
X1254673Y-8724004D01*
X1330355Y-8521581D01*
X1331104Y-8519631D01*
X1410305Y-8318566D01*
X1411061Y-8316697D01*
X1493806Y-8116933D01*
X1494578Y-8115116D01*
X1580787Y-7916849D01*
X1581555Y-7915125D01*
X1633352Y-7801467D01*
X7625511Y-7801467D01*
X7625511Y-7959581D01*
X7664001Y-8103226D01*
X7666434Y-8112307D01*
X7666437Y-8112314D01*
X7745486Y-8249233D01*
X7745490Y-8249238D01*
X7745491Y-8249240D01*
X7857295Y-8361044D01*
X7857297Y-8361045D01*
X7857301Y-8361048D01*
X7953634Y-8416665D01*
X7994227Y-8440101D01*
X8146954Y-8481024D01*
X8146956Y-8481024D01*
X8305066Y-8481024D01*
X8305068Y-8481024D01*
X8457795Y-8440101D01*
X8542206Y-8391367D01*
X12729754Y-8391367D01*
X12730025Y-8416665D01*
X12763781Y-8521651D01*
X12764413Y-8523617D01*
X12785675Y-8549873D01*
X12830041Y-8604662D01*
X12835115Y-8610927D01*
X12932583Y-8666800D01*
X12957266Y-8672326D01*
X13305080Y-8708881D01*
X13330373Y-8708610D01*
X13437328Y-8674222D01*
X13524638Y-8603520D01*
X13580511Y-8506053D01*
X13586036Y-8481369D01*
X13616320Y-8193227D01*
X13616049Y-8167933D01*
X13581661Y-8060979D01*
X13510959Y-7973669D01*
X13449596Y-7938493D01*
X13413492Y-7917796D01*
X13401002Y-7915000D01*
X13388808Y-7912270D01*
X13132879Y-7885372D01*
X13040995Y-7875715D01*
X13040994Y-7875715D01*
X13034670Y-7875782D01*
X13015698Y-7875986D01*
X12908746Y-7910374D01*
X12821436Y-7981076D01*
X12765562Y-8078544D01*
X12765560Y-8078549D01*
X12760041Y-8103211D01*
X12760038Y-8103226D01*
X12729754Y-8391367D01*
X8542206Y-8391367D01*
X8594727Y-8361044D01*
X8706531Y-8249240D01*
X8785588Y-8112308D01*
X8826511Y-7959581D01*
X8826511Y-7801467D01*
X8785588Y-7648740D01*
X8742716Y-7574483D01*
X8706535Y-7511814D01*
X8706529Y-7511806D01*
X8594728Y-7400005D01*
X8594720Y-7399999D01*
X8457801Y-7320950D01*
X8457797Y-7320948D01*
X8457795Y-7320947D01*
X8305068Y-7280024D01*
X8146954Y-7280024D01*
X7994227Y-7320947D01*
X7994220Y-7320950D01*
X7857301Y-7399999D01*
X7857293Y-7400005D01*
X7745492Y-7511806D01*
X7745486Y-7511814D01*
X7666437Y-7648733D01*
X7666434Y-7648740D01*
X7625511Y-7801467D01*
X1633352Y-7801467D01*
X1671190Y-7718438D01*
X1672065Y-7716564D01*
X1765108Y-7521493D01*
X1766000Y-7519663D01*
X1862433Y-7326249D01*
X1863338Y-7324473D01*
X1963180Y-7132678D01*
X1964057Y-7131029D01*
X2067237Y-6940995D01*
X2068159Y-6939330D01*
X2088684Y-6903053D01*
X10709389Y-6903053D01*
X10709389Y-6903056D01*
X10712637Y-6928127D01*
X10712639Y-6928137D01*
X10768441Y-7151948D01*
X10782732Y-7209263D01*
X10782734Y-7209271D01*
X10791637Y-7232936D01*
X10859966Y-7320950D01*
X10860532Y-7321679D01*
X10956832Y-7379541D01*
X11067531Y-7398709D01*
X11092616Y-7395459D01*
X11280559Y-7348599D01*
X15209604Y-7348599D01*
X15242452Y-7456039D01*
X15311893Y-7544358D01*
X15332700Y-7558720D01*
X15332703Y-7558721D01*
X15332708Y-7558725D01*
X15641501Y-7722912D01*
X15665055Y-7732136D01*
X15741289Y-7737702D01*
X15806715Y-7762217D01*
X15829734Y-7784731D01*
X15876977Y-7844818D01*
X15876979Y-7844819D01*
X15897786Y-7859182D01*
X15897789Y-7859183D01*
X15897794Y-7859187D01*
X16206587Y-8023374D01*
X16230141Y-8032598D01*
X16325823Y-8039584D01*
X16342187Y-8040780D01*
X16342187Y-8040779D01*
X16342189Y-8040780D01*
X16449626Y-8007933D01*
X16537943Y-7938493D01*
X16552313Y-7917677D01*
X16683312Y-7671302D01*
X18381639Y-7671302D01*
X18381640Y-7671305D01*
X18381640Y-7671306D01*
X18412939Y-7779205D01*
X18426857Y-7800326D01*
X18426860Y-7800329D01*
X18426861Y-7800331D01*
X18651656Y-8068230D01*
X18651666Y-8068240D01*
X18670037Y-8085604D01*
X18670038Y-8085605D01*
X18670043Y-8085609D01*
X18770867Y-8135169D01*
X18818832Y-8139365D01*
X18882782Y-8144961D01*
X18882783Y-8144960D01*
X18882786Y-8144961D01*
X18990685Y-8113661D01*
X19011806Y-8099744D01*
X19102820Y-8023374D01*
X19233749Y-7913511D01*
X19233755Y-7913505D01*
X19236714Y-7910374D01*
X19251126Y-7895125D01*
X19300686Y-7794301D01*
X19310478Y-7682382D01*
X19279179Y-7574483D01*
X19265261Y-7553362D01*
X19185715Y-7458563D01*
X19040461Y-7285457D01*
X19040451Y-7285447D01*
X19022080Y-7268083D01*
X19022077Y-7268081D01*
X19022075Y-7268079D01*
X18921251Y-7218519D01*
X18921248Y-7218518D01*
X18921247Y-7218518D01*
X18809335Y-7208726D01*
X18809328Y-7208727D01*
X18701435Y-7240026D01*
X18680304Y-7253949D01*
X18458368Y-7440176D01*
X18458362Y-7440182D01*
X18440995Y-7458559D01*
X18440989Y-7458567D01*
X18391431Y-7559388D01*
X18391431Y-7559389D01*
X18381639Y-7671302D01*
X16683312Y-7671302D01*
X16688332Y-7661861D01*
X16697555Y-7638307D01*
X16705737Y-7526259D01*
X16672890Y-7418821D01*
X16617679Y-7348601D01*
X16603448Y-7330501D01*
X16582641Y-7316139D01*
X16582635Y-7316136D01*
X16582634Y-7316135D01*
X16426365Y-7233046D01*
X16273840Y-7151947D01*
X16250288Y-7142724D01*
X16174054Y-7137157D01*
X16108626Y-7112641D01*
X16085608Y-7090129D01*
X16038362Y-7030039D01*
X16017555Y-7015677D01*
X16017549Y-7015674D01*
X16017548Y-7015673D01*
X15902508Y-6954506D01*
X15708754Y-6851485D01*
X15685202Y-6842262D01*
X15573154Y-6834079D01*
X15465715Y-6866927D01*
X15465711Y-6866929D01*
X15377399Y-6936366D01*
X15363028Y-6957184D01*
X15227010Y-7212997D01*
X15217788Y-7236548D01*
X15217787Y-7236551D01*
X15209604Y-7348599D01*
X11280559Y-7348599D01*
X11431956Y-7310851D01*
X11455632Y-7301945D01*
X11544375Y-7233050D01*
X11602238Y-7136751D01*
X11621405Y-7026051D01*
X11618155Y-7000967D01*
X11568081Y-6800132D01*
X12896999Y-6800132D01*
X12897270Y-6825430D01*
X12930828Y-6929801D01*
X12931658Y-6932382D01*
X12975460Y-6986474D01*
X12999108Y-7015677D01*
X13002360Y-7019692D01*
X13099828Y-7075565D01*
X13124511Y-7081091D01*
X13472325Y-7117646D01*
X13497618Y-7117375D01*
X13604573Y-7082987D01*
X13691883Y-7012285D01*
X13747756Y-6914818D01*
X13753281Y-6890134D01*
X13783565Y-6601992D01*
X13783294Y-6576698D01*
X13748906Y-6469744D01*
X13678204Y-6382434D01*
X13610783Y-6343785D01*
X13580737Y-6326561D01*
X13572508Y-6324719D01*
X13556053Y-6321035D01*
X13210818Y-6284751D01*
X13208240Y-6284480D01*
X13208239Y-6284480D01*
X13201915Y-6284547D01*
X13182943Y-6284751D01*
X13075991Y-6319139D01*
X12988681Y-6389841D01*
X12932807Y-6487309D01*
X12932805Y-6487314D01*
X12927286Y-6511976D01*
X12927283Y-6511991D01*
X12896999Y-6800132D01*
X11568081Y-6800132D01*
X11548063Y-6719844D01*
X11548060Y-6719836D01*
X11548059Y-6719832D01*
X11539156Y-6696167D01*
X11470263Y-6607426D01*
X11470262Y-6607425D01*
X11395170Y-6562306D01*
X11373964Y-6549564D01*
X11373963Y-6549563D01*
X11373962Y-6549563D01*
X11263263Y-6530395D01*
X11263261Y-6530395D01*
X11263260Y-6530395D01*
X11238181Y-6533644D01*
X10898837Y-6618253D01*
X10898834Y-6618253D01*
X10875163Y-6627158D01*
X10875162Y-6627158D01*
X10786421Y-6696051D01*
X10786416Y-6696057D01*
X10728557Y-6792348D01*
X10728555Y-6792354D01*
X10709389Y-6903053D01*
X2088684Y-6903053D01*
X2174668Y-6751079D01*
X2175662Y-6749358D01*
X2285325Y-6563186D01*
X2286368Y-6561450D01*
X2399321Y-6377128D01*
X2400402Y-6375398D01*
X2516490Y-6193178D01*
X2517650Y-6191393D01*
X2547689Y-6146009D01*
X2569177Y-6113544D01*
X8543109Y-6113544D01*
X8551291Y-6225593D01*
X8560511Y-6249140D01*
X8560514Y-6249147D01*
X8696533Y-6504959D01*
X8710903Y-6525777D01*
X8799215Y-6595214D01*
X8799218Y-6595215D01*
X8799220Y-6595217D01*
X8906657Y-6628064D01*
X9018705Y-6619882D01*
X9042259Y-6610660D01*
X9351051Y-6446471D01*
X9371868Y-6432102D01*
X9419113Y-6372013D01*
X9476021Y-6331481D01*
X9507552Y-6324987D01*
X9583791Y-6319420D01*
X9607345Y-6310198D01*
X9916137Y-6146009D01*
X9936954Y-6131640D01*
X10003709Y-6046738D01*
X10006391Y-6043327D01*
X10006391Y-6043326D01*
X10006394Y-6043323D01*
X10039241Y-5935885D01*
X10039241Y-5935883D01*
X15960758Y-5935883D01*
X15993606Y-6043323D01*
X16063047Y-6131642D01*
X16083854Y-6146004D01*
X16083857Y-6146005D01*
X16083862Y-6146009D01*
X16392655Y-6310196D01*
X16416209Y-6319420D01*
X16492443Y-6324986D01*
X16557869Y-6349501D01*
X16580888Y-6372015D01*
X16628131Y-6432102D01*
X16628133Y-6432103D01*
X16648940Y-6446466D01*
X16648943Y-6446467D01*
X16648948Y-6446471D01*
X16957741Y-6610658D01*
X16981295Y-6619882D01*
X17076977Y-6626868D01*
X17093341Y-6628064D01*
X17093341Y-6628063D01*
X17093343Y-6628064D01*
X17200780Y-6595217D01*
X17289097Y-6525777D01*
X17303467Y-6504961D01*
X17439486Y-6249145D01*
X17448709Y-6225591D01*
X17456891Y-6113543D01*
X17424044Y-6006105D01*
X17368833Y-5935885D01*
X17354602Y-5917785D01*
X17333795Y-5903423D01*
X17333789Y-5903420D01*
X17333788Y-5903419D01*
X17218619Y-5842183D01*
X17024994Y-5739231D01*
X17001442Y-5730008D01*
X16925208Y-5724441D01*
X16859780Y-5699925D01*
X16836762Y-5677413D01*
X16789516Y-5617323D01*
X16768709Y-5602961D01*
X16768703Y-5602958D01*
X16768702Y-5602957D01*
X16619546Y-5523650D01*
X16459908Y-5438769D01*
X16436356Y-5429546D01*
X16324308Y-5421363D01*
X16216869Y-5454211D01*
X16216865Y-5454213D01*
X16128553Y-5523650D01*
X16114182Y-5544468D01*
X15978164Y-5800281D01*
X15968942Y-5823832D01*
X15968941Y-5823835D01*
X15960758Y-5935883D01*
X10039241Y-5935883D01*
X10031059Y-5823837D01*
X10021837Y-5800284D01*
X9885817Y-5544469D01*
X9871447Y-5523651D01*
X9871446Y-5523650D01*
X9783818Y-5454751D01*
X9783805Y-5454742D01*
X9783130Y-5454211D01*
X9771332Y-5450604D01*
X9675693Y-5421364D01*
X9675691Y-5421364D01*
X9658037Y-5422653D01*
X9563645Y-5429546D01*
X9563642Y-5429546D01*
X9563642Y-5429547D01*
X9540090Y-5438768D01*
X9231292Y-5602960D01*
X9210485Y-5617323D01*
X9210484Y-5617324D01*
X9163237Y-5677414D01*
X9106326Y-5717947D01*
X9074792Y-5724441D01*
X8998556Y-5730008D01*
X8975004Y-5739230D01*
X8666206Y-5903422D01*
X8645399Y-5917785D01*
X8645395Y-5917789D01*
X8575958Y-6006100D01*
X8575956Y-6006104D01*
X8564776Y-6042674D01*
X8547502Y-6099176D01*
X8543109Y-6113544D01*
X2569177Y-6113544D01*
X2636902Y-6011221D01*
X2638041Y-6009532D01*
X2760438Y-5831443D01*
X2761660Y-5829699D01*
X2763538Y-5827066D01*
X2887139Y-5653784D01*
X2888267Y-5652231D01*
X3016873Y-5478430D01*
X3018059Y-5476857D01*
X3095708Y-5375664D01*
X3114956Y-5350580D01*
X10322314Y-5350580D01*
X10322314Y-5350583D01*
X10325562Y-5375654D01*
X10325564Y-5375664D01*
X10385816Y-5617323D01*
X10395657Y-5656790D01*
X10395659Y-5656798D01*
X10404562Y-5680463D01*
X10473455Y-5769204D01*
X10473457Y-5769206D01*
X10569757Y-5827068D01*
X10680456Y-5846236D01*
X10705541Y-5842986D01*
X11044881Y-5758378D01*
X11068557Y-5749472D01*
X11157300Y-5680577D01*
X11203938Y-5602960D01*
X11215161Y-5584282D01*
X11215161Y-5584280D01*
X11215163Y-5584278D01*
X11234330Y-5473578D01*
X11231080Y-5448494D01*
X11171342Y-5208897D01*
X13064245Y-5208897D01*
X13064516Y-5234195D01*
X13098903Y-5341145D01*
X13098904Y-5341147D01*
X13169606Y-5428457D01*
X13267074Y-5484330D01*
X13291757Y-5489856D01*
X13639571Y-5526411D01*
X13664864Y-5526140D01*
X13771819Y-5491752D01*
X13859129Y-5421050D01*
X13915002Y-5323583D01*
X13920527Y-5298899D01*
X13950811Y-5010757D01*
X13950540Y-4985463D01*
X13916152Y-4878509D01*
X13851448Y-4798606D01*
X13845451Y-4791200D01*
X13845450Y-4791199D01*
X13796716Y-4763262D01*
X13747983Y-4735326D01*
X13738879Y-4733288D01*
X13723299Y-4729800D01*
X13491423Y-4705430D01*
X13375486Y-4693245D01*
X13375485Y-4693245D01*
X13369161Y-4693312D01*
X13350189Y-4693516D01*
X13243237Y-4727904D01*
X13155927Y-4798606D01*
X13100053Y-4896074D01*
X13100051Y-4896079D01*
X13094532Y-4920741D01*
X13094529Y-4920756D01*
X13064245Y-5208897D01*
X11171342Y-5208897D01*
X11160988Y-5167371D01*
X11160985Y-5167363D01*
X11160984Y-5167359D01*
X11152081Y-5143694D01*
X11083188Y-5054953D01*
X11083187Y-5054952D01*
X10986887Y-4997090D01*
X10876188Y-4977922D01*
X10876186Y-4977922D01*
X10876185Y-4977922D01*
X10851106Y-4981171D01*
X10511762Y-5065780D01*
X10511759Y-5065780D01*
X10488088Y-5074685D01*
X10488087Y-5074685D01*
X10399346Y-5143578D01*
X10399341Y-5143584D01*
X10341482Y-5239875D01*
X10341480Y-5239881D01*
X10322314Y-5350580D01*
X3114956Y-5350580D01*
X3149654Y-5305361D01*
X3150922Y-5303736D01*
X3285448Y-5134614D01*
X3286682Y-5133090D01*
X3424213Y-4966250D01*
X3425520Y-4964693D01*
X3565862Y-4800373D01*
X3567273Y-4798752D01*
X3571325Y-4794172D01*
X3710360Y-4637022D01*
X3711779Y-4635446D01*
X3857798Y-4476093D01*
X3859156Y-4474636D01*
X4004097Y-4321902D01*
X6417988Y-4321902D01*
X6422076Y-4442146D01*
X6445957Y-4508802D01*
X6445963Y-4508815D01*
X6557681Y-4718924D01*
X6703432Y-4993040D01*
X6733327Y-5033755D01*
X6745343Y-5050119D01*
X6794042Y-5085432D01*
X6842743Y-5120747D01*
X6957799Y-5155923D01*
X6957800Y-5155922D01*
X6957801Y-5155923D01*
X6981848Y-5155105D01*
X7078044Y-5151835D01*
X7144706Y-5127952D01*
X7982118Y-4682691D01*
X8039196Y-4640781D01*
X8109825Y-4543380D01*
X8145001Y-4428324D01*
X8141387Y-4322036D01*
X8140913Y-4308077D01*
X8117032Y-4241421D01*
X8117031Y-4241417D01*
X7859558Y-3757184D01*
X7817648Y-3700106D01*
X7817646Y-3700105D01*
X7817646Y-3700104D01*
X7720247Y-3629477D01*
X7605188Y-3594300D01*
X7484953Y-3598388D01*
X7484940Y-3598390D01*
X7418292Y-3622268D01*
X7418275Y-3622276D01*
X6580879Y-4067529D01*
X6580867Y-4067536D01*
X6523792Y-4109444D01*
X6453165Y-4206843D01*
X6417988Y-4321902D01*
X4004097Y-4321902D01*
X4007994Y-4317796D01*
X4009332Y-4316411D01*
X4054908Y-4270032D01*
X4115934Y-4236015D01*
X4180255Y-4238566D01*
X4256830Y-4262440D01*
X4257042Y-4262507D01*
X4319161Y-4282093D01*
X4319164Y-4282093D01*
X4319170Y-4282095D01*
X4319719Y-4282191D01*
X4320033Y-4282246D01*
X4320746Y-4282371D01*
X4320758Y-4282371D01*
X4320760Y-4282372D01*
X4385765Y-4285000D01*
X4450820Y-4287841D01*
X4450821Y-4287840D01*
X4450832Y-4287841D01*
X4451856Y-4287749D01*
X4452427Y-4287698D01*
X4452432Y-4287696D01*
X4452436Y-4287697D01*
X4515849Y-4273424D01*
X4579480Y-4259318D01*
X4580207Y-4258939D01*
X4581004Y-4258760D01*
X4638579Y-4228552D01*
X4696374Y-4198466D01*
X4696374Y-4198465D01*
X4696385Y-4198460D01*
X4696901Y-4198097D01*
X4697208Y-4197881D01*
X4697688Y-4197544D01*
X4697697Y-4197535D01*
X4697702Y-4197533D01*
X4745528Y-4153423D01*
X4745529Y-4153422D01*
X4745592Y-4153491D01*
X4745818Y-4153157D01*
X4903173Y-4008967D01*
X4904618Y-4007667D01*
X5061251Y-3869089D01*
X5062836Y-3867713D01*
X5221742Y-3731995D01*
X5223399Y-3730604D01*
X5384760Y-3597588D01*
X5386397Y-3596261D01*
X5550071Y-3466070D01*
X5551564Y-3464903D01*
X5717552Y-3337538D01*
X5719133Y-3336346D01*
X5887371Y-3211855D01*
X5888846Y-3210783D01*
X6059247Y-3089238D01*
X6060886Y-3088090D01*
X6233214Y-2969653D01*
X6234902Y-2968514D01*
X6409353Y-2853048D01*
X6411039Y-2851953D01*
X6587421Y-2739586D01*
X6589058Y-2738562D01*
X6767517Y-2629202D01*
X6769152Y-2628220D01*
X6949383Y-2522057D01*
X6951080Y-2521077D01*
X7133264Y-2418002D01*
X7134903Y-2417094D01*
X7318803Y-2317244D01*
X7320504Y-2316340D01*
X7506120Y-2219714D01*
X7507798Y-2218859D01*
X7695008Y-2125520D01*
X7696844Y-2124624D01*
X7885644Y-2034572D01*
X7887519Y-2033698D01*
X8077792Y-1946985D01*
X8079539Y-1946207D01*
X8271501Y-1862739D01*
X8273295Y-1861979D01*
X8466538Y-1781934D01*
X8468344Y-1781205D01*
X8663109Y-1704486D01*
X8664839Y-1703823D01*
X8860845Y-1630538D01*
X8862550Y-1629917D01*
X9059886Y-1560036D01*
X9061749Y-1559395D01*
X9260128Y-1493019D01*
X9261983Y-1492416D01*
X9343157Y-1466821D01*
X9413011Y-1465436D01*
X9472527Y-1502038D01*
G37*
%TD.AperFunction*%
%TD*%
M02*
