%TF.GenerationSoftware,KiCad,Pcbnew,10.0.6*%
%TF.CreationDate,2026-09-04T17:42:04+08:00*%
%TF.ProjectId,halo_rev_a,68616c6f-5f72-4657-965f-612e6b696361,rev?*%
%TF.SameCoordinates,Original*%
%TF.FileFunction,Legend,Bot*%
%TF.FilePolarity,Positive*%
%FSLAX46Y46*%
G04 Gerber Fmt 4.6, Leading zero omitted, Abs format (unit mm)*
G04 Created by KiCad (PCBNEW 10.0.6) date 2026-09-04 17:42:04*
%MOMM*%
%LPD*%
G01*
G04 APERTURE LIST*
%ADD10C,0.120000*%
G04 APERTURE END LIST*
%TO.C,U3*%
D10*
X4553369Y-15873092D02*
X7226784Y-16690437D01*
X7890468Y-14519626D02*
X4811166Y-13578189D01*
X4270340Y-15791790D02*
X4080907Y-15932556D01*
X4348672Y-16014420D01*
X4270340Y-15791790D01*
G36*
X4348672Y-16014420D02*
G01*
X4080907Y-15932556D01*
X4270340Y-15791790D01*
X4348672Y-16014420D01*
G37*
%TO.C,L1*%
X18139606Y-8593700D02*
X18388998Y-8802965D01*
X18795250Y-7812335D02*
X19044642Y-8021600D01*
%TO.C,C10*%
X16471419Y-20916043D02*
X16665264Y-21010587D01*
X16787046Y-20268911D02*
X16980891Y-20363455D01*
%TO.C,U1*%
X10077500Y-9890000D02*
X10077500Y-10440000D01*
X10077500Y-15560000D02*
X10077500Y-16110000D01*
X10077500Y-16110000D02*
X10627500Y-16110000D01*
X10627500Y-9890000D02*
X10077500Y-9890000D01*
X15747500Y-16110000D02*
X16297500Y-16110000D01*
X16297500Y-9890000D02*
X15747500Y-9890000D01*
X16297500Y-10440000D02*
X16297500Y-9890000D01*
X16297500Y-16110000D02*
X16297500Y-15560000D01*
X9577500Y-15200000D02*
X9247500Y-14960000D01*
X9247500Y-15440000D01*
X9577500Y-15200000D01*
G36*
X9577500Y-15200000D02*
G01*
X9247500Y-15440000D01*
X9247500Y-14960000D01*
X9577500Y-15200000D01*
G37*
%TO.C,X1*%
X6093874Y-9015343D02*
X6848784Y-10134544D01*
X7544690Y-8036756D02*
X8299600Y-9155957D01*
%TO.C,C11*%
X4211217Y-11760345D02*
X4241232Y-11973918D01*
X4924210Y-11660140D02*
X4954225Y-11873713D01*
%TO.C,X2*%
X17655697Y-16083904D02*
X19751479Y-14873904D01*
X19751479Y-14873904D02*
X21161479Y-17316096D01*
%TO.C,U2*%
X10964784Y-19548537D02*
X10964784Y-20048537D01*
X10964784Y-20048537D02*
X10964784Y-20048537D01*
X10964784Y-21248537D02*
X10964784Y-21548537D01*
X10964784Y-21748537D02*
X10964784Y-21748537D01*
X11464784Y-19548537D02*
X10964784Y-19548537D01*
X11464784Y-21748537D02*
X11164784Y-21748537D01*
X12664784Y-19548537D02*
X12664784Y-19548537D01*
X12664784Y-21748537D02*
X13164784Y-21748537D01*
X13164784Y-19548537D02*
X12664784Y-19548537D01*
X13164784Y-20048537D02*
X13164784Y-19548537D01*
X13164784Y-21248537D02*
X13164784Y-21248537D01*
X13164784Y-21748537D02*
X13164784Y-21248537D01*
X10964784Y-21748537D02*
X10604784Y-21748537D01*
X10964784Y-22108537D01*
X10964784Y-21748537D01*
G36*
X10964784Y-22108537D02*
G01*
X10604784Y-21748537D01*
X10964784Y-21748537D01*
X10964784Y-22108537D01*
G37*
%TO.C,C9*%
X21045775Y-14126287D02*
X21075790Y-14339860D01*
X21758768Y-14026082D02*
X21788783Y-14239655D01*
%TO.C,C12*%
X7829778Y-19729749D02*
X8006447Y-19606045D01*
X8242753Y-20319539D02*
X8419422Y-20195835D01*
%TD*%
M02*
