%TF.GenerationSoftware,KiCad,Pcbnew,10.0.6*%
%TF.CreationDate,2026-09-05T06:06:38+08:00*%
%TF.ProjectId,halo_rev_a,68616c6f-5f72-4657-965f-612e6b696361,rev?*%
%TF.SameCoordinates,Original*%
%TF.FileFunction,Copper,L4,Bot*%
%TF.FilePolarity,Positive*%
%FSLAX46Y46*%
G04 Gerber Fmt 4.6, Leading zero omitted, Abs format (unit mm)*
G04 Created by KiCad (PCBNEW 10.0.6) date 2026-09-05 06:06:38*
%MOMM*%
%LPD*%
G01*
G04 APERTURE LIST*
G04 Aperture macros list*
%AMRoundRect*
0 Rectangle with rounded corners*
0 $1 Rounding radius*
0 $2 $3 $4 $5 $6 $7 $8 $9 X,Y pos of 4 corners*
0 Add a 4 corners polygon primitive as box body*
4,1,4,$2,$3,$4,$5,$6,$7,$8,$9,$2,$3,0*
0 Add four circle primitives for the rounded corners*
1,1,$1+$1,$2,$3*
1,1,$1+$1,$4,$5*
1,1,$1+$1,$6,$7*
1,1,$1+$1,$8,$9*
0 Add four rect primitives between the rounded corners*
20,1,$1+$1,$2,$3,$4,$5,0*
20,1,$1+$1,$4,$5,$6,$7,0*
20,1,$1+$1,$6,$7,$8,$9,0*
20,1,$1+$1,$8,$9,$2,$3,0*%
%AMRotRect*
0 Rectangle, with rotation*
0 The origin of the aperture is its center*
0 $1 length*
0 $2 width*
0 $3 Rotation angle, in degrees counterclockwise*
0 Add horizontal line*
21,1,$1,$2,0,0,$3*%
G04 Aperture macros list end*
%TA.AperFunction,SMDPad,CuDef*%
%ADD10RotRect,0.300000X0.150000X128.883234*%
%TD*%
%TA.AperFunction,SMDPad,CuDef*%
%ADD11RoundRect,0.140000X-0.187830X0.114978X-0.148861X-0.162297X0.187830X-0.114978X0.148861X0.162297X0*%
%TD*%
%TA.AperFunction,SMDPad,CuDef*%
%ADD12RoundRect,0.050000X-0.375000X-0.050000X0.375000X-0.050000X0.375000X0.050000X-0.375000X0.050000X0*%
%TD*%
%TA.AperFunction,SMDPad,CuDef*%
%ADD13RoundRect,0.050000X-0.050000X-0.375000X0.050000X-0.375000X0.050000X0.375000X-0.050000X0.375000X0*%
%TD*%
%TA.AperFunction,HeatsinkPad*%
%ADD14R,4.400000X4.400000*%
%TD*%
%TA.AperFunction,SMDPad,CuDef*%
%ADD15RoundRect,0.100000X-0.163238X-0.015915X0.057254X-0.153694X0.163238X0.015915X-0.057254X0.153694X0*%
%TD*%
%TA.AperFunction,SMDPad,CuDef*%
%ADD16RoundRect,0.180000X1.020000X0.420000X-1.020000X0.420000X-1.020000X-0.420000X1.020000X-0.420000X0*%
%TD*%
%TA.AperFunction,SMDPad,CuDef*%
%ADD17RoundRect,0.180000X-0.873731X0.673346X0.146269X-1.093346X0.873731X-0.673346X-0.146269X1.093346X0*%
%TD*%
%TA.AperFunction,SMDPad,CuDef*%
%ADD18RoundRect,0.180000X-0.146269X-1.093346X0.873731X0.673346X0.146269X1.093346X-0.873731X-0.673346X0*%
%TD*%
%TA.AperFunction,SMDPad,CuDef*%
%ADD19RoundRect,0.218750X-0.332287X-0.055689X0.002858X-0.336909X0.332287X0.055689X-0.002858X0.336909X0*%
%TD*%
%TA.AperFunction,SMDPad,CuDef*%
%ADD20RoundRect,0.140000X-0.017173X-0.219557X0.212189X-0.058955X0.017173X0.219557X-0.212189X0.058955X0*%
%TD*%
%TA.AperFunction,SMDPad,CuDef*%
%ADD21RoundRect,0.100000X-0.164004X-0.001628X0.043641X-0.158100X0.164004X0.001628X-0.043641X0.158100X0*%
%TD*%
%TA.AperFunction,SMDPad,CuDef*%
%ADD22R,0.375000X0.350000*%
%TD*%
%TA.AperFunction,SMDPad,CuDef*%
%ADD23R,0.350000X0.375000*%
%TD*%
%TA.AperFunction,SMDPad,CuDef*%
%ADD24RoundRect,0.140000X-0.181435X-0.124825X0.087718X-0.202004X0.181435X0.124825X-0.087718X0.202004X0*%
%TD*%
%TA.AperFunction,SMDPad,CuDef*%
%ADD25RoundRect,0.200000X-0.298205X0.116506X-0.048205X-0.316506X0.298205X-0.116506X0.048205X0.316506X0*%
%TD*%
%TA.AperFunction,SMDPad,CuDef*%
%ADD26RoundRect,0.100000X-0.160680X-0.032891X0.073006X-0.146868X0.160680X0.032891X-0.073006X0.146868X0*%
%TD*%
%TA.AperFunction,SMDPad,CuDef*%
%ADD27RoundRect,0.100000X-0.163718X0.009817X0.032506X-0.160759X0.163718X-0.009817X-0.032506X0.160759X0*%
%TD*%
%TA.AperFunction,SMDPad,CuDef*%
%ADD28RotRect,1.000000X1.800000X304.000000*%
%TD*%
%TA.AperFunction,ViaPad*%
%ADD29C,0.450000*%
%TD*%
%TA.AperFunction,Conductor*%
%ADD30C,0.200000*%
%TD*%
%TA.AperFunction,Conductor*%
%ADD31C,0.150000*%
%TD*%
G04 APERTURE END LIST*
D10*
%TO.P,AE2,1*%
%TO.N,NFC1*%
X21189560Y-6533876D03*
%TO.P,AE2,2*%
%TO.N,NFC2*%
X21001232Y-6300356D03*
%TD*%
D11*
%TO.P,C9,1*%
%TO.N,VDD*%
X21350476Y-13707642D03*
%TO.P,C9,2*%
%TO.N,GND*%
X21484082Y-14658300D03*
%TD*%
D12*
%TO.P,U1,1*%
%TO.N,XL1*%
X10262500Y-15200000D03*
%TO.P,U1,2*%
%TO.N,XL2*%
X10262500Y-14800000D03*
%TO.P,U1,3*%
%TO.N,NFC1*%
X10262500Y-14400000D03*
%TO.P,U1,4*%
%TO.N,NFC2*%
X10262500Y-14000000D03*
%TO.P,U1,5*%
%TO.N,VBAT_SNS*%
X10262500Y-13600000D03*
%TO.P,U1,6*%
%TO.N,SNS_EN*%
X10262500Y-13200000D03*
%TO.P,U1,7*%
%TO.N,unconnected-(U1-P1.06{slash}AIN2-Pad7)*%
X10262500Y-12800000D03*
%TO.P,U1,8*%
%TO.N,unconnected-(U1-P1.07{slash}AIN3-Pad8)*%
X10262500Y-12400000D03*
%TO.P,U1,9*%
%TO.N,unconnected-(U1-P1.08{slash}EXTREF-Pad9)*%
X10262500Y-12000000D03*
%TO.P,U1,10*%
%TO.N,VDD*%
X10262500Y-11600000D03*
%TO.P,U1,11*%
%TO.N,unconnected-(U1-P2.00-Pad11)*%
X10262500Y-11200000D03*
%TO.P,U1,12*%
%TO.N,SPI_SCK*%
X10262500Y-10800000D03*
D13*
%TO.P,U1,13*%
%TO.N,SPI_MOSI*%
X10987500Y-10075000D03*
%TO.P,U1,14*%
%TO.N,unconnected-(U1-P2.03-Pad14)*%
X11387500Y-10075000D03*
%TO.P,U1,15*%
%TO.N,SPI_MISO*%
X11787500Y-10075000D03*
%TO.P,U1,16*%
%TO.N,unconnected-(U1-P2.05{slash}CS-Pad16)*%
X12187500Y-10075000D03*
%TO.P,U1,17*%
%TO.N,I2C_SCL*%
X12587500Y-10075000D03*
%TO.P,U1,18*%
%TO.N,SWO*%
X12987500Y-10075000D03*
%TO.P,U1,19*%
%TO.N,I2C_SDA*%
X13387500Y-10075000D03*
%TO.P,U1,20*%
%TO.N,ACC_INT1*%
X13787500Y-10075000D03*
%TO.P,U1,21*%
%TO.N,ACC_INT2*%
X14187500Y-10075000D03*
%TO.P,U1,22*%
%TO.N,VDD*%
X14587500Y-10075000D03*
%TO.P,U1,23*%
%TO.N,UWB_CS*%
X14987500Y-10075000D03*
%TO.P,U1,24*%
%TO.N,UWB_IRQ*%
X15387500Y-10075000D03*
D12*
%TO.P,U1,25*%
%TO.N,SWDIO*%
X16112500Y-10800000D03*
%TO.P,U1,26*%
%TO.N,SWDCLK*%
X16112500Y-11200000D03*
%TO.P,U1,27*%
%TO.N,UWB_RST*%
X16112500Y-11600000D03*
%TO.P,U1,28*%
%TO.N,unconnected-(U1-P0.03-Pad28)*%
X16112500Y-12000000D03*
%TO.P,U1,29*%
%TO.N,unconnected-(U1-P0.04-Pad29)*%
X16112500Y-12400000D03*
%TO.P,U1,30*%
%TO.N,nRESET*%
X16112500Y-12800000D03*
%TO.P,U1,31*%
%TO.N,RF_ANT*%
X16112500Y-13200000D03*
%TO.P,U1,32*%
%TO.N,GND*%
X16112500Y-13600000D03*
%TO.P,U1,33*%
%TO.N,DECA*%
X16112500Y-14000000D03*
%TO.P,U1,34*%
%TO.N,XC1*%
X16112500Y-14400000D03*
%TO.P,U1,35*%
%TO.N,XC2*%
X16112500Y-14800000D03*
%TO.P,U1,36*%
%TO.N,VDD*%
X16112500Y-15200000D03*
D13*
%TO.P,U1,37*%
%TO.N,unconnected-(U1-P1.09-Pad37)*%
X15387500Y-15925000D03*
%TO.P,U1,38*%
%TO.N,unconnected-(U1-P1.10-Pad38)*%
X14987500Y-15925000D03*
%TO.P,U1,39*%
%TO.N,PIEZO_P*%
X14587500Y-15925000D03*
%TO.P,U1,40*%
%TO.N,PIEZO_N*%
X14187500Y-15925000D03*
%TO.P,U1,41*%
%TO.N,unconnected-(U1-P1.13{slash}AIN6-Pad41)*%
X13787500Y-15925000D03*
%TO.P,U1,42*%
%TO.N,unconnected-(U1-P1.14{slash}AIN7-Pad42)*%
X13387500Y-15925000D03*
%TO.P,U1,43*%
%TO.N,DECA*%
X12987500Y-15925000D03*
%TO.P,U1,44*%
%TO.N,GND*%
X12587500Y-15925000D03*
%TO.P,U1,45*%
%TO.N,DECD*%
X12187500Y-15925000D03*
%TO.P,U1,46*%
%TO.N,DCC*%
X11787500Y-15925000D03*
%TO.P,U1,47*%
%TO.N,VDD*%
X11387500Y-15925000D03*
%TO.P,U1,48*%
X10987500Y-15925000D03*
D14*
%TO.P,U1,49*%
%TO.N,GND*%
X13187500Y-13000000D03*
%TD*%
D15*
%TO.P,C17,1*%
%TO.N,XC2*%
X17285931Y-20123640D03*
%TO.P,C17,2*%
%TO.N,GND*%
X17828681Y-20462788D03*
%TD*%
D16*
%TO.P,BT1,1*%
%TO.N,VDD*%
X13000000Y-24600000D03*
D17*
%TO.P,BT1,2*%
%TO.N,GND*%
X23045900Y-7200000D03*
D18*
%TO.P,BT1,3*%
%TO.N,VBAT_SNS_HI*%
X2954100Y-7200000D03*
%TD*%
D19*
%TO.P,L1,1*%
%TO.N,DCC*%
X17988864Y-7801455D03*
%TO.P,L1,2*%
%TO.N,DECD*%
X19195384Y-8813845D03*
%TD*%
D20*
%TO.P,C12,1*%
%TO.N,VDD*%
X7731407Y-20238109D03*
%TO.P,C12,2*%
%TO.N,GND*%
X8517793Y-19687475D03*
%TD*%
D21*
%TO.P,C15,1*%
%TO.N,XL2*%
X7568828Y-5939154D03*
%TO.P,C15,2*%
%TO.N,GND*%
X8079954Y-6324316D03*
%TD*%
D22*
%TO.P,U2,1*%
%TO.N,I2C_SCL*%
X11302284Y-21398537D03*
%TO.P,U2,2*%
%TO.N,ACC_CS*%
X11302284Y-20898537D03*
%TO.P,U2,3*%
%TO.N,ACC_SA0*%
X11302284Y-20398537D03*
%TO.P,U2,4*%
%TO.N,I2C_SDA*%
X11302284Y-19898537D03*
D23*
%TO.P,U2,5*%
%TO.N,GND*%
X11814784Y-19886037D03*
%TO.P,U2,6*%
X12314784Y-19886037D03*
D22*
%TO.P,U2,7*%
X12827284Y-19898537D03*
%TO.P,U2,8*%
X12827284Y-20398537D03*
%TO.P,U2,9*%
%TO.N,VDD*%
X12827284Y-20898537D03*
%TO.P,U2,10*%
X12827284Y-21398537D03*
D23*
%TO.P,U2,11*%
%TO.N,ACC_INT2*%
X12314784Y-21411037D03*
%TO.P,U2,12*%
%TO.N,ACC_INT1*%
X11814784Y-21411037D03*
%TD*%
D24*
%TO.P,C10,1*%
%TO.N,VDD*%
X14881512Y-21038418D03*
%TO.P,C10,2*%
%TO.N,GND*%
X15804324Y-21303030D03*
%TD*%
D11*
%TO.P,C11,1*%
%TO.N,VDD*%
X4515918Y-11341700D03*
%TO.P,C11,2*%
%TO.N,GND*%
X4649524Y-12292358D03*
%TD*%
D25*
%TO.P,X2,1*%
%TO.N,XC1*%
X19534902Y-15818782D03*
%TO.P,X2,2*%
%TO.N,GND*%
X20234902Y-17031218D03*
%TO.P,X2,3*%
%TO.N,XC2*%
X19282274Y-17581218D03*
%TO.P,X2,4*%
%TO.N,GND*%
X18582274Y-16368782D03*
%TD*%
D26*
%TO.P,C14,1*%
%TO.N,XL1*%
X8942394Y-5130092D03*
%TO.P,C14,2*%
%TO.N,GND*%
X9517622Y-5410650D03*
%TD*%
D27*
%TO.P,C16,1*%
%TO.N,XC1*%
X18400601Y-19280563D03*
%TO.P,C16,2*%
%TO.N,GND*%
X18883615Y-19700441D03*
%TD*%
D28*
%TO.P,X1,1*%
%TO.N,XL1*%
X7895728Y-10121947D03*
%TO.P,X1,2*%
%TO.N,XL2*%
X6497746Y-8049353D03*
%TD*%
D29*
%TO.N,GND*%
X9500000Y-6937822D03*
X4392301Y-14829623D03*
X12097029Y-7879000D03*
X21061832Y-16730240D03*
X13919850Y-4248207D03*
X16480903Y-21056775D03*
X10400000Y-17503332D03*
X10280650Y-4630703D03*
X10400000Y-8496668D03*
X19904897Y-12567510D03*
X4200000Y-13000000D03*
X4960800Y-9420718D03*
X16983431Y-16342496D03*
X22020388Y-9897785D03*
X12488903Y-19320384D03*
X16500000Y-19062178D03*
X13000000Y-6000000D03*
X6937822Y-16500000D03*
X15600000Y-17503332D03*
X8050253Y-17949747D03*
X6238519Y-11188267D03*
X8642820Y-20396537D03*
X19761481Y-14811733D03*
X11188267Y-6238519D03*
X5369524Y-12292358D03*
X18429464Y-15502151D03*
X18200000Y-13000000D03*
X17949747Y-17949747D03*
X18888349Y-6460326D03*
X15719350Y-4630703D03*
X21039200Y-9420718D03*
X20119350Y-7827490D03*
X6000000Y-13000000D03*
X7613154Y-11903315D03*
X22204082Y-14658300D03*
X4960800Y-16579282D03*
X13372306Y-20096909D03*
X21800000Y-13000000D03*
X14811733Y-6238519D03*
X12080150Y-4248207D03*
%TO.N,VDD*%
X14700000Y-24600000D03*
X1653745Y-17176579D03*
X15006539Y-20329356D03*
X13407284Y-20898537D03*
X12827284Y-21978537D03*
X10520869Y-15772190D03*
X8892938Y-12703670D03*
X7606380Y-19529047D03*
X5235918Y-11341700D03*
%TD*%
%TO.N,GND*%
D30*
X18582274Y-16368782D02*
X18429464Y-15502151D01*
X21484082Y-14658300D02*
X22204082Y-14658300D01*
X11814784Y-19886037D02*
X12488903Y-19320384D01*
X20234902Y-17031218D02*
X21061832Y-16730240D01*
X15804324Y-21303030D02*
X16480903Y-21056775D01*
X4649524Y-12292358D02*
X5369524Y-12292358D01*
X12827284Y-19898537D02*
X13372306Y-20096909D01*
X8517793Y-19687475D02*
X8642820Y-20396537D01*
%TO.N,NFC1*%
D31*
X22617267Y-17179646D02*
X22850398Y-16587498D01*
X2455855Y-11712432D02*
X2400056Y-12354669D01*
X11800452Y-23478673D02*
X12438532Y-23529251D01*
X22850398Y-16587498D02*
X23047120Y-15982465D01*
X22451191Y-8551756D02*
X22161375Y-7987959D01*
X20939373Y-19872536D02*
X21339387Y-19376454D01*
X8092219Y-3526991D02*
X7528041Y-3844671D01*
X22576875Y-8129542D02*
X22261256Y-7558975D01*
X3309471Y-8613820D02*
X3063930Y-9210834D01*
X2467104Y-14284041D02*
X2567256Y-14920158D01*
X13081603Y-2308280D02*
X12432965Y-2325918D01*
X16220874Y-23021971D02*
X16821897Y-22805408D01*
X9273615Y-2996900D02*
X8674789Y-3244047D01*
X20052477Y-20787795D02*
X20509881Y-20343567D01*
X19182790Y-4241388D02*
X18638513Y-3884891D01*
X22348566Y-17756718D02*
X22617267Y-17179646D01*
X15018268Y-2491330D02*
X14376641Y-2391118D01*
X15607649Y-23201722D02*
X16220874Y-23021971D01*
X23254837Y-10952430D02*
X23108924Y-10334803D01*
X21482208Y-6918681D02*
X21189557Y-6533876D01*
X17490630Y-3274361D02*
X16891274Y-3022540D01*
X15652805Y-2630322D02*
X15018268Y-2491330D01*
X4303355Y-19038832D02*
X4688012Y-19553518D01*
X17408514Y-22552849D02*
X17978571Y-22265246D01*
X16277910Y-2807603D02*
X15652805Y-2630322D01*
X3950536Y-18501609D02*
X4303355Y-19038832D01*
X22706339Y-9132258D02*
X22451191Y-8551756D01*
X5546990Y-20507843D02*
X6018115Y-20943993D01*
X6018115Y-20943993D02*
X6514696Y-21350646D01*
X2683784Y-10443496D02*
X2550540Y-11074590D01*
X8717485Y-22654402D02*
X9312095Y-22893713D01*
X22045266Y-18316580D02*
X22348566Y-17756718D01*
X18073762Y-3562159D02*
X17490630Y-3274361D01*
X22857372Y-8718365D02*
X22576875Y-8129542D01*
X20673033Y-5499916D02*
X20201941Y-5050374D01*
X14376641Y-2391118D02*
X13730292Y-2330033D01*
X3095668Y-16774779D02*
X3345559Y-17367503D01*
X20201941Y-5050374D02*
X19704578Y-4630355D01*
X5966151Y-4993632D02*
X5495421Y-5437164D01*
X7528041Y-3844671D02*
X6984323Y-4195899D01*
X16821897Y-22805408D02*
X17408514Y-22552849D01*
X6463057Y-4579363D02*
X5966151Y-4993632D01*
X22261256Y-7558975D02*
X21911698Y-7008756D01*
X13717487Y-23513961D02*
X14353650Y-23448192D01*
X7576772Y-22069647D02*
X8138329Y-22379382D01*
X21339387Y-19376454D02*
X21708466Y-18857160D01*
X21708466Y-18857160D02*
X22045266Y-18316580D01*
X3063930Y-9210834D02*
X2855118Y-9821478D01*
X11145388Y-2478875D02*
X10511188Y-2613588D01*
X23108924Y-10334803D02*
X22925859Y-9727336D01*
X19060711Y-21589343D02*
X19568831Y-21203570D01*
X7034892Y-21726319D02*
X7576772Y-22069647D01*
X22161375Y-7987959D02*
X21837977Y-7442935D01*
X2705778Y-15548854D02*
X2882138Y-16167819D01*
X3590857Y-8032645D02*
X3309471Y-8613820D01*
X20509881Y-20343567D02*
X20939373Y-19872536D01*
X4639266Y-6405318D02*
X4256963Y-6926345D01*
X19704578Y-4630355D02*
X19182790Y-4241388D01*
X23047120Y-15982465D02*
X23206729Y-15366781D01*
X5103072Y-20043786D02*
X5546990Y-20507843D01*
X23206729Y-15366781D02*
X23328657Y-14742721D01*
X17978571Y-22265246D02*
X18529976Y-21943676D01*
X13730292Y-2330033D02*
X13081603Y-2308280D01*
X21116104Y-5977339D02*
X20673033Y-5499916D01*
X22925859Y-9727336D02*
X22706339Y-9132258D01*
X11786767Y-2382860D02*
X11145388Y-2478875D01*
X21837977Y-7442935D02*
X21482208Y-6918681D01*
X16891274Y-3022540D02*
X16277910Y-2807603D01*
X2882138Y-16167819D02*
X3095668Y-16774779D01*
X5495421Y-5437164D02*
X5052587Y-5908309D01*
X18638513Y-3884891D02*
X18073762Y-3562159D01*
X2383329Y-12998931D02*
X2405713Y-13642846D01*
X10538839Y-23261896D02*
X11166441Y-23389452D01*
X8674789Y-3244047D02*
X8092219Y-3526991D01*
X12432965Y-2325918D02*
X11786767Y-2382860D01*
X9312095Y-22893713D02*
X9919962Y-23096453D01*
X23433115Y-12209045D02*
X23363040Y-11577944D01*
X3345559Y-17367503D02*
X3630872Y-17943818D01*
X23464781Y-12843411D02*
X23433115Y-12209045D01*
X5052587Y-5908309D02*
X4639266Y-6405318D01*
X2855118Y-9821478D02*
X2683784Y-10443496D01*
X9919962Y-23096453D02*
X10538839Y-23261896D01*
X19568831Y-21203570D02*
X20052477Y-20787795D01*
X23328657Y-14742721D02*
X23412477Y-14112588D01*
X14984478Y-23343977D02*
X15607649Y-23201722D01*
X2405713Y-13642846D02*
X2467104Y-14284041D01*
X2567256Y-14920158D02*
X2705778Y-15548854D01*
X13078330Y-23541021D02*
X13717487Y-23513961D01*
X9886498Y-2786482D02*
X9273615Y-2996900D01*
X12438532Y-23529251D02*
X13078330Y-23541021D01*
X23363040Y-11577944D02*
X23254837Y-10952430D01*
X3907069Y-7469458D02*
X3590857Y-8032645D01*
X23412477Y-14112588D02*
X23457900Y-13478706D01*
X23457900Y-13478706D02*
X23464781Y-12843411D01*
X4688012Y-19553518D02*
X5103072Y-20043786D01*
X4256963Y-6926345D02*
X3907069Y-7469458D01*
X6514696Y-21350646D02*
X7034892Y-21726319D01*
X3630872Y-17943818D02*
X3950536Y-18501609D01*
X11166441Y-23389452D02*
X11800452Y-23478673D01*
X21529505Y-6480900D02*
X21116104Y-5977339D01*
X6984323Y-4195899D02*
X6463057Y-4579363D01*
X21911698Y-7008756D02*
X21529505Y-6480900D01*
X14353650Y-23448192D02*
X14984478Y-23343977D01*
X18529976Y-21943676D02*
X19060711Y-21589343D01*
X23101696Y-9323283D02*
X22857372Y-8718365D01*
X2550540Y-11074590D02*
X2455855Y-11712432D01*
X2400056Y-12354669D02*
X2383329Y-12998931D01*
X8138329Y-22379382D02*
X8717485Y-22654402D01*
X10511188Y-2613588D02*
X9886498Y-2786482D01*
%TO.N,NFC2*%
X3054214Y-10209917D02*
X2906099Y-10819056D01*
X20678983Y-5940074D02*
X21001235Y-6300356D01*
X5120168Y-19607234D02*
X5537632Y-20071121D01*
X18749821Y-4310515D02*
X18210610Y-3980203D01*
X14026694Y-2654430D02*
X13397051Y-2614096D01*
X4046279Y-18075143D02*
X4373098Y-18607416D01*
X22977824Y-14999050D02*
X23077851Y-14389641D01*
X9087688Y-3392860D02*
X8513306Y-3650520D01*
X17077580Y-3420866D02*
X16487954Y-3193864D01*
X7462984Y-21648173D02*
X7999259Y-21965630D01*
X20909031Y-19439942D02*
X21282804Y-18946567D01*
X17652507Y-3683295D02*
X17077580Y-3420866D01*
X12762920Y-23240028D02*
X13384486Y-23232653D01*
X22539472Y-9532810D02*
X22308895Y-8961612D01*
X21282804Y-18946567D02*
X21625859Y-18431571D01*
X12766296Y-2612036D02*
X12136754Y-2648237D01*
X13397051Y-2614096D02*
X12766296Y-2612036D01*
X20678983Y-5940074D02*
X20234518Y-5489300D01*
X15830343Y-22828879D02*
X16420455Y-22636333D01*
X14004284Y-23187594D02*
X14620033Y-23105039D01*
X2689416Y-13309671D02*
X2730082Y-13934357D01*
X22840969Y-15601440D02*
X22977824Y-14999050D01*
X14652905Y-2732912D02*
X14026694Y-2654430D01*
X10304710Y-22893807D02*
X10910499Y-23036263D01*
X23166173Y-13158775D02*
X23154184Y-12541855D01*
X9708510Y-22714812D02*
X10304710Y-22893807D01*
X2906099Y-10819056D02*
X2795244Y-11435885D01*
X20505899Y-19909865D02*
X20909031Y-19439942D01*
X12141875Y-23209671D02*
X12762920Y-23240028D01*
X22667771Y-16194586D02*
X22840969Y-15601440D01*
X21416344Y-7347312D02*
X21055602Y-6848884D01*
X10278505Y-2984159D02*
X9676808Y-3170460D01*
X23018234Y-11316397D02*
X22894816Y-10712369D01*
X2722036Y-12058129D02*
X2686724Y-12683493D01*
X19135554Y-21161938D02*
X19617539Y-20772467D01*
X18840529Y-4734190D02*
X18326778Y-4397549D01*
X15229466Y-22985314D02*
X15830343Y-22828879D01*
X6452653Y-20918382D02*
X6946811Y-21298667D01*
X3459987Y-9023673D02*
X3239063Y-9610718D01*
X18104779Y-21849966D02*
X18630685Y-21521551D01*
X12136754Y-2648237D02*
X11510743Y-2722544D01*
X23077851Y-14389641D02*
X23140704Y-13775461D01*
X4330616Y-7356897D02*
X4006751Y-7894674D01*
X21625859Y-18431571D02*
X21936949Y-17896863D01*
X19802517Y-5498099D02*
X19333052Y-5101486D01*
X5489695Y-5874123D02*
X5073439Y-6344745D01*
X19763656Y-5066439D02*
X19268144Y-4673034D01*
X3752271Y-17523867D02*
X4046279Y-18075143D01*
X19333052Y-5101486D02*
X18840529Y-4734190D01*
X23104803Y-11926975D02*
X23018234Y-11316397D01*
X4006751Y-7894674D02*
X3716191Y-8450952D01*
X21746276Y-7866857D02*
X21416344Y-7347312D01*
X2924508Y-15170066D02*
X3077511Y-15776544D01*
X2730082Y-13934357D02*
X2808549Y-14555250D01*
X2808549Y-14555250D02*
X2924508Y-15170066D01*
X7955769Y-3942471D02*
X7417123Y-4267619D01*
X5073439Y-6344745D02*
X4686609Y-6839615D01*
X23140704Y-13775461D02*
X23166173Y-13158775D01*
X19617539Y-20772467D02*
X20074878Y-20354591D01*
X17559763Y-22145953D02*
X18104779Y-21849966D01*
X22214947Y-17344423D02*
X22458847Y-16776297D01*
X7999259Y-21965630D02*
X8553650Y-22249886D01*
X22044165Y-8405615D02*
X21746276Y-7866857D01*
X21055602Y-6848884D02*
X20665397Y-6373395D01*
X6946811Y-21298667D02*
X7462984Y-21648173D01*
X15885810Y-3003106D02*
X15273373Y-2849273D01*
X3077511Y-15776544D02*
X3266973Y-16372455D01*
X16997634Y-22408404D02*
X17559763Y-22145953D01*
X5933862Y-5429497D02*
X5489695Y-5874123D01*
X7417123Y-4267619D02*
X6899340Y-4624746D01*
X9124104Y-22499914D02*
X9708510Y-22714812D01*
X2686724Y-12683493D02*
X2689416Y-13309671D01*
X22894816Y-10712369D02*
X22735026Y-10117110D01*
X3716191Y-8450952D02*
X3459987Y-9023673D01*
X20234518Y-5489300D02*
X19763656Y-5066439D01*
X5982345Y-20508702D02*
X6452653Y-20918382D01*
X22735026Y-10117110D02*
X22539472Y-9532810D01*
X3266973Y-16372455D02*
X3492176Y-16955609D01*
X20247184Y-5922585D02*
X19802517Y-5498099D01*
X14620033Y-23105039D02*
X15229466Y-22985314D01*
X11523642Y-23141673D02*
X12141875Y-23209671D01*
X6899340Y-4624746D02*
X6404316Y-5012521D01*
X13384486Y-23232653D02*
X14004284Y-23187594D01*
X16420455Y-22636333D02*
X16997634Y-22408404D01*
X4373098Y-18607416D02*
X4731507Y-19118737D01*
X4686609Y-6839615D02*
X4330616Y-7356897D01*
X19268144Y-4673034D02*
X18749821Y-4310515D01*
X21936949Y-17896863D02*
X22214947Y-17344423D01*
X20665397Y-6373395D02*
X20247184Y-5922585D01*
X20074878Y-20354591D02*
X20505899Y-19909865D01*
X22308895Y-8961612D02*
X22044165Y-8405615D01*
X6404316Y-5012521D02*
X5933862Y-5429497D01*
X3492176Y-16955609D02*
X3752271Y-17523867D01*
X8553650Y-22249886D02*
X9124104Y-22499914D01*
X2795244Y-11435885D02*
X2722036Y-12058129D01*
X18630685Y-21521551D02*
X19135554Y-21161938D01*
X8513306Y-3650520D02*
X7955769Y-3942471D01*
X10890566Y-2834663D02*
X10278505Y-2984159D01*
X22458847Y-16776297D02*
X22667771Y-16194586D01*
X23154184Y-12541855D02*
X23104803Y-11926975D01*
X9676808Y-3170460D02*
X9087688Y-3392860D01*
X18210610Y-3980203D02*
X17652507Y-3683295D01*
X15273373Y-2849273D02*
X14652905Y-2732912D01*
X11510743Y-2722544D02*
X10890566Y-2834663D01*
X5537632Y-20071121D02*
X5982345Y-20508702D01*
X4731507Y-19118737D02*
X5120168Y-19607234D01*
X16487954Y-3193864D02*
X15885810Y-3003106D01*
X10910499Y-23036263D02*
X11523642Y-23141673D01*
X3239063Y-9610718D02*
X3054214Y-10209917D01*
%TO.N,VDD*%
D30*
X7731407Y-20238109D02*
X7606380Y-19529047D01*
X13000000Y-24600000D02*
X14700000Y-24600000D01*
X12827284Y-20898537D02*
X13407284Y-20898537D01*
X14881512Y-21038418D02*
X15006539Y-20329356D01*
X11387500Y-15925000D02*
X10520869Y-15772190D01*
X4515918Y-11341700D02*
X5235918Y-11341700D01*
X12827284Y-21398537D02*
X12827284Y-21978537D01*
%TD*%
%TA.AperFunction,Conductor*%
%TO.N,GND*%
G36*
X13110074Y-3100647D02*
G01*
X13444133Y-3110002D01*
X13448295Y-3110190D01*
X13781796Y-3130953D01*
X13786006Y-3131287D01*
X14104128Y-3162036D01*
X14118612Y-3163436D01*
X14122822Y-3163916D01*
X14454074Y-3207403D01*
X14458267Y-3208026D01*
X14478030Y-3211311D01*
X14787907Y-3262819D01*
X14792070Y-3263586D01*
X14878403Y-3280987D01*
X15119598Y-3329602D01*
X15123689Y-3330499D01*
X15448833Y-3407684D01*
X15452868Y-3408714D01*
X15774629Y-3496815D01*
X15775184Y-3496967D01*
X15779247Y-3498154D01*
X16098320Y-3597356D01*
X16102288Y-3598665D01*
X16417842Y-3708732D01*
X16421725Y-3710161D01*
X16733326Y-3830945D01*
X16737237Y-3832539D01*
X17044458Y-3963870D01*
X17048326Y-3965602D01*
X17350911Y-4107370D01*
X17354717Y-4109234D01*
X17440675Y-4153150D01*
X17652234Y-4261235D01*
X17655951Y-4263214D01*
X17846297Y-4368816D01*
X17948149Y-4425322D01*
X17951816Y-4427439D01*
X18032963Y-4476157D01*
X18033340Y-4476383D01*
X18071993Y-4512881D01*
X18129946Y-4597950D01*
X18530497Y-4860415D01*
X18679386Y-4957976D01*
X18685553Y-4962290D01*
X19158635Y-5315088D01*
X19164529Y-5319769D01*
X19615455Y-5700721D01*
X19621054Y-5705750D01*
X20048178Y-6113488D01*
X20053462Y-6118848D01*
X20174886Y-6249736D01*
X20455178Y-6551874D01*
X20460109Y-6557525D01*
X20593664Y-6720270D01*
X20834935Y-7014275D01*
X20839531Y-7020234D01*
X21186059Y-7499021D01*
X21190273Y-7505232D01*
X21507210Y-8004317D01*
X21511050Y-8010790D01*
X21797191Y-8528301D01*
X21800631Y-8534995D01*
X22054930Y-9069082D01*
X22057958Y-9075973D01*
X22279460Y-9624689D01*
X22282064Y-9631750D01*
X22469921Y-10193051D01*
X22472092Y-10200258D01*
X22583129Y-10613898D01*
X22621666Y-10757461D01*
X22625593Y-10772088D01*
X22627323Y-10779413D01*
X22745881Y-11359665D01*
X22747163Y-11367081D01*
X22830326Y-11953628D01*
X22831156Y-11961108D01*
X22878596Y-12551809D01*
X22878971Y-12559327D01*
X22890489Y-13152009D01*
X22890406Y-13159535D01*
X22865938Y-13751961D01*
X22865400Y-13759468D01*
X22805015Y-14349535D01*
X22804022Y-14356995D01*
X22707927Y-14942447D01*
X22706483Y-14949834D01*
X22574997Y-15528595D01*
X22573107Y-15535880D01*
X22406715Y-16105717D01*
X22404387Y-16112875D01*
X22203662Y-16671757D01*
X22200905Y-16678760D01*
X21966571Y-17224600D01*
X21963393Y-17231422D01*
X21696309Y-17762177D01*
X21692723Y-17768795D01*
X21393833Y-18282533D01*
X21389853Y-18288921D01*
X21060235Y-18783745D01*
X21055874Y-18789879D01*
X20696751Y-19263916D01*
X20692026Y-19269774D01*
X20304702Y-19721270D01*
X20299630Y-19726832D01*
X19885489Y-20154141D01*
X19880090Y-20159384D01*
X19440653Y-20560903D01*
X19434945Y-20565808D01*
X18971840Y-20940024D01*
X18965845Y-20944575D01*
X18480738Y-21290112D01*
X18474478Y-21294291D01*
X17969139Y-21609863D01*
X17962637Y-21613654D01*
X17438934Y-21898066D01*
X17432214Y-21901455D01*
X16892075Y-22153639D01*
X16885162Y-22156615D01*
X16330550Y-22375632D01*
X16323469Y-22378183D01*
X15756403Y-22563209D01*
X15749180Y-22565325D01*
X15171795Y-22715643D01*
X15164458Y-22717317D01*
X14578830Y-22832367D01*
X14571404Y-22833593D01*
X13979701Y-22912924D01*
X13972214Y-22913698D01*
X13376605Y-22956998D01*
X13369085Y-22957315D01*
X12771787Y-22964403D01*
X12764262Y-22964264D01*
X12167439Y-22935091D01*
X12159936Y-22934496D01*
X11565809Y-22869148D01*
X11558356Y-22868098D01*
X10969116Y-22766797D01*
X10961741Y-22765297D01*
X10379589Y-22628400D01*
X10372318Y-22626456D01*
X9799345Y-22454434D01*
X9792205Y-22452052D01*
X9461657Y-22330503D01*
X9230560Y-22245524D01*
X9223600Y-22242722D01*
X8675353Y-22002427D01*
X8668555Y-21999198D01*
X8135742Y-21726006D01*
X8129152Y-21722370D01*
X7613771Y-21417281D01*
X7607414Y-21413253D01*
X7111324Y-21077346D01*
X7105223Y-21072939D01*
X6630270Y-20707434D01*
X6624447Y-20702664D01*
X6623433Y-20701781D01*
X6172464Y-20308946D01*
X6166942Y-20303834D01*
X6119033Y-20256693D01*
X6040229Y-20179153D01*
X7173465Y-20179153D01*
X7173465Y-20179155D01*
X7194315Y-20297408D01*
X7194315Y-20297409D01*
X7217407Y-20341767D01*
X7217410Y-20341772D01*
X7458199Y-20685652D01*
X7458202Y-20685655D01*
X7458203Y-20685657D01*
X7487093Y-20717186D01*
X7491987Y-20722527D01*
X7595980Y-20782567D01*
X7696506Y-20800292D01*
X7714232Y-20803418D01*
X7714233Y-20803418D01*
X7714235Y-20803418D01*
X7761535Y-20795077D01*
X7832489Y-20782567D01*
X7876851Y-20759473D01*
X8171583Y-20553099D01*
X8200451Y-20526647D01*
X8208454Y-20519314D01*
X8208454Y-20519313D01*
X8208458Y-20519310D01*
X8268498Y-20415318D01*
X8289349Y-20297064D01*
X8286797Y-20282592D01*
X8268498Y-20178809D01*
X8268498Y-20178808D01*
X8245406Y-20134450D01*
X8245404Y-20134446D01*
X8017226Y-19808576D01*
X8016602Y-19806728D01*
X8015117Y-19805465D01*
X8005486Y-19773765D01*
X7994900Y-19742373D01*
X7995195Y-19739889D01*
X7994807Y-19738612D01*
X7996198Y-19731446D01*
X7999486Y-19703784D01*
X10914284Y-19703784D01*
X10914284Y-20093286D01*
X10920462Y-20124349D01*
X10920462Y-20172725D01*
X10914284Y-20203787D01*
X10914284Y-20593286D01*
X10920462Y-20624349D01*
X10920462Y-20672725D01*
X10914284Y-20703787D01*
X10914284Y-21093286D01*
X10920462Y-21124349D01*
X10920462Y-21172725D01*
X10914284Y-21203787D01*
X10914284Y-21593289D01*
X10925915Y-21651766D01*
X10925916Y-21651767D01*
X10970231Y-21718089D01*
X11036553Y-21762404D01*
X11036554Y-21762405D01*
X11095031Y-21774036D01*
X11095034Y-21774037D01*
X11504617Y-21774037D01*
X11552072Y-21783477D01*
X11561554Y-21787405D01*
X11620031Y-21799036D01*
X11620034Y-21799037D01*
X11620036Y-21799037D01*
X12009535Y-21799037D01*
X12033163Y-21794336D01*
X12040589Y-21792859D01*
X12088979Y-21792859D01*
X12096404Y-21794336D01*
X12120033Y-21799037D01*
X12120036Y-21799037D01*
X12277784Y-21799037D01*
X12344823Y-21818722D01*
X12390578Y-21871526D01*
X12401784Y-21923037D01*
X12401784Y-22034555D01*
X12430447Y-22141525D01*
X12430781Y-22142773D01*
X12430782Y-22142776D01*
X12437054Y-22153639D01*
X12486799Y-22239800D01*
X12566021Y-22319022D01*
X12663047Y-22375040D01*
X12771266Y-22404037D01*
X12771268Y-22404037D01*
X12883300Y-22404037D01*
X12883302Y-22404037D01*
X12991521Y-22375040D01*
X13088547Y-22319022D01*
X13167769Y-22239800D01*
X13223787Y-22142774D01*
X13252784Y-22034555D01*
X13252784Y-21922519D01*
X13223787Y-21814300D01*
X13202666Y-21777717D01*
X13186193Y-21709821D01*
X13201293Y-21664008D01*
X13198978Y-21663050D01*
X13203652Y-21651766D01*
X13212809Y-21605727D01*
X13215284Y-21593285D01*
X13215284Y-21447529D01*
X13234969Y-21380490D01*
X13287773Y-21334735D01*
X13343139Y-21326441D01*
X13343139Y-21324037D01*
X13463300Y-21324037D01*
X13463302Y-21324037D01*
X13571521Y-21295040D01*
X13668547Y-21239022D01*
X13747769Y-21159800D01*
X13749267Y-21157206D01*
X14354377Y-21157206D01*
X14354377Y-21157212D01*
X14373160Y-21275807D01*
X14373160Y-21275808D01*
X14373161Y-21275810D01*
X14431313Y-21380718D01*
X14431377Y-21380833D01*
X14521998Y-21459610D01*
X14522001Y-21459612D01*
X14567867Y-21479555D01*
X14913730Y-21578728D01*
X14963196Y-21586122D01*
X14963196Y-21586121D01*
X14963198Y-21586122D01*
X14963199Y-21586122D01*
X15022496Y-21576729D01*
X15081797Y-21567337D01*
X15186819Y-21509122D01*
X15265599Y-21418497D01*
X15285542Y-21372632D01*
X15401254Y-20969093D01*
X15408647Y-20919627D01*
X15389863Y-20801026D01*
X15343388Y-20717184D01*
X15328103Y-20649009D01*
X15344454Y-20595068D01*
X15347020Y-20590622D01*
X15347024Y-20590619D01*
X15403042Y-20493593D01*
X15432039Y-20385374D01*
X15432039Y-20273338D01*
X15403042Y-20165119D01*
X15395710Y-20152420D01*
X16817258Y-20152420D01*
X16834121Y-20225458D01*
X16842531Y-20261887D01*
X16850308Y-20273340D01*
X16904338Y-20352914D01*
X16905641Y-20354832D01*
X16925404Y-20370619D01*
X17221992Y-20555946D01*
X17244845Y-20566790D01*
X17244849Y-20566790D01*
X17244851Y-20566791D01*
X17356047Y-20582769D01*
X17356048Y-20582768D01*
X17356050Y-20582769D01*
X17465517Y-20557496D01*
X17558462Y-20494386D01*
X17574249Y-20474623D01*
X17727781Y-20228918D01*
X17736901Y-20209699D01*
X17738624Y-20206068D01*
X17738624Y-20206066D01*
X17738625Y-20206065D01*
X17754603Y-20094860D01*
X17754239Y-20093285D01*
X17744703Y-20051979D01*
X17729331Y-19985393D01*
X17666221Y-19892448D01*
X17646458Y-19876661D01*
X17349870Y-19691334D01*
X17346603Y-19689784D01*
X17343802Y-19688454D01*
X17327017Y-19680490D01*
X17327015Y-19680489D01*
X17327014Y-19680489D01*
X17327010Y-19680488D01*
X17215814Y-19664510D01*
X17106344Y-19689784D01*
X17106342Y-19689785D01*
X17013401Y-19752893D01*
X17013400Y-19752894D01*
X16998358Y-19771725D01*
X16997610Y-19772661D01*
X16844084Y-20018357D01*
X16844073Y-20018376D01*
X16833237Y-20041211D01*
X16817258Y-20152420D01*
X15395710Y-20152420D01*
X15347024Y-20068093D01*
X15267802Y-19988871D01*
X15170776Y-19932853D01*
X15062557Y-19903856D01*
X14950521Y-19903856D01*
X14842302Y-19932853D01*
X14842299Y-19932854D01*
X14745279Y-19988869D01*
X14745273Y-19988873D01*
X14666056Y-20068090D01*
X14666052Y-20068096D01*
X14610037Y-20165116D01*
X14610036Y-20165119D01*
X14581039Y-20273338D01*
X14581039Y-20385374D01*
X14600181Y-20456816D01*
X14598519Y-20526664D01*
X14573991Y-20570259D01*
X14497426Y-20658336D01*
X14497425Y-20658337D01*
X14477483Y-20704200D01*
X14477482Y-20704203D01*
X14361768Y-21107750D01*
X14354377Y-21157206D01*
X13749267Y-21157206D01*
X13786171Y-21093286D01*
X13790226Y-21086263D01*
X13797918Y-21072939D01*
X13803787Y-21062774D01*
X13832784Y-20954555D01*
X13832784Y-20842519D01*
X13803787Y-20734300D01*
X13747769Y-20637274D01*
X13668547Y-20558052D01*
X13601442Y-20519309D01*
X13571523Y-20502035D01*
X13571522Y-20502034D01*
X13571521Y-20502034D01*
X13463302Y-20473037D01*
X13351266Y-20473037D01*
X13243047Y-20502034D01*
X13243042Y-20502036D01*
X13200414Y-20526647D01*
X13132514Y-20543118D01*
X13105011Y-20536962D01*
X13104994Y-20537052D01*
X13034536Y-20523037D01*
X13034532Y-20523037D01*
X12620036Y-20523037D01*
X12620031Y-20523037D01*
X12561554Y-20534668D01*
X12561553Y-20534669D01*
X12495231Y-20578984D01*
X12450916Y-20645306D01*
X12450915Y-20645307D01*
X12439284Y-20703784D01*
X12439284Y-20899037D01*
X12419599Y-20966076D01*
X12366795Y-21011831D01*
X12315284Y-21023037D01*
X12120035Y-21023037D01*
X12088972Y-21029215D01*
X12040596Y-21029215D01*
X12009533Y-21023037D01*
X12009532Y-21023037D01*
X11814284Y-21023037D01*
X11747245Y-21003352D01*
X11701490Y-20950548D01*
X11690284Y-20899037D01*
X11690284Y-20703785D01*
X11684106Y-20672733D01*
X11684106Y-20624341D01*
X11690284Y-20593288D01*
X11690284Y-20203785D01*
X11684106Y-20172733D01*
X11684106Y-20124341D01*
X11690284Y-20093288D01*
X11690284Y-19703786D01*
X11690283Y-19703784D01*
X11678652Y-19645307D01*
X11678651Y-19645306D01*
X11634336Y-19578984D01*
X11568014Y-19534669D01*
X11568013Y-19534668D01*
X11509536Y-19523037D01*
X11509532Y-19523037D01*
X11095036Y-19523037D01*
X11095031Y-19523037D01*
X11036554Y-19534668D01*
X11036553Y-19534669D01*
X10970231Y-19578984D01*
X10925916Y-19645306D01*
X10925915Y-19645307D01*
X10914284Y-19703784D01*
X7999486Y-19703784D01*
X7999504Y-19703632D01*
X8002008Y-19694799D01*
X8002883Y-19693284D01*
X8031880Y-19585065D01*
X8031880Y-19473029D01*
X8002883Y-19364810D01*
X7946865Y-19267784D01*
X7914752Y-19235671D01*
X17933197Y-19235671D01*
X17941032Y-19347741D01*
X17941032Y-19347744D01*
X17988827Y-19449418D01*
X17988830Y-19449421D01*
X18005872Y-19468098D01*
X18133433Y-19578984D01*
X18269822Y-19697545D01*
X18269830Y-19697550D01*
X18269832Y-19697552D01*
X18290694Y-19711828D01*
X18290697Y-19711830D01*
X18290699Y-19711830D01*
X18290700Y-19711831D01*
X18398026Y-19745006D01*
X18398033Y-19745008D01*
X18510106Y-19737171D01*
X18611779Y-19689378D01*
X18630463Y-19672327D01*
X18820542Y-19453666D01*
X18834828Y-19432790D01*
X18868005Y-19325454D01*
X18860169Y-19213381D01*
X18812375Y-19111708D01*
X18804928Y-19103547D01*
X18795329Y-19093027D01*
X18531389Y-18863589D01*
X18531380Y-18863581D01*
X18531373Y-18863576D01*
X18531369Y-18863573D01*
X18510507Y-18849297D01*
X18510501Y-18849294D01*
X18403175Y-18816119D01*
X18403169Y-18816118D01*
X18403168Y-18816118D01*
X18347132Y-18820036D01*
X18291096Y-18823955D01*
X18291094Y-18823955D01*
X18291093Y-18823956D01*
X18189422Y-18871748D01*
X18170737Y-18888800D01*
X18170733Y-18888804D01*
X17980668Y-19107449D01*
X17980655Y-19107467D01*
X17966374Y-19128334D01*
X17966374Y-19128336D01*
X17933197Y-19235671D01*
X7914752Y-19235671D01*
X7867643Y-19188562D01*
X7798849Y-19148844D01*
X7770619Y-19132545D01*
X7770618Y-19132544D01*
X7770617Y-19132544D01*
X7662398Y-19103547D01*
X7550362Y-19103547D01*
X7442143Y-19132544D01*
X7442140Y-19132545D01*
X7345120Y-19188560D01*
X7345114Y-19188564D01*
X7265897Y-19267781D01*
X7265893Y-19267787D01*
X7209878Y-19364807D01*
X7209877Y-19364810D01*
X7180880Y-19473029D01*
X7180880Y-19585065D01*
X7209356Y-19691337D01*
X7209877Y-19693283D01*
X7209878Y-19693286D01*
X7220585Y-19711831D01*
X7265895Y-19790310D01*
X7265899Y-19790314D01*
X7267019Y-19791774D01*
X7267583Y-19793235D01*
X7269959Y-19797349D01*
X7269317Y-19797719D01*
X7292214Y-19856943D01*
X7278176Y-19925388D01*
X7259816Y-19949120D01*
X7260297Y-19949506D01*
X7254356Y-19956908D01*
X7194317Y-20060897D01*
X7194315Y-20060902D01*
X7173465Y-20179153D01*
X6040229Y-20179153D01*
X5739515Y-19883262D01*
X5734313Y-19877823D01*
X5715522Y-19856943D01*
X5549379Y-19672325D01*
X5333071Y-19431964D01*
X5328208Y-19426219D01*
X4954642Y-18956693D01*
X4950137Y-18950664D01*
X4605656Y-18459213D01*
X4601525Y-18452921D01*
X4320213Y-17994764D01*
X4287396Y-17941316D01*
X4283656Y-17934788D01*
X4262852Y-17895780D01*
X4010348Y-17422326D01*
X18580797Y-17422326D01*
X18587438Y-17549018D01*
X18621464Y-17637660D01*
X18621468Y-17637669D01*
X18871235Y-18070275D01*
X18902986Y-18125269D01*
X18962742Y-18199064D01*
X19069140Y-18268160D01*
X19158848Y-18292196D01*
X19191683Y-18300995D01*
X19191683Y-18300994D01*
X19191684Y-18300995D01*
X19318375Y-18294356D01*
X19407023Y-18260327D01*
X19808024Y-18028808D01*
X19881819Y-17969052D01*
X19950914Y-17862653D01*
X19983750Y-17740110D01*
X19977110Y-17613418D01*
X19943082Y-17524771D01*
X19661562Y-17037167D01*
X19601806Y-16963372D01*
X19601805Y-16963371D01*
X19495408Y-16894276D01*
X19372864Y-16861440D01*
X19246173Y-16868080D01*
X19157525Y-16902108D01*
X19157520Y-16902111D01*
X18756528Y-17133625D01*
X18756516Y-17133633D01*
X18682730Y-17193382D01*
X18613634Y-17299783D01*
X18580797Y-17422326D01*
X4010348Y-17422326D01*
X4001071Y-17404931D01*
X3997738Y-17398198D01*
X3978706Y-17356617D01*
X3747726Y-16851970D01*
X3744803Y-16845034D01*
X3702485Y-16735454D01*
X3623885Y-16531920D01*
X3528345Y-16284522D01*
X3525848Y-16277422D01*
X3473468Y-16112672D01*
X3343729Y-15704607D01*
X3341673Y-15697389D01*
X3334444Y-15668736D01*
X3194603Y-15114429D01*
X3192985Y-15107082D01*
X3192041Y-15102078D01*
X3081520Y-14516096D01*
X3080352Y-14508662D01*
X3068037Y-14411217D01*
X3004925Y-13911830D01*
X3004213Y-13904390D01*
X2965120Y-13303858D01*
X2964860Y-13296389D01*
X2962273Y-12694424D01*
X2962469Y-12686908D01*
X2964425Y-12652267D01*
X2964686Y-12647652D01*
X8467438Y-12647652D01*
X8467438Y-12759688D01*
X8496435Y-12867907D01*
X8552453Y-12964933D01*
X8631675Y-13044155D01*
X8728701Y-13100173D01*
X8836920Y-13129170D01*
X8836922Y-13129170D01*
X8948954Y-13129170D01*
X8948956Y-13129170D01*
X9057175Y-13100173D01*
X9154201Y-13044155D01*
X9233423Y-12964933D01*
X9289441Y-12867907D01*
X9318438Y-12759688D01*
X9318438Y-12647652D01*
X9289441Y-12539433D01*
X9233423Y-12442407D01*
X9154201Y-12363185D01*
X9057175Y-12307167D01*
X8948956Y-12278170D01*
X8836920Y-12278170D01*
X8728701Y-12307167D01*
X8728698Y-12307168D01*
X8631678Y-12363183D01*
X8631672Y-12363187D01*
X8552455Y-12442404D01*
X8552451Y-12442410D01*
X8496436Y-12539430D01*
X8496435Y-12539433D01*
X8467438Y-12647652D01*
X2964686Y-12647652D01*
X2996413Y-12085761D01*
X2997062Y-12078305D01*
X3067439Y-11480113D01*
X3068544Y-11472680D01*
X3069920Y-11465028D01*
X3120320Y-11184586D01*
X3984911Y-11184586D01*
X3985348Y-11234585D01*
X3985349Y-11234603D01*
X4035422Y-11590887D01*
X4035426Y-11590905D01*
X4048787Y-11639088D01*
X4048788Y-11639089D01*
X4048789Y-11639093D01*
X4114189Y-11739800D01*
X4164872Y-11777992D01*
X4210086Y-11812064D01*
X4210087Y-11812064D01*
X4210088Y-11812065D01*
X4324920Y-11847173D01*
X4324922Y-11847172D01*
X4324923Y-11847173D01*
X4334297Y-11847091D01*
X4374932Y-11846736D01*
X4790648Y-11788310D01*
X4838844Y-11774946D01*
X4838846Y-11774944D01*
X4838848Y-11774944D01*
X4914648Y-11725719D01*
X4981593Y-11705715D01*
X5044182Y-11722326D01*
X5071681Y-11738203D01*
X5179900Y-11767200D01*
X5179902Y-11767200D01*
X5291934Y-11767200D01*
X5291936Y-11767200D01*
X5400155Y-11738203D01*
X5497181Y-11682185D01*
X5576403Y-11602963D01*
X5632421Y-11505937D01*
X5661418Y-11397718D01*
X5661418Y-11285682D01*
X5632421Y-11177463D01*
X5576403Y-11080437D01*
X5497181Y-11001215D01*
X5404040Y-10947440D01*
X5400157Y-10945198D01*
X5400156Y-10945197D01*
X5400155Y-10945197D01*
X5291936Y-10916200D01*
X5179900Y-10916200D01*
X5071681Y-10945197D01*
X5071680Y-10945197D01*
X5056744Y-10953821D01*
X4988844Y-10970292D01*
X4922817Y-10947440D01*
X4920120Y-10945464D01*
X4917647Y-10943600D01*
X4871005Y-10908453D01*
X4821749Y-10871335D01*
X4706918Y-10836227D01*
X4706912Y-10836226D01*
X4656916Y-10836663D01*
X4656898Y-10836664D01*
X4300576Y-10886743D01*
X4241188Y-10895090D01*
X4241185Y-10895090D01*
X4241174Y-10895093D01*
X4192993Y-10908453D01*
X4192987Y-10908456D01*
X4092286Y-10973851D01*
X4020020Y-11069752D01*
X3984911Y-11184586D01*
X3120320Y-11184586D01*
X3123259Y-11168232D01*
X3125772Y-11154249D01*
X3125772Y-11154248D01*
X3144101Y-11052259D01*
X3175111Y-10879708D01*
X3176666Y-10872351D01*
X3183520Y-10844167D01*
X3319050Y-10286786D01*
X3321047Y-10279540D01*
X3326412Y-10262149D01*
X3354317Y-10171693D01*
X6669326Y-10171693D01*
X6669673Y-10251457D01*
X6681450Y-10279540D01*
X6692733Y-10306448D01*
X7274012Y-11168229D01*
X7316359Y-11210209D01*
X7390184Y-11240411D01*
X7469947Y-11240063D01*
X7524937Y-11217004D01*
X8032459Y-10874676D01*
X9636999Y-10874676D01*
X9651533Y-10947740D01*
X9653525Y-10952548D01*
X9660994Y-11022017D01*
X9653525Y-11047452D01*
X9651533Y-11052259D01*
X9637000Y-11125323D01*
X9637000Y-11125326D01*
X9637000Y-11274674D01*
X9637000Y-11274676D01*
X9636999Y-11274676D01*
X9651533Y-11347740D01*
X9653525Y-11352548D01*
X9660994Y-11422017D01*
X9653525Y-11447452D01*
X9651533Y-11452259D01*
X9637000Y-11525323D01*
X9637000Y-11525326D01*
X9637000Y-11674674D01*
X9637000Y-11674676D01*
X9636999Y-11674676D01*
X9651533Y-11747740D01*
X9653525Y-11752548D01*
X9660994Y-11822017D01*
X9653525Y-11847452D01*
X9651533Y-11852259D01*
X9637000Y-11925323D01*
X9637000Y-11925326D01*
X9637000Y-12074674D01*
X9637000Y-12074676D01*
X9636999Y-12074676D01*
X9651533Y-12147740D01*
X9653525Y-12152548D01*
X9660994Y-12222017D01*
X9653525Y-12247452D01*
X9651533Y-12252259D01*
X9637000Y-12325323D01*
X9637000Y-12325326D01*
X9637000Y-12474674D01*
X9637000Y-12474676D01*
X9636999Y-12474676D01*
X9651533Y-12547740D01*
X9653525Y-12552548D01*
X9660994Y-12622017D01*
X9653525Y-12647452D01*
X9651533Y-12652259D01*
X9637000Y-12725323D01*
X9637000Y-12725326D01*
X9637000Y-12874674D01*
X9637000Y-12874676D01*
X9636999Y-12874676D01*
X9651533Y-12947740D01*
X9653525Y-12952548D01*
X9660994Y-13022017D01*
X9653525Y-13047452D01*
X9651533Y-13052259D01*
X9637000Y-13125323D01*
X9637000Y-13125326D01*
X9637000Y-13274674D01*
X9637000Y-13274676D01*
X9636999Y-13274676D01*
X9651533Y-13347740D01*
X9653525Y-13352548D01*
X9660994Y-13422017D01*
X9653525Y-13447452D01*
X9651533Y-13452259D01*
X9637000Y-13525323D01*
X9637000Y-13525326D01*
X9637000Y-13674674D01*
X9637000Y-13674676D01*
X9636999Y-13674676D01*
X9651533Y-13747740D01*
X9653525Y-13752548D01*
X9660994Y-13822017D01*
X9653525Y-13847452D01*
X9651533Y-13852259D01*
X9637000Y-13925323D01*
X9637000Y-13925326D01*
X9637000Y-14074674D01*
X9637000Y-14074676D01*
X9636999Y-14074676D01*
X9651533Y-14147740D01*
X9653525Y-14152548D01*
X9660994Y-14222017D01*
X9653525Y-14247452D01*
X9651533Y-14252259D01*
X9637000Y-14325323D01*
X9637000Y-14325326D01*
X9637000Y-14474674D01*
X9637000Y-14474676D01*
X9636999Y-14474676D01*
X9651533Y-14547740D01*
X9653525Y-14552548D01*
X9660994Y-14622017D01*
X9653525Y-14647452D01*
X9651533Y-14652259D01*
X9637000Y-14725323D01*
X9637000Y-14725326D01*
X9637000Y-14874674D01*
X9637000Y-14874676D01*
X9636999Y-14874676D01*
X9651533Y-14947740D01*
X9653525Y-14952548D01*
X9660994Y-15022017D01*
X9653525Y-15047452D01*
X9651533Y-15052259D01*
X9637000Y-15125323D01*
X9637000Y-15274678D01*
X9651532Y-15347735D01*
X9651533Y-15347739D01*
X9666006Y-15369399D01*
X9706899Y-15430601D01*
X9781723Y-15480596D01*
X9789760Y-15485966D01*
X9789764Y-15485967D01*
X9862821Y-15500499D01*
X9862824Y-15500500D01*
X9862826Y-15500500D01*
X9991558Y-15500500D01*
X10058597Y-15520185D01*
X10104352Y-15572989D01*
X10114296Y-15642147D01*
X10111333Y-15656593D01*
X10106808Y-15673479D01*
X10095369Y-15716172D01*
X10095369Y-15828208D01*
X10124366Y-15936427D01*
X10180384Y-16033453D01*
X10259606Y-16112675D01*
X10356632Y-16168693D01*
X10464851Y-16197690D01*
X10464853Y-16197690D01*
X10563000Y-16197690D01*
X10630039Y-16217375D01*
X10675794Y-16270179D01*
X10686332Y-16318620D01*
X10686403Y-16318614D01*
X10686462Y-16319220D01*
X10687000Y-16321690D01*
X10687000Y-16324678D01*
X10701532Y-16397735D01*
X10701533Y-16397739D01*
X10701534Y-16397740D01*
X10756899Y-16480601D01*
X10825599Y-16526504D01*
X10839760Y-16535966D01*
X10839764Y-16535967D01*
X10912821Y-16550499D01*
X10912824Y-16550500D01*
X10912826Y-16550500D01*
X11062176Y-16550500D01*
X11062177Y-16550499D01*
X11086529Y-16545655D01*
X11135232Y-16535968D01*
X11135233Y-16535967D01*
X11135240Y-16535966D01*
X11135245Y-16535962D01*
X11140039Y-16533977D01*
X11209508Y-16526504D01*
X11234961Y-16533977D01*
X11239756Y-16535963D01*
X11239760Y-16535966D01*
X11239764Y-16535966D01*
X11239767Y-16535968D01*
X11312821Y-16550499D01*
X11312824Y-16550500D01*
X11312826Y-16550500D01*
X11462176Y-16550500D01*
X11462177Y-16550499D01*
X11486529Y-16545655D01*
X11535232Y-16535968D01*
X11535233Y-16535967D01*
X11535240Y-16535966D01*
X11535245Y-16535962D01*
X11540039Y-16533977D01*
X11609508Y-16526504D01*
X11634961Y-16533977D01*
X11639756Y-16535963D01*
X11639760Y-16535966D01*
X11639764Y-16535966D01*
X11639767Y-16535968D01*
X11712821Y-16550499D01*
X11712824Y-16550500D01*
X11712826Y-16550500D01*
X11862176Y-16550500D01*
X11862177Y-16550499D01*
X11886529Y-16545655D01*
X11935232Y-16535968D01*
X11935233Y-16535967D01*
X11935240Y-16535966D01*
X11935245Y-16535962D01*
X11940039Y-16533977D01*
X12009508Y-16526504D01*
X12034961Y-16533977D01*
X12039756Y-16535963D01*
X12039760Y-16535966D01*
X12039764Y-16535966D01*
X12039767Y-16535968D01*
X12112821Y-16550499D01*
X12112824Y-16550500D01*
X12112826Y-16550500D01*
X12262176Y-16550500D01*
X12262177Y-16550499D01*
X12335240Y-16535966D01*
X12418101Y-16480601D01*
X12473466Y-16397740D01*
X12473466Y-16397739D01*
X12480251Y-16387585D01*
X12481484Y-16388409D01*
X12516778Y-16344610D01*
X12583071Y-16322544D01*
X12650771Y-16339822D01*
X12698383Y-16390958D01*
X12701362Y-16397482D01*
X12701533Y-16397739D01*
X12701534Y-16397740D01*
X12756899Y-16480601D01*
X12825599Y-16526504D01*
X12839760Y-16535966D01*
X12839764Y-16535967D01*
X12912821Y-16550499D01*
X12912824Y-16550500D01*
X12912826Y-16550500D01*
X13062176Y-16550500D01*
X13062177Y-16550499D01*
X13086529Y-16545655D01*
X13135232Y-16535968D01*
X13135233Y-16535967D01*
X13135240Y-16535966D01*
X13135245Y-16535962D01*
X13140039Y-16533977D01*
X13209508Y-16526504D01*
X13234961Y-16533977D01*
X13239756Y-16535963D01*
X13239760Y-16535966D01*
X13239764Y-16535966D01*
X13239767Y-16535968D01*
X13312821Y-16550499D01*
X13312824Y-16550500D01*
X13312826Y-16550500D01*
X13462176Y-16550500D01*
X13462177Y-16550499D01*
X13486529Y-16545655D01*
X13535232Y-16535968D01*
X13535233Y-16535967D01*
X13535240Y-16535966D01*
X13535245Y-16535962D01*
X13540039Y-16533977D01*
X13609508Y-16526504D01*
X13634961Y-16533977D01*
X13639756Y-16535963D01*
X13639760Y-16535966D01*
X13639764Y-16535966D01*
X13639767Y-16535968D01*
X13712821Y-16550499D01*
X13712824Y-16550500D01*
X13712826Y-16550500D01*
X13862176Y-16550500D01*
X13862177Y-16550499D01*
X13886529Y-16545655D01*
X13935232Y-16535968D01*
X13935233Y-16535967D01*
X13935240Y-16535966D01*
X13935245Y-16535962D01*
X13940039Y-16533977D01*
X14009508Y-16526504D01*
X14034961Y-16533977D01*
X14039756Y-16535963D01*
X14039760Y-16535966D01*
X14039764Y-16535966D01*
X14039767Y-16535968D01*
X14112821Y-16550499D01*
X14112824Y-16550500D01*
X14112826Y-16550500D01*
X14262176Y-16550500D01*
X14262177Y-16550499D01*
X14286529Y-16545655D01*
X14335232Y-16535968D01*
X14335233Y-16535967D01*
X14335240Y-16535966D01*
X14335245Y-16535962D01*
X14340039Y-16533977D01*
X14409508Y-16526504D01*
X14434961Y-16533977D01*
X14439756Y-16535963D01*
X14439760Y-16535966D01*
X14439764Y-16535966D01*
X14439767Y-16535968D01*
X14512821Y-16550499D01*
X14512824Y-16550500D01*
X14512826Y-16550500D01*
X14662176Y-16550500D01*
X14662177Y-16550499D01*
X14686529Y-16545655D01*
X14735232Y-16535968D01*
X14735233Y-16535967D01*
X14735240Y-16535966D01*
X14735245Y-16535962D01*
X14740039Y-16533977D01*
X14809508Y-16526504D01*
X14834961Y-16533977D01*
X14839756Y-16535963D01*
X14839760Y-16535966D01*
X14839764Y-16535966D01*
X14839767Y-16535968D01*
X14912821Y-16550499D01*
X14912824Y-16550500D01*
X14912826Y-16550500D01*
X15062176Y-16550500D01*
X15062177Y-16550499D01*
X15086529Y-16545655D01*
X15135232Y-16535968D01*
X15135233Y-16535967D01*
X15135240Y-16535966D01*
X15135245Y-16535962D01*
X15140039Y-16533977D01*
X15209508Y-16526504D01*
X15234961Y-16533977D01*
X15239756Y-16535963D01*
X15239760Y-16535966D01*
X15239764Y-16535966D01*
X15239767Y-16535968D01*
X15312821Y-16550499D01*
X15312824Y-16550500D01*
X15312826Y-16550500D01*
X15462176Y-16550500D01*
X15462177Y-16550499D01*
X15535240Y-16535966D01*
X15618101Y-16480601D01*
X15673466Y-16397740D01*
X15688000Y-16324674D01*
X15688000Y-15659890D01*
X18833425Y-15659890D01*
X18840066Y-15786582D01*
X18874092Y-15875224D01*
X18874096Y-15875233D01*
X19145093Y-16344610D01*
X19155614Y-16362833D01*
X19215370Y-16436628D01*
X19321768Y-16505724D01*
X19411476Y-16529760D01*
X19444311Y-16538559D01*
X19444311Y-16538558D01*
X19444312Y-16538559D01*
X19571003Y-16531920D01*
X19659651Y-16497891D01*
X20060652Y-16266372D01*
X20134447Y-16206616D01*
X20203542Y-16100217D01*
X20236378Y-15977674D01*
X20229738Y-15850982D01*
X20195710Y-15762335D01*
X19914190Y-15274731D01*
X19854434Y-15200936D01*
X19854433Y-15200935D01*
X19748036Y-15131840D01*
X19625492Y-15099004D01*
X19498801Y-15105644D01*
X19410153Y-15139672D01*
X19410148Y-15139675D01*
X19009156Y-15371189D01*
X19009144Y-15371197D01*
X18935358Y-15430946D01*
X18866262Y-15537347D01*
X18833425Y-15659890D01*
X15688000Y-15659890D01*
X15688000Y-15624500D01*
X15707685Y-15557461D01*
X15760489Y-15511706D01*
X15812000Y-15500500D01*
X16512176Y-15500500D01*
X16512177Y-15500499D01*
X16585240Y-15485966D01*
X16668101Y-15430601D01*
X16723466Y-15347740D01*
X16738000Y-15274674D01*
X16738000Y-15125326D01*
X16738000Y-15125323D01*
X16737999Y-15125321D01*
X16723468Y-15052267D01*
X16723466Y-15052264D01*
X16723466Y-15052260D01*
X16723463Y-15052256D01*
X16721477Y-15047461D01*
X16714004Y-14977992D01*
X16721477Y-14952539D01*
X16723462Y-14947745D01*
X16723466Y-14947740D01*
X16725025Y-14939906D01*
X16735282Y-14888336D01*
X16738000Y-14874674D01*
X16738000Y-14725326D01*
X16738000Y-14725323D01*
X16737999Y-14725321D01*
X16723468Y-14652267D01*
X16723466Y-14652264D01*
X16723466Y-14652260D01*
X16723463Y-14652256D01*
X16721477Y-14647461D01*
X16714004Y-14577992D01*
X16721477Y-14552539D01*
X16723462Y-14547745D01*
X16723466Y-14547740D01*
X16726766Y-14531153D01*
X16737999Y-14474678D01*
X16738000Y-14474676D01*
X16738000Y-14325323D01*
X16737999Y-14325321D01*
X16723468Y-14252267D01*
X16723466Y-14252264D01*
X16723466Y-14252260D01*
X16723463Y-14252256D01*
X16721477Y-14247461D01*
X16714004Y-14177992D01*
X16721477Y-14152539D01*
X16723462Y-14147745D01*
X16723466Y-14147740D01*
X16724137Y-14144370D01*
X16735699Y-14086243D01*
X16738000Y-14074674D01*
X16738000Y-13925326D01*
X16738000Y-13925323D01*
X16737999Y-13925321D01*
X16723467Y-13852264D01*
X16723466Y-13852260D01*
X16717241Y-13842944D01*
X16668101Y-13769399D01*
X16585240Y-13714034D01*
X16585239Y-13714033D01*
X16575085Y-13707249D01*
X16575909Y-13706015D01*
X16532110Y-13670722D01*
X16510044Y-13604429D01*
X16523800Y-13550528D01*
X20819469Y-13550528D01*
X20819906Y-13600527D01*
X20819907Y-13600545D01*
X20869980Y-13956829D01*
X20869984Y-13956847D01*
X20883345Y-14005030D01*
X20883346Y-14005031D01*
X20883347Y-14005035D01*
X20948747Y-14105742D01*
X20996586Y-14141791D01*
X21044644Y-14178006D01*
X21044645Y-14178006D01*
X21044646Y-14178007D01*
X21159478Y-14213115D01*
X21159480Y-14213114D01*
X21159481Y-14213115D01*
X21168855Y-14213033D01*
X21209490Y-14212678D01*
X21625206Y-14154252D01*
X21673402Y-14140888D01*
X21727524Y-14105741D01*
X21774107Y-14075490D01*
X21774719Y-14074678D01*
X21846374Y-13979589D01*
X21881482Y-13864756D01*
X21881045Y-13814744D01*
X21830970Y-13458445D01*
X21817605Y-13410249D01*
X21752205Y-13309542D01*
X21687830Y-13261032D01*
X21656307Y-13237277D01*
X21541476Y-13202169D01*
X21541470Y-13202168D01*
X21491474Y-13202605D01*
X21491456Y-13202606D01*
X21135134Y-13252685D01*
X21075746Y-13261032D01*
X21075743Y-13261032D01*
X21075732Y-13261035D01*
X21027551Y-13274395D01*
X21027545Y-13274398D01*
X20926844Y-13339793D01*
X20854578Y-13435694D01*
X20819469Y-13550528D01*
X16523800Y-13550528D01*
X16527322Y-13536729D01*
X16567118Y-13495561D01*
X16580696Y-13486869D01*
X16585240Y-13485966D01*
X16668101Y-13430601D01*
X16723466Y-13347740D01*
X16738000Y-13274674D01*
X16738000Y-13125326D01*
X16738000Y-13125323D01*
X16737999Y-13125321D01*
X16723468Y-13052267D01*
X16723466Y-13052264D01*
X16723466Y-13052260D01*
X16723463Y-13052256D01*
X16721477Y-13047461D01*
X16714004Y-12977992D01*
X16721477Y-12952539D01*
X16723462Y-12947745D01*
X16723466Y-12947740D01*
X16724671Y-12941685D01*
X16737999Y-12874678D01*
X16738000Y-12874676D01*
X16738000Y-12725323D01*
X16737999Y-12725321D01*
X16723468Y-12652267D01*
X16723466Y-12652264D01*
X16723466Y-12652260D01*
X16723463Y-12652256D01*
X16721477Y-12647461D01*
X16714004Y-12577992D01*
X16721477Y-12552539D01*
X16723462Y-12547745D01*
X16723466Y-12547740D01*
X16725119Y-12539433D01*
X16737999Y-12474678D01*
X16738000Y-12474676D01*
X16738000Y-12325323D01*
X16737999Y-12325321D01*
X16723468Y-12252267D01*
X16723466Y-12252264D01*
X16723466Y-12252260D01*
X16723463Y-12252256D01*
X16721477Y-12247461D01*
X16714004Y-12177992D01*
X16721477Y-12152539D01*
X16723462Y-12147745D01*
X16723466Y-12147740D01*
X16723517Y-12147488D01*
X16735790Y-12085782D01*
X16738000Y-12074674D01*
X16738000Y-11925326D01*
X16738000Y-11925323D01*
X16737999Y-11925321D01*
X16723468Y-11852267D01*
X16723466Y-11852264D01*
X16723466Y-11852260D01*
X16723463Y-11852256D01*
X16721477Y-11847461D01*
X16714004Y-11777992D01*
X16721477Y-11752539D01*
X16723462Y-11747745D01*
X16723466Y-11747740D01*
X16725046Y-11739800D01*
X16733730Y-11696141D01*
X16738000Y-11674674D01*
X16738000Y-11525326D01*
X16738000Y-11525323D01*
X16737999Y-11525321D01*
X16723468Y-11452267D01*
X16723466Y-11452264D01*
X16723466Y-11452260D01*
X16723463Y-11452256D01*
X16721477Y-11447461D01*
X16714004Y-11377992D01*
X16721477Y-11352539D01*
X16723462Y-11347745D01*
X16723466Y-11347740D01*
X16729763Y-11316086D01*
X16737999Y-11274678D01*
X16738000Y-11274676D01*
X16738000Y-11125323D01*
X16737999Y-11125321D01*
X16723468Y-11052267D01*
X16723466Y-11052264D01*
X16723466Y-11052260D01*
X16723463Y-11052256D01*
X16721477Y-11047461D01*
X16714004Y-10977992D01*
X16721477Y-10952539D01*
X16723462Y-10947745D01*
X16723466Y-10947740D01*
X16724525Y-10942420D01*
X16734251Y-10893523D01*
X16738000Y-10874674D01*
X16738000Y-10725326D01*
X16738000Y-10725323D01*
X16737999Y-10725321D01*
X16723467Y-10652264D01*
X16723466Y-10652260D01*
X16668101Y-10569399D01*
X16585240Y-10514034D01*
X16585239Y-10514033D01*
X16585235Y-10514032D01*
X16512177Y-10499500D01*
X16512174Y-10499500D01*
X15812000Y-10499500D01*
X15744961Y-10479815D01*
X15699206Y-10427011D01*
X15688000Y-10375500D01*
X15688000Y-9675323D01*
X15687999Y-9675321D01*
X15673467Y-9602264D01*
X15673466Y-9602260D01*
X15618101Y-9519399D01*
X15535240Y-9464034D01*
X15535239Y-9464033D01*
X15535235Y-9464032D01*
X15462177Y-9449500D01*
X15462174Y-9449500D01*
X15312826Y-9449500D01*
X15312824Y-9449500D01*
X15239759Y-9464033D01*
X15234952Y-9466025D01*
X15165483Y-9473494D01*
X15140048Y-9466025D01*
X15135240Y-9464033D01*
X15062176Y-9449500D01*
X15062174Y-9449500D01*
X14912826Y-9449500D01*
X14912824Y-9449500D01*
X14839759Y-9464033D01*
X14834952Y-9466025D01*
X14765483Y-9473494D01*
X14740048Y-9466025D01*
X14735240Y-9464033D01*
X14662176Y-9449500D01*
X14662174Y-9449500D01*
X14512826Y-9449500D01*
X14512824Y-9449500D01*
X14439759Y-9464033D01*
X14434952Y-9466025D01*
X14365483Y-9473494D01*
X14340048Y-9466025D01*
X14335240Y-9464033D01*
X14262176Y-9449500D01*
X14262174Y-9449500D01*
X14112826Y-9449500D01*
X14112824Y-9449500D01*
X14039759Y-9464033D01*
X14034952Y-9466025D01*
X13965483Y-9473494D01*
X13940048Y-9466025D01*
X13935240Y-9464033D01*
X13862176Y-9449500D01*
X13862174Y-9449500D01*
X13712826Y-9449500D01*
X13712824Y-9449500D01*
X13639759Y-9464033D01*
X13634952Y-9466025D01*
X13565483Y-9473494D01*
X13540048Y-9466025D01*
X13535240Y-9464033D01*
X13462176Y-9449500D01*
X13462174Y-9449500D01*
X13312826Y-9449500D01*
X13312824Y-9449500D01*
X13239759Y-9464033D01*
X13234952Y-9466025D01*
X13165483Y-9473494D01*
X13140048Y-9466025D01*
X13135240Y-9464033D01*
X13062176Y-9449500D01*
X13062174Y-9449500D01*
X12912826Y-9449500D01*
X12912824Y-9449500D01*
X12839759Y-9464033D01*
X12834952Y-9466025D01*
X12765483Y-9473494D01*
X12740048Y-9466025D01*
X12735240Y-9464033D01*
X12662176Y-9449500D01*
X12662174Y-9449500D01*
X12512826Y-9449500D01*
X12512824Y-9449500D01*
X12439759Y-9464033D01*
X12434952Y-9466025D01*
X12365483Y-9473494D01*
X12340048Y-9466025D01*
X12335240Y-9464033D01*
X12262176Y-9449500D01*
X12262174Y-9449500D01*
X12112826Y-9449500D01*
X12112824Y-9449500D01*
X12039759Y-9464033D01*
X12034952Y-9466025D01*
X11965483Y-9473494D01*
X11940048Y-9466025D01*
X11935240Y-9464033D01*
X11862176Y-9449500D01*
X11862174Y-9449500D01*
X11712826Y-9449500D01*
X11712824Y-9449500D01*
X11639759Y-9464033D01*
X11634952Y-9466025D01*
X11565483Y-9473494D01*
X11540048Y-9466025D01*
X11535240Y-9464033D01*
X11462176Y-9449500D01*
X11462174Y-9449500D01*
X11312826Y-9449500D01*
X11312824Y-9449500D01*
X11239759Y-9464033D01*
X11234952Y-9466025D01*
X11165483Y-9473494D01*
X11140048Y-9466025D01*
X11135240Y-9464033D01*
X11062176Y-9449500D01*
X11062174Y-9449500D01*
X10912826Y-9449500D01*
X10912823Y-9449500D01*
X10839764Y-9464032D01*
X10839760Y-9464033D01*
X10756899Y-9519399D01*
X10701533Y-9602260D01*
X10701532Y-9602264D01*
X10687000Y-9675321D01*
X10687000Y-10375500D01*
X10667315Y-10442539D01*
X10614511Y-10488294D01*
X10563000Y-10499500D01*
X9862823Y-10499500D01*
X9789764Y-10514032D01*
X9789760Y-10514033D01*
X9706899Y-10569399D01*
X9651533Y-10652260D01*
X9651532Y-10652264D01*
X9637000Y-10725321D01*
X9637000Y-10725326D01*
X9637000Y-10874674D01*
X9637000Y-10874676D01*
X9636999Y-10874676D01*
X8032459Y-10874676D01*
X9049948Y-10188371D01*
X9091928Y-10146024D01*
X9122130Y-10072199D01*
X9121782Y-9992436D01*
X9098723Y-9937446D01*
X8517444Y-9075665D01*
X8485654Y-9044151D01*
X8475096Y-9033684D01*
X8401273Y-9003483D01*
X8401272Y-9003483D01*
X8400926Y-9003484D01*
X8321509Y-9003830D01*
X8266519Y-9026890D01*
X6746339Y-10052265D01*
X6741504Y-10055526D01*
X6699527Y-10097870D01*
X6669326Y-10171693D01*
X3354317Y-10171693D01*
X3498749Y-9703507D01*
X3501181Y-9696398D01*
X3505633Y-9684569D01*
X3713575Y-9132019D01*
X3716411Y-9125125D01*
X3962727Y-8574510D01*
X3965997Y-8567759D01*
X4210790Y-8099099D01*
X5271344Y-8099099D01*
X5271691Y-8178863D01*
X5285081Y-8210794D01*
X5294751Y-8233854D01*
X5876030Y-9095635D01*
X5876032Y-9095637D01*
X5876033Y-9095638D01*
X5918201Y-9137441D01*
X5918377Y-9137615D01*
X5992202Y-9167817D01*
X6071965Y-9167469D01*
X6126955Y-9144410D01*
X6578365Y-8839930D01*
X18439655Y-8839930D01*
X18451229Y-8972222D01*
X18503119Y-9094470D01*
X18503120Y-9094472D01*
X18566878Y-9167817D01*
X18568332Y-9169489D01*
X18954030Y-9493127D01*
X19039230Y-9544321D01*
X19168632Y-9574196D01*
X19168634Y-9574195D01*
X19168636Y-9574196D01*
X19256832Y-9566479D01*
X19300932Y-9562621D01*
X19423180Y-9510730D01*
X19498197Y-9445519D01*
X19870044Y-9002368D01*
X19921238Y-8917168D01*
X19951112Y-8787765D01*
X19951111Y-8787761D01*
X19951112Y-8787759D01*
X19939538Y-8655467D01*
X19934860Y-8644447D01*
X19887647Y-8533217D01*
X19875837Y-8519631D01*
X19822438Y-8458203D01*
X19792558Y-8433131D01*
X19469272Y-8161862D01*
X19436737Y-8134562D01*
X19351537Y-8083368D01*
X19252010Y-8060391D01*
X19222136Y-8053494D01*
X19222135Y-8053494D01*
X19222131Y-8053493D01*
X19089837Y-8065068D01*
X18967590Y-8116958D01*
X18967584Y-8116962D01*
X18892573Y-8182168D01*
X18520723Y-8625322D01*
X18469530Y-8710521D01*
X18469529Y-8710523D01*
X18439656Y-8839924D01*
X18439655Y-8839930D01*
X6578365Y-8839930D01*
X7651966Y-8115777D01*
X7693946Y-8073430D01*
X7724148Y-7999605D01*
X7723800Y-7919842D01*
X7700741Y-7864852D01*
X7675574Y-7827540D01*
X17233135Y-7827540D01*
X17244709Y-7959832D01*
X17296599Y-8082080D01*
X17296600Y-8082082D01*
X17342221Y-8134563D01*
X17361812Y-8157099D01*
X17747510Y-8480737D01*
X17832710Y-8531931D01*
X17962112Y-8561806D01*
X17962114Y-8561805D01*
X17962116Y-8561806D01*
X18050312Y-8554089D01*
X18094412Y-8550231D01*
X18216660Y-8498340D01*
X18291677Y-8433129D01*
X18663524Y-7989978D01*
X18714718Y-7904778D01*
X18744592Y-7775375D01*
X18744591Y-7775371D01*
X18744592Y-7775369D01*
X18733018Y-7643077D01*
X18701661Y-7569204D01*
X18681127Y-7520827D01*
X18670732Y-7508869D01*
X18615918Y-7445813D01*
X18230217Y-7122172D01*
X18145017Y-7070978D01*
X18045490Y-7048001D01*
X18015616Y-7041104D01*
X18015615Y-7041104D01*
X18015611Y-7041103D01*
X17883317Y-7052678D01*
X17761070Y-7104568D01*
X17761064Y-7104572D01*
X17686053Y-7169778D01*
X17314203Y-7612932D01*
X17263010Y-7698131D01*
X17263009Y-7698133D01*
X17233136Y-7827534D01*
X17233135Y-7827540D01*
X7675574Y-7827540D01*
X7119462Y-7003071D01*
X7077115Y-6961091D01*
X7077114Y-6961090D01*
X7003291Y-6930889D01*
X7003290Y-6930889D01*
X7002944Y-6930890D01*
X6923527Y-6931236D01*
X6868537Y-6954296D01*
X5403336Y-7942587D01*
X5343522Y-7982932D01*
X5301545Y-8025276D01*
X5271344Y-8099099D01*
X4210790Y-8099099D01*
X4245336Y-8032961D01*
X4248991Y-8026452D01*
X4560388Y-7509378D01*
X4564422Y-7503118D01*
X4906684Y-7005788D01*
X4911110Y-6999757D01*
X5283042Y-6523945D01*
X5287826Y-6518193D01*
X5688018Y-6065733D01*
X5693170Y-6060254D01*
X5715171Y-6038231D01*
X5826316Y-5926971D01*
X7099431Y-5926971D01*
X7099431Y-5926978D01*
X7115065Y-6038228D01*
X7115066Y-6038231D01*
X7119816Y-6046738D01*
X7169835Y-6136322D01*
X7188148Y-6153771D01*
X7467454Y-6364243D01*
X7489275Y-6377037D01*
X7598664Y-6402647D01*
X7709917Y-6387011D01*
X7727781Y-6377037D01*
X7808006Y-6332244D01*
X7808006Y-6332243D01*
X7808009Y-6332242D01*
X7825459Y-6313930D01*
X7999821Y-6082541D01*
X8012616Y-6060720D01*
X8015890Y-6046738D01*
X8038224Y-5951336D01*
X8038224Y-5951335D01*
X8038225Y-5951331D01*
X8022590Y-5840078D01*
X7967821Y-5741986D01*
X7949508Y-5724537D01*
X7915753Y-5699101D01*
X7670202Y-5514065D01*
X7648381Y-5501271D01*
X7648377Y-5501270D01*
X7538995Y-5475661D01*
X7538991Y-5475661D01*
X7427738Y-5491296D01*
X7427736Y-5491297D01*
X7329649Y-5546063D01*
X7312190Y-5564385D01*
X7137840Y-5795758D01*
X7137835Y-5795767D01*
X7125038Y-5817590D01*
X7099431Y-5926971D01*
X5826316Y-5926971D01*
X6120211Y-5632771D01*
X6125665Y-5627633D01*
X6577982Y-5226732D01*
X6583757Y-5221919D01*
X6601905Y-5207703D01*
X8479297Y-5207703D01*
X8515873Y-5313928D01*
X8518749Y-5317334D01*
X8585475Y-5396361D01*
X8588355Y-5399771D01*
X8605771Y-5410915D01*
X8609659Y-5413403D01*
X8923994Y-5566713D01*
X8924000Y-5566715D01*
X8924002Y-5566716D01*
X8947852Y-5575108D01*
X8947855Y-5575109D01*
X9060120Y-5579376D01*
X9166346Y-5542800D01*
X9252186Y-5470320D01*
X9265820Y-5449015D01*
X9392828Y-5188607D01*
X9401224Y-5164746D01*
X9405491Y-5052481D01*
X9368914Y-4946255D01*
X9296435Y-4860415D01*
X9296433Y-4860414D01*
X9296432Y-4860412D01*
X9275134Y-4846784D01*
X9275132Y-4846783D01*
X9275129Y-4846781D01*
X8960794Y-4693471D01*
X8960791Y-4693469D01*
X8960785Y-4693467D01*
X8936935Y-4685075D01*
X8936937Y-4685075D01*
X8824668Y-4680808D01*
X8718440Y-4717384D01*
X8632600Y-4789865D01*
X8632599Y-4789866D01*
X8618973Y-4811159D01*
X8618968Y-4811168D01*
X8618968Y-4811169D01*
X8613214Y-4822966D01*
X8491956Y-5071585D01*
X8483564Y-5095434D01*
X8479297Y-5207703D01*
X6601905Y-5207703D01*
X6608121Y-5202834D01*
X7059699Y-4849092D01*
X7065741Y-4844648D01*
X7563585Y-4501273D01*
X7569849Y-4497229D01*
X8087794Y-4184577D01*
X8094290Y-4180920D01*
X8630381Y-3900199D01*
X8637131Y-3896922D01*
X9189374Y-3649193D01*
X9196305Y-3646332D01*
X9762806Y-3432472D01*
X9769863Y-3430050D01*
X9928985Y-3380781D01*
X9998844Y-3379757D01*
X10058170Y-3416666D01*
X10084240Y-3462980D01*
X10105519Y-3532582D01*
X10105519Y-3532581D01*
X10105520Y-3532583D01*
X10428754Y-3439769D01*
X10432749Y-3438696D01*
X10756917Y-3357496D01*
X10761019Y-3356543D01*
X11087741Y-3286475D01*
X11091852Y-3285666D01*
X11420812Y-3226798D01*
X11424931Y-3226134D01*
X11755724Y-3178539D01*
X11759812Y-3178022D01*
X12092052Y-3141758D01*
X12096213Y-3141375D01*
X12429457Y-3116489D01*
X12433674Y-3116247D01*
X12767566Y-3102764D01*
X12771686Y-3102668D01*
X13105948Y-3100601D01*
X13110074Y-3100647D01*
G37*
%TD.AperFunction*%
%TD*%
M02*
