%TF.GenerationSoftware,KiCad,Pcbnew,10.0.6*%
%TF.CreationDate,2026-09-04T18:13:08+08:00*%
%TF.ProjectId,halo_rev_a,68616c6f-5f72-4657-965f-612e6b696361,rev?*%
%TF.SameCoordinates,Original*%
%TF.FileFunction,Copper,L4,Bot*%
%TF.FilePolarity,Positive*%
%FSLAX46Y46*%
G04 Gerber Fmt 4.6, Leading zero omitted, Abs format (unit mm)*
G04 Created by KiCad (PCBNEW 10.0.6) date 2026-09-04 18:13:08*
%MOMM*%
%LPD*%
G01*
G04 APERTURE LIST*
G04 Aperture macros list*
%AMRoundRect*
0 Rectangle with rounded corners*
0 $1 Rounding radius*
0 $2 $3 $4 $5 $6 $7 $8 $9 X,Y pos of 4 corners*
0 Add a 4 corners polygon primitive as box body*
4,1,4,$2,$3,$4,$5,$6,$7,$8,$9,$2,$3,0*
0 Add four circle primitives for the rounded corners*
1,1,$1+$1,$2,$3*
1,1,$1+$1,$4,$5*
1,1,$1+$1,$6,$7*
1,1,$1+$1,$8,$9*
0 Add four rect primitives between the rounded corners*
20,1,$1+$1,$2,$3,$4,$5,0*
20,1,$1+$1,$4,$5,$6,$7,0*
20,1,$1+$1,$6,$7,$8,$9,0*
20,1,$1+$1,$8,$9,$2,$3,0*%
%AMRotRect*
0 Rectangle, with rotation*
0 The origin of the aperture is its center*
0 $1 length*
0 $2 width*
0 $3 Rotation angle, in degrees counterclockwise*
0 Add horizontal line*
21,1,$1,$2,0,0,$3*%
G04 Aperture macros list end*
%TA.AperFunction,EtchedComponent*%
%ADD10C,0.000000*%
%TD*%
%TA.AperFunction,SMDPad,CuDef*%
%ADD11RoundRect,0.100000X-0.163238X-0.015915X0.057254X-0.153694X0.163238X0.015915X-0.057254X0.153694X0*%
%TD*%
%TA.AperFunction,SMDPad,CuDef*%
%ADD12RoundRect,0.218750X-0.332287X-0.055689X0.002858X-0.336909X0.332287X0.055689X-0.002858X0.336909X0*%
%TD*%
%TA.AperFunction,SMDPad,CuDef*%
%ADD13RoundRect,0.140000X-0.181435X-0.124825X0.087718X-0.202004X0.181435X0.124825X-0.087718X0.202004X0*%
%TD*%
%TA.AperFunction,SMDPad,CuDef*%
%ADD14RoundRect,0.180000X1.020000X0.420000X-1.020000X0.420000X-1.020000X-0.420000X1.020000X-0.420000X0*%
%TD*%
%TA.AperFunction,SMDPad,CuDef*%
%ADD15RoundRect,0.180000X-0.873731X0.673346X0.146269X-1.093346X0.873731X-0.673346X-0.146269X1.093346X0*%
%TD*%
%TA.AperFunction,SMDPad,CuDef*%
%ADD16RoundRect,0.180000X-0.146269X-1.093346X0.873731X0.673346X0.146269X1.093346X-0.873731X-0.673346X0*%
%TD*%
%TA.AperFunction,SMDPad,CuDef*%
%ADD17RoundRect,0.100000X-0.163718X0.009817X0.032506X-0.160759X0.163718X-0.009817X-0.032506X0.160759X0*%
%TD*%
%TA.AperFunction,SMDPad,CuDef*%
%ADD18RoundRect,0.100000X-0.164004X-0.001628X0.043641X-0.158100X0.164004X0.001628X-0.043641X0.158100X0*%
%TD*%
%TA.AperFunction,SMDPad,CuDef*%
%ADD19RoundRect,0.140000X-0.187830X0.114978X-0.148861X-0.162297X0.187830X-0.114978X0.148861X0.162297X0*%
%TD*%
%TA.AperFunction,SMDPad,CuDef*%
%ADD20R,0.375000X0.350000*%
%TD*%
%TA.AperFunction,SMDPad,CuDef*%
%ADD21R,0.350000X0.375000*%
%TD*%
%TA.AperFunction,SMDPad,CuDef*%
%ADD22RoundRect,0.140000X-0.017173X-0.219557X0.212189X-0.058955X0.017173X0.219557X-0.212189X0.058955X0*%
%TD*%
%TA.AperFunction,SMDPad,CuDef*%
%ADD23C,0.500000*%
%TD*%
%TA.AperFunction,SMDPad,CuDef*%
%ADD24RoundRect,0.200000X-0.298205X0.116506X-0.048205X-0.316506X0.298205X-0.116506X0.048205X0.316506X0*%
%TD*%
%TA.AperFunction,SMDPad,CuDef*%
%ADD25RoundRect,0.100000X-0.160680X-0.032891X0.073006X-0.146868X0.160680X0.032891X-0.073006X0.146868X0*%
%TD*%
%TA.AperFunction,SMDPad,CuDef*%
%ADD26RotRect,1.000000X1.800000X304.000000*%
%TD*%
%TA.AperFunction,SMDPad,CuDef*%
%ADD27RoundRect,0.050000X-0.375000X-0.050000X0.375000X-0.050000X0.375000X0.050000X-0.375000X0.050000X0*%
%TD*%
%TA.AperFunction,SMDPad,CuDef*%
%ADD28RoundRect,0.050000X-0.050000X-0.375000X0.050000X-0.375000X0.050000X0.375000X-0.050000X0.375000X0*%
%TD*%
%TA.AperFunction,HeatsinkPad*%
%ADD29R,4.400000X4.400000*%
%TD*%
%TA.AperFunction,Conductor*%
%ADD30C,0.150000*%
%TD*%
G04 APERTURE END LIST*
D10*
%TA.AperFunction,EtchedComponent*%
%TO.C,AE2*%
G36*
X3183333Y-13250000D02*
G01*
X2183333Y-13250000D01*
X2183333Y-12750000D01*
X3183333Y-12750000D01*
X3183333Y-13250000D01*
G37*
%TD.AperFunction*%
%TD*%
D11*
%TO.P,C17,1*%
%TO.N,XC2*%
X17285931Y-20123640D03*
%TO.P,C17,2*%
%TO.N,GND*%
X17828681Y-20462788D03*
%TD*%
D12*
%TO.P,L1,1*%
%TO.N,DCC*%
X17988864Y-7801455D03*
%TO.P,L1,2*%
%TO.N,DECD*%
X19195384Y-8813845D03*
%TD*%
D13*
%TO.P,C10,1*%
%TO.N,VDD*%
X14881512Y-21038418D03*
%TO.P,C10,2*%
%TO.N,GND*%
X15804324Y-21303030D03*
%TD*%
D14*
%TO.P,BT1,1*%
%TO.N,VDD*%
X13000000Y-24600000D03*
D15*
%TO.P,BT1,2*%
%TO.N,GND*%
X23045900Y-7200000D03*
D16*
%TO.P,BT1,3*%
%TO.N,VBAT_SNS_HI*%
X2954100Y-7200000D03*
%TD*%
D17*
%TO.P,C16,1*%
%TO.N,XC1*%
X18400601Y-19280563D03*
%TO.P,C16,2*%
%TO.N,GND*%
X18883615Y-19700441D03*
%TD*%
D18*
%TO.P,C15,1*%
%TO.N,XL2*%
X7568828Y-5939154D03*
%TO.P,C15,2*%
%TO.N,GND*%
X8079954Y-6324316D03*
%TD*%
D19*
%TO.P,C9,1*%
%TO.N,VDD*%
X21350476Y-13707642D03*
%TO.P,C9,2*%
%TO.N,GND*%
X21484082Y-14658300D03*
%TD*%
D20*
%TO.P,U2,1*%
%TO.N,I2C_SCL*%
X11302284Y-21398537D03*
%TO.P,U2,2*%
%TO.N,ACC_CS*%
X11302284Y-20898537D03*
%TO.P,U2,3*%
%TO.N,ACC_SA0*%
X11302284Y-20398537D03*
%TO.P,U2,4*%
%TO.N,I2C_SDA*%
X11302284Y-19898537D03*
D21*
%TO.P,U2,5*%
%TO.N,GND*%
X11814784Y-19886037D03*
%TO.P,U2,6*%
X12314784Y-19886037D03*
D20*
%TO.P,U2,7*%
X12827284Y-19898537D03*
%TO.P,U2,8*%
X12827284Y-20398537D03*
%TO.P,U2,9*%
%TO.N,VDD*%
X12827284Y-20898537D03*
%TO.P,U2,10*%
X12827284Y-21398537D03*
D21*
%TO.P,U2,11*%
%TO.N,ACC_INT2*%
X12314784Y-21411037D03*
%TO.P,U2,12*%
%TO.N,ACC_INT1*%
X11814784Y-21411037D03*
%TD*%
D22*
%TO.P,C12,1*%
%TO.N,VDD*%
X7731407Y-20238109D03*
%TO.P,C12,2*%
%TO.N,GND*%
X8517793Y-19687475D03*
%TD*%
D23*
%TO.P,AE2,1*%
%TO.N,NFC1*%
X3183333Y-13000000D03*
%TO.P,AE2,2*%
%TO.N,NFC2*%
X2183333Y-13000000D03*
%TD*%
D19*
%TO.P,C11,1*%
%TO.N,VDD*%
X4515918Y-11341700D03*
%TO.P,C11,2*%
%TO.N,GND*%
X4649524Y-12292358D03*
%TD*%
D24*
%TO.P,X2,1*%
%TO.N,XC1*%
X19534902Y-15818782D03*
%TO.P,X2,2*%
%TO.N,GND*%
X20234902Y-17031218D03*
%TO.P,X2,3*%
%TO.N,XC2*%
X19282274Y-17581218D03*
%TO.P,X2,4*%
%TO.N,GND*%
X18582274Y-16368782D03*
%TD*%
D25*
%TO.P,C14,1*%
%TO.N,XL1*%
X8942394Y-5130092D03*
%TO.P,C14,2*%
%TO.N,GND*%
X9517622Y-5410650D03*
%TD*%
D26*
%TO.P,X1,1*%
%TO.N,XL1*%
X7895728Y-10121947D03*
%TO.P,X1,2*%
%TO.N,XL2*%
X6497746Y-8049353D03*
%TD*%
D27*
%TO.P,U1,1*%
%TO.N,XL1*%
X10262500Y-15200000D03*
%TO.P,U1,2*%
%TO.N,XL2*%
X10262500Y-14800000D03*
%TO.P,U1,3*%
%TO.N,NFC1*%
X10262500Y-14400000D03*
%TO.P,U1,4*%
%TO.N,NFC2*%
X10262500Y-14000000D03*
%TO.P,U1,5*%
%TO.N,VBAT_SNS*%
X10262500Y-13600000D03*
%TO.P,U1,6*%
%TO.N,SNS_EN*%
X10262500Y-13200000D03*
%TO.P,U1,7*%
%TO.N,unconnected-(U1-P1.06{slash}AIN2-Pad7)*%
X10262500Y-12800000D03*
%TO.P,U1,8*%
%TO.N,unconnected-(U1-P1.07{slash}AIN3-Pad8)*%
X10262500Y-12400000D03*
%TO.P,U1,9*%
%TO.N,unconnected-(U1-P1.08{slash}EXTREF-Pad9)*%
X10262500Y-12000000D03*
%TO.P,U1,10*%
%TO.N,VDD*%
X10262500Y-11600000D03*
%TO.P,U1,11*%
%TO.N,unconnected-(U1-P2.00-Pad11)*%
X10262500Y-11200000D03*
%TO.P,U1,12*%
%TO.N,SPI_SCK*%
X10262500Y-10800000D03*
D28*
%TO.P,U1,13*%
%TO.N,SPI_MOSI*%
X10987500Y-10075000D03*
%TO.P,U1,14*%
%TO.N,unconnected-(U1-P2.03-Pad14)*%
X11387500Y-10075000D03*
%TO.P,U1,15*%
%TO.N,SPI_MISO*%
X11787500Y-10075000D03*
%TO.P,U1,16*%
%TO.N,unconnected-(U1-P2.05{slash}CS-Pad16)*%
X12187500Y-10075000D03*
%TO.P,U1,17*%
%TO.N,I2C_SCL*%
X12587500Y-10075000D03*
%TO.P,U1,18*%
%TO.N,SWO*%
X12987500Y-10075000D03*
%TO.P,U1,19*%
%TO.N,I2C_SDA*%
X13387500Y-10075000D03*
%TO.P,U1,20*%
%TO.N,ACC_INT1*%
X13787500Y-10075000D03*
%TO.P,U1,21*%
%TO.N,ACC_INT2*%
X14187500Y-10075000D03*
%TO.P,U1,22*%
%TO.N,VDD*%
X14587500Y-10075000D03*
%TO.P,U1,23*%
%TO.N,UWB_CS*%
X14987500Y-10075000D03*
%TO.P,U1,24*%
%TO.N,UWB_IRQ*%
X15387500Y-10075000D03*
D27*
%TO.P,U1,25*%
%TO.N,SWDIO*%
X16112500Y-10800000D03*
%TO.P,U1,26*%
%TO.N,SWDCLK*%
X16112500Y-11200000D03*
%TO.P,U1,27*%
%TO.N,UWB_RST*%
X16112500Y-11600000D03*
%TO.P,U1,28*%
%TO.N,unconnected-(U1-P0.03-Pad28)*%
X16112500Y-12000000D03*
%TO.P,U1,29*%
%TO.N,unconnected-(U1-P0.04-Pad29)*%
X16112500Y-12400000D03*
%TO.P,U1,30*%
%TO.N,nRESET*%
X16112500Y-12800000D03*
%TO.P,U1,31*%
%TO.N,RF_ANT*%
X16112500Y-13200000D03*
%TO.P,U1,32*%
%TO.N,GND*%
X16112500Y-13600000D03*
%TO.P,U1,33*%
%TO.N,DECA*%
X16112500Y-14000000D03*
%TO.P,U1,34*%
%TO.N,XC1*%
X16112500Y-14400000D03*
%TO.P,U1,35*%
%TO.N,XC2*%
X16112500Y-14800000D03*
%TO.P,U1,36*%
%TO.N,VDD*%
X16112500Y-15200000D03*
D28*
%TO.P,U1,37*%
%TO.N,unconnected-(U1-P1.09-Pad37)*%
X15387500Y-15925000D03*
%TO.P,U1,38*%
%TO.N,unconnected-(U1-P1.10-Pad38)*%
X14987500Y-15925000D03*
%TO.P,U1,39*%
%TO.N,PIEZO_P*%
X14587500Y-15925000D03*
%TO.P,U1,40*%
%TO.N,PIEZO_N*%
X14187500Y-15925000D03*
%TO.P,U1,41*%
%TO.N,unconnected-(U1-P1.13{slash}AIN6-Pad41)*%
X13787500Y-15925000D03*
%TO.P,U1,42*%
%TO.N,unconnected-(U1-P1.14{slash}AIN7-Pad42)*%
X13387500Y-15925000D03*
%TO.P,U1,43*%
%TO.N,DECA*%
X12987500Y-15925000D03*
%TO.P,U1,44*%
%TO.N,GND*%
X12587500Y-15925000D03*
%TO.P,U1,45*%
%TO.N,DECD*%
X12187500Y-15925000D03*
%TO.P,U1,46*%
%TO.N,DCC*%
X11787500Y-15925000D03*
%TO.P,U1,47*%
%TO.N,VDD*%
X11387500Y-15925000D03*
%TO.P,U1,48*%
X10987500Y-15925000D03*
D29*
%TO.P,U1,49*%
%TO.N,GND*%
X13187500Y-13000000D03*
%TD*%
%TO.N,NFC2*%
D30*
X21318254Y-6215797D02*
X21173591Y-6043729D01*
X7652741Y-22114182D02*
X7845275Y-22223295D01*
X15760590Y-23160659D02*
X15972491Y-23099658D01*
X5440233Y-5492827D02*
X5285397Y-5653483D01*
X3945777Y-17895600D02*
X4051158Y-18083650D01*
X7926041Y-3615909D02*
X7731122Y-3725098D01*
X21331609Y-18877304D02*
X21452038Y-18700972D01*
X13507745Y-2618409D02*
X13290190Y-2611052D01*
X21568736Y-18522173D02*
X21681653Y-18340988D01*
X2620904Y-10718008D02*
X2576371Y-10936066D01*
X10912409Y-2830050D02*
X10700105Y-2876975D01*
X22949546Y-10957652D02*
X22903617Y-10749953D01*
X23447684Y-12415884D02*
X23432163Y-12197289D01*
X18030388Y-3539217D02*
X17830702Y-3436836D01*
X9559491Y-2893572D02*
X9348935Y-2968781D01*
X19701061Y-5013987D02*
X19531718Y-4876181D01*
X6070194Y-20589106D02*
X6231307Y-20731816D01*
X4263698Y-18981871D02*
X4391702Y-19162936D01*
X5806813Y-5551236D02*
X5653105Y-5704217D01*
X20502714Y-5754713D02*
X20348630Y-5599887D01*
X8180874Y-22063457D02*
X8372193Y-22161501D01*
X23133047Y-12220305D02*
X23113501Y-12008363D01*
X20560020Y-5387016D02*
X20398238Y-5231084D01*
X3653523Y-17318679D02*
X3746915Y-17513031D01*
X22903617Y-10749953D02*
X22853353Y-10543283D01*
X3935070Y-7423218D02*
X3821130Y-7614789D01*
X3224077Y-8810034D02*
X3139400Y-9016059D01*
X7325055Y-4327775D02*
X7145247Y-4449349D01*
X19719699Y-4642380D02*
X19542587Y-4504278D01*
X11986406Y-2662573D02*
X11770256Y-2687060D01*
X18616081Y-3871191D02*
X18423164Y-3756441D01*
X2385035Y-13148223D02*
X2391466Y-13370458D01*
X13942216Y-2646786D02*
X13725119Y-2630322D01*
X21356433Y-6748590D02*
X21222892Y-6575573D01*
X3681883Y-18038287D02*
X3790310Y-18231832D01*
X3059064Y-9223793D02*
X2983103Y-9433143D01*
X20388726Y-20036188D02*
X20533721Y-19879233D01*
X15868007Y-2998072D02*
X15657658Y-2941169D01*
X9878506Y-23083918D02*
X10090648Y-23146117D01*
X18081546Y-3907644D02*
X17889546Y-3804101D01*
X9667693Y-23017284D02*
X9878506Y-23083918D01*
X19007001Y-4484533D02*
X18826790Y-4361428D01*
X13808465Y-23506942D02*
X14028231Y-23486711D01*
X8649862Y-3585440D02*
X8454091Y-3679506D01*
X3321166Y-16522807D02*
X3397997Y-16724371D01*
X3564213Y-17122394D02*
X3653523Y-17318679D01*
X21173591Y-6043729D02*
X21025369Y-5874744D01*
X3711236Y-7808685D02*
X3605438Y-8004823D01*
X22725689Y-16010604D02*
X22785644Y-15805988D01*
X5598415Y-5335434D02*
X5440233Y-5492827D01*
X2418279Y-13814219D02*
X2438647Y-14035550D01*
X19452387Y-20911408D02*
X19616008Y-20773783D01*
X18194787Y-22144478D02*
X18384643Y-22032822D01*
X4019171Y-18611845D02*
X4139503Y-18798147D01*
X20605977Y-20243074D02*
X20755258Y-20081524D01*
X8040033Y-22328341D02*
X8236930Y-22429277D01*
X18944640Y-21303385D02*
X19116630Y-21176268D01*
X7348411Y-3955567D02*
X7160786Y-4076745D01*
X21576753Y-19050234D02*
X21700749Y-18868730D01*
X22946118Y-16308633D02*
X23012273Y-16099316D01*
X2737215Y-14006275D02*
X2761533Y-14220863D01*
X22555890Y-8088940D02*
X22450065Y-7890369D01*
X22592971Y-16415903D02*
X22661456Y-16213938D01*
X6123716Y-5255055D02*
X5963706Y-5401494D01*
X19119277Y-21547315D02*
X19296337Y-21416487D01*
X22739915Y-10133387D02*
X22676792Y-9930341D01*
X11512935Y-2418986D02*
X11291829Y-2453436D01*
X9558938Y-22663625D02*
X9762388Y-22732621D01*
X2383259Y-12925880D02*
X2385035Y-13148223D01*
X9044154Y-22791062D02*
X9250426Y-22870824D01*
X8372193Y-22161501D02*
X8565504Y-22255507D01*
X8236930Y-22429277D02*
X8435878Y-22526057D01*
X6033700Y-20957540D02*
X6202521Y-21100920D01*
X20348630Y-5599887D02*
X20191353Y-5448336D01*
X23232595Y-15249782D02*
X23276486Y-15034799D01*
X23083636Y-14345444D02*
X23108607Y-14133862D01*
X15298097Y-2547653D02*
X15078502Y-2502799D01*
X6263200Y-4739867D02*
X6092338Y-4883525D01*
X9762388Y-22732621D02*
X9967218Y-22797335D01*
X12854919Y-2610013D02*
X12637394Y-2616329D01*
X4079884Y-7766599D02*
X3973113Y-7955043D01*
X17480153Y-22185675D02*
X17671084Y-22088946D01*
X18227904Y-3645767D02*
X18030388Y-3539217D01*
X2781788Y-10069975D02*
X2723634Y-10284867D01*
X14211983Y-23163995D02*
X14424437Y-23135394D01*
X3313058Y-8605808D02*
X3224077Y-8810034D01*
X9458302Y-22946243D02*
X9667693Y-23017284D01*
X4658906Y-19516777D02*
X4797988Y-19689398D01*
X4523458Y-19341264D02*
X4658906Y-19516777D01*
X21207502Y-19051092D02*
X21331609Y-18877304D01*
X5355510Y-6019622D02*
X5211753Y-6181905D01*
X3248566Y-16319659D02*
X3321166Y-16522807D01*
X2903518Y-15072510D02*
X2950111Y-15283279D01*
X6621747Y-4836209D02*
X6452808Y-4972350D01*
X6092338Y-4883525D02*
X5924538Y-5030716D01*
X14901408Y-23359958D02*
X15117753Y-23316887D01*
X21043467Y-19749270D02*
X21182269Y-19578713D01*
X23432163Y-12197289D02*
X23412069Y-11979088D01*
X22800712Y-16722941D02*
X22875588Y-16516539D01*
X2705139Y-12280113D02*
X2693319Y-12495919D01*
X12928498Y-23241750D02*
X13142987Y-23240002D01*
X4700830Y-6327296D02*
X4563700Y-6503174D01*
X2870657Y-10994336D02*
X2831860Y-11207083D01*
X9862308Y-3108740D02*
X9656171Y-3177567D01*
X8727475Y-3220577D02*
X8524027Y-3313107D01*
X18644058Y-4242137D02*
X18458885Y-4126709D01*
X11734735Y-2389171D02*
X11512935Y-2418986D01*
X3479025Y-16924263D02*
X3564213Y-17122394D01*
X7804551Y-21855428D02*
X7991633Y-21961418D01*
X22157826Y-18118136D02*
X22262120Y-17924757D01*
X2790336Y-14434875D02*
X2823612Y-14648215D01*
X7845275Y-22223295D02*
X8040033Y-22328341D01*
X2823612Y-14648215D02*
X2861345Y-14860791D01*
X4671764Y-6859895D02*
X4545819Y-7036231D01*
X18002615Y-22252144D02*
X18194787Y-22144478D01*
X14028231Y-23486711D02*
X14247504Y-23461885D01*
X6452808Y-4972350D02*
X6286774Y-5111986D01*
X3417555Y-9128441D02*
X3339511Y-9330325D01*
X19116630Y-21176268D02*
X19285904Y-21045590D01*
X14636224Y-23102353D02*
X14847252Y-23064887D01*
X20945129Y-6238165D02*
X20801030Y-6073922D01*
X23458625Y-12634777D02*
X23447684Y-12415884D01*
X10278739Y-2984094D02*
X10069860Y-3044240D01*
X19776695Y-20632775D02*
X19934378Y-20488447D01*
X19810444Y-21002245D02*
X19975873Y-20857115D01*
X23101696Y-9323283D02*
X23021549Y-9112897D01*
X21182269Y-19578713D02*
X21317457Y-19405304D01*
X11957132Y-2364005D02*
X11734735Y-2389171D01*
X22443368Y-16815368D02*
X22520265Y-16616409D01*
X9985158Y-2756445D02*
X9771597Y-2822783D01*
X3265720Y-9533779D02*
X3196213Y-9738714D01*
X12285345Y-23220044D02*
X12499583Y-23231770D01*
X3577523Y-17842495D02*
X3681883Y-18038287D01*
X11339794Y-2749577D02*
X11125670Y-2787577D01*
X18826790Y-4361428D02*
X18644058Y-4242137D01*
X3180230Y-16115015D02*
X3248566Y-16319659D01*
X7079464Y-21392895D02*
X7257089Y-21514216D01*
X14247504Y-23461885D02*
X14466189Y-23432474D01*
X12203043Y-2642616D02*
X11986406Y-2662573D01*
X2844436Y-9856328D02*
X2781788Y-10069975D01*
X6793516Y-4703622D02*
X6621747Y-4836209D01*
X21025369Y-5874744D02*
X20873655Y-5708915D01*
X3001103Y-15493005D02*
X3056470Y-15701597D01*
X22049493Y-18309306D02*
X22157826Y-18118136D01*
X4801387Y-6686218D02*
X4671764Y-6859895D01*
X14466189Y-23432474D02*
X14684188Y-23398493D01*
X17808213Y-22355771D02*
X18002615Y-22252144D01*
X20030951Y-5300126D02*
X19867496Y-5155322D01*
X23012273Y-16099316D02*
X23074023Y-15888679D01*
X4174895Y-7047392D02*
X4053009Y-7234058D01*
X23444496Y-13730350D02*
X23456501Y-13511408D01*
X22875588Y-16516539D02*
X22946118Y-16308633D01*
X2964571Y-16416339D02*
X3039258Y-16625414D01*
X8932836Y-3132320D02*
X8727475Y-3220577D01*
X23387412Y-11761376D02*
X23358204Y-11544249D01*
X11071514Y-2492506D02*
X10852086Y-2536177D01*
X20088989Y-20340863D02*
X20240460Y-20190087D01*
X9771597Y-2822783D02*
X9559491Y-2893572D01*
X2767682Y-11634717D02*
X2742328Y-11849418D01*
X3605438Y-8004823D02*
X3503779Y-8203114D01*
X10304025Y-23203854D02*
X10518545Y-23257104D01*
X23165009Y-12858060D02*
X23158808Y-12645247D01*
X6374291Y-21240720D02*
X6548935Y-21376878D01*
X5086801Y-20025667D02*
X5236404Y-20189168D01*
X21700749Y-18868730D02*
X21820906Y-18684686D01*
X6202521Y-21100920D02*
X6374291Y-21240720D01*
X5169102Y-19664617D02*
X5311140Y-19826489D01*
X17830702Y-3436836D02*
X17628935Y-3338668D01*
X3013681Y-10361501D02*
X2961587Y-10571452D01*
X2405870Y-12259186D02*
X2393678Y-12481264D01*
X16899655Y-3348016D02*
X16696308Y-3269400D01*
X12637394Y-2616329D02*
X12420070Y-2627199D01*
X12713999Y-23239006D02*
X12928498Y-23241750D01*
X9348935Y-2968781D02*
X9140019Y-3048376D01*
X2950111Y-15283279D02*
X3001103Y-15493005D01*
X9451541Y-3250689D02*
X9248507Y-3328073D01*
X15657658Y-2941169D02*
X15446183Y-2888690D01*
X9140019Y-3048376D02*
X8932836Y-3132320D01*
X18592811Y-21546711D02*
X18770008Y-21426884D01*
X15516726Y-2597101D02*
X15298097Y-2547653D01*
X7437198Y-21631778D02*
X7619713Y-21745532D01*
X15446183Y-2888690D02*
X15233677Y-2840655D01*
X21596652Y-6568883D02*
X21459295Y-6390874D01*
X22661456Y-16213938D02*
X22725689Y-16010604D01*
X21860069Y-6933384D02*
X21730263Y-6749746D01*
X6437049Y-4599805D02*
X6263200Y-4739867D01*
X14847252Y-23064887D02*
X15057429Y-23023014D01*
X21895949Y-17971778D02*
X21997236Y-17783915D01*
X12626924Y-2316512D02*
X12403324Y-2327667D01*
X4053009Y-7234058D02*
X3935070Y-7423218D01*
X5211753Y-6181905D02*
X5071440Y-6347148D01*
X9356958Y-22590377D02*
X9558938Y-22663625D01*
X14858036Y-2462557D02*
X14636795Y-2426945D01*
X12926404Y-23541743D02*
X13147175Y-23539973D01*
X2536418Y-11154988D02*
X2501062Y-11374678D01*
X21222892Y-6575573D02*
X21085771Y-6405406D01*
X3131019Y-9945040D02*
X3070167Y-10152666D01*
X2894273Y-16205726D02*
X2964571Y-16416339D01*
X13785449Y-23207826D02*
X13998956Y-23188143D01*
X2831860Y-11207083D02*
X2797530Y-11420574D01*
X16696308Y-3269400D02*
X16491380Y-3195066D01*
X18572101Y-21917226D02*
X18757080Y-21797740D01*
X21486333Y-6924383D02*
X21356433Y-6748590D01*
X12044189Y-23502597D02*
X12264418Y-23519313D01*
X18231030Y-21775134D02*
X18413125Y-21662811D01*
X22226088Y-7500148D02*
X22108037Y-7308667D01*
X23113501Y-12008363D02*
X23089523Y-11796897D01*
X3339511Y-9330325D02*
X3265720Y-9533779D01*
X10488851Y-2928330D02*
X10278739Y-2984094D01*
X5236404Y-20189168D02*
X5389385Y-20349486D01*
X6731979Y-21139192D02*
X6904401Y-21267869D01*
X16392169Y-22964430D02*
X16599762Y-22890265D01*
X19296337Y-21416487D02*
X19470602Y-21281993D01*
X3397997Y-16724371D02*
X3479025Y-16924263D01*
X6793405Y-4330720D02*
X6613809Y-4463403D01*
X19934378Y-20488447D02*
X20088989Y-20340863D01*
X20653536Y-5912748D02*
X20502714Y-5754713D01*
X14636795Y-2426945D02*
X14414879Y-2395976D01*
X17219512Y-3155141D02*
X17012037Y-3069861D01*
X23276486Y-15034799D02*
X23315861Y-14818965D01*
X3503779Y-8203114D02*
X3406306Y-8403472D01*
X3499817Y-8928216D02*
X3417555Y-9128441D01*
X15333127Y-23269298D02*
X15547438Y-23217214D01*
X3381190Y-17444514D02*
X3477277Y-17644542D01*
X5867904Y-20810642D02*
X6033700Y-20957540D01*
X19893897Y-4784173D02*
X19719699Y-4642380D01*
X4797988Y-19689398D02*
X4940640Y-19859053D01*
X19285904Y-21045590D02*
X19452387Y-20911408D01*
X18770008Y-21426884D02*
X18944640Y-21303385D01*
X3039258Y-16625414D02*
X3118300Y-16832859D01*
X23350704Y-14602374D02*
X23381000Y-14385121D01*
X4390532Y-18633878D02*
X4511232Y-18812381D01*
X18271354Y-4015195D02*
X18081546Y-3907644D01*
X4051158Y-18083650D02*
X4160444Y-18269433D01*
X19867496Y-5155322D02*
X19701061Y-5013987D01*
X20801030Y-6073922D02*
X20653536Y-5912748D01*
X11125670Y-2787577D02*
X10912409Y-2830050D01*
X17101329Y-3430882D02*
X16899655Y-3348016D01*
X18757080Y-21797740D02*
X18939498Y-21674418D01*
X2911550Y-9644019D02*
X2844436Y-9856328D01*
X8068728Y-3879804D02*
X7879305Y-3985946D01*
X23466745Y-13073073D02*
X23464980Y-12853872D01*
X4635632Y-18988299D02*
X4763677Y-19161557D01*
X11291829Y-2453436D02*
X11071514Y-2492506D01*
X2438647Y-14035550D02*
X2463643Y-14256385D01*
X4430296Y-6681869D02*
X4300675Y-6863302D01*
X20297386Y-20556665D02*
X20453331Y-20401478D01*
X18413125Y-21662811D02*
X18592811Y-21546711D01*
X3821130Y-7614789D02*
X3711236Y-7808685D01*
X3870322Y-8145664D02*
X3771555Y-8338377D01*
X3289304Y-17242499D02*
X3381190Y-17444514D01*
X23463919Y-13292284D02*
X23466745Y-13073073D01*
X16284960Y-3125047D02*
X16077138Y-3059373D01*
X18939498Y-21674418D02*
X19119277Y-21547315D01*
X8839579Y-22706988D02*
X9044154Y-22791062D01*
X20240460Y-20190087D02*
X20388726Y-20036188D01*
X16697250Y-22532079D02*
X16895682Y-22451634D01*
X22362313Y-17012692D02*
X22443368Y-16815368D01*
X21612535Y-7102874D02*
X21486333Y-6924383D01*
X9250426Y-22870824D02*
X9458302Y-22946243D01*
X12264418Y-23519313D02*
X12484928Y-23531412D01*
X21317457Y-19405304D02*
X21448970Y-19229118D01*
X4940640Y-19859053D02*
X5086801Y-20025667D01*
X22785644Y-15805988D02*
X22841295Y-15600182D01*
X23145226Y-13709423D02*
X23156860Y-13496753D01*
X20901109Y-19916898D02*
X21043467Y-19749270D01*
X8565504Y-22255507D02*
X8760722Y-22345436D01*
X5030471Y-19499789D02*
X5169102Y-19664617D01*
X21734983Y-7283988D02*
X21612535Y-7102874D01*
X22262120Y-17924757D02*
X22362333Y-17729255D01*
X8847580Y-3495486D02*
X8649862Y-3585440D01*
X17301243Y-3517962D02*
X17101329Y-3430882D01*
X22340115Y-7694076D02*
X22226088Y-7500148D01*
X3477277Y-17644542D02*
X3577523Y-17842495D01*
X15057429Y-23023014D02*
X15266663Y-22976753D01*
X14590900Y-2723413D02*
X14375202Y-2693341D01*
X19542587Y-4504278D02*
X19362637Y-4369929D01*
X3586263Y-8729740D02*
X3499817Y-8928216D01*
X7692164Y-4096022D02*
X7507387Y-4209981D01*
X5653105Y-5704217D02*
X5502649Y-5860369D01*
X2685006Y-13144034D02*
X2691284Y-13359988D01*
X3070167Y-10152666D02*
X3013681Y-10361501D01*
X12420070Y-2627199D02*
X12203043Y-2642616D01*
X8260352Y-3777642D02*
X8068728Y-3879804D01*
X14684188Y-23398493D02*
X14901408Y-23359958D01*
X7145247Y-4449349D02*
X6968042Y-4574650D01*
X22638053Y-17130875D02*
X22721523Y-16927750D01*
X4986029Y-5984299D02*
X4841627Y-6154312D01*
X2444197Y-11815977D02*
X2422712Y-12037391D01*
X20453331Y-20401478D02*
X20605977Y-20243074D01*
X14375202Y-2693341D02*
X14158942Y-2667795D01*
X11008904Y-23055771D02*
X11220106Y-23094279D01*
X22458420Y-17531715D02*
X22550340Y-17332226D01*
X21820906Y-18684686D02*
X21937171Y-18498184D01*
X22991119Y-11166287D02*
X22949546Y-10957652D01*
X11554687Y-2716066D02*
X11339794Y-2749577D01*
X16165850Y-2772790D02*
X15950698Y-2709694D01*
X10173339Y-22857739D02*
X10380659Y-22913807D01*
X12850730Y-2310042D02*
X12626924Y-2316512D01*
X22550340Y-17332226D02*
X22638053Y-17130875D01*
X21790739Y-18157496D02*
X21895949Y-17971778D01*
X8454091Y-3679506D02*
X8260352Y-3777642D01*
X17010004Y-22728998D02*
X17212473Y-22641969D01*
X22892619Y-15393276D02*
X22939594Y-15185361D01*
X23156860Y-13496753D02*
X23164036Y-13283907D01*
X4841627Y-6154312D02*
X4700830Y-6327296D01*
X16379654Y-2840385D02*
X16165850Y-2772790D01*
X2710014Y-15565582D02*
X2766965Y-15780254D01*
X19531718Y-4876181D02*
X19359543Y-4741965D01*
X22982200Y-14976529D02*
X23020419Y-14766870D01*
X13571556Y-23223035D02*
X13785449Y-23207826D01*
X21937171Y-18498184D02*
X22049493Y-18309306D01*
X23148152Y-12432630D02*
X23133047Y-12220305D01*
X17012037Y-3069861D02*
X16802840Y-2988952D01*
X21730263Y-6749746D02*
X21596652Y-6568883D01*
X14158942Y-2667795D02*
X13942216Y-2646786D01*
X5285397Y-5653483D02*
X5133974Y-5817331D01*
X15233677Y-2840655D02*
X15020231Y-2797085D01*
X14805941Y-2757999D02*
X14590900Y-2723413D01*
X5757065Y-20293678D02*
X5912090Y-20443038D01*
X21853622Y-7467643D02*
X21734983Y-7283988D01*
X12484928Y-23531412D02*
X12705622Y-23538889D01*
X19641996Y-21143892D02*
X19810444Y-21002245D01*
X15972491Y-23099658D02*
X16183048Y-23034238D01*
X23456501Y-13511408D02*
X23463919Y-13292284D01*
X7089331Y-21762927D02*
X7274686Y-21883948D01*
X2683251Y-12927974D02*
X2685006Y-13144034D01*
X22108037Y-7308667D02*
X21986012Y-7119719D01*
X8123222Y-3510817D02*
X7926041Y-3615909D01*
X23464980Y-12853872D02*
X23458625Y-12634777D01*
X15950698Y-2709694D02*
X15734291Y-2651122D01*
X7160786Y-4076745D02*
X6975757Y-4201815D01*
X20191353Y-5448336D02*
X20030951Y-5300126D01*
X2983103Y-9433143D02*
X2911550Y-9644019D01*
X22520265Y-16616409D02*
X22592971Y-16415903D01*
X23427906Y-13949014D02*
X23444496Y-13730350D01*
X17425175Y-3244757D02*
X17219512Y-3155141D01*
X16599762Y-22890265D02*
X16805737Y-22811776D01*
X14192383Y-2369665D02*
X13969406Y-2348020D01*
X19179931Y-4239390D02*
X18994548Y-4112717D01*
X3844348Y-17705366D02*
X3945777Y-17895600D01*
X22754977Y-8492568D02*
X22657542Y-8289702D01*
X17859928Y-21988249D02*
X18046604Y-21883630D01*
X2693319Y-12495919D02*
X2686023Y-12711905D01*
X16895682Y-22451634D02*
X17092368Y-22367060D01*
X22094557Y-17593991D02*
X22187870Y-17402090D01*
X3196213Y-9738714D02*
X3131019Y-9945040D01*
X20398238Y-5231084D02*
X20233242Y-5078590D01*
X6613809Y-4463403D02*
X6437049Y-4599805D01*
X22676792Y-9930341D02*
X22609437Y-9728681D01*
X4139503Y-18798147D02*
X4263698Y-18981871D01*
X20813653Y-19556434D02*
X20948468Y-19390732D01*
X4300675Y-6863302D02*
X4174895Y-7047392D01*
X21997236Y-17783915D02*
X22094557Y-17593991D01*
X2761533Y-14220863D02*
X2790336Y-14434875D01*
X4160444Y-18269433D02*
X4273585Y-18452869D01*
X6726376Y-21509337D02*
X6906534Y-21638039D01*
X6395357Y-20871107D02*
X6562272Y-21006918D01*
X19616008Y-20773783D02*
X19776695Y-20632775D01*
X2391466Y-13370458D02*
X2402550Y-13592489D01*
X2721477Y-12064581D02*
X2705139Y-12280113D01*
X6548935Y-21376878D02*
X6726376Y-21509337D01*
X2861345Y-14860791D02*
X2903518Y-15072510D01*
X15078502Y-2502799D02*
X14858036Y-2462557D01*
X12403324Y-2327667D02*
X12180027Y-2343500D01*
X23184207Y-15463819D02*
X23232595Y-15249782D01*
X5502649Y-5860369D02*
X5355510Y-6019622D01*
X2493256Y-14476627D02*
X2527471Y-14696180D01*
X10069860Y-3044240D02*
X9862308Y-3108740D01*
X5759873Y-5181375D02*
X5598415Y-5335434D01*
X23412069Y-11979088D02*
X23387412Y-11761376D01*
X5133974Y-5817331D02*
X4986029Y-5984299D01*
X10200082Y-2694589D02*
X9985158Y-2756445D01*
X7538551Y-3838334D02*
X7348411Y-3955567D01*
X13367841Y-23533579D02*
X13588303Y-23522567D01*
X23315861Y-14818965D02*
X23350704Y-14602374D01*
X19470602Y-21281993D02*
X19641996Y-21143892D01*
X10950633Y-23350058D02*
X11168012Y-23389722D01*
X13588303Y-23522567D02*
X13808465Y-23506942D01*
X23164036Y-13283907D02*
X23166752Y-13070978D01*
X18423164Y-3756441D02*
X18227904Y-3645767D01*
X3118300Y-16832859D02*
X3201661Y-17038584D01*
X4273585Y-18452869D02*
X4390532Y-18633878D01*
X2691284Y-13359988D02*
X2702082Y-13575743D01*
X17092368Y-22367060D02*
X17287220Y-22278394D01*
X2527471Y-14696180D02*
X2566274Y-14914947D01*
X6968042Y-4574650D02*
X6793516Y-4703622D01*
X3902756Y-18423046D02*
X4019171Y-18611845D01*
X13298566Y-2311169D02*
X13074644Y-2308261D01*
X22362333Y-17729255D02*
X22458420Y-17531715D01*
X10090648Y-23146117D02*
X10304025Y-23203854D01*
X23381000Y-14385121D02*
X23406738Y-14167303D01*
X2669998Y-10500910D02*
X2620904Y-10718008D01*
X9047157Y-3409684D02*
X8847580Y-3495486D01*
X6975757Y-4201815D02*
X6793405Y-4330720D01*
X2393678Y-12481264D02*
X2386140Y-12703528D01*
X2766965Y-15780254D02*
X2828394Y-15993666D01*
X23129140Y-13921824D02*
X23145226Y-13709423D01*
X13998956Y-23188143D02*
X14211983Y-23163995D01*
X13969406Y-2348020D02*
X13746045Y-2331052D01*
X2609645Y-15132834D02*
X2657566Y-15349743D01*
X7731122Y-3725098D02*
X7538551Y-3838334D01*
X6904401Y-21267869D02*
X7079464Y-21392895D01*
X7507387Y-4209981D02*
X7325055Y-4327775D01*
X5963706Y-5401494D02*
X5806813Y-5551236D01*
X20718516Y-5546316D02*
X20560020Y-5387016D01*
X7462517Y-22001050D02*
X7652741Y-22114182D01*
X5924538Y-5030716D02*
X5759873Y-5181375D01*
X17889546Y-3804101D02*
X17695439Y-3704611D01*
X5389385Y-20349486D02*
X5545675Y-20506549D01*
X9656171Y-3177567D02*
X9451541Y-3250689D01*
X4545819Y-7036231D02*
X4423606Y-7215149D01*
X22079266Y-7842259D02*
X21968400Y-7653760D01*
X23028317Y-11375767D02*
X22991119Y-11166287D01*
X11220106Y-23094279D02*
X11432048Y-23128353D01*
X15266663Y-22976753D02*
X15474861Y-22926125D01*
X22609437Y-9728681D02*
X22537880Y-9528496D01*
X4511232Y-18812381D02*
X4635632Y-18988299D01*
X21452038Y-18700972D02*
X21568736Y-18522173D01*
X10416274Y-2637242D02*
X10200082Y-2694589D01*
X22721523Y-16927750D02*
X22800712Y-16722941D01*
X18458885Y-4126709D02*
X18271354Y-4015195D01*
X15547438Y-23217214D02*
X15760590Y-23160659D01*
X12180027Y-2343500D02*
X11957132Y-2364005D01*
X5456523Y-19985336D02*
X5605187Y-20141088D01*
X11770256Y-2687060D02*
X11554687Y-2716066D01*
X9248507Y-3328073D02*
X9047157Y-3409684D01*
X23020419Y-14766870D02*
X23054236Y-14556478D01*
X4305179Y-7396570D02*
X4190588Y-7580414D01*
X17413055Y-22550727D02*
X17611664Y-22455313D01*
X10852086Y-2536177D02*
X10633640Y-2584430D01*
X17212473Y-22641969D02*
X17413055Y-22550727D01*
X10518545Y-23257104D02*
X10734113Y-23305846D01*
X13147175Y-23539973D02*
X13367841Y-23533579D01*
X4934631Y-6515277D02*
X4801387Y-6686218D01*
X23108607Y-14133862D02*
X23129140Y-13921824D01*
X13725119Y-2630322D02*
X13507745Y-2618409D01*
X15734291Y-2651122D02*
X15516726Y-2597101D01*
X11644637Y-23157977D02*
X11857778Y-23183140D01*
X11604960Y-23455342D02*
X11824337Y-23481270D01*
X6906534Y-21638039D02*
X7089331Y-21762927D01*
X4423606Y-7215149D02*
X4305179Y-7396570D01*
X17695439Y-3704611D02*
X17499309Y-3609218D01*
X3771555Y-8338377D02*
X3676855Y-8533098D01*
X2566274Y-14914947D02*
X2609645Y-15132834D01*
X10734113Y-23305846D02*
X10950633Y-23350058D01*
X2386140Y-12703528D02*
X2383259Y-12925880D01*
X16802840Y-2988952D02*
X16592015Y-2912449D01*
X4763677Y-19161557D02*
X4895309Y-19332078D01*
X13072549Y-2608253D02*
X12854919Y-2610013D01*
X8957762Y-22431248D02*
X9156536Y-22512906D01*
X8524027Y-3313107D02*
X8322580Y-3409868D01*
X20755258Y-20081524D02*
X20901109Y-19916898D01*
X22798777Y-10337731D02*
X22739915Y-10133387D01*
X23158808Y-12645247D02*
X23148152Y-12432630D01*
X20533721Y-19879233D02*
X20675384Y-19719291D01*
X11824337Y-23481270D02*
X12044189Y-23502597D01*
X16497156Y-22608357D02*
X16697250Y-22532079D01*
X6286774Y-5111986D02*
X6123716Y-5255055D01*
X8760722Y-22345436D02*
X8957762Y-22431248D01*
X16183048Y-23034238D02*
X16392169Y-22964430D01*
X4190588Y-7580414D02*
X4079884Y-7766599D01*
X3790310Y-18231832D02*
X3902756Y-18423046D01*
X23166752Y-13070978D02*
X23165009Y-12858060D01*
X3056470Y-15701597D02*
X3116188Y-15908964D01*
X12071379Y-23203832D02*
X12285345Y-23220044D01*
X16295489Y-22680435D02*
X16497156Y-22608357D01*
X2422712Y-12037391D02*
X2405870Y-12259186D01*
X13746045Y-2331052D02*
X13522399Y-2318767D01*
X6231307Y-20731816D02*
X6395357Y-20871107D01*
X3116188Y-15908964D02*
X3180230Y-16115015D01*
X15474861Y-22926125D02*
X15681933Y-22871154D01*
X19362637Y-4369929D02*
X19179931Y-4239390D01*
X2470317Y-11595040D02*
X2444197Y-11815977D01*
X23358204Y-11544249D02*
X23324458Y-11327803D01*
X15887788Y-22811863D02*
X16092337Y-22748281D01*
X21459295Y-6390874D02*
X21318254Y-6215797D01*
X9967218Y-22797335D02*
X10173339Y-22857739D01*
X21085771Y-6405406D02*
X20945129Y-6238165D01*
X13142987Y-23240002D02*
X13357371Y-23233762D01*
X3746915Y-17513031D02*
X3844348Y-17705366D01*
X23131342Y-15676816D02*
X23184207Y-15463819D01*
X17499309Y-3609218D02*
X17301243Y-3517962D01*
X21968400Y-7653760D02*
X21853622Y-7467643D01*
X22841295Y-15600182D02*
X22892619Y-15393276D01*
X3406306Y-8403472D02*
X3313058Y-8605808D01*
X16077138Y-3059373D02*
X15868007Y-2998072D01*
X7991633Y-21961418D02*
X8180874Y-22063457D01*
X2797530Y-11420574D02*
X2767682Y-11634717D01*
X11432048Y-23128353D02*
X11644637Y-23157977D01*
X3201661Y-17038584D02*
X3289304Y-17242499D01*
X23021549Y-9112897D02*
X22937021Y-8904256D01*
X2828394Y-15993666D02*
X2894273Y-16205726D01*
X2717395Y-13791203D02*
X2737215Y-14006275D01*
X15681933Y-22871154D02*
X15887788Y-22811863D01*
X9156536Y-22512906D02*
X9356958Y-22590377D01*
X2576371Y-10936066D02*
X2536418Y-11154988D01*
X19975873Y-20857115D02*
X20138210Y-20708566D01*
X5912090Y-20443038D02*
X6070194Y-20589106D01*
X2402550Y-13592489D02*
X2418279Y-13814219D01*
X18994548Y-4112717D02*
X18806570Y-3989967D01*
X11857778Y-23183140D02*
X12071379Y-23203832D01*
X16491380Y-3195066D02*
X16284960Y-3125047D01*
X2657566Y-15349743D02*
X2710014Y-15565582D01*
X21681653Y-18340988D02*
X21790739Y-18157496D01*
X8636791Y-22618641D02*
X8839579Y-22706988D01*
X23406738Y-14167303D02*
X23427906Y-13949014D01*
X8322580Y-3409868D02*
X8123222Y-3510817D01*
X5705204Y-20660290D02*
X5867904Y-20810642D01*
X22939594Y-15185361D02*
X22982200Y-14976529D01*
X21079770Y-19222260D02*
X21207502Y-19051092D01*
X2742328Y-11849418D02*
X2721477Y-12064581D01*
X23074023Y-15888679D02*
X23131342Y-15676816D01*
X20065103Y-4929598D02*
X19893897Y-4784173D01*
X20873655Y-5708915D02*
X20718516Y-5546316D01*
X3973113Y-7955043D02*
X3870322Y-8145664D01*
X22848150Y-8697449D02*
X22754977Y-8492568D01*
X11386152Y-23424821D02*
X11604960Y-23455342D01*
X17287220Y-22278394D02*
X17480153Y-22185675D01*
X10633640Y-2584430D02*
X10416274Y-2637242D01*
X5545675Y-20506549D02*
X5705204Y-20660290D01*
X4391702Y-19162936D02*
X4523458Y-19341264D01*
X2686023Y-12711905D02*
X2683251Y-12927974D01*
X16092337Y-22748281D02*
X16295489Y-22680435D01*
X22450065Y-7890369D02*
X22340115Y-7694076D01*
X13074644Y-2308261D02*
X12850730Y-2310042D01*
X3139400Y-9016059D02*
X3059064Y-9223793D01*
X18384643Y-22032822D02*
X18572101Y-21917226D01*
X20948468Y-19390732D02*
X21079770Y-19222260D01*
X5311140Y-19826489D02*
X5456523Y-19985336D01*
X15117753Y-23316887D02*
X15333127Y-23269298D01*
X23089523Y-11796897D02*
X23061124Y-11586001D01*
X19184612Y-4611397D02*
X19007001Y-4484533D01*
X2961587Y-10571452D02*
X2913905Y-10782428D01*
X20138210Y-20708566D02*
X20297386Y-20556665D01*
X22853353Y-10543283D02*
X22798777Y-10337731D01*
X13522399Y-2318767D02*
X13298566Y-2311169D01*
X7879305Y-3985946D02*
X7692164Y-4096022D01*
X10589088Y-22965516D02*
X10798533Y-23012844D01*
X2913905Y-10782428D02*
X2870657Y-10994336D01*
X4895309Y-19332078D02*
X5030471Y-19499789D01*
X21986012Y-7119719D02*
X21860069Y-6933384D01*
X5071440Y-6347148D02*
X4934631Y-6515277D01*
X23061124Y-11586001D02*
X23028317Y-11375767D01*
X4563700Y-6503174D02*
X4430296Y-6681869D01*
X16592015Y-2912449D02*
X16379654Y-2840385D01*
X15020231Y-2797085D02*
X14805941Y-2757999D01*
X6562272Y-21006918D02*
X6731979Y-21139192D01*
X14414879Y-2395976D02*
X14192383Y-2369665D01*
X20675384Y-19719291D02*
X20813653Y-19556434D01*
X19359543Y-4741965D02*
X19184612Y-4611397D01*
X2702082Y-13575743D02*
X2717395Y-13791203D01*
X21448970Y-19229118D02*
X21576753Y-19050234D01*
X5605187Y-20141088D02*
X5757065Y-20293678D01*
X7619713Y-21745532D02*
X7804551Y-21855428D01*
X11168012Y-23389722D02*
X11386152Y-23424821D01*
X22187870Y-17402090D02*
X22277134Y-17208295D01*
X2463643Y-14256385D02*
X2493256Y-14476627D01*
X12499583Y-23231770D02*
X12713999Y-23239006D01*
X13290190Y-2611052D02*
X13072549Y-2608253D01*
X23054236Y-14556478D02*
X23083636Y-14345444D01*
X2723634Y-10284867D02*
X2669998Y-10500910D01*
X16805737Y-22811776D02*
X17010004Y-22728998D01*
X17611664Y-22455313D02*
X17808213Y-22355771D01*
X12705622Y-23538889D02*
X12926404Y-23541743D01*
X10798533Y-23012844D02*
X11008904Y-23055771D01*
X7257089Y-21514216D02*
X7437198Y-21631778D01*
X17671084Y-22088946D02*
X17859928Y-21988249D01*
X17628935Y-3338668D02*
X17425175Y-3244757D01*
X10380659Y-22913807D02*
X10589088Y-22965516D01*
X3676855Y-8533098D02*
X3586263Y-8729740D01*
X18806570Y-3989967D02*
X18616081Y-3871191D01*
X14424437Y-23135394D02*
X14636224Y-23102353D01*
X22937021Y-8904256D02*
X22848150Y-8697449D01*
X13357371Y-23233762D02*
X13571556Y-23223035D01*
X22277134Y-17208295D02*
X22362313Y-17012692D01*
X8435878Y-22526057D02*
X8636791Y-22618641D01*
X7274686Y-21883948D02*
X7462517Y-22001050D01*
X18046604Y-21883630D02*
X18231030Y-21775134D01*
X10700105Y-2876975D02*
X10488851Y-2928330D01*
X20233242Y-5078590D02*
X20065103Y-4929598D01*
X22657542Y-8289702D02*
X22555890Y-8088940D01*
X2501062Y-11374678D02*
X2470317Y-11595040D01*
%TD*%
%TA.AperFunction,Conductor*%
%TO.N,GND*%
G36*
X24737239Y-10310447D02*
G01*
X24793700Y-10351605D01*
X24816445Y-10400330D01*
X24834840Y-10483303D01*
X24835290Y-10485420D01*
X24876962Y-10690242D01*
X24877375Y-10692367D01*
X24915472Y-10897920D01*
X24915839Y-10900005D01*
X24944788Y-11072994D01*
X24950333Y-11106132D01*
X24950671Y-11108269D01*
X24981570Y-11315018D01*
X24981871Y-11317160D01*
X25009147Y-11524338D01*
X25009411Y-11526487D01*
X25033078Y-11734215D01*
X25033304Y-11736367D01*
X25053334Y-11944380D01*
X25053523Y-11946537D01*
X25069920Y-12154896D01*
X25070071Y-12157054D01*
X25082831Y-12365680D01*
X25082944Y-12367841D01*
X25092062Y-12576674D01*
X25092138Y-12578837D01*
X25097609Y-12787767D01*
X25097646Y-12789931D01*
X25099470Y-12998917D01*
X25099470Y-13001081D01*
X25097646Y-13210067D01*
X25097609Y-13212231D01*
X25092138Y-13421161D01*
X25092062Y-13423324D01*
X25082944Y-13632157D01*
X25082831Y-13634318D01*
X25070071Y-13842944D01*
X25069920Y-13845102D01*
X25053523Y-14053461D01*
X25053334Y-14055618D01*
X25033304Y-14263631D01*
X25033078Y-14265783D01*
X25009411Y-14473511D01*
X25009147Y-14475660D01*
X24981871Y-14682838D01*
X24981570Y-14684980D01*
X24950671Y-14891729D01*
X24950333Y-14893866D01*
X24916006Y-15099004D01*
X24915848Y-15099946D01*
X24915472Y-15102078D01*
X24877375Y-15307631D01*
X24876962Y-15309756D01*
X24835290Y-15514579D01*
X24834840Y-15516696D01*
X24788627Y-15725144D01*
X24788540Y-15725531D01*
X24774304Y-15788782D01*
X24774256Y-15789342D01*
X24774220Y-15789739D01*
X24774164Y-15790356D01*
X24774165Y-15790383D01*
X24774165Y-15790385D01*
X24776928Y-15853680D01*
X24776989Y-15855059D01*
X24777006Y-15855458D01*
X24779634Y-15920472D01*
X24779771Y-15921243D01*
X24779844Y-15921658D01*
X24779908Y-15922028D01*
X24779912Y-15922043D01*
X24779913Y-15922044D01*
X24797452Y-15977674D01*
X24799372Y-15983761D01*
X24799491Y-15984141D01*
X24818860Y-16046268D01*
X24819008Y-16046585D01*
X24819196Y-16046990D01*
X24819525Y-16047703D01*
X24819541Y-16047728D01*
X24854542Y-16102670D01*
X24869998Y-16127103D01*
X24889318Y-16157645D01*
X24889943Y-16158390D01*
X24890179Y-16158673D01*
X24890345Y-16158873D01*
X24933546Y-16198457D01*
X24938457Y-16202957D01*
X24969661Y-16231736D01*
X24997494Y-16257405D01*
X25033429Y-16317325D01*
X25032917Y-16381695D01*
X25015565Y-16444264D01*
X25014969Y-16446344D01*
X24953609Y-16653491D01*
X24952976Y-16655561D01*
X24888025Y-16861556D01*
X24887356Y-16863615D01*
X24818823Y-17068434D01*
X24818119Y-17070478D01*
X24746035Y-17274042D01*
X24745295Y-17276076D01*
X24669666Y-17478358D01*
X24668890Y-17480379D01*
X24589720Y-17681363D01*
X24588909Y-17683370D01*
X24506246Y-17882935D01*
X24505400Y-17884927D01*
X24419253Y-18083052D01*
X24418373Y-18085030D01*
X24328847Y-18281474D01*
X24327933Y-18283434D01*
X24234909Y-18478465D01*
X24233960Y-18480411D01*
X24137604Y-18673670D01*
X24136621Y-18675598D01*
X24036880Y-18867198D01*
X24035864Y-18869109D01*
X23932796Y-19058937D01*
X23931747Y-19060830D01*
X23825375Y-19248841D01*
X23824293Y-19250715D01*
X23714704Y-19436761D01*
X23713589Y-19438616D01*
X23600715Y-19622810D01*
X23599578Y-19624629D01*
X23553126Y-19697545D01*
X23483552Y-19806753D01*
X23482374Y-19808567D01*
X23363154Y-19988690D01*
X23361944Y-19990484D01*
X23239577Y-20168529D01*
X23238335Y-20170302D01*
X23112893Y-20346164D01*
X23111622Y-20347915D01*
X23106504Y-20354832D01*
X22983149Y-20521536D01*
X22981892Y-20523204D01*
X22920173Y-20603638D01*
X22850373Y-20694603D01*
X22849040Y-20696308D01*
X22714590Y-20865333D01*
X22713229Y-20867015D01*
X22575834Y-21033689D01*
X22574443Y-21035346D01*
X22434194Y-21199559D01*
X22432773Y-21201193D01*
X22289628Y-21362988D01*
X22288180Y-21364596D01*
X22142282Y-21523816D01*
X22140806Y-21525399D01*
X21992118Y-21682083D01*
X21990615Y-21683640D01*
X21839202Y-21837718D01*
X21837671Y-21839248D01*
X21683672Y-21990581D01*
X21682117Y-21992084D01*
X21525425Y-22140782D01*
X21523841Y-22142259D01*
X21364552Y-22288219D01*
X21362944Y-22289666D01*
X21201246Y-22432725D01*
X21199613Y-22434145D01*
X21035352Y-22574437D01*
X21033694Y-22575829D01*
X20866952Y-22713280D01*
X20865270Y-22714642D01*
X20696342Y-22849013D01*
X20694637Y-22850344D01*
X20523183Y-22981907D01*
X20521454Y-22983210D01*
X20347865Y-23111659D01*
X20346114Y-23112931D01*
X20170299Y-23238338D01*
X20168526Y-23239580D01*
X19990518Y-23361921D01*
X19988724Y-23363131D01*
X19808605Y-23482348D01*
X19806791Y-23483526D01*
X19624652Y-23599563D01*
X19622816Y-23600710D01*
X19438607Y-23713594D01*
X19436751Y-23714709D01*
X19250718Y-23824290D01*
X19248845Y-23825372D01*
X19060756Y-23931789D01*
X19058864Y-23932837D01*
X18890720Y-24024132D01*
X18869123Y-24035858D01*
X18867212Y-24036874D01*
X18675603Y-24136619D01*
X18673675Y-24137602D01*
X18480393Y-24233969D01*
X18478447Y-24234918D01*
X18283455Y-24327923D01*
X18281495Y-24328837D01*
X18084990Y-24418391D01*
X18083012Y-24419271D01*
X17884971Y-24505382D01*
X17882979Y-24506228D01*
X17683370Y-24588909D01*
X17681363Y-24589720D01*
X17480367Y-24668894D01*
X17478347Y-24669669D01*
X17276127Y-24745276D01*
X17274093Y-24746017D01*
X17070421Y-24818140D01*
X17068375Y-24818844D01*
X16863584Y-24887367D01*
X16861525Y-24888036D01*
X16655586Y-24952968D01*
X16653517Y-24953601D01*
X16446344Y-25014969D01*
X16444263Y-25015565D01*
X16236109Y-25073291D01*
X16234019Y-25073851D01*
X16024983Y-25127912D01*
X16022883Y-25128436D01*
X15812837Y-25178863D01*
X15810728Y-25179350D01*
X15599803Y-25226110D01*
X15597686Y-25226560D01*
X15386100Y-25269607D01*
X15383977Y-25270020D01*
X15171539Y-25309394D01*
X15169406Y-25309769D01*
X14956419Y-25345410D01*
X14954283Y-25345749D01*
X14740640Y-25377679D01*
X14738496Y-25377980D01*
X14524367Y-25406170D01*
X14522220Y-25406434D01*
X14463648Y-25413108D01*
X14394811Y-25401139D01*
X14343373Y-25353855D01*
X14325663Y-25286267D01*
X14338210Y-25235445D01*
X14389724Y-25130072D01*
X14400500Y-25056110D01*
X14400500Y-24143890D01*
X14389724Y-24069928D01*
X14384374Y-24058985D01*
X14333950Y-23955841D01*
X14310505Y-23932396D01*
X14277020Y-23871073D01*
X14282004Y-23801381D01*
X14323876Y-23745448D01*
X14381657Y-23721822D01*
X14437431Y-23714320D01*
X14450738Y-23713709D01*
X14454473Y-23713126D01*
X14454475Y-23713127D01*
X14504594Y-23705313D01*
X14507016Y-23704962D01*
X14557222Y-23698211D01*
X14557223Y-23698210D01*
X14560965Y-23697707D01*
X14573871Y-23694515D01*
X14661360Y-23680878D01*
X14674636Y-23679988D01*
X14678349Y-23679329D01*
X14678353Y-23679330D01*
X14728283Y-23670471D01*
X14730665Y-23670074D01*
X14780766Y-23662266D01*
X14780766Y-23662265D01*
X14784491Y-23661685D01*
X14797337Y-23658221D01*
X14884497Y-23642758D01*
X14897751Y-23641592D01*
X14901453Y-23640854D01*
X14901455Y-23640855D01*
X14951177Y-23630955D01*
X14953595Y-23630500D01*
X15003488Y-23621650D01*
X15003489Y-23621649D01*
X15007211Y-23620989D01*
X15019978Y-23617258D01*
X15106764Y-23599981D01*
X15120001Y-23598535D01*
X15123681Y-23597721D01*
X15123684Y-23597722D01*
X15173126Y-23586796D01*
X15175619Y-23586272D01*
X15225291Y-23576385D01*
X15225293Y-23576383D01*
X15229002Y-23575645D01*
X15241696Y-23571645D01*
X15328068Y-23552560D01*
X15341266Y-23550839D01*
X15344936Y-23549946D01*
X15344938Y-23549947D01*
X15394223Y-23537967D01*
X15396584Y-23537420D01*
X15446077Y-23526486D01*
X15446078Y-23526484D01*
X15449766Y-23525670D01*
X15462371Y-23521406D01*
X15548320Y-23500518D01*
X15561481Y-23498520D01*
X15565122Y-23497553D01*
X15565124Y-23497554D01*
X15614124Y-23484552D01*
X15616443Y-23483962D01*
X15665749Y-23471980D01*
X15665751Y-23471978D01*
X15669432Y-23471084D01*
X15681939Y-23466559D01*
X15767396Y-23443885D01*
X15780512Y-23441611D01*
X15784139Y-23440566D01*
X15784143Y-23440567D01*
X15832839Y-23426547D01*
X15835213Y-23425891D01*
X15884210Y-23412892D01*
X15884211Y-23412890D01*
X15887863Y-23411922D01*
X15900283Y-23407133D01*
X15939264Y-23395911D01*
X15985226Y-23382679D01*
X15998289Y-23380132D01*
X16001898Y-23379010D01*
X16001902Y-23379011D01*
X16050341Y-23363959D01*
X16052614Y-23363279D01*
X16101367Y-23349246D01*
X16101370Y-23349243D01*
X16105002Y-23348198D01*
X16117308Y-23343153D01*
X16201713Y-23316929D01*
X16214721Y-23314109D01*
X16218300Y-23312913D01*
X16218302Y-23312914D01*
X16266329Y-23296880D01*
X16268753Y-23296100D01*
X16272200Y-23295028D01*
X16317124Y-23281072D01*
X16317124Y-23281071D01*
X16320734Y-23279950D01*
X16332943Y-23274645D01*
X16416741Y-23246671D01*
X16429688Y-23243579D01*
X16433248Y-23242306D01*
X16433251Y-23242307D01*
X16480949Y-23225265D01*
X16483337Y-23224439D01*
X16531384Y-23208402D01*
X16531384Y-23208401D01*
X16534978Y-23207202D01*
X16547066Y-23201645D01*
X16591952Y-23185608D01*
X16630248Y-23171926D01*
X16643127Y-23168564D01*
X16646653Y-23167219D01*
X16646655Y-23167220D01*
X16693989Y-23149181D01*
X16696248Y-23148347D01*
X16744055Y-23131269D01*
X16744057Y-23131266D01*
X16747614Y-23129996D01*
X16759587Y-23124185D01*
X16842108Y-23092739D01*
X16854918Y-23089107D01*
X16858417Y-23087688D01*
X16858420Y-23087689D01*
X16905382Y-23068656D01*
X16907699Y-23067745D01*
X16955046Y-23049705D01*
X16955046Y-23049704D01*
X16958572Y-23048361D01*
X16970427Y-23042299D01*
X17010177Y-23026190D01*
X17052253Y-23009138D01*
X17064975Y-23005241D01*
X17068450Y-23003747D01*
X17068454Y-23003747D01*
X17114987Y-22983744D01*
X17117346Y-22982760D01*
X17120586Y-22981447D01*
X17164263Y-22963748D01*
X17164263Y-22963747D01*
X17167766Y-22962328D01*
X17179489Y-22956018D01*
X17260588Y-22921159D01*
X17273228Y-22916996D01*
X17276663Y-22915433D01*
X17276665Y-22915433D01*
X17322770Y-22894459D01*
X17325069Y-22893442D01*
X17371615Y-22873436D01*
X17371616Y-22873434D01*
X17375084Y-22871944D01*
X17386671Y-22865392D01*
X17466999Y-22828852D01*
X17479558Y-22824421D01*
X17482958Y-22822787D01*
X17482960Y-22822787D01*
X17528765Y-22800780D01*
X17530824Y-22799818D01*
X17577010Y-22778810D01*
X17577010Y-22778809D01*
X17580457Y-22777242D01*
X17591894Y-22770453D01*
X17671433Y-22732241D01*
X17683879Y-22727557D01*
X17687249Y-22725850D01*
X17687250Y-22725850D01*
X17732438Y-22702963D01*
X17734657Y-22701868D01*
X17780360Y-22679913D01*
X17780362Y-22679910D01*
X17783769Y-22678274D01*
X17795061Y-22671248D01*
X17873764Y-22631389D01*
X17886119Y-22626439D01*
X17889446Y-22624665D01*
X17889449Y-22624665D01*
X17934173Y-22600823D01*
X17936342Y-22599695D01*
X17981574Y-22576789D01*
X17981576Y-22576785D01*
X17984949Y-22575078D01*
X17996097Y-22567815D01*
X18073912Y-22526334D01*
X18086173Y-22521122D01*
X18096656Y-22515248D01*
X18133659Y-22494516D01*
X18135875Y-22493304D01*
X18180568Y-22469482D01*
X18180568Y-22469480D01*
X18183906Y-22467702D01*
X18194893Y-22460209D01*
X18271813Y-22417113D01*
X18283959Y-22411647D01*
X18287212Y-22409734D01*
X18330862Y-22384062D01*
X18333019Y-22382823D01*
X18377252Y-22358042D01*
X18377253Y-22358040D01*
X18380556Y-22356190D01*
X18391388Y-22348467D01*
X18432660Y-22324194D01*
X18467359Y-22303786D01*
X18479383Y-22298069D01*
X18482599Y-22296085D01*
X18482603Y-22296085D01*
X18525808Y-22269441D01*
X18527809Y-22268236D01*
X18571541Y-22242518D01*
X18571542Y-22242515D01*
X18574795Y-22240603D01*
X18585467Y-22232653D01*
X18660483Y-22186394D01*
X18672380Y-22180428D01*
X18675551Y-22178379D01*
X18675553Y-22178379D01*
X18718112Y-22150887D01*
X18720206Y-22149565D01*
X18763350Y-22122962D01*
X18763350Y-22122960D01*
X18766563Y-22120980D01*
X18777072Y-22112802D01*
X18851081Y-22064996D01*
X18862842Y-22058788D01*
X18865975Y-22056669D01*
X18865979Y-22056669D01*
X18907992Y-22028265D01*
X18910058Y-22026901D01*
X18952596Y-21999425D01*
X18952596Y-21999424D01*
X18955766Y-21997377D01*
X18966093Y-21988987D01*
X19039072Y-21939649D01*
X19050702Y-21933196D01*
X19053793Y-21931010D01*
X19053795Y-21931010D01*
X19095191Y-21901741D01*
X19097233Y-21900330D01*
X19139195Y-21871964D01*
X19139195Y-21871963D01*
X19142322Y-21869850D01*
X19152483Y-21861237D01*
X19224387Y-21810401D01*
X19235887Y-21803700D01*
X19250559Y-21792859D01*
X19279698Y-21771327D01*
X19281665Y-21769906D01*
X19323067Y-21740636D01*
X19323068Y-21740633D01*
X19326151Y-21738454D01*
X19336118Y-21729639D01*
X19406927Y-21677318D01*
X19418282Y-21670380D01*
X19421276Y-21668068D01*
X19421279Y-21668068D01*
X19461448Y-21637065D01*
X19463379Y-21635607D01*
X19504131Y-21605497D01*
X19504132Y-21605495D01*
X19507176Y-21603246D01*
X19516952Y-21594229D01*
X19586627Y-21540455D01*
X19597836Y-21533277D01*
X19600782Y-21530902D01*
X19600785Y-21530902D01*
X19640233Y-21499115D01*
X19642223Y-21497547D01*
X19652204Y-21489844D01*
X19682308Y-21466611D01*
X19682308Y-21466610D01*
X19685294Y-21464306D01*
X19694889Y-21455076D01*
X19763419Y-21399857D01*
X19774475Y-21392448D01*
X19777361Y-21390020D01*
X19777364Y-21390020D01*
X19816161Y-21357394D01*
X19818090Y-21355807D01*
X19860463Y-21321666D01*
X19869862Y-21312237D01*
X19937197Y-21255615D01*
X19948091Y-21247979D01*
X19950933Y-21245485D01*
X19950937Y-21245484D01*
X19989052Y-21212044D01*
X19990941Y-21210422D01*
X20029696Y-21177835D01*
X20029696Y-21177834D01*
X20032594Y-21175398D01*
X20041785Y-21165782D01*
X20107906Y-21107774D01*
X20118648Y-21099903D01*
X20121428Y-21097358D01*
X20121430Y-21097358D01*
X20158805Y-21063155D01*
X20160658Y-21061495D01*
X20198754Y-21028075D01*
X20198755Y-21028072D01*
X20201594Y-21025582D01*
X20210585Y-21015774D01*
X20275461Y-20956407D01*
X20286020Y-20948325D01*
X20288760Y-20945709D01*
X20288765Y-20945708D01*
X20325417Y-20910729D01*
X20327202Y-20909061D01*
X20364624Y-20874819D01*
X20364625Y-20874816D01*
X20367418Y-20872261D01*
X20376197Y-20862270D01*
X20439803Y-20801571D01*
X20450203Y-20793260D01*
X20452873Y-20790602D01*
X20452875Y-20790602D01*
X20488799Y-20754851D01*
X20490603Y-20753093D01*
X20527231Y-20718141D01*
X20527231Y-20718139D01*
X20529963Y-20715533D01*
X20538540Y-20705351D01*
X20600841Y-20643353D01*
X20611059Y-20634830D01*
X20613681Y-20632108D01*
X20613685Y-20632107D01*
X20648910Y-20595551D01*
X20650550Y-20593885D01*
X20686507Y-20558105D01*
X20686507Y-20558103D01*
X20689180Y-20555444D01*
X20697539Y-20545088D01*
X20758518Y-20481809D01*
X20768560Y-20473071D01*
X20771124Y-20470295D01*
X20771126Y-20470295D01*
X20805519Y-20433073D01*
X20807285Y-20431203D01*
X20809943Y-20428445D01*
X20842383Y-20394783D01*
X20842383Y-20394781D01*
X20845006Y-20392060D01*
X20853147Y-20381530D01*
X20912761Y-20317017D01*
X20922622Y-20308066D01*
X20925128Y-20305236D01*
X20925130Y-20305236D01*
X20958726Y-20267314D01*
X20960404Y-20265459D01*
X20994789Y-20228249D01*
X20994789Y-20228248D01*
X20997351Y-20225476D01*
X21005272Y-20214775D01*
X21063515Y-20149033D01*
X21073179Y-20139886D01*
X21075626Y-20137003D01*
X21075628Y-20137003D01*
X21108428Y-20098379D01*
X21110038Y-20096522D01*
X21143660Y-20058574D01*
X21143661Y-20058570D01*
X21146162Y-20055748D01*
X21153852Y-20044893D01*
X21210706Y-19977946D01*
X21220176Y-19968597D01*
X21222555Y-19965672D01*
X21222559Y-19965671D01*
X21254549Y-19926360D01*
X21256151Y-19924434D01*
X21288932Y-19885836D01*
X21288932Y-19885832D01*
X21291372Y-19882961D01*
X21298835Y-19871943D01*
X21354265Y-19803832D01*
X21363530Y-19794295D01*
X21366437Y-19790566D01*
X21396967Y-19751402D01*
X21398562Y-19749401D01*
X21414378Y-19729967D01*
X21430541Y-19710107D01*
X21430541Y-19710105D01*
X21432928Y-19707173D01*
X21440156Y-19696002D01*
X21494116Y-19626787D01*
X21503187Y-19617050D01*
X21505450Y-19614017D01*
X21505453Y-19614016D01*
X21535731Y-19573451D01*
X21537299Y-19571397D01*
X21544721Y-19561877D01*
X21568425Y-19531472D01*
X21568425Y-19531469D01*
X21570746Y-19528493D01*
X21577747Y-19517164D01*
X21585855Y-19506302D01*
X21630231Y-19446851D01*
X21639101Y-19436919D01*
X21642051Y-19432790D01*
X21670734Y-19392635D01*
X21672224Y-19390593D01*
X21702526Y-19350000D01*
X21702526Y-19349999D01*
X21704790Y-19346967D01*
X21711548Y-19335499D01*
X21762535Y-19264121D01*
X21771193Y-19254009D01*
X21773444Y-19250715D01*
X21801864Y-19209111D01*
X21803328Y-19207015D01*
X21832785Y-19165781D01*
X21832785Y-19165778D01*
X21834981Y-19162705D01*
X21841497Y-19151098D01*
X21890971Y-19078679D01*
X21899412Y-19068391D01*
X21901477Y-19065226D01*
X21901479Y-19065226D01*
X21929137Y-19022859D01*
X21930573Y-19020711D01*
X21946885Y-18996834D01*
X21959145Y-18978889D01*
X21959145Y-18978886D01*
X21961272Y-18975774D01*
X21967545Y-18964031D01*
X22015483Y-18890603D01*
X22023709Y-18880139D01*
X22025705Y-18876935D01*
X22025707Y-18876935D01*
X22052507Y-18833941D01*
X22053827Y-18831872D01*
X22081552Y-18789409D01*
X22081552Y-18789406D01*
X22083616Y-18786246D01*
X22089643Y-18774371D01*
X22136014Y-18699987D01*
X22144020Y-18689353D01*
X22152197Y-18675603D01*
X22171843Y-18642565D01*
X22173169Y-18640389D01*
X22192153Y-18609937D01*
X22199953Y-18597425D01*
X22199953Y-18597423D01*
X22201951Y-18594219D01*
X22207724Y-18582228D01*
X22252527Y-18506888D01*
X22260297Y-18496104D01*
X22262161Y-18492813D01*
X22262165Y-18492811D01*
X22287151Y-18448716D01*
X22288431Y-18446513D01*
X22295177Y-18435171D01*
X22314296Y-18403022D01*
X22314296Y-18403021D01*
X22316230Y-18399770D01*
X22321749Y-18387663D01*
X22364952Y-18311426D01*
X22372502Y-18300469D01*
X22375799Y-18294356D01*
X22398341Y-18252558D01*
X22399521Y-18250422D01*
X22424533Y-18206287D01*
X22424533Y-18206284D01*
X22426398Y-18202994D01*
X22431664Y-18190770D01*
X22473246Y-18113671D01*
X22480567Y-18102556D01*
X22490581Y-18083021D01*
X22505403Y-18054104D01*
X22506555Y-18051911D01*
X22530615Y-18007302D01*
X22530615Y-18007298D01*
X22532410Y-18003971D01*
X22537415Y-17991651D01*
X22577371Y-17913702D01*
X22584454Y-17902443D01*
X22586107Y-17899043D01*
X22586109Y-17899042D01*
X22608274Y-17853471D01*
X22609390Y-17851238D01*
X22632498Y-17806160D01*
X22632498Y-17806158D01*
X22634216Y-17802807D01*
X22638968Y-17790368D01*
X22677274Y-17711617D01*
X22684118Y-17700215D01*
X22685700Y-17696780D01*
X22685702Y-17696779D01*
X22706930Y-17650707D01*
X22707997Y-17648456D01*
X22713246Y-17637665D01*
X22730136Y-17602943D01*
X22730136Y-17602941D01*
X22731788Y-17599545D01*
X22736272Y-17587027D01*
X22772913Y-17507506D01*
X22779522Y-17495954D01*
X22786321Y-17480348D01*
X22801263Y-17446044D01*
X22802293Y-17443746D01*
X22823488Y-17397749D01*
X22823488Y-17397745D01*
X22825071Y-17394310D01*
X22829294Y-17381695D01*
X22864247Y-17301460D01*
X22870611Y-17289772D01*
X22872046Y-17286278D01*
X22872048Y-17286277D01*
X22891316Y-17239384D01*
X22892249Y-17237179D01*
X22912514Y-17190663D01*
X22912514Y-17190660D01*
X22914022Y-17187199D01*
X22917981Y-17174496D01*
X22951238Y-17093563D01*
X22957363Y-17081731D01*
X22976983Y-17030984D01*
X22977924Y-17028620D01*
X22997175Y-16981778D01*
X22997174Y-16981775D01*
X22998609Y-16978286D01*
X23002302Y-16965501D01*
X23033853Y-16883900D01*
X23039716Y-16871968D01*
X23041006Y-16868410D01*
X23041009Y-16868408D01*
X23058279Y-16820798D01*
X23059169Y-16818426D01*
X23072341Y-16784358D01*
X23077436Y-16771182D01*
X23077435Y-16771179D01*
X23078798Y-16767657D01*
X23082222Y-16754795D01*
X23112046Y-16672583D01*
X23117664Y-16660519D01*
X23118876Y-16656943D01*
X23118879Y-16656941D01*
X23135161Y-16608943D01*
X23135989Y-16606587D01*
X23154548Y-16555427D01*
X23157706Y-16542487D01*
X23159039Y-16538559D01*
X23185793Y-16459692D01*
X23191157Y-16447511D01*
X23192294Y-16443911D01*
X23192296Y-16443910D01*
X23207580Y-16395547D01*
X23208359Y-16393174D01*
X23209111Y-16390958D01*
X23224619Y-16345244D01*
X23224618Y-16345242D01*
X23225832Y-16341667D01*
X23228714Y-16328676D01*
X23255059Y-16245319D01*
X23260164Y-16233036D01*
X23261227Y-16229409D01*
X23261230Y-16229406D01*
X23275484Y-16180781D01*
X23276186Y-16178477D01*
X23291480Y-16130088D01*
X23291479Y-16130086D01*
X23292618Y-16126486D01*
X23295229Y-16113425D01*
X23319810Y-16029578D01*
X23324663Y-16017177D01*
X23325651Y-16013526D01*
X23338894Y-15964575D01*
X23339546Y-15962258D01*
X23353813Y-15913595D01*
X23353812Y-15913590D01*
X23354878Y-15909956D01*
X23357212Y-15896866D01*
X23380030Y-15812526D01*
X23384617Y-15800036D01*
X23385526Y-15796369D01*
X23385529Y-15796367D01*
X23397730Y-15747201D01*
X23398352Y-15744805D01*
X23411593Y-15695867D01*
X23411592Y-15695864D01*
X23412579Y-15692219D01*
X23414641Y-15679068D01*
X23435683Y-15594290D01*
X23440009Y-15581704D01*
X23443967Y-15564195D01*
X23452004Y-15528639D01*
X23452600Y-15526129D01*
X23452800Y-15525326D01*
X23464795Y-15476998D01*
X23464794Y-15476997D01*
X23465704Y-15473335D01*
X23467490Y-15460142D01*
X23486747Y-15374960D01*
X23490810Y-15362281D01*
X23495441Y-15339600D01*
X23501697Y-15308952D01*
X23502227Y-15306486D01*
X23513397Y-15257081D01*
X23513396Y-15257078D01*
X23514231Y-15253388D01*
X23515740Y-15240167D01*
X23521004Y-15214387D01*
X23533204Y-15154627D01*
X23537001Y-15141866D01*
X23543608Y-15105644D01*
X23546769Y-15088312D01*
X23547234Y-15085903D01*
X23557380Y-15036216D01*
X23557379Y-15036213D01*
X23558135Y-15032514D01*
X23559368Y-15019253D01*
X23559776Y-15017020D01*
X23575032Y-14933390D01*
X23578558Y-14920565D01*
X23579159Y-14916827D01*
X23579160Y-14916826D01*
X23587212Y-14866765D01*
X23587622Y-14864376D01*
X23596723Y-14814499D01*
X23596722Y-14814498D01*
X23597400Y-14810788D01*
X23598354Y-14797509D01*
X23612214Y-14711348D01*
X23615472Y-14698443D01*
X23615993Y-14694700D01*
X23615995Y-14694699D01*
X23622989Y-14644541D01*
X23623360Y-14642068D01*
X23631411Y-14592026D01*
X23631410Y-14592023D01*
X23632011Y-14588291D01*
X23632687Y-14574993D01*
X23635818Y-14552539D01*
X23644736Y-14488588D01*
X23647721Y-14475627D01*
X23648164Y-14471873D01*
X23648166Y-14471871D01*
X23654118Y-14421494D01*
X23654421Y-14419140D01*
X23661428Y-14368897D01*
X23661427Y-14368893D01*
X23661950Y-14365143D01*
X23662346Y-14351855D01*
X23672583Y-14265227D01*
X23675297Y-14252197D01*
X23675661Y-14248439D01*
X23675662Y-14248438D01*
X23680548Y-14198042D01*
X23680817Y-14195540D01*
X23686765Y-14145211D01*
X23686764Y-14145210D01*
X23687208Y-14141460D01*
X23687327Y-14128139D01*
X23691086Y-14089380D01*
X23695743Y-14041353D01*
X23698184Y-14028267D01*
X23698469Y-14024501D01*
X23698471Y-14024499D01*
X23702306Y-13973940D01*
X23702518Y-13971493D01*
X23707409Y-13921061D01*
X23707408Y-13921060D01*
X23707774Y-13917297D01*
X23707613Y-13903989D01*
X23714209Y-13817048D01*
X23716376Y-13803915D01*
X23716582Y-13800152D01*
X23716583Y-13800151D01*
X23719355Y-13749579D01*
X23719522Y-13747019D01*
X23723638Y-13692778D01*
X23723199Y-13679477D01*
X23723462Y-13674676D01*
X23727971Y-13592445D01*
X23729861Y-13579279D01*
X23731687Y-13525323D01*
X23731701Y-13524915D01*
X23731816Y-13522326D01*
X23731942Y-13520024D01*
X23734588Y-13471774D01*
X23734587Y-13471771D01*
X23734794Y-13468000D01*
X23734077Y-13454702D01*
X23737026Y-13367617D01*
X23738640Y-13354404D01*
X23738688Y-13350634D01*
X23738690Y-13350631D01*
X23739342Y-13299938D01*
X23739403Y-13297378D01*
X23739503Y-13294436D01*
X23741115Y-13246836D01*
X23741114Y-13246834D01*
X23741242Y-13243065D01*
X23740247Y-13229795D01*
X23741370Y-13142671D01*
X23742707Y-13129443D01*
X23742676Y-13125654D01*
X23742677Y-13125653D01*
X23742269Y-13075028D01*
X23742274Y-13072541D01*
X23742929Y-13021829D01*
X23742928Y-13021827D01*
X23742977Y-13018050D01*
X23741703Y-13004792D01*
X23741673Y-13001081D01*
X23741002Y-12917700D01*
X23742062Y-12904436D01*
X23741952Y-12900662D01*
X23741953Y-12900661D01*
X23740483Y-12850021D01*
X23740436Y-12847463D01*
X23740030Y-12796856D01*
X23740029Y-12796854D01*
X23739999Y-12793086D01*
X23738449Y-12779863D01*
X23735924Y-12692814D01*
X23736705Y-12679520D01*
X23735475Y-12654923D01*
X23733985Y-12625127D01*
X23733888Y-12622685D01*
X23732420Y-12572012D01*
X23732419Y-12572010D01*
X23732310Y-12568239D01*
X23730483Y-12555057D01*
X23726137Y-12468102D01*
X23726640Y-12454803D01*
X23726372Y-12451035D01*
X23726373Y-12451034D01*
X23722786Y-12400521D01*
X23722637Y-12398083D01*
X23720105Y-12347399D01*
X23720104Y-12347397D01*
X23719916Y-12343625D01*
X23717812Y-12330474D01*
X23717446Y-12325323D01*
X23711649Y-12243662D01*
X23711873Y-12230358D01*
X23711526Y-12226595D01*
X23711527Y-12226594D01*
X23706880Y-12176147D01*
X23706681Y-12173708D01*
X23703090Y-12123114D01*
X23703088Y-12123111D01*
X23702822Y-12119353D01*
X23700444Y-12106245D01*
X23698911Y-12089604D01*
X23694027Y-12036565D01*
X23692466Y-12019615D01*
X23692411Y-12006291D01*
X23690864Y-11992633D01*
X23686281Y-11952167D01*
X23686033Y-11949756D01*
X23681383Y-11899255D01*
X23681381Y-11899251D01*
X23681035Y-11895491D01*
X23678383Y-11882437D01*
X23677829Y-11877549D01*
X23668595Y-11796014D01*
X23668262Y-11782702D01*
X23667758Y-11778959D01*
X23667759Y-11778958D01*
X23661006Y-11728760D01*
X23660687Y-11726181D01*
X23654570Y-11672171D01*
X23651646Y-11659180D01*
X23647491Y-11628292D01*
X23640050Y-11572985D01*
X23639439Y-11559695D01*
X23638856Y-11555957D01*
X23638857Y-11555955D01*
X23631046Y-11505860D01*
X23630697Y-11503448D01*
X23623939Y-11453209D01*
X23623938Y-11453207D01*
X23623435Y-11449467D01*
X23620238Y-11436535D01*
X23588228Y-11231216D01*
X23549837Y-11168229D01*
X23531187Y-11137629D01*
X23531186Y-11137628D01*
X23531185Y-11137627D01*
X23442676Y-11072994D01*
X23442674Y-11072993D01*
X23336164Y-11047150D01*
X23336162Y-11047150D01*
X23324296Y-11044271D01*
X23325210Y-11040502D01*
X23279815Y-11025072D01*
X23236321Y-10970390D01*
X23230108Y-10950449D01*
X23219425Y-10902137D01*
X23218935Y-10899804D01*
X23209025Y-10850070D01*
X23209023Y-10850068D01*
X23208285Y-10846360D01*
X23204283Y-10833664D01*
X23203366Y-10829519D01*
X23190939Y-10773317D01*
X23195685Y-10703609D01*
X23237365Y-10647533D01*
X23284118Y-10625723D01*
X24667491Y-10306347D01*
X24737239Y-10310447D01*
G37*
%TD.AperFunction*%
%TA.AperFunction,Conductor*%
G36*
X1696947Y-8004929D02*
G01*
X1734685Y-8041205D01*
X1800180Y-8138498D01*
X1800181Y-8138499D01*
X1800182Y-8138500D01*
X1855499Y-8182171D01*
X1858851Y-8184817D01*
X1858853Y-8184818D01*
X2648849Y-8640922D01*
X2648862Y-8640928D01*
X2718291Y-8668571D01*
X2718294Y-8668572D01*
X2805511Y-8674590D01*
X2871035Y-8698843D01*
X2913047Y-8754671D01*
X2918206Y-8824350D01*
X2911663Y-8845438D01*
X2909690Y-8850238D01*
X2903572Y-8862057D01*
X2883951Y-8912790D01*
X2882991Y-8915195D01*
X2862317Y-8965501D01*
X2858620Y-8978291D01*
X2825932Y-9062817D01*
X2820064Y-9074759D01*
X2801512Y-9125885D01*
X2800604Y-9128309D01*
X2780983Y-9179046D01*
X2777555Y-9191913D01*
X2746651Y-9277086D01*
X2741029Y-9289161D01*
X2723544Y-9340690D01*
X2722686Y-9343134D01*
X2704146Y-9394232D01*
X2700989Y-9407164D01*
X2671880Y-9492951D01*
X2666515Y-9505137D01*
X2650131Y-9556963D01*
X2649324Y-9559426D01*
X2631838Y-9610962D01*
X2628952Y-9623959D01*
X2601658Y-9710303D01*
X2596547Y-9722601D01*
X2581243Y-9774791D01*
X2580489Y-9777267D01*
X2564093Y-9829140D01*
X2561481Y-9842190D01*
X2536004Y-9929073D01*
X2531155Y-9941469D01*
X2516943Y-9993981D01*
X2516239Y-9996475D01*
X2500939Y-10048654D01*
X2498597Y-10061772D01*
X2479378Y-10132796D01*
X2474955Y-10149139D01*
X2470362Y-10161646D01*
X2457260Y-10214416D01*
X2456609Y-10216924D01*
X2442399Y-10269436D01*
X2440334Y-10282596D01*
X2418529Y-10370423D01*
X2414198Y-10383026D01*
X2402197Y-10436093D01*
X2401599Y-10438615D01*
X2388500Y-10491377D01*
X2386713Y-10504567D01*
X2366754Y-10592826D01*
X2362693Y-10605505D01*
X2351813Y-10658772D01*
X2351269Y-10661303D01*
X2339269Y-10714374D01*
X2337757Y-10727602D01*
X2319658Y-10816225D01*
X2315862Y-10828986D01*
X2306099Y-10882481D01*
X2305607Y-10885027D01*
X2294721Y-10938333D01*
X2293487Y-10951589D01*
X2277251Y-11040552D01*
X2273721Y-11053398D01*
X2265074Y-11107125D01*
X2264635Y-11109681D01*
X2254878Y-11163143D01*
X2253922Y-11176425D01*
X2239555Y-11265693D01*
X2236296Y-11278609D01*
X2228783Y-11332460D01*
X2228398Y-11335027D01*
X2219755Y-11388731D01*
X2219077Y-11402029D01*
X2216239Y-11422371D01*
X2206587Y-11491549D01*
X2203597Y-11504537D01*
X2197214Y-11558526D01*
X2196883Y-11561097D01*
X2189365Y-11614985D01*
X2188967Y-11628292D01*
X2178358Y-11718030D01*
X2175641Y-11731076D01*
X2170391Y-11785180D01*
X2170114Y-11787759D01*
X2163725Y-11841802D01*
X2163605Y-11855112D01*
X2154878Y-11945038D01*
X2152436Y-11958132D01*
X2148317Y-12012379D01*
X2148093Y-12014963D01*
X2142842Y-12069079D01*
X2143000Y-12082398D01*
X2136161Y-12172466D01*
X2133994Y-12185613D01*
X2131011Y-12239921D01*
X2130842Y-12242506D01*
X2126725Y-12296735D01*
X2127162Y-12310034D01*
X2122210Y-12400220D01*
X2120322Y-12413382D01*
X2118742Y-12459952D01*
X2096795Y-12526286D01*
X2042469Y-12570223D01*
X2026911Y-12575521D01*
X2009446Y-12580201D01*
X1906720Y-12639511D01*
X1906717Y-12639513D01*
X1822846Y-12723384D01*
X1822844Y-12723387D01*
X1785075Y-12788805D01*
X1763534Y-12826114D01*
X1732833Y-12940691D01*
X1732833Y-13059309D01*
X1763534Y-13173886D01*
X1822844Y-13276613D01*
X1906720Y-13360489D01*
X1984440Y-13405361D01*
X2009443Y-13419797D01*
X2009447Y-13419799D01*
X2032309Y-13425924D01*
X2091968Y-13462288D01*
X2122498Y-13525135D01*
X2124061Y-13539523D01*
X2124098Y-13540265D01*
X2123596Y-13553564D01*
X2127442Y-13607787D01*
X2127599Y-13610375D01*
X2130313Y-13664732D01*
X2132414Y-13677873D01*
X2138794Y-13767825D01*
X2138570Y-13781151D01*
X2143554Y-13835300D01*
X2143765Y-13837888D01*
X2147613Y-13892138D01*
X2149990Y-13905241D01*
X2158253Y-13995025D01*
X2158308Y-14008343D01*
X2164422Y-14062358D01*
X2164687Y-14064939D01*
X2169673Y-14119120D01*
X2172322Y-14132164D01*
X2182461Y-14221738D01*
X2182795Y-14235049D01*
X2190037Y-14288912D01*
X2190356Y-14291488D01*
X2196477Y-14345569D01*
X2199402Y-14358565D01*
X2211411Y-14447880D01*
X2212023Y-14461173D01*
X2220395Y-14514899D01*
X2220767Y-14517464D01*
X2228019Y-14571394D01*
X2231213Y-14584317D01*
X2245085Y-14673332D01*
X2245977Y-14686632D01*
X2255482Y-14740227D01*
X2255908Y-14742784D01*
X2264277Y-14796484D01*
X2267740Y-14809333D01*
X2283471Y-14898021D01*
X2284640Y-14911287D01*
X2295256Y-14964620D01*
X2295736Y-14967170D01*
X2305238Y-15020741D01*
X2308971Y-15033519D01*
X2326549Y-15121830D01*
X2327996Y-15135076D01*
X2339725Y-15188162D01*
X2340259Y-15190706D01*
X2350879Y-15244063D01*
X2354881Y-15256769D01*
X2374304Y-15344683D01*
X2376027Y-15357884D01*
X2388868Y-15410729D01*
X2389443Y-15413207D01*
X2393286Y-15430600D01*
X2401188Y-15466372D01*
X2405453Y-15478982D01*
X2426707Y-15566447D01*
X2428707Y-15579619D01*
X2442658Y-15632208D01*
X2443297Y-15634722D01*
X2456135Y-15687554D01*
X2460662Y-15700072D01*
X2483739Y-15787059D01*
X2486014Y-15800180D01*
X2501060Y-15852451D01*
X2501752Y-15854955D01*
X2515694Y-15907511D01*
X2520485Y-15919936D01*
X2545372Y-16006397D01*
X2547920Y-16019465D01*
X2564057Y-16071412D01*
X2564800Y-16073893D01*
X2579848Y-16126166D01*
X2584891Y-16138471D01*
X2611582Y-16224389D01*
X2614403Y-16237398D01*
X2631621Y-16288982D01*
X2632394Y-16291382D01*
X2647434Y-16339793D01*
X2647435Y-16339794D01*
X2648555Y-16343399D01*
X2653860Y-16355611D01*
X2682329Y-16440906D01*
X2685426Y-16453869D01*
X2703722Y-16505085D01*
X2704570Y-16507539D01*
X2721789Y-16559128D01*
X2727348Y-16571223D01*
X2739981Y-16606587D01*
X2757108Y-16654532D01*
X2757595Y-16655893D01*
X2760962Y-16668786D01*
X2780332Y-16719624D01*
X2781231Y-16722058D01*
X2799520Y-16773256D01*
X2805330Y-16785230D01*
X2837335Y-16869225D01*
X2840968Y-16882035D01*
X2861387Y-16932428D01*
X2862336Y-16934841D01*
X2878890Y-16978286D01*
X2881713Y-16985693D01*
X2887773Y-16997543D01*
X2921520Y-17080827D01*
X2925422Y-17093562D01*
X2926909Y-17097024D01*
X2926910Y-17097025D01*
X2934011Y-17113547D01*
X2946911Y-17143561D01*
X2947910Y-17145955D01*
X2966026Y-17190663D01*
X2968327Y-17196340D01*
X2974633Y-17208059D01*
X3010110Y-17290603D01*
X3014280Y-17303258D01*
X3036792Y-17352753D01*
X3037841Y-17355124D01*
X3059324Y-17405105D01*
X3065873Y-17416688D01*
X3103066Y-17498458D01*
X3107494Y-17511007D01*
X3109127Y-17514408D01*
X3109128Y-17514409D01*
X3114107Y-17524775D01*
X3131023Y-17559989D01*
X3132093Y-17562277D01*
X3149045Y-17599545D01*
X3154666Y-17611903D01*
X3161461Y-17623354D01*
X3200339Y-17704289D01*
X3205035Y-17716759D01*
X3229606Y-17765276D01*
X3230756Y-17767607D01*
X3254309Y-17816639D01*
X3261341Y-17827942D01*
X3301898Y-17908029D01*
X3306850Y-17920391D01*
X3332436Y-17968393D01*
X3333633Y-17970696D01*
X3358210Y-18019226D01*
X3365472Y-18030372D01*
X3407692Y-18109582D01*
X3412904Y-18121840D01*
X3414746Y-18125128D01*
X3439497Y-18169310D01*
X3440719Y-18171546D01*
X3466317Y-18219569D01*
X3473813Y-18230564D01*
X3517676Y-18308862D01*
X3523137Y-18320991D01*
X3525050Y-18324245D01*
X3525051Y-18324248D01*
X3550713Y-18367887D01*
X3551977Y-18370090D01*
X3578583Y-18417582D01*
X3586313Y-18428425D01*
X3631789Y-18505756D01*
X3637512Y-18517790D01*
X3666089Y-18564138D01*
X3667427Y-18566360D01*
X3694966Y-18613190D01*
X3702914Y-18623860D01*
X3749999Y-18700219D01*
X3755970Y-18712124D01*
X3785464Y-18757788D01*
X3786849Y-18759981D01*
X3813429Y-18803087D01*
X3813430Y-18803087D01*
X3815411Y-18806300D01*
X3823579Y-18816799D01*
X3870087Y-18888804D01*
X3872242Y-18892140D01*
X3878457Y-18903910D01*
X3880569Y-18907035D01*
X3880570Y-18907036D01*
X3888129Y-18918219D01*
X3908910Y-18948960D01*
X3910341Y-18951126D01*
X3939863Y-18996834D01*
X3948255Y-19007164D01*
X3990865Y-19070199D01*
X3998463Y-19081438D01*
X4004929Y-19093086D01*
X4036333Y-19137508D01*
X4037811Y-19139646D01*
X4068258Y-19184688D01*
X4076867Y-19194844D01*
X4128615Y-19268043D01*
X4135320Y-19279548D01*
X4167634Y-19323284D01*
X4169154Y-19325387D01*
X4200559Y-19369809D01*
X4209373Y-19379777D01*
X4262623Y-19451850D01*
X4269566Y-19463209D01*
X4302822Y-19506302D01*
X4304347Y-19508321D01*
X4334441Y-19549052D01*
X4336692Y-19552098D01*
X4345708Y-19561872D01*
X4358914Y-19578985D01*
X4400448Y-19632805D01*
X4407625Y-19644012D01*
X4409993Y-19646951D01*
X4409994Y-19646953D01*
X4441772Y-19686393D01*
X4443345Y-19688389D01*
X4447405Y-19693651D01*
X4476584Y-19731462D01*
X4485822Y-19741067D01*
X4542018Y-19810815D01*
X4549424Y-19821864D01*
X4551855Y-19824756D01*
X4551856Y-19824757D01*
X4584433Y-19863501D01*
X4586075Y-19865496D01*
X4614539Y-19900824D01*
X4620211Y-19907864D01*
X4629635Y-19917260D01*
X4687263Y-19985796D01*
X4694908Y-19996702D01*
X4730774Y-20037587D01*
X4732466Y-20039557D01*
X4767479Y-20081197D01*
X4777098Y-20090394D01*
X4836141Y-20157700D01*
X4844007Y-20168432D01*
X4846552Y-20171214D01*
X4846553Y-20171215D01*
X4878443Y-20206068D01*
X4880730Y-20208567D01*
X4882462Y-20210501D01*
X4918323Y-20251381D01*
X4928138Y-20260380D01*
X4988556Y-20326410D01*
X4996651Y-20336984D01*
X4999256Y-20339714D01*
X4999257Y-20339716D01*
X5034248Y-20376385D01*
X5035964Y-20378222D01*
X5069904Y-20415315D01*
X5072696Y-20418366D01*
X5082692Y-20427152D01*
X5127985Y-20474618D01*
X5144467Y-20491890D01*
X5152789Y-20502300D01*
X5155442Y-20504966D01*
X5155443Y-20504968D01*
X5191199Y-20540901D01*
X5192963Y-20542711D01*
X5227576Y-20578984D01*
X5230510Y-20582059D01*
X5240687Y-20590634D01*
X5303792Y-20654051D01*
X5312317Y-20664271D01*
X5315040Y-20666895D01*
X5351516Y-20702047D01*
X5353310Y-20703813D01*
X5389041Y-20739721D01*
X5389042Y-20739721D01*
X5391703Y-20742395D01*
X5402054Y-20750752D01*
X5466463Y-20812823D01*
X5475211Y-20822874D01*
X5477978Y-20825431D01*
X5477979Y-20825432D01*
X5515171Y-20859801D01*
X5516997Y-20861524D01*
X5530793Y-20874819D01*
X5556207Y-20899312D01*
X5566739Y-20907456D01*
X5581312Y-20920923D01*
X5632409Y-20968141D01*
X5641363Y-20978005D01*
X5682106Y-21014103D01*
X5684032Y-21015846D01*
X5705139Y-21035352D01*
X5723950Y-21052735D01*
X5734639Y-21060649D01*
X5736507Y-21062304D01*
X5787791Y-21107743D01*
X5801561Y-21119943D01*
X5810721Y-21129616D01*
X5813588Y-21132051D01*
X5813589Y-21132052D01*
X5843213Y-21157212D01*
X5852167Y-21164816D01*
X5854130Y-21166519D01*
X5894844Y-21202593D01*
X5905708Y-21210289D01*
X5973830Y-21268145D01*
X5983182Y-21277618D01*
X5992350Y-21285079D01*
X6025368Y-21311952D01*
X6027312Y-21313568D01*
X6032037Y-21317581D01*
X6068822Y-21348823D01*
X6079846Y-21356290D01*
X6149152Y-21412697D01*
X6158714Y-21421983D01*
X6201625Y-21455439D01*
X6203621Y-21457028D01*
X6242888Y-21488987D01*
X6245820Y-21491373D01*
X6256993Y-21498604D01*
X6327451Y-21553536D01*
X6337192Y-21562609D01*
X6340217Y-21564867D01*
X6380777Y-21595145D01*
X6382816Y-21596701D01*
X6425736Y-21630163D01*
X6437057Y-21637158D01*
X6508639Y-21690593D01*
X6518567Y-21699459D01*
X6521639Y-21701653D01*
X6521640Y-21701655D01*
X6544389Y-21717907D01*
X6562845Y-21731092D01*
X6564894Y-21732588D01*
X6604837Y-21762405D01*
X6608514Y-21765150D01*
X6619980Y-21771907D01*
X6692641Y-21823816D01*
X6702762Y-21832480D01*
X6747691Y-21863176D01*
X6749819Y-21864663D01*
X6794050Y-21896261D01*
X6805664Y-21902783D01*
X6879372Y-21953140D01*
X6889663Y-21961583D01*
X6892827Y-21963649D01*
X6892829Y-21963651D01*
X6924474Y-21984312D01*
X6935213Y-21991324D01*
X6937359Y-21992757D01*
X6957459Y-22006490D01*
X6982282Y-22023449D01*
X6994023Y-22029722D01*
X7068759Y-22078519D01*
X7079230Y-22086748D01*
X7082429Y-22088742D01*
X7082430Y-22088743D01*
X7125438Y-22115556D01*
X7127542Y-22116899D01*
X7146725Y-22129424D01*
X7173118Y-22146657D01*
X7184995Y-22152686D01*
X7260705Y-22199887D01*
X7271345Y-22207894D01*
X7274590Y-22209824D01*
X7274592Y-22209826D01*
X7318099Y-22235701D01*
X7320295Y-22237039D01*
X7326012Y-22240603D01*
X7363267Y-22263829D01*
X7366466Y-22265823D01*
X7378456Y-22271597D01*
X7455146Y-22317207D01*
X7465953Y-22324991D01*
X7469228Y-22326847D01*
X7469230Y-22326849D01*
X7507376Y-22348467D01*
X7513284Y-22351815D01*
X7515530Y-22353119D01*
X7559015Y-22378981D01*
X7559016Y-22378981D01*
X7562270Y-22380916D01*
X7574371Y-22386434D01*
X7651974Y-22430413D01*
X7662934Y-22437964D01*
X7666256Y-22439756D01*
X7666259Y-22439759D01*
X7710856Y-22463812D01*
X7713042Y-22465021D01*
X7757116Y-22490000D01*
X7757117Y-22490000D01*
X7760408Y-22491865D01*
X7772631Y-22497131D01*
X7851108Y-22539460D01*
X7862223Y-22546780D01*
X7910624Y-22571592D01*
X7912842Y-22572757D01*
X7957480Y-22596834D01*
X7957481Y-22596834D01*
X7960811Y-22598630D01*
X7973139Y-22603638D01*
X8052474Y-22644309D01*
X8063741Y-22651395D01*
X8067133Y-22653045D01*
X8067135Y-22653047D01*
X8112769Y-22675246D01*
X8114906Y-22676313D01*
X8160017Y-22699439D01*
X8160019Y-22699439D01*
X8163380Y-22701162D01*
X8175807Y-22705912D01*
X8255960Y-22744902D01*
X8267376Y-22751753D01*
X8271478Y-22753643D01*
X8316789Y-22774522D01*
X8319120Y-22775627D01*
X8368037Y-22799424D01*
X8380572Y-22803915D01*
X8461496Y-22841206D01*
X8473057Y-22847818D01*
X8522953Y-22869556D01*
X8525296Y-22870606D01*
X8571259Y-22891787D01*
X8574684Y-22893365D01*
X8587312Y-22897595D01*
X8668983Y-22933176D01*
X8680681Y-22939544D01*
X8684168Y-22940977D01*
X8684169Y-22940978D01*
X8731007Y-22960226D01*
X8733358Y-22961221D01*
X8779782Y-22981447D01*
X8783246Y-22982956D01*
X8795945Y-22986914D01*
X8878334Y-23020773D01*
X8890161Y-23026895D01*
X8940840Y-23046491D01*
X8943254Y-23047453D01*
X8990117Y-23066713D01*
X8990117Y-23066712D01*
X8993612Y-23068149D01*
X9006404Y-23071844D01*
X9020892Y-23077446D01*
X9089456Y-23103959D01*
X9101401Y-23109827D01*
X9104949Y-23111114D01*
X9104951Y-23111116D01*
X9152636Y-23128416D01*
X9154877Y-23129256D01*
X9202176Y-23147546D01*
X9202178Y-23147545D01*
X9205704Y-23148909D01*
X9218556Y-23152333D01*
X9302245Y-23182696D01*
X9314312Y-23188314D01*
X9317890Y-23189528D01*
X9317893Y-23189530D01*
X9365867Y-23205805D01*
X9368218Y-23206631D01*
X9415855Y-23223915D01*
X9415855Y-23223914D01*
X9419403Y-23225202D01*
X9432337Y-23228357D01*
X9516626Y-23256954D01*
X9528800Y-23262315D01*
X9532406Y-23263454D01*
X9532410Y-23263458D01*
X9580788Y-23278749D01*
X9583014Y-23279479D01*
X9631073Y-23295784D01*
X9631075Y-23295783D01*
X9634663Y-23297001D01*
X9647653Y-23299884D01*
X9732487Y-23326699D01*
X9744790Y-23331811D01*
X9796956Y-23347105D01*
X9799429Y-23347857D01*
X9847726Y-23363124D01*
X9847727Y-23363123D01*
X9851328Y-23364262D01*
X9864384Y-23366875D01*
X9915816Y-23381954D01*
X9949741Y-23391900D01*
X9962148Y-23396754D01*
X9965790Y-23397739D01*
X9965791Y-23397740D01*
X10014682Y-23410968D01*
X10017144Y-23411663D01*
X10069347Y-23426969D01*
X10082455Y-23429307D01*
X10136333Y-23443886D01*
X10168303Y-23452537D01*
X10180808Y-23457129D01*
X10233619Y-23470239D01*
X10236120Y-23470887D01*
X10284963Y-23484104D01*
X10288607Y-23485090D01*
X10301756Y-23487151D01*
X10388067Y-23508576D01*
X10400647Y-23512901D01*
X10453683Y-23524893D01*
X10456209Y-23525492D01*
X10460214Y-23526486D01*
X10505358Y-23537692D01*
X10505359Y-23537691D01*
X10509026Y-23538602D01*
X10522217Y-23540388D01*
X10608922Y-23559993D01*
X10621607Y-23564058D01*
X10625302Y-23564812D01*
X10625303Y-23564813D01*
X10674929Y-23574946D01*
X10677447Y-23575488D01*
X10726804Y-23586648D01*
X10726805Y-23586647D01*
X10730500Y-23587483D01*
X10743718Y-23588992D01*
X10767897Y-23593929D01*
X10830793Y-23606772D01*
X10843554Y-23610568D01*
X10847269Y-23611245D01*
X10847271Y-23611247D01*
X10897138Y-23620345D01*
X10899578Y-23620817D01*
X10949207Y-23630952D01*
X10952909Y-23631708D01*
X10966165Y-23632940D01*
X11053580Y-23648890D01*
X11066414Y-23652418D01*
X11070141Y-23653017D01*
X11070142Y-23653018D01*
X11120114Y-23661058D01*
X11122673Y-23661497D01*
X11172469Y-23670584D01*
X11172470Y-23670583D01*
X11176187Y-23671262D01*
X11189463Y-23672216D01*
X11277169Y-23686328D01*
X11290076Y-23689586D01*
X11293814Y-23690107D01*
X11293817Y-23690109D01*
X11344034Y-23697113D01*
X11346461Y-23697478D01*
X11396491Y-23705528D01*
X11396492Y-23705527D01*
X11400229Y-23706129D01*
X11413514Y-23706804D01*
X11499074Y-23718739D01*
X11501474Y-23719074D01*
X11514462Y-23722064D01*
X11530975Y-23724015D01*
X11568471Y-23728446D01*
X11571005Y-23728772D01*
X11607050Y-23733800D01*
X11670726Y-23762558D01*
X11708746Y-23821177D01*
X11709040Y-23891046D01*
X11677601Y-23944290D01*
X11666048Y-23955842D01*
X11610276Y-24069925D01*
X11610276Y-24069928D01*
X11599500Y-24143890D01*
X11599500Y-25056110D01*
X11610276Y-25130072D01*
X11610276Y-25130073D01*
X11610277Y-25130075D01*
X11661789Y-25235445D01*
X11673549Y-25304318D01*
X11646205Y-25368615D01*
X11588441Y-25407922D01*
X11536350Y-25413107D01*
X11525734Y-25411898D01*
X11477771Y-25406433D01*
X11475625Y-25406169D01*
X11261492Y-25377978D01*
X11259349Y-25377677D01*
X11045740Y-25345753D01*
X11043603Y-25345415D01*
X10830518Y-25309758D01*
X10828385Y-25309381D01*
X10616086Y-25270032D01*
X10613963Y-25269620D01*
X10402312Y-25226560D01*
X10400195Y-25226110D01*
X10189270Y-25179350D01*
X10187174Y-25178866D01*
X10150802Y-25170134D01*
X9977130Y-25128439D01*
X9975030Y-25127915D01*
X9912176Y-25111660D01*
X9852201Y-25075818D01*
X9822249Y-25018838D01*
X9804610Y-24940468D01*
X9804523Y-24940076D01*
X9790489Y-24876767D01*
X9790281Y-24876201D01*
X9790149Y-24875841D01*
X9789942Y-24875272D01*
X9759663Y-24817561D01*
X9729640Y-24759888D01*
X9729639Y-24759887D01*
X9729628Y-24759865D01*
X9729067Y-24759069D01*
X9728869Y-24758788D01*
X9728712Y-24758565D01*
X9728708Y-24758561D01*
X9728708Y-24758560D01*
X9684590Y-24710724D01*
X9667240Y-24691789D01*
X9640607Y-24662722D01*
X9640431Y-24662576D01*
X9640157Y-24662347D01*
X9639388Y-24661702D01*
X9639365Y-24661687D01*
X9639364Y-24661686D01*
X9584559Y-24627018D01*
X9584344Y-24626881D01*
X9529444Y-24591906D01*
X9528828Y-24591622D01*
X9528422Y-24591433D01*
X9528013Y-24591242D01*
X9523131Y-24589720D01*
X9465911Y-24571880D01*
X9465531Y-24571761D01*
X9262083Y-24507614D01*
X9260025Y-24506945D01*
X9061792Y-24440617D01*
X9059786Y-24439927D01*
X8862648Y-24370116D01*
X8860726Y-24369416D01*
X8826034Y-24356445D01*
X8664941Y-24296214D01*
X8663011Y-24295473D01*
X8468442Y-24218832D01*
X8466457Y-24218030D01*
X8273397Y-24138062D01*
X8271405Y-24137217D01*
X8116650Y-24069928D01*
X8079632Y-24053832D01*
X8077673Y-24052959D01*
X7887563Y-23966320D01*
X7885602Y-23965406D01*
X7696898Y-23875399D01*
X7694953Y-23874450D01*
X7584634Y-23819448D01*
X7507889Y-23781184D01*
X7506029Y-23780237D01*
X7320594Y-23683705D01*
X7318699Y-23682698D01*
X7299395Y-23672217D01*
X7134992Y-23582952D01*
X7133178Y-23581947D01*
X6951164Y-23478969D01*
X6949317Y-23477902D01*
X6855209Y-23422469D01*
X6769236Y-23371827D01*
X6767433Y-23370744D01*
X6589140Y-23261486D01*
X6587321Y-23260349D01*
X6554720Y-23239580D01*
X6474249Y-23188314D01*
X6411106Y-23148087D01*
X6409291Y-23146909D01*
X6234955Y-23031519D01*
X6233161Y-23030309D01*
X6060916Y-22911928D01*
X6059172Y-22910707D01*
X5888921Y-22789268D01*
X5887270Y-22788069D01*
X5875280Y-22779197D01*
X5719204Y-22663705D01*
X5717477Y-22662403D01*
X5702363Y-22650806D01*
X5551635Y-22535150D01*
X5549999Y-22533872D01*
X5455409Y-22458631D01*
X5386442Y-22403772D01*
X5384760Y-22402410D01*
X5223399Y-22269394D01*
X5221742Y-22268003D01*
X5062836Y-22132285D01*
X5061202Y-22130865D01*
X4904671Y-21992378D01*
X4903063Y-21990930D01*
X4745823Y-21846846D01*
X4745529Y-21846576D01*
X4697686Y-21802452D01*
X4697263Y-21802156D01*
X4696878Y-21801885D01*
X4696397Y-21801546D01*
X4638744Y-21771532D01*
X4638394Y-21771350D01*
X4636984Y-21770610D01*
X4581004Y-21741240D01*
X4581002Y-21741239D01*
X4580971Y-21741223D01*
X4580205Y-21740945D01*
X4579756Y-21740781D01*
X4579492Y-21740684D01*
X4515944Y-21726595D01*
X4515557Y-21726509D01*
X4452415Y-21712298D01*
X4451934Y-21712256D01*
X4451568Y-21712223D01*
X4450845Y-21712157D01*
X4386058Y-21714986D01*
X4385662Y-21715003D01*
X4339987Y-21716850D01*
X4320760Y-21717628D01*
X4320759Y-21717628D01*
X4320737Y-21717629D01*
X4320234Y-21717718D01*
X4319792Y-21717795D01*
X4319183Y-21717900D01*
X4257219Y-21737436D01*
X4256841Y-21737554D01*
X4180256Y-21761431D01*
X4110396Y-21762592D01*
X4054906Y-21729964D01*
X4044761Y-21719640D01*
X4009384Y-21683640D01*
X4007913Y-21682117D01*
X3965205Y-21637113D01*
X3859210Y-21525418D01*
X3857739Y-21523841D01*
X3711779Y-21364552D01*
X3710332Y-21362944D01*
X3567273Y-21201246D01*
X3565853Y-21199613D01*
X3425561Y-21035352D01*
X3424169Y-21033694D01*
X3286718Y-20866952D01*
X3285403Y-20865328D01*
X3150958Y-20696308D01*
X3149654Y-20694637D01*
X3018091Y-20523183D01*
X3016832Y-20521513D01*
X2888307Y-20347821D01*
X2887099Y-20346159D01*
X2790336Y-20210501D01*
X2761660Y-20170299D01*
X2760418Y-20168526D01*
X2638077Y-19990518D01*
X2636867Y-19988724D01*
X2517650Y-19808605D01*
X2516472Y-19806791D01*
X2400435Y-19624652D01*
X2399288Y-19622816D01*
X2393895Y-19614016D01*
X2286397Y-19438596D01*
X2285304Y-19436776D01*
X2175691Y-19250689D01*
X2174609Y-19248816D01*
X2068187Y-19060716D01*
X2067201Y-19058937D01*
X1964083Y-18869016D01*
X1963155Y-18867272D01*
X1863363Y-18675573D01*
X1862396Y-18673675D01*
X1853959Y-18656754D01*
X1766022Y-18480380D01*
X1765080Y-18478447D01*
X1749848Y-18446513D01*
X1672065Y-18283434D01*
X1671151Y-18281474D01*
X1581556Y-18084875D01*
X1580745Y-18083052D01*
X1494596Y-17884924D01*
X1493770Y-17882979D01*
X1485350Y-17862652D01*
X1411077Y-17683341D01*
X1410278Y-17681363D01*
X1409387Y-17679101D01*
X1331081Y-17480308D01*
X1330360Y-17478429D01*
X1254698Y-17276060D01*
X1253975Y-17274074D01*
X1181858Y-17070421D01*
X1181154Y-17068375D01*
X1136474Y-16934841D01*
X1112621Y-16863553D01*
X1111962Y-16861525D01*
X1098270Y-16818099D01*
X1047019Y-16655551D01*
X1046397Y-16653517D01*
X985018Y-16446307D01*
X984433Y-16444263D01*
X926703Y-16236094D01*
X926143Y-16234004D01*
X899939Y-16132682D01*
X872066Y-16024903D01*
X871581Y-16022959D01*
X821112Y-15812740D01*
X820664Y-15810799D01*
X787066Y-15659248D01*
X773888Y-15599803D01*
X773438Y-15597686D01*
X743851Y-15452260D01*
X730388Y-15386087D01*
X729978Y-15383977D01*
X727609Y-15371197D01*
X690598Y-15171509D01*
X690229Y-15169406D01*
X654588Y-14956419D01*
X654258Y-14954341D01*
X622315Y-14740614D01*
X622018Y-14738496D01*
X619790Y-14721575D01*
X593826Y-14524355D01*
X593564Y-14522219D01*
X588259Y-14475660D01*
X569111Y-14307600D01*
X568888Y-14305474D01*
X548178Y-14090394D01*
X548003Y-14088394D01*
X531052Y-13873004D01*
X530901Y-13870846D01*
X528727Y-13835300D01*
X517713Y-13655224D01*
X517601Y-13653079D01*
X516735Y-13633253D01*
X508179Y-13437298D01*
X508105Y-13435175D01*
X507985Y-13430602D01*
X502448Y-13219159D01*
X502412Y-13217013D01*
X502361Y-13211194D01*
X500528Y-13001031D01*
X500528Y-12998917D01*
X501056Y-12938478D01*
X502412Y-12782963D01*
X502449Y-12780821D01*
X508106Y-12564781D01*
X508181Y-12562660D01*
X508514Y-12555050D01*
X517602Y-12346897D01*
X517714Y-12344758D01*
X523372Y-12252260D01*
X530901Y-12129144D01*
X531052Y-12126994D01*
X534198Y-12087017D01*
X548004Y-11911594D01*
X548177Y-11909614D01*
X568892Y-11694485D01*
X569114Y-11692372D01*
X570989Y-11675921D01*
X593567Y-11477753D01*
X593828Y-11475631D01*
X595528Y-11462720D01*
X622023Y-11261459D01*
X622319Y-11259358D01*
X623167Y-11253687D01*
X654260Y-11045640D01*
X654588Y-11043579D01*
X690229Y-10830592D01*
X690604Y-10828459D01*
X691592Y-10823133D01*
X729984Y-10615986D01*
X730391Y-10613898D01*
X731196Y-10609944D01*
X773440Y-10402300D01*
X773888Y-10400195D01*
X787482Y-10338876D01*
X820670Y-10189174D01*
X821106Y-10187283D01*
X871587Y-9977013D01*
X872059Y-9975122D01*
X926149Y-9765969D01*
X926707Y-9763889D01*
X964880Y-9626240D01*
X984444Y-9555694D01*
X985009Y-9553721D01*
X1046417Y-9346415D01*
X1047009Y-9344480D01*
X1111982Y-9138409D01*
X1112609Y-9136479D01*
X1181166Y-8931587D01*
X1181858Y-8929577D01*
X1254014Y-8725814D01*
X1254672Y-8724007D01*
X1330355Y-8521581D01*
X1331104Y-8519631D01*
X1410305Y-8318566D01*
X1411061Y-8316697D01*
X1493807Y-8116931D01*
X1494560Y-8115155D01*
X1518108Y-8061001D01*
X1562890Y-8007374D01*
X1629560Y-7986471D01*
X1696947Y-8004929D01*
G37*
%TD.AperFunction*%
%TA.AperFunction,Conductor*%
G36*
X15234961Y-10683977D02*
G01*
X15239756Y-10685963D01*
X15239760Y-10685966D01*
X15239764Y-10685966D01*
X15239767Y-10685968D01*
X15312821Y-10700499D01*
X15312824Y-10700500D01*
X15363000Y-10700500D01*
X15430039Y-10720185D01*
X15475794Y-10772989D01*
X15487000Y-10824500D01*
X15487000Y-10874674D01*
X15487000Y-10874676D01*
X15486999Y-10874676D01*
X15501533Y-10947740D01*
X15503525Y-10952548D01*
X15510994Y-11022017D01*
X15503525Y-11047452D01*
X15501533Y-11052259D01*
X15487000Y-11125323D01*
X15487000Y-11125326D01*
X15487000Y-11274674D01*
X15487000Y-11274676D01*
X15486999Y-11274676D01*
X15501533Y-11347740D01*
X15503525Y-11352548D01*
X15510994Y-11422017D01*
X15503525Y-11447452D01*
X15501533Y-11452259D01*
X15487000Y-11525323D01*
X15487000Y-11525326D01*
X15487000Y-11674674D01*
X15487000Y-11674676D01*
X15486999Y-11674676D01*
X15501533Y-11747740D01*
X15503525Y-11752548D01*
X15510994Y-11822017D01*
X15503525Y-11847452D01*
X15501533Y-11852259D01*
X15487000Y-11925323D01*
X15487000Y-11925326D01*
X15487000Y-12074674D01*
X15487000Y-12074676D01*
X15486999Y-12074676D01*
X15501533Y-12147740D01*
X15503525Y-12152548D01*
X15510994Y-12222017D01*
X15503525Y-12247452D01*
X15501533Y-12252259D01*
X15487000Y-12325323D01*
X15487000Y-12325326D01*
X15487000Y-12474674D01*
X15487000Y-12474676D01*
X15486999Y-12474676D01*
X15501533Y-12547740D01*
X15503525Y-12552548D01*
X15510994Y-12622017D01*
X15503525Y-12647452D01*
X15501533Y-12652259D01*
X15487000Y-12725323D01*
X15487000Y-12725326D01*
X15487000Y-12874674D01*
X15487000Y-12874676D01*
X15486999Y-12874676D01*
X15501533Y-12947740D01*
X15503525Y-12952548D01*
X15510994Y-13022017D01*
X15503525Y-13047452D01*
X15501533Y-13052259D01*
X15487000Y-13125323D01*
X15487000Y-13274678D01*
X15501532Y-13347735D01*
X15501533Y-13347739D01*
X15510050Y-13360486D01*
X15556899Y-13430601D01*
X15639760Y-13485966D01*
X15649915Y-13492751D01*
X15649091Y-13493983D01*
X15692891Y-13529281D01*
X15714955Y-13595576D01*
X15697675Y-13663275D01*
X15646537Y-13710885D01*
X15640016Y-13713862D01*
X15556899Y-13769399D01*
X15501533Y-13852260D01*
X15501532Y-13852264D01*
X15487000Y-13925321D01*
X15487000Y-13925326D01*
X15487000Y-14074674D01*
X15487000Y-14074676D01*
X15486999Y-14074676D01*
X15501533Y-14147740D01*
X15503525Y-14152548D01*
X15510994Y-14222017D01*
X15503525Y-14247452D01*
X15501533Y-14252259D01*
X15487000Y-14325323D01*
X15487000Y-14325326D01*
X15487000Y-14474674D01*
X15487000Y-14474676D01*
X15486999Y-14474676D01*
X15501533Y-14547740D01*
X15503525Y-14552548D01*
X15510994Y-14622017D01*
X15503525Y-14647452D01*
X15501533Y-14652259D01*
X15487000Y-14725323D01*
X15487000Y-14725326D01*
X15487000Y-14874674D01*
X15487000Y-14874676D01*
X15486999Y-14874676D01*
X15501533Y-14947740D01*
X15503525Y-14952548D01*
X15510994Y-15022017D01*
X15503525Y-15047452D01*
X15501533Y-15052259D01*
X15487000Y-15125323D01*
X15487000Y-15175500D01*
X15467315Y-15242539D01*
X15414511Y-15288294D01*
X15363000Y-15299500D01*
X15312824Y-15299500D01*
X15239759Y-15314033D01*
X15234952Y-15316025D01*
X15165483Y-15323494D01*
X15140048Y-15316025D01*
X15135240Y-15314033D01*
X15062176Y-15299500D01*
X15062174Y-15299500D01*
X14912826Y-15299500D01*
X14912824Y-15299500D01*
X14839759Y-15314033D01*
X14834952Y-15316025D01*
X14765483Y-15323494D01*
X14740048Y-15316025D01*
X14735240Y-15314033D01*
X14662176Y-15299500D01*
X14662174Y-15299500D01*
X14512826Y-15299500D01*
X14512824Y-15299500D01*
X14439759Y-15314033D01*
X14434952Y-15316025D01*
X14365483Y-15323494D01*
X14340048Y-15316025D01*
X14335240Y-15314033D01*
X14262176Y-15299500D01*
X14262174Y-15299500D01*
X14112826Y-15299500D01*
X14112824Y-15299500D01*
X14039759Y-15314033D01*
X14034952Y-15316025D01*
X13965483Y-15323494D01*
X13940048Y-15316025D01*
X13935240Y-15314033D01*
X13862176Y-15299500D01*
X13862174Y-15299500D01*
X13712826Y-15299500D01*
X13712824Y-15299500D01*
X13639759Y-15314033D01*
X13634952Y-15316025D01*
X13565483Y-15323494D01*
X13540048Y-15316025D01*
X13535240Y-15314033D01*
X13462176Y-15299500D01*
X13462174Y-15299500D01*
X13312826Y-15299500D01*
X13312824Y-15299500D01*
X13239759Y-15314033D01*
X13234952Y-15316025D01*
X13165483Y-15323494D01*
X13140048Y-15316025D01*
X13135240Y-15314033D01*
X13062176Y-15299500D01*
X13062174Y-15299500D01*
X12912826Y-15299500D01*
X12912823Y-15299500D01*
X12839764Y-15314032D01*
X12839760Y-15314033D01*
X12756899Y-15369399D01*
X12694749Y-15462415D01*
X12693516Y-15461591D01*
X12658219Y-15505391D01*
X12591924Y-15527455D01*
X12524225Y-15510175D01*
X12476615Y-15459037D01*
X12473637Y-15452516D01*
X12459226Y-15430948D01*
X12418101Y-15369399D01*
X12358718Y-15329721D01*
X12335239Y-15314033D01*
X12335235Y-15314032D01*
X12262177Y-15299500D01*
X12262174Y-15299500D01*
X12112826Y-15299500D01*
X12112824Y-15299500D01*
X12039759Y-15314033D01*
X12034952Y-15316025D01*
X11965483Y-15323494D01*
X11940048Y-15316025D01*
X11935240Y-15314033D01*
X11862176Y-15299500D01*
X11862174Y-15299500D01*
X11712826Y-15299500D01*
X11712824Y-15299500D01*
X11639759Y-15314033D01*
X11634952Y-15316025D01*
X11565483Y-15323494D01*
X11540048Y-15316025D01*
X11535240Y-15314033D01*
X11462176Y-15299500D01*
X11462174Y-15299500D01*
X11312826Y-15299500D01*
X11312824Y-15299500D01*
X11239759Y-15314033D01*
X11234952Y-15316025D01*
X11165483Y-15323494D01*
X11140048Y-15316025D01*
X11135240Y-15314033D01*
X11062176Y-15299500D01*
X11062174Y-15299500D01*
X11012000Y-15299500D01*
X10944961Y-15279815D01*
X10899206Y-15227011D01*
X10888000Y-15175500D01*
X10888000Y-15125323D01*
X10887999Y-15125321D01*
X10873468Y-15052267D01*
X10873466Y-15052264D01*
X10873466Y-15052260D01*
X10873463Y-15052256D01*
X10871477Y-15047461D01*
X10864004Y-14977992D01*
X10871477Y-14952539D01*
X10873462Y-14947745D01*
X10873466Y-14947740D01*
X10875025Y-14939906D01*
X10885282Y-14888336D01*
X10888000Y-14874674D01*
X10888000Y-14725326D01*
X10888000Y-14725323D01*
X10887999Y-14725321D01*
X10873468Y-14652267D01*
X10873466Y-14652264D01*
X10873466Y-14652260D01*
X10873463Y-14652256D01*
X10871477Y-14647461D01*
X10864004Y-14577992D01*
X10871477Y-14552539D01*
X10873462Y-14547745D01*
X10873466Y-14547740D01*
X10876766Y-14531153D01*
X10887999Y-14474678D01*
X10888000Y-14474676D01*
X10888000Y-14325323D01*
X10887999Y-14325321D01*
X10873468Y-14252267D01*
X10873466Y-14252264D01*
X10873466Y-14252260D01*
X10873463Y-14252256D01*
X10871477Y-14247461D01*
X10864004Y-14177992D01*
X10871477Y-14152539D01*
X10873462Y-14147745D01*
X10873466Y-14147740D01*
X10874543Y-14142329D01*
X10887703Y-14076167D01*
X10888000Y-14074674D01*
X10888000Y-13925326D01*
X10888000Y-13925323D01*
X10887999Y-13925321D01*
X10873468Y-13852267D01*
X10873466Y-13852264D01*
X10873466Y-13852260D01*
X10873463Y-13852256D01*
X10871477Y-13847461D01*
X10864004Y-13777992D01*
X10871477Y-13752539D01*
X10873462Y-13747745D01*
X10873466Y-13747740D01*
X10873610Y-13747019D01*
X10883155Y-13699029D01*
X10888000Y-13674674D01*
X10888000Y-13525326D01*
X10888000Y-13525323D01*
X10887999Y-13525321D01*
X10873468Y-13452267D01*
X10873466Y-13452264D01*
X10873466Y-13452260D01*
X10873463Y-13452256D01*
X10871477Y-13447461D01*
X10864004Y-13377992D01*
X10871477Y-13352539D01*
X10873462Y-13347745D01*
X10873466Y-13347740D01*
X10875047Y-13339796D01*
X10887614Y-13276613D01*
X10888000Y-13274674D01*
X10888000Y-13125326D01*
X10888000Y-13125323D01*
X10887999Y-13125321D01*
X10873468Y-13052267D01*
X10873466Y-13052264D01*
X10873466Y-13052260D01*
X10873463Y-13052256D01*
X10871477Y-13047461D01*
X10864004Y-12977992D01*
X10871477Y-12952539D01*
X10873462Y-12947745D01*
X10873466Y-12947740D01*
X10874869Y-12940691D01*
X10887999Y-12874678D01*
X10888000Y-12874676D01*
X10888000Y-12725323D01*
X10887999Y-12725321D01*
X10873468Y-12652267D01*
X10873466Y-12652264D01*
X10873466Y-12652260D01*
X10873463Y-12652256D01*
X10871477Y-12647461D01*
X10864004Y-12577992D01*
X10871477Y-12552539D01*
X10873462Y-12547745D01*
X10873466Y-12547740D01*
X10873735Y-12546391D01*
X10887999Y-12474678D01*
X10888000Y-12474676D01*
X10888000Y-12325323D01*
X10887999Y-12325321D01*
X10873468Y-12252267D01*
X10873466Y-12252264D01*
X10873466Y-12252260D01*
X10873463Y-12252256D01*
X10871477Y-12247461D01*
X10864004Y-12177992D01*
X10871477Y-12152539D01*
X10873462Y-12147745D01*
X10873466Y-12147740D01*
X10873517Y-12147488D01*
X10885715Y-12086161D01*
X10888000Y-12074674D01*
X10888000Y-11925326D01*
X10888000Y-11925323D01*
X10887999Y-11925321D01*
X10873468Y-11852267D01*
X10873466Y-11852264D01*
X10873466Y-11852260D01*
X10873463Y-11852256D01*
X10871477Y-11847461D01*
X10864004Y-11777992D01*
X10871477Y-11752539D01*
X10873462Y-11747745D01*
X10873466Y-11747740D01*
X10875046Y-11739800D01*
X10883730Y-11696141D01*
X10888000Y-11674674D01*
X10888000Y-11525326D01*
X10888000Y-11525323D01*
X10887999Y-11525321D01*
X10873468Y-11452267D01*
X10873466Y-11452264D01*
X10873466Y-11452260D01*
X10873463Y-11452256D01*
X10871477Y-11447461D01*
X10864004Y-11377992D01*
X10871477Y-11352539D01*
X10873462Y-11347745D01*
X10873466Y-11347740D01*
X10876506Y-11332460D01*
X10886476Y-11282335D01*
X10888000Y-11274674D01*
X10888000Y-11125326D01*
X10888000Y-11125323D01*
X10887999Y-11125321D01*
X10873468Y-11052267D01*
X10873466Y-11052264D01*
X10873466Y-11052260D01*
X10873463Y-11052256D01*
X10871477Y-11047461D01*
X10864004Y-10977992D01*
X10871477Y-10952539D01*
X10873462Y-10947745D01*
X10873466Y-10947740D01*
X10875338Y-10938333D01*
X10883939Y-10895090D01*
X10888000Y-10874674D01*
X10888000Y-10824500D01*
X10907685Y-10757461D01*
X10960489Y-10711706D01*
X11012000Y-10700500D01*
X11062176Y-10700500D01*
X11062177Y-10700499D01*
X11103061Y-10692367D01*
X11135232Y-10685968D01*
X11135233Y-10685967D01*
X11135240Y-10685966D01*
X11135245Y-10685962D01*
X11140039Y-10683977D01*
X11209508Y-10676504D01*
X11234961Y-10683977D01*
X11239756Y-10685963D01*
X11239760Y-10685966D01*
X11239764Y-10685966D01*
X11239767Y-10685968D01*
X11312821Y-10700499D01*
X11312824Y-10700500D01*
X11312826Y-10700500D01*
X11462176Y-10700500D01*
X11462177Y-10700499D01*
X11503061Y-10692367D01*
X11535232Y-10685968D01*
X11535233Y-10685967D01*
X11535240Y-10685966D01*
X11535245Y-10685962D01*
X11540039Y-10683977D01*
X11609508Y-10676504D01*
X11634961Y-10683977D01*
X11639756Y-10685963D01*
X11639760Y-10685966D01*
X11639764Y-10685966D01*
X11639767Y-10685968D01*
X11712821Y-10700499D01*
X11712824Y-10700500D01*
X11712826Y-10700500D01*
X11862176Y-10700500D01*
X11862177Y-10700499D01*
X11903061Y-10692367D01*
X11935232Y-10685968D01*
X11935233Y-10685967D01*
X11935240Y-10685966D01*
X11935245Y-10685962D01*
X11940039Y-10683977D01*
X12009508Y-10676504D01*
X12034961Y-10683977D01*
X12039756Y-10685963D01*
X12039760Y-10685966D01*
X12039764Y-10685966D01*
X12039767Y-10685968D01*
X12112821Y-10700499D01*
X12112824Y-10700500D01*
X12112826Y-10700500D01*
X12262176Y-10700500D01*
X12262177Y-10700499D01*
X12303061Y-10692367D01*
X12335232Y-10685968D01*
X12335233Y-10685967D01*
X12335240Y-10685966D01*
X12335245Y-10685962D01*
X12340039Y-10683977D01*
X12409508Y-10676504D01*
X12434961Y-10683977D01*
X12439756Y-10685963D01*
X12439760Y-10685966D01*
X12439764Y-10685966D01*
X12439767Y-10685968D01*
X12512821Y-10700499D01*
X12512824Y-10700500D01*
X12512826Y-10700500D01*
X12662176Y-10700500D01*
X12662177Y-10700499D01*
X12703061Y-10692367D01*
X12735232Y-10685968D01*
X12735233Y-10685967D01*
X12735240Y-10685966D01*
X12735245Y-10685962D01*
X12740039Y-10683977D01*
X12809508Y-10676504D01*
X12834961Y-10683977D01*
X12839756Y-10685963D01*
X12839760Y-10685966D01*
X12839764Y-10685966D01*
X12839767Y-10685968D01*
X12912821Y-10700499D01*
X12912824Y-10700500D01*
X12912826Y-10700500D01*
X13062176Y-10700500D01*
X13062177Y-10700499D01*
X13103061Y-10692367D01*
X13135232Y-10685968D01*
X13135233Y-10685967D01*
X13135240Y-10685966D01*
X13135245Y-10685962D01*
X13140039Y-10683977D01*
X13209508Y-10676504D01*
X13234961Y-10683977D01*
X13239756Y-10685963D01*
X13239760Y-10685966D01*
X13239764Y-10685966D01*
X13239767Y-10685968D01*
X13312821Y-10700499D01*
X13312824Y-10700500D01*
X13312826Y-10700500D01*
X13462176Y-10700500D01*
X13462177Y-10700499D01*
X13503061Y-10692367D01*
X13535232Y-10685968D01*
X13535233Y-10685967D01*
X13535240Y-10685966D01*
X13535245Y-10685962D01*
X13540039Y-10683977D01*
X13609508Y-10676504D01*
X13634961Y-10683977D01*
X13639756Y-10685963D01*
X13639760Y-10685966D01*
X13639764Y-10685966D01*
X13639767Y-10685968D01*
X13712821Y-10700499D01*
X13712824Y-10700500D01*
X13712826Y-10700500D01*
X13862176Y-10700500D01*
X13862177Y-10700499D01*
X13903061Y-10692367D01*
X13935232Y-10685968D01*
X13935233Y-10685967D01*
X13935240Y-10685966D01*
X13935245Y-10685962D01*
X13940039Y-10683977D01*
X14009508Y-10676504D01*
X14034961Y-10683977D01*
X14039756Y-10685963D01*
X14039760Y-10685966D01*
X14039764Y-10685966D01*
X14039767Y-10685968D01*
X14112821Y-10700499D01*
X14112824Y-10700500D01*
X14112826Y-10700500D01*
X14262176Y-10700500D01*
X14262177Y-10700499D01*
X14303061Y-10692367D01*
X14335232Y-10685968D01*
X14335233Y-10685967D01*
X14335240Y-10685966D01*
X14335245Y-10685962D01*
X14340039Y-10683977D01*
X14409508Y-10676504D01*
X14434961Y-10683977D01*
X14439756Y-10685963D01*
X14439760Y-10685966D01*
X14439764Y-10685966D01*
X14439767Y-10685968D01*
X14512821Y-10700499D01*
X14512824Y-10700500D01*
X14512826Y-10700500D01*
X14662176Y-10700500D01*
X14662177Y-10700499D01*
X14703061Y-10692367D01*
X14735232Y-10685968D01*
X14735233Y-10685967D01*
X14735240Y-10685966D01*
X14735245Y-10685962D01*
X14740039Y-10683977D01*
X14809508Y-10676504D01*
X14834961Y-10683977D01*
X14839756Y-10685963D01*
X14839760Y-10685966D01*
X14839764Y-10685966D01*
X14839767Y-10685968D01*
X14912821Y-10700499D01*
X14912824Y-10700500D01*
X14912826Y-10700500D01*
X15062176Y-10700500D01*
X15062177Y-10700499D01*
X15103061Y-10692367D01*
X15135232Y-10685968D01*
X15135233Y-10685967D01*
X15135240Y-10685966D01*
X15135245Y-10685962D01*
X15140039Y-10683977D01*
X15209508Y-10676504D01*
X15234961Y-10683977D01*
G37*
%TD.AperFunction*%
%TA.AperFunction,Conductor*%
G36*
X13110074Y-3100647D02*
G01*
X13444133Y-3110002D01*
X13448295Y-3110190D01*
X13781796Y-3130953D01*
X13786006Y-3131287D01*
X14104128Y-3162036D01*
X14118612Y-3163436D01*
X14122822Y-3163916D01*
X14454074Y-3207403D01*
X14458267Y-3208026D01*
X14478030Y-3211311D01*
X14787907Y-3262819D01*
X14792070Y-3263586D01*
X14802737Y-3265736D01*
X15119598Y-3329602D01*
X15123689Y-3330499D01*
X15448833Y-3407684D01*
X15452868Y-3408714D01*
X15738012Y-3486789D01*
X15775184Y-3496967D01*
X15779247Y-3498154D01*
X16098320Y-3597356D01*
X16102288Y-3598665D01*
X16417842Y-3708732D01*
X16421725Y-3710161D01*
X16733326Y-3830945D01*
X16737237Y-3832539D01*
X17044458Y-3963870D01*
X17048326Y-3965602D01*
X17350911Y-4107370D01*
X17354717Y-4109234D01*
X17431345Y-4148383D01*
X17652234Y-4261235D01*
X17655951Y-4263214D01*
X17948149Y-4425322D01*
X17951819Y-4427441D01*
X18238268Y-4599415D01*
X18241864Y-4601658D01*
X18522292Y-4783335D01*
X18525809Y-4785700D01*
X18799857Y-4976850D01*
X18803280Y-4979325D01*
X19070673Y-5179755D01*
X19073967Y-5182314D01*
X19268691Y-5338946D01*
X19334328Y-5391743D01*
X19337585Y-5394456D01*
X19590620Y-5612646D01*
X19593781Y-5615467D01*
X19839221Y-5842183D01*
X19842285Y-5845112D01*
X19899732Y-5901936D01*
X20060257Y-6060720D01*
X20079831Y-6080081D01*
X20082784Y-6083104D01*
X20308661Y-6322345D01*
X20312157Y-6326047D01*
X20315003Y-6329166D01*
X20375265Y-6397530D01*
X20535975Y-6579847D01*
X20538722Y-6583074D01*
X20648020Y-6715958D01*
X20727436Y-6812512D01*
X20750944Y-6841092D01*
X20753571Y-6844399D01*
X20956912Y-7109597D01*
X20959397Y-7112955D01*
X21048980Y-7238449D01*
X21153538Y-7384921D01*
X21155931Y-7388398D01*
X21324899Y-7643077D01*
X21340662Y-7666835D01*
X21342935Y-7670393D01*
X21510418Y-7942587D01*
X21518035Y-7954966D01*
X21520188Y-7958603D01*
X21591197Y-8083369D01*
X21685459Y-8248992D01*
X21687492Y-8252710D01*
X21721032Y-8316628D01*
X21834009Y-8531931D01*
X21842749Y-8548586D01*
X21844648Y-8552362D01*
X21894334Y-8655467D01*
X21989696Y-8853358D01*
X21991470Y-8857206D01*
X22126145Y-9162975D01*
X22127787Y-9166882D01*
X22251932Y-9477071D01*
X22253447Y-9481053D01*
X22254630Y-9484331D01*
X22261842Y-9532544D01*
X22260009Y-9569624D01*
X22348620Y-9817521D01*
X22349468Y-9819975D01*
X22414161Y-10013665D01*
X22414958Y-10016137D01*
X22475593Y-10211181D01*
X22476338Y-10213669D01*
X22532878Y-10409951D01*
X22533571Y-10412454D01*
X22586006Y-10609944D01*
X22586646Y-10612460D01*
X22634929Y-10810986D01*
X22635516Y-10813516D01*
X22679644Y-11013064D01*
X22680178Y-11015606D01*
X22720105Y-11215984D01*
X22720586Y-11218535D01*
X22756328Y-11419809D01*
X22756755Y-11422371D01*
X22788267Y-11624307D01*
X22788641Y-11626877D01*
X22815931Y-11829529D01*
X22816240Y-11832026D01*
X22838093Y-12024744D01*
X22839285Y-12035257D01*
X22839550Y-12037840D01*
X22858327Y-12241443D01*
X22858538Y-12244030D01*
X22873046Y-12447957D01*
X22873204Y-12450551D01*
X22883445Y-12654923D01*
X22883547Y-12657517D01*
X22889503Y-12861889D01*
X22889552Y-12864486D01*
X22891226Y-13069024D01*
X22891220Y-13071621D01*
X22888610Y-13276217D01*
X22888550Y-13278813D01*
X22881656Y-13483311D01*
X22881541Y-13485906D01*
X22870366Y-13690186D01*
X22870197Y-13692778D01*
X22854739Y-13896872D01*
X22854516Y-13899459D01*
X22834790Y-14103167D01*
X22834512Y-14105749D01*
X22810526Y-14308987D01*
X22810195Y-14311563D01*
X22781950Y-14514302D01*
X22781565Y-14516871D01*
X22749073Y-14719017D01*
X22748634Y-14721575D01*
X22711918Y-14922994D01*
X22711425Y-14925545D01*
X22670489Y-15126194D01*
X22669943Y-15128733D01*
X22624818Y-15328462D01*
X22624219Y-15330989D01*
X22574907Y-15529781D01*
X22574256Y-15532295D01*
X22520785Y-15730038D01*
X22520081Y-15732537D01*
X22462480Y-15929122D01*
X22461723Y-15931607D01*
X22400017Y-16126941D01*
X22399209Y-16129409D01*
X22333408Y-16323459D01*
X22332549Y-16325909D01*
X22262704Y-16518527D01*
X22261793Y-16520960D01*
X22187899Y-16712150D01*
X22186937Y-16714562D01*
X22109063Y-16904143D01*
X22108051Y-16906536D01*
X22026214Y-17094463D01*
X22025153Y-17096832D01*
X21939389Y-17283028D01*
X21938277Y-17285376D01*
X21848631Y-17469737D01*
X21847471Y-17472061D01*
X21753952Y-17654564D01*
X21752744Y-17656862D01*
X21655415Y-17837384D01*
X21654158Y-17839657D01*
X21553100Y-18018047D01*
X21551797Y-18020293D01*
X21446976Y-18196609D01*
X21445625Y-18198828D01*
X21337134Y-18372911D01*
X21335738Y-18375100D01*
X21223602Y-18546910D01*
X21222159Y-18549070D01*
X21106465Y-18718468D01*
X21104978Y-18720597D01*
X20985736Y-18887572D01*
X20984206Y-18889669D01*
X20938345Y-18951126D01*
X20861465Y-19054149D01*
X20859913Y-19056185D01*
X20733725Y-19218094D01*
X20732107Y-19220125D01*
X20602565Y-19379345D01*
X20600905Y-19381342D01*
X20468102Y-19537762D01*
X20466401Y-19539724D01*
X20330263Y-19693428D01*
X20328521Y-19695354D01*
X20189214Y-19846153D01*
X20187431Y-19848043D01*
X20044935Y-19995952D01*
X20043114Y-19997803D01*
X19897596Y-20142653D01*
X19895736Y-20144466D01*
X19747179Y-20286272D01*
X19745282Y-20288045D01*
X19593784Y-20426711D01*
X19591850Y-20428445D01*
X19437419Y-20563963D01*
X19435449Y-20565655D01*
X19278271Y-20697861D01*
X19276267Y-20699511D01*
X19116230Y-20828498D01*
X19114238Y-20830069D01*
X18951595Y-20955629D01*
X18949523Y-20957193D01*
X18784250Y-21079346D01*
X18782145Y-21080868D01*
X18614366Y-21199520D01*
X18612231Y-21200997D01*
X18441950Y-21316148D01*
X18439783Y-21317581D01*
X18379865Y-21356296D01*
X18267073Y-21429173D01*
X18264911Y-21430538D01*
X18089981Y-21538441D01*
X18087756Y-21539782D01*
X17910496Y-21644061D01*
X17908245Y-21645354D01*
X17728899Y-21745866D01*
X17726619Y-21747112D01*
X17545126Y-21843888D01*
X17542823Y-21845085D01*
X17359392Y-21938015D01*
X17357063Y-21939165D01*
X17171629Y-22028280D01*
X17169276Y-22029380D01*
X16982073Y-22114566D01*
X16979697Y-22115617D01*
X16790681Y-22196892D01*
X16788286Y-22197893D01*
X16597591Y-22275201D01*
X16595173Y-22276152D01*
X16402940Y-22349433D01*
X16400505Y-22350332D01*
X16206717Y-22419595D01*
X16204307Y-22420428D01*
X16085209Y-22460203D01*
X16009041Y-22485640D01*
X16006569Y-22486436D01*
X15810030Y-22547529D01*
X15807543Y-22548274D01*
X15609706Y-22605256D01*
X15607202Y-22605949D01*
X15408229Y-22658770D01*
X15405713Y-22659410D01*
X15205628Y-22708066D01*
X15203097Y-22708653D01*
X15002025Y-22753109D01*
X14999484Y-22753643D01*
X14797521Y-22793879D01*
X14794968Y-22794360D01*
X14592141Y-22830369D01*
X14589580Y-22830796D01*
X14386078Y-22862544D01*
X14383508Y-22862917D01*
X14179373Y-22890398D01*
X14176796Y-22890718D01*
X13972065Y-22913926D01*
X13969481Y-22914191D01*
X13764362Y-22933101D01*
X13761774Y-22933313D01*
X13556194Y-22947931D01*
X13553602Y-22948088D01*
X13347792Y-22958396D01*
X13345196Y-22958499D01*
X13139114Y-22964497D01*
X13136518Y-22964545D01*
X12930428Y-22966225D01*
X12927831Y-22966219D01*
X12721705Y-22963582D01*
X12719108Y-22963521D01*
X12513059Y-22956567D01*
X12510465Y-22956453D01*
X12304584Y-22945184D01*
X12301992Y-22945015D01*
X12096310Y-22929430D01*
X12093723Y-22929206D01*
X11888543Y-22909330D01*
X11885961Y-22909053D01*
X11681055Y-22884862D01*
X11678479Y-22884530D01*
X11474244Y-22856070D01*
X11471675Y-22855685D01*
X11267935Y-22822929D01*
X11265377Y-22822490D01*
X11062429Y-22785488D01*
X11059878Y-22784995D01*
X10857703Y-22743740D01*
X10855164Y-22743194D01*
X10653943Y-22697724D01*
X10651416Y-22697126D01*
X10451059Y-22647420D01*
X10448545Y-22646768D01*
X10249306Y-22592886D01*
X10246806Y-22592182D01*
X10048699Y-22534126D01*
X10046215Y-22533369D01*
X9849363Y-22471176D01*
X9846895Y-22470368D01*
X9844282Y-22469482D01*
X9706858Y-22422877D01*
X9651363Y-22404057D01*
X9648912Y-22403197D01*
X9454798Y-22332801D01*
X9452366Y-22331890D01*
X9259792Y-22257453D01*
X9257379Y-22256492D01*
X9066321Y-22178003D01*
X9063930Y-22176991D01*
X8874548Y-22094514D01*
X8872178Y-22093452D01*
X8684582Y-22007035D01*
X8682234Y-22005923D01*
X8496479Y-21915591D01*
X8494156Y-21914431D01*
X8310240Y-21820181D01*
X8307941Y-21818973D01*
X8126047Y-21720896D01*
X8123775Y-21719640D01*
X7943976Y-21617777D01*
X7941769Y-21616495D01*
X7764106Y-21510865D01*
X7761889Y-21509515D01*
X7586479Y-21400189D01*
X7584290Y-21398793D01*
X7458784Y-21316872D01*
X7411130Y-21285767D01*
X7408994Y-21284340D01*
X7238323Y-21167769D01*
X7236193Y-21166282D01*
X7067913Y-21046099D01*
X7065816Y-21044568D01*
X6900136Y-20920923D01*
X6898071Y-20919348D01*
X6872012Y-20899037D01*
X6734885Y-20792157D01*
X6732873Y-20790554D01*
X6723054Y-20782565D01*
X6671814Y-20740873D01*
X6572488Y-20660055D01*
X6570491Y-20658396D01*
X6412775Y-20524483D01*
X6410814Y-20522781D01*
X6256033Y-20385680D01*
X6254106Y-20383938D01*
X6119290Y-20259386D01*
X6119288Y-20259383D01*
X6102111Y-20243514D01*
X6100221Y-20241731D01*
X6035270Y-20179153D01*
X7173465Y-20179153D01*
X7173465Y-20179155D01*
X7194315Y-20297408D01*
X7194315Y-20297409D01*
X7217407Y-20341767D01*
X7217410Y-20341772D01*
X7458199Y-20685652D01*
X7458202Y-20685655D01*
X7458203Y-20685657D01*
X7487968Y-20718141D01*
X7491987Y-20722527D01*
X7595980Y-20782567D01*
X7696506Y-20800292D01*
X7714232Y-20803418D01*
X7714233Y-20803418D01*
X7714235Y-20803418D01*
X7761535Y-20795077D01*
X7832489Y-20782567D01*
X7876851Y-20759473D01*
X8171583Y-20553099D01*
X8202813Y-20524483D01*
X8208454Y-20519314D01*
X8208454Y-20519313D01*
X8208458Y-20519310D01*
X8268498Y-20415318D01*
X8289349Y-20297064D01*
X8287603Y-20287164D01*
X8268498Y-20178809D01*
X8268498Y-20178808D01*
X8245406Y-20134450D01*
X8245404Y-20134446D01*
X8004615Y-19790566D01*
X8004611Y-19790561D01*
X7996282Y-19781471D01*
X7996280Y-19781469D01*
X7970827Y-19753691D01*
X7884385Y-19703784D01*
X10914284Y-19703784D01*
X10914284Y-20093286D01*
X10920462Y-20124349D01*
X10920462Y-20172725D01*
X10914284Y-20203787D01*
X10914284Y-20593286D01*
X10920462Y-20624349D01*
X10920462Y-20672725D01*
X10914284Y-20703787D01*
X10914284Y-21093286D01*
X10920462Y-21124349D01*
X10920462Y-21172725D01*
X10914284Y-21203787D01*
X10914284Y-21593289D01*
X10925915Y-21651766D01*
X10925916Y-21651767D01*
X10970231Y-21718089D01*
X11036553Y-21762404D01*
X11036554Y-21762405D01*
X11095031Y-21774036D01*
X11095034Y-21774037D01*
X11504617Y-21774037D01*
X11552072Y-21783477D01*
X11561554Y-21787405D01*
X11620031Y-21799036D01*
X11620034Y-21799037D01*
X11620036Y-21799037D01*
X12009535Y-21799037D01*
X12033163Y-21794336D01*
X12040589Y-21792859D01*
X12088979Y-21792859D01*
X12096404Y-21794336D01*
X12120033Y-21799037D01*
X12120036Y-21799037D01*
X12509534Y-21799037D01*
X12509535Y-21799036D01*
X12540591Y-21792859D01*
X12568012Y-21787405D01*
X12568013Y-21787404D01*
X12568015Y-21787404D01*
X12568015Y-21787403D01*
X12577493Y-21783478D01*
X12624950Y-21774037D01*
X13034534Y-21774037D01*
X13034535Y-21774036D01*
X13055657Y-21769835D01*
X13093013Y-21762405D01*
X13093013Y-21762404D01*
X13093015Y-21762404D01*
X13159336Y-21718089D01*
X13203651Y-21651768D01*
X13203651Y-21651766D01*
X13203652Y-21651766D01*
X13213365Y-21602934D01*
X13215284Y-21593285D01*
X13215284Y-21203789D01*
X13215284Y-21203787D01*
X13215284Y-21203785D01*
X13209106Y-21172733D01*
X13209113Y-21164270D01*
X13207196Y-21159373D01*
X13207316Y-21157206D01*
X14354377Y-21157206D01*
X14354377Y-21157212D01*
X14373160Y-21275807D01*
X14373160Y-21275808D01*
X14373161Y-21275810D01*
X14431376Y-21380832D01*
X14431377Y-21380833D01*
X14521998Y-21459610D01*
X14522001Y-21459612D01*
X14567867Y-21479555D01*
X14913730Y-21578728D01*
X14963196Y-21586122D01*
X14963196Y-21586121D01*
X14963198Y-21586122D01*
X14963199Y-21586122D01*
X15022496Y-21576729D01*
X15081797Y-21567337D01*
X15186819Y-21509122D01*
X15265599Y-21418497D01*
X15285542Y-21372632D01*
X15401254Y-20969093D01*
X15408647Y-20919627D01*
X15389863Y-20801026D01*
X15331648Y-20696004D01*
X15331019Y-20695457D01*
X15241025Y-20617225D01*
X15241022Y-20617223D01*
X15195153Y-20597279D01*
X14941276Y-20524483D01*
X14849294Y-20498108D01*
X14849290Y-20498107D01*
X14849289Y-20498107D01*
X14799825Y-20490713D01*
X14799824Y-20490713D01*
X14681229Y-20509498D01*
X14681227Y-20509498D01*
X14681227Y-20509499D01*
X14659660Y-20521454D01*
X14576203Y-20567715D01*
X14497426Y-20658336D01*
X14497425Y-20658337D01*
X14477483Y-20704200D01*
X14477482Y-20704203D01*
X14361768Y-21107750D01*
X14354377Y-21157206D01*
X13207316Y-21157206D01*
X13208579Y-21134377D01*
X13208039Y-21130616D01*
X13209146Y-21124150D01*
X13209146Y-21124137D01*
X13215284Y-21093285D01*
X13215284Y-20703789D01*
X13215284Y-20703787D01*
X13215284Y-20703786D01*
X13215283Y-20703784D01*
X13203652Y-20645307D01*
X13203651Y-20645306D01*
X13159336Y-20578984D01*
X13093014Y-20534669D01*
X13093013Y-20534668D01*
X13034536Y-20523037D01*
X13034532Y-20523037D01*
X12620036Y-20523037D01*
X12620031Y-20523037D01*
X12561554Y-20534668D01*
X12561553Y-20534669D01*
X12495231Y-20578984D01*
X12450916Y-20645306D01*
X12450915Y-20645307D01*
X12439284Y-20703784D01*
X12439284Y-20899037D01*
X12419599Y-20966076D01*
X12366795Y-21011831D01*
X12315284Y-21023037D01*
X12120035Y-21023037D01*
X12088972Y-21029215D01*
X12040596Y-21029215D01*
X12009533Y-21023037D01*
X12009532Y-21023037D01*
X11814284Y-21023037D01*
X11747245Y-21003352D01*
X11701490Y-20950548D01*
X11690284Y-20899037D01*
X11690284Y-20703785D01*
X11684106Y-20672733D01*
X11684106Y-20624341D01*
X11690284Y-20593288D01*
X11690284Y-20203785D01*
X11684106Y-20172733D01*
X11684105Y-20164400D01*
X11682216Y-20159600D01*
X11682600Y-20152420D01*
X16817258Y-20152420D01*
X16830668Y-20210501D01*
X16842531Y-20261887D01*
X16866415Y-20297062D01*
X16904338Y-20352914D01*
X16905641Y-20354832D01*
X16925404Y-20370619D01*
X17221992Y-20555946D01*
X17244845Y-20566790D01*
X17244849Y-20566790D01*
X17244851Y-20566791D01*
X17356047Y-20582769D01*
X17356048Y-20582768D01*
X17356050Y-20582769D01*
X17465517Y-20557496D01*
X17558462Y-20494386D01*
X17574249Y-20474623D01*
X17727781Y-20228918D01*
X17737438Y-20208567D01*
X17738624Y-20206068D01*
X17738624Y-20206066D01*
X17738625Y-20206065D01*
X17754603Y-20094860D01*
X17754239Y-20093285D01*
X17745573Y-20055748D01*
X17729331Y-19985393D01*
X17666221Y-19892448D01*
X17646458Y-19876661D01*
X17349870Y-19691334D01*
X17346603Y-19689784D01*
X17339373Y-19686353D01*
X17327017Y-19680490D01*
X17327015Y-19680489D01*
X17327014Y-19680489D01*
X17327010Y-19680488D01*
X17215814Y-19664510D01*
X17106344Y-19689784D01*
X17106342Y-19689785D01*
X17013401Y-19752893D01*
X17013399Y-19752895D01*
X16997610Y-19772661D01*
X16844084Y-20018357D01*
X16844073Y-20018376D01*
X16833237Y-20041211D01*
X16817258Y-20152420D01*
X11682600Y-20152420D01*
X11683765Y-20130657D01*
X11683457Y-20128511D01*
X11684073Y-20124914D01*
X11684103Y-20124356D01*
X11688073Y-20104398D01*
X11690284Y-20093287D01*
X11690284Y-19703786D01*
X11690283Y-19703784D01*
X11678652Y-19645307D01*
X11678651Y-19645306D01*
X11634336Y-19578984D01*
X11568014Y-19534669D01*
X11568013Y-19534668D01*
X11509536Y-19523037D01*
X11509532Y-19523037D01*
X11095036Y-19523037D01*
X11095031Y-19523037D01*
X11036554Y-19534668D01*
X11036553Y-19534669D01*
X10970231Y-19578984D01*
X10925916Y-19645306D01*
X10925915Y-19645307D01*
X10914284Y-19703784D01*
X7884385Y-19703784D01*
X7873064Y-19697248D01*
X7866836Y-19693652D01*
X7866835Y-19693651D01*
X7866834Y-19693651D01*
X7792182Y-19680488D01*
X7748582Y-19672800D01*
X7748579Y-19672800D01*
X7630327Y-19693650D01*
X7630325Y-19693650D01*
X7585955Y-19716749D01*
X7291233Y-19923116D01*
X7254359Y-19956903D01*
X7254356Y-19956908D01*
X7194317Y-20060897D01*
X7194315Y-20060902D01*
X7173465Y-20179153D01*
X6035270Y-20179153D01*
X5951222Y-20098176D01*
X5949371Y-20096355D01*
X5803393Y-19949692D01*
X5801581Y-19947833D01*
X5667829Y-19807705D01*
X5658685Y-19798125D01*
X5656924Y-19796241D01*
X5655143Y-19794295D01*
X5517183Y-19643558D01*
X5515465Y-19641641D01*
X5500552Y-19624646D01*
X5425194Y-19538764D01*
X5378960Y-19486074D01*
X5377276Y-19484111D01*
X5377268Y-19484104D01*
X5377169Y-19483987D01*
X5377143Y-19483956D01*
X5376978Y-19483759D01*
X5243994Y-19325646D01*
X5242390Y-19323699D01*
X5171447Y-19235671D01*
X17933197Y-19235671D01*
X17941032Y-19347741D01*
X17941032Y-19347744D01*
X17988827Y-19449418D01*
X17988830Y-19449421D01*
X18005872Y-19468098D01*
X18102504Y-19552098D01*
X18269822Y-19697545D01*
X18269830Y-19697550D01*
X18269832Y-19697552D01*
X18283988Y-19707239D01*
X18290697Y-19711830D01*
X18290699Y-19711830D01*
X18290700Y-19711831D01*
X18398026Y-19745006D01*
X18398033Y-19745008D01*
X18510106Y-19737171D01*
X18611779Y-19689378D01*
X18630463Y-19672327D01*
X18820542Y-19453666D01*
X18834828Y-19432790D01*
X18868005Y-19325454D01*
X18860169Y-19213381D01*
X18812375Y-19111708D01*
X18808488Y-19107449D01*
X18795329Y-19093027D01*
X18560192Y-18888627D01*
X18531380Y-18863581D01*
X18531373Y-18863576D01*
X18531369Y-18863573D01*
X18510507Y-18849297D01*
X18510501Y-18849294D01*
X18403175Y-18816119D01*
X18403169Y-18816118D01*
X18403168Y-18816118D01*
X18347132Y-18820036D01*
X18291096Y-18823955D01*
X18291094Y-18823955D01*
X18291093Y-18823956D01*
X18189422Y-18871748D01*
X18170737Y-18888800D01*
X18170733Y-18888804D01*
X17980668Y-19107449D01*
X17980655Y-19107467D01*
X17966374Y-19128334D01*
X17966374Y-19128336D01*
X17933197Y-19235671D01*
X5171447Y-19235671D01*
X5112447Y-19162463D01*
X5110844Y-19160432D01*
X5058975Y-19093239D01*
X4984304Y-18996508D01*
X4982749Y-18994449D01*
X4859682Y-18827925D01*
X4858161Y-18825821D01*
X4738605Y-18656754D01*
X4737127Y-18654618D01*
X4621103Y-18483030D01*
X4619671Y-18480864D01*
X4547379Y-18368972D01*
X4507207Y-18306795D01*
X4505902Y-18304727D01*
X4397065Y-18128269D01*
X4395866Y-18126279D01*
X4290693Y-17947489D01*
X4289454Y-17945330D01*
X4188152Y-17764558D01*
X4186906Y-17762279D01*
X4089415Y-17579431D01*
X4088218Y-17577128D01*
X4079536Y-17559989D01*
X4009798Y-17422326D01*
X18580797Y-17422326D01*
X18587438Y-17549018D01*
X18621464Y-17637660D01*
X18621468Y-17637669D01*
X18902983Y-18125264D01*
X18902986Y-18125269D01*
X18962742Y-18199064D01*
X19069140Y-18268160D01*
X19158848Y-18292196D01*
X19191683Y-18300995D01*
X19191683Y-18300994D01*
X19191684Y-18300995D01*
X19318375Y-18294356D01*
X19407023Y-18260327D01*
X19808024Y-18028808D01*
X19881819Y-17969052D01*
X19950914Y-17862653D01*
X19983750Y-17740110D01*
X19977110Y-17613418D01*
X19943082Y-17524771D01*
X19661562Y-17037167D01*
X19601806Y-16963372D01*
X19601805Y-16963371D01*
X19495408Y-16894276D01*
X19372864Y-16861440D01*
X19246173Y-16868080D01*
X19157525Y-16902108D01*
X19157520Y-16902111D01*
X18756528Y-17133625D01*
X18756516Y-17133633D01*
X18682730Y-17193382D01*
X18613634Y-17299783D01*
X18580797Y-17422326D01*
X4009798Y-17422326D01*
X3994553Y-17392233D01*
X3993434Y-17389964D01*
X3903644Y-17203105D01*
X3902544Y-17200753D01*
X3828112Y-17037167D01*
X3816714Y-17012118D01*
X3815667Y-17009752D01*
X3802352Y-16978785D01*
X3733777Y-16819292D01*
X3732776Y-16816895D01*
X3654884Y-16624739D01*
X3653934Y-16622322D01*
X3586802Y-16446202D01*
X3580077Y-16428560D01*
X3579182Y-16426134D01*
X3568942Y-16397482D01*
X3530167Y-16288982D01*
X3509416Y-16230917D01*
X3508567Y-16228462D01*
X3495924Y-16190601D01*
X3442827Y-16031590D01*
X3442097Y-16029328D01*
X3380498Y-15831136D01*
X3379777Y-15828724D01*
X3356199Y-15746850D01*
X3322357Y-15629338D01*
X3321676Y-15626876D01*
X3321045Y-15624500D01*
X3268450Y-15426347D01*
X3267817Y-15423859D01*
X3218779Y-15222172D01*
X3218222Y-15219770D01*
X3173416Y-15017084D01*
X3172890Y-15014581D01*
X3167733Y-14988691D01*
X3132344Y-14811028D01*
X3131882Y-14808580D01*
X3095602Y-14604186D01*
X3095176Y-14601629D01*
X3091489Y-14577992D01*
X3063178Y-14396487D01*
X3062824Y-14394048D01*
X3035119Y-14188192D01*
X3034815Y-14185738D01*
X3011433Y-13979412D01*
X3011169Y-13976842D01*
X3010907Y-13974004D01*
X2992115Y-13770080D01*
X2992246Y-13769408D01*
X2991904Y-13767492D01*
X2990755Y-13751327D01*
X2979168Y-13588289D01*
X2994050Y-13520024D01*
X3043478Y-13470641D01*
X3102856Y-13455500D01*
X3183336Y-13455500D01*
X3183336Y-13455499D01*
X3220789Y-13451280D01*
X3234673Y-13450500D01*
X3242639Y-13450500D01*
X3242642Y-13450500D01*
X3357219Y-13419799D01*
X3459946Y-13360489D01*
X3543822Y-13276613D01*
X3603132Y-13173886D01*
X3633833Y-13059309D01*
X3633833Y-12940691D01*
X3603132Y-12826114D01*
X3543822Y-12723387D01*
X3459946Y-12639511D01*
X3357219Y-12580201D01*
X3242642Y-12549500D01*
X3242639Y-12549500D01*
X3219212Y-12549500D01*
X3191618Y-12546391D01*
X3183334Y-12544500D01*
X3183333Y-12544500D01*
X3097548Y-12544500D01*
X3030509Y-12524815D01*
X2984754Y-12472011D01*
X2973734Y-12413719D01*
X2979999Y-12299314D01*
X2980166Y-12296768D01*
X2983491Y-12252907D01*
X2995874Y-12089551D01*
X2996088Y-12087068D01*
X3016150Y-11880044D01*
X3016409Y-11877638D01*
X3040793Y-11671144D01*
X3041119Y-11668614D01*
X3045234Y-11639093D01*
X3069826Y-11462657D01*
X3070193Y-11460216D01*
X3103207Y-11254905D01*
X3103624Y-11252475D01*
X3116005Y-11184586D01*
X3984911Y-11184586D01*
X3985348Y-11234585D01*
X3985349Y-11234603D01*
X4035422Y-11590887D01*
X4035426Y-11590905D01*
X4048787Y-11639088D01*
X4048788Y-11639089D01*
X4048789Y-11639093D01*
X4114189Y-11739800D01*
X4169993Y-11781851D01*
X4210086Y-11812064D01*
X4210087Y-11812064D01*
X4210088Y-11812065D01*
X4324920Y-11847173D01*
X4324922Y-11847172D01*
X4324923Y-11847173D01*
X4334297Y-11847091D01*
X4374932Y-11846736D01*
X4790648Y-11788310D01*
X4838844Y-11774946D01*
X4875564Y-11751099D01*
X4939549Y-11709548D01*
X4949652Y-11696141D01*
X5011816Y-11613647D01*
X5046924Y-11498814D01*
X5046487Y-11448802D01*
X4996412Y-11092503D01*
X4983047Y-11044307D01*
X4917647Y-10943600D01*
X4859857Y-10900052D01*
X4821749Y-10871335D01*
X4706918Y-10836227D01*
X4706912Y-10836226D01*
X4656916Y-10836663D01*
X4656898Y-10836664D01*
X4300576Y-10886743D01*
X4241188Y-10895090D01*
X4241185Y-10895090D01*
X4241174Y-10895093D01*
X4192993Y-10908453D01*
X4192987Y-10908456D01*
X4092286Y-10973851D01*
X4020020Y-11069752D01*
X3984911Y-11184586D01*
X3116005Y-11184586D01*
X3140959Y-11047750D01*
X3141421Y-11045360D01*
X3183019Y-10841539D01*
X3183529Y-10839166D01*
X3229394Y-10636232D01*
X3229957Y-10633855D01*
X3280076Y-10431860D01*
X3280720Y-10429380D01*
X3285975Y-10409951D01*
X3335041Y-10228549D01*
X3335709Y-10226179D01*
X3351678Y-10171693D01*
X6669326Y-10171693D01*
X6669673Y-10251457D01*
X6682731Y-10282596D01*
X6692733Y-10306448D01*
X7274012Y-11168229D01*
X7316359Y-11210209D01*
X7390184Y-11240411D01*
X7469947Y-11240063D01*
X7524937Y-11217004D01*
X8032459Y-10874676D01*
X9636999Y-10874676D01*
X9651533Y-10947740D01*
X9653525Y-10952548D01*
X9660994Y-11022017D01*
X9653525Y-11047452D01*
X9651533Y-11052259D01*
X9637000Y-11125323D01*
X9637000Y-11125326D01*
X9637000Y-11274674D01*
X9637000Y-11274676D01*
X9636999Y-11274676D01*
X9651533Y-11347740D01*
X9653525Y-11352548D01*
X9660994Y-11422017D01*
X9653525Y-11447452D01*
X9651533Y-11452259D01*
X9637000Y-11525323D01*
X9637000Y-11525326D01*
X9637000Y-11674674D01*
X9637000Y-11674676D01*
X9636999Y-11674676D01*
X9651533Y-11747740D01*
X9653525Y-11752548D01*
X9660994Y-11822017D01*
X9653525Y-11847452D01*
X9651533Y-11852259D01*
X9637000Y-11925323D01*
X9637000Y-11925326D01*
X9637000Y-12074674D01*
X9637000Y-12074676D01*
X9636999Y-12074676D01*
X9651533Y-12147740D01*
X9653525Y-12152548D01*
X9660994Y-12222017D01*
X9653525Y-12247452D01*
X9651533Y-12252259D01*
X9637000Y-12325323D01*
X9637000Y-12325326D01*
X9637000Y-12474674D01*
X9637000Y-12474676D01*
X9636999Y-12474676D01*
X9651533Y-12547740D01*
X9653525Y-12552548D01*
X9660994Y-12622017D01*
X9653525Y-12647452D01*
X9651533Y-12652259D01*
X9637000Y-12725323D01*
X9637000Y-12725326D01*
X9637000Y-12874674D01*
X9637000Y-12874676D01*
X9636999Y-12874676D01*
X9651533Y-12947740D01*
X9653525Y-12952548D01*
X9660994Y-13022017D01*
X9653525Y-13047452D01*
X9651533Y-13052259D01*
X9637000Y-13125323D01*
X9637000Y-13125326D01*
X9637000Y-13274674D01*
X9637000Y-13274676D01*
X9636999Y-13274676D01*
X9651533Y-13347740D01*
X9653525Y-13352548D01*
X9660994Y-13422017D01*
X9653525Y-13447452D01*
X9651533Y-13452259D01*
X9637000Y-13525323D01*
X9637000Y-13525326D01*
X9637000Y-13674674D01*
X9637000Y-13674676D01*
X9636999Y-13674676D01*
X9651533Y-13747740D01*
X9653525Y-13752548D01*
X9660994Y-13822017D01*
X9653525Y-13847452D01*
X9651533Y-13852259D01*
X9637000Y-13925323D01*
X9637000Y-13925326D01*
X9637000Y-14074674D01*
X9637000Y-14074676D01*
X9636999Y-14074676D01*
X9651533Y-14147740D01*
X9653525Y-14152548D01*
X9660994Y-14222017D01*
X9653525Y-14247452D01*
X9651533Y-14252259D01*
X9637000Y-14325323D01*
X9637000Y-14325326D01*
X9637000Y-14474674D01*
X9637000Y-14474676D01*
X9636999Y-14474676D01*
X9651533Y-14547740D01*
X9653525Y-14552548D01*
X9660994Y-14622017D01*
X9653525Y-14647452D01*
X9651533Y-14652259D01*
X9637000Y-14725323D01*
X9637000Y-14725326D01*
X9637000Y-14874674D01*
X9637000Y-14874676D01*
X9636999Y-14874676D01*
X9651533Y-14947740D01*
X9653525Y-14952548D01*
X9660994Y-15022017D01*
X9653525Y-15047452D01*
X9651533Y-15052259D01*
X9637000Y-15125323D01*
X9637000Y-15274678D01*
X9651532Y-15347735D01*
X9651533Y-15347739D01*
X9660758Y-15361545D01*
X9706899Y-15430601D01*
X9770856Y-15473335D01*
X9789760Y-15485966D01*
X9789764Y-15485967D01*
X9862821Y-15500499D01*
X9862824Y-15500500D01*
X10563000Y-15500500D01*
X10630039Y-15520185D01*
X10675794Y-15572989D01*
X10687000Y-15624500D01*
X10687000Y-16324678D01*
X10701532Y-16397735D01*
X10701533Y-16397739D01*
X10701534Y-16397740D01*
X10756899Y-16480601D01*
X10815500Y-16519756D01*
X10839760Y-16535966D01*
X10839764Y-16535967D01*
X10912821Y-16550499D01*
X10912824Y-16550500D01*
X10912826Y-16550500D01*
X11062176Y-16550500D01*
X11062177Y-16550499D01*
X11086529Y-16545655D01*
X11135232Y-16535968D01*
X11135233Y-16535967D01*
X11135240Y-16535966D01*
X11135245Y-16535962D01*
X11140039Y-16533977D01*
X11209508Y-16526504D01*
X11234961Y-16533977D01*
X11239756Y-16535963D01*
X11239760Y-16535966D01*
X11239764Y-16535966D01*
X11239767Y-16535968D01*
X11312821Y-16550499D01*
X11312824Y-16550500D01*
X11312826Y-16550500D01*
X11462176Y-16550500D01*
X11462177Y-16550499D01*
X11486529Y-16545655D01*
X11535232Y-16535968D01*
X11535233Y-16535967D01*
X11535240Y-16535966D01*
X11535245Y-16535962D01*
X11540039Y-16533977D01*
X11609508Y-16526504D01*
X11634961Y-16533977D01*
X11639756Y-16535963D01*
X11639760Y-16535966D01*
X11639764Y-16535966D01*
X11639767Y-16535968D01*
X11712821Y-16550499D01*
X11712824Y-16550500D01*
X11712826Y-16550500D01*
X11862176Y-16550500D01*
X11862177Y-16550499D01*
X11886529Y-16545655D01*
X11935232Y-16535968D01*
X11935233Y-16535967D01*
X11935240Y-16535966D01*
X11935245Y-16535962D01*
X11940039Y-16533977D01*
X12009508Y-16526504D01*
X12034961Y-16533977D01*
X12039756Y-16535963D01*
X12039760Y-16535966D01*
X12039764Y-16535966D01*
X12039767Y-16535968D01*
X12112821Y-16550499D01*
X12112824Y-16550500D01*
X12112826Y-16550500D01*
X12262176Y-16550500D01*
X12262177Y-16550499D01*
X12335240Y-16535966D01*
X12418101Y-16480601D01*
X12473466Y-16397740D01*
X12473466Y-16397739D01*
X12480251Y-16387585D01*
X12481484Y-16388409D01*
X12516778Y-16344610D01*
X12583071Y-16322544D01*
X12650771Y-16339822D01*
X12698383Y-16390958D01*
X12701362Y-16397482D01*
X12701533Y-16397739D01*
X12701534Y-16397740D01*
X12756899Y-16480601D01*
X12815500Y-16519756D01*
X12839760Y-16535966D01*
X12839764Y-16535967D01*
X12912821Y-16550499D01*
X12912824Y-16550500D01*
X12912826Y-16550500D01*
X13062176Y-16550500D01*
X13062177Y-16550499D01*
X13086529Y-16545655D01*
X13135232Y-16535968D01*
X13135233Y-16535967D01*
X13135240Y-16535966D01*
X13135245Y-16535962D01*
X13140039Y-16533977D01*
X13209508Y-16526504D01*
X13234961Y-16533977D01*
X13239756Y-16535963D01*
X13239760Y-16535966D01*
X13239764Y-16535966D01*
X13239767Y-16535968D01*
X13312821Y-16550499D01*
X13312824Y-16550500D01*
X13312826Y-16550500D01*
X13462176Y-16550500D01*
X13462177Y-16550499D01*
X13486529Y-16545655D01*
X13535232Y-16535968D01*
X13535233Y-16535967D01*
X13535240Y-16535966D01*
X13535245Y-16535962D01*
X13540039Y-16533977D01*
X13609508Y-16526504D01*
X13634961Y-16533977D01*
X13639756Y-16535963D01*
X13639760Y-16535966D01*
X13639764Y-16535966D01*
X13639767Y-16535968D01*
X13712821Y-16550499D01*
X13712824Y-16550500D01*
X13712826Y-16550500D01*
X13862176Y-16550500D01*
X13862177Y-16550499D01*
X13886529Y-16545655D01*
X13935232Y-16535968D01*
X13935233Y-16535967D01*
X13935240Y-16535966D01*
X13935245Y-16535962D01*
X13940039Y-16533977D01*
X14009508Y-16526504D01*
X14034961Y-16533977D01*
X14039756Y-16535963D01*
X14039760Y-16535966D01*
X14039764Y-16535966D01*
X14039767Y-16535968D01*
X14112821Y-16550499D01*
X14112824Y-16550500D01*
X14112826Y-16550500D01*
X14262176Y-16550500D01*
X14262177Y-16550499D01*
X14286529Y-16545655D01*
X14335232Y-16535968D01*
X14335233Y-16535967D01*
X14335240Y-16535966D01*
X14335245Y-16535962D01*
X14340039Y-16533977D01*
X14409508Y-16526504D01*
X14434961Y-16533977D01*
X14439756Y-16535963D01*
X14439760Y-16535966D01*
X14439764Y-16535966D01*
X14439767Y-16535968D01*
X14512821Y-16550499D01*
X14512824Y-16550500D01*
X14512826Y-16550500D01*
X14662176Y-16550500D01*
X14662177Y-16550499D01*
X14686529Y-16545655D01*
X14735232Y-16535968D01*
X14735233Y-16535967D01*
X14735240Y-16535966D01*
X14735245Y-16535962D01*
X14740039Y-16533977D01*
X14809508Y-16526504D01*
X14834961Y-16533977D01*
X14839756Y-16535963D01*
X14839760Y-16535966D01*
X14839764Y-16535966D01*
X14839767Y-16535968D01*
X14912821Y-16550499D01*
X14912824Y-16550500D01*
X14912826Y-16550500D01*
X15062176Y-16550500D01*
X15062177Y-16550499D01*
X15086529Y-16545655D01*
X15135232Y-16535968D01*
X15135233Y-16535967D01*
X15135240Y-16535966D01*
X15135245Y-16535962D01*
X15140039Y-16533977D01*
X15209508Y-16526504D01*
X15234961Y-16533977D01*
X15239756Y-16535963D01*
X15239760Y-16535966D01*
X15239764Y-16535966D01*
X15239767Y-16535968D01*
X15312821Y-16550499D01*
X15312824Y-16550500D01*
X15312826Y-16550500D01*
X15462176Y-16550500D01*
X15462177Y-16550499D01*
X15535240Y-16535966D01*
X15618101Y-16480601D01*
X15673466Y-16397740D01*
X15688000Y-16324674D01*
X15688000Y-15659890D01*
X18833425Y-15659890D01*
X18840066Y-15786582D01*
X18874092Y-15875224D01*
X18874096Y-15875233D01*
X19144394Y-16343399D01*
X19155614Y-16362833D01*
X19215370Y-16436628D01*
X19321768Y-16505724D01*
X19411476Y-16529760D01*
X19444311Y-16538559D01*
X19444311Y-16538558D01*
X19444312Y-16538559D01*
X19571003Y-16531920D01*
X19659651Y-16497891D01*
X20060652Y-16266372D01*
X20134447Y-16206616D01*
X20203542Y-16100217D01*
X20236378Y-15977674D01*
X20229738Y-15850982D01*
X20195710Y-15762335D01*
X19914190Y-15274731D01*
X19854434Y-15200936D01*
X19854433Y-15200935D01*
X19748036Y-15131840D01*
X19625492Y-15099004D01*
X19498801Y-15105644D01*
X19410153Y-15139672D01*
X19410148Y-15139675D01*
X19009156Y-15371189D01*
X19009144Y-15371197D01*
X18935358Y-15430946D01*
X18866262Y-15537347D01*
X18833425Y-15659890D01*
X15688000Y-15659890D01*
X15688000Y-15624500D01*
X15707685Y-15557461D01*
X15760489Y-15511706D01*
X15812000Y-15500500D01*
X16512176Y-15500500D01*
X16512177Y-15500499D01*
X16585240Y-15485966D01*
X16668101Y-15430601D01*
X16723466Y-15347740D01*
X16738000Y-15274674D01*
X16738000Y-15125326D01*
X16738000Y-15125323D01*
X16737999Y-15125321D01*
X16723468Y-15052267D01*
X16723466Y-15052264D01*
X16723466Y-15052260D01*
X16723463Y-15052256D01*
X16721477Y-15047461D01*
X16714004Y-14977992D01*
X16721477Y-14952539D01*
X16723462Y-14947745D01*
X16723466Y-14947740D01*
X16725025Y-14939906D01*
X16735282Y-14888336D01*
X16738000Y-14874674D01*
X16738000Y-14725326D01*
X16738000Y-14725323D01*
X16737999Y-14725321D01*
X16723468Y-14652267D01*
X16723466Y-14652264D01*
X16723466Y-14652260D01*
X16723463Y-14652256D01*
X16721477Y-14647461D01*
X16714004Y-14577992D01*
X16721477Y-14552539D01*
X16723462Y-14547745D01*
X16723466Y-14547740D01*
X16726766Y-14531153D01*
X16737999Y-14474678D01*
X16738000Y-14474676D01*
X16738000Y-14325323D01*
X16737999Y-14325321D01*
X16723468Y-14252267D01*
X16723466Y-14252264D01*
X16723466Y-14252260D01*
X16723463Y-14252256D01*
X16721477Y-14247461D01*
X16714004Y-14177992D01*
X16721477Y-14152539D01*
X16723462Y-14147745D01*
X16723466Y-14147740D01*
X16724543Y-14142329D01*
X16737703Y-14076167D01*
X16738000Y-14074674D01*
X16738000Y-13925326D01*
X16738000Y-13925323D01*
X16737999Y-13925321D01*
X16723467Y-13852264D01*
X16723466Y-13852260D01*
X16713863Y-13837888D01*
X16668101Y-13769399D01*
X16585240Y-13714034D01*
X16585239Y-13714033D01*
X16575085Y-13707249D01*
X16575909Y-13706015D01*
X16532110Y-13670722D01*
X16510044Y-13604429D01*
X16523800Y-13550528D01*
X20819469Y-13550528D01*
X20819906Y-13600527D01*
X20819907Y-13600545D01*
X20869980Y-13956829D01*
X20869984Y-13956847D01*
X20883345Y-14005030D01*
X20883346Y-14005031D01*
X20883347Y-14005035D01*
X20948747Y-14105742D01*
X20996586Y-14141791D01*
X21044644Y-14178006D01*
X21044645Y-14178006D01*
X21044646Y-14178007D01*
X21159478Y-14213115D01*
X21159480Y-14213114D01*
X21159481Y-14213115D01*
X21168855Y-14213033D01*
X21209490Y-14212678D01*
X21625206Y-14154252D01*
X21673402Y-14140888D01*
X21719381Y-14111029D01*
X21774107Y-14075490D01*
X21774719Y-14074678D01*
X21846374Y-13979589D01*
X21881482Y-13864756D01*
X21881045Y-13814744D01*
X21830970Y-13458445D01*
X21817605Y-13410249D01*
X21752205Y-13309542D01*
X21687830Y-13261032D01*
X21656307Y-13237277D01*
X21541476Y-13202169D01*
X21541470Y-13202168D01*
X21491474Y-13202605D01*
X21491456Y-13202606D01*
X21135134Y-13252685D01*
X21075746Y-13261032D01*
X21075743Y-13261032D01*
X21075732Y-13261035D01*
X21027551Y-13274395D01*
X21027545Y-13274398D01*
X20926844Y-13339793D01*
X20854578Y-13435694D01*
X20819469Y-13550528D01*
X16523800Y-13550528D01*
X16527322Y-13536729D01*
X16567118Y-13495561D01*
X16580696Y-13486869D01*
X16585240Y-13485966D01*
X16668101Y-13430601D01*
X16723466Y-13347740D01*
X16738000Y-13274674D01*
X16738000Y-13125326D01*
X16738000Y-13125323D01*
X16737999Y-13125321D01*
X16723468Y-13052267D01*
X16723466Y-13052264D01*
X16723466Y-13052260D01*
X16723463Y-13052256D01*
X16721477Y-13047461D01*
X16714004Y-12977992D01*
X16721477Y-12952539D01*
X16723462Y-12947745D01*
X16723466Y-12947740D01*
X16724869Y-12940691D01*
X16737999Y-12874678D01*
X16738000Y-12874676D01*
X16738000Y-12725323D01*
X16737999Y-12725321D01*
X16723468Y-12652267D01*
X16723466Y-12652264D01*
X16723466Y-12652260D01*
X16723463Y-12652256D01*
X16721477Y-12647461D01*
X16714004Y-12577992D01*
X16721477Y-12552539D01*
X16723462Y-12547745D01*
X16723466Y-12547740D01*
X16723735Y-12546391D01*
X16737999Y-12474678D01*
X16738000Y-12474676D01*
X16738000Y-12325323D01*
X16737999Y-12325321D01*
X16723468Y-12252267D01*
X16723466Y-12252264D01*
X16723466Y-12252260D01*
X16723463Y-12252256D01*
X16721477Y-12247461D01*
X16714004Y-12177992D01*
X16721477Y-12152539D01*
X16723462Y-12147745D01*
X16723466Y-12147740D01*
X16723517Y-12147488D01*
X16735715Y-12086161D01*
X16738000Y-12074674D01*
X16738000Y-11925326D01*
X16738000Y-11925323D01*
X16737999Y-11925321D01*
X16723468Y-11852267D01*
X16723466Y-11852264D01*
X16723466Y-11852260D01*
X16723463Y-11852256D01*
X16721477Y-11847461D01*
X16714004Y-11777992D01*
X16721477Y-11752539D01*
X16723462Y-11747745D01*
X16723466Y-11747740D01*
X16725046Y-11739800D01*
X16733730Y-11696141D01*
X16738000Y-11674674D01*
X16738000Y-11525326D01*
X16738000Y-11525323D01*
X16737999Y-11525321D01*
X16723468Y-11452267D01*
X16723466Y-11452264D01*
X16723466Y-11452260D01*
X16723463Y-11452256D01*
X16721477Y-11447461D01*
X16714004Y-11377992D01*
X16721477Y-11352539D01*
X16723462Y-11347745D01*
X16723466Y-11347740D01*
X16726506Y-11332460D01*
X16736476Y-11282335D01*
X16738000Y-11274674D01*
X16738000Y-11125326D01*
X16738000Y-11125323D01*
X16737999Y-11125321D01*
X16723468Y-11052267D01*
X16723466Y-11052264D01*
X16723466Y-11052260D01*
X16723463Y-11052256D01*
X16721477Y-11047461D01*
X16714004Y-10977992D01*
X16721477Y-10952539D01*
X16723462Y-10947745D01*
X16723466Y-10947740D01*
X16725338Y-10938333D01*
X16733939Y-10895090D01*
X16738000Y-10874674D01*
X16738000Y-10725326D01*
X16738000Y-10725323D01*
X16737999Y-10725321D01*
X16723467Y-10652264D01*
X16723466Y-10652260D01*
X16668101Y-10569399D01*
X16585240Y-10514034D01*
X16585239Y-10514033D01*
X16585235Y-10514032D01*
X16512177Y-10499500D01*
X16512174Y-10499500D01*
X15812000Y-10499500D01*
X15744961Y-10479815D01*
X15699206Y-10427011D01*
X15688000Y-10375500D01*
X15688000Y-9675323D01*
X15687999Y-9675321D01*
X15673467Y-9602264D01*
X15673466Y-9602260D01*
X15618101Y-9519399D01*
X15535240Y-9464034D01*
X15535239Y-9464033D01*
X15535235Y-9464032D01*
X15462177Y-9449500D01*
X15462174Y-9449500D01*
X15312826Y-9449500D01*
X15312824Y-9449500D01*
X15239759Y-9464033D01*
X15234952Y-9466025D01*
X15165483Y-9473494D01*
X15140048Y-9466025D01*
X15135240Y-9464033D01*
X15062176Y-9449500D01*
X15062174Y-9449500D01*
X14912826Y-9449500D01*
X14912824Y-9449500D01*
X14839759Y-9464033D01*
X14834952Y-9466025D01*
X14765483Y-9473494D01*
X14740048Y-9466025D01*
X14735240Y-9464033D01*
X14662176Y-9449500D01*
X14662174Y-9449500D01*
X14512826Y-9449500D01*
X14512824Y-9449500D01*
X14439759Y-9464033D01*
X14434952Y-9466025D01*
X14365483Y-9473494D01*
X14340048Y-9466025D01*
X14335240Y-9464033D01*
X14262176Y-9449500D01*
X14262174Y-9449500D01*
X14112826Y-9449500D01*
X14112824Y-9449500D01*
X14039759Y-9464033D01*
X14034952Y-9466025D01*
X13965483Y-9473494D01*
X13940048Y-9466025D01*
X13935240Y-9464033D01*
X13862176Y-9449500D01*
X13862174Y-9449500D01*
X13712826Y-9449500D01*
X13712824Y-9449500D01*
X13639759Y-9464033D01*
X13634952Y-9466025D01*
X13565483Y-9473494D01*
X13540048Y-9466025D01*
X13535240Y-9464033D01*
X13462176Y-9449500D01*
X13462174Y-9449500D01*
X13312826Y-9449500D01*
X13312824Y-9449500D01*
X13239759Y-9464033D01*
X13234952Y-9466025D01*
X13165483Y-9473494D01*
X13140048Y-9466025D01*
X13135240Y-9464033D01*
X13062176Y-9449500D01*
X13062174Y-9449500D01*
X12912826Y-9449500D01*
X12912824Y-9449500D01*
X12839759Y-9464033D01*
X12834952Y-9466025D01*
X12765483Y-9473494D01*
X12740048Y-9466025D01*
X12735240Y-9464033D01*
X12662176Y-9449500D01*
X12662174Y-9449500D01*
X12512826Y-9449500D01*
X12512824Y-9449500D01*
X12439759Y-9464033D01*
X12434952Y-9466025D01*
X12365483Y-9473494D01*
X12340048Y-9466025D01*
X12335240Y-9464033D01*
X12262176Y-9449500D01*
X12262174Y-9449500D01*
X12112826Y-9449500D01*
X12112824Y-9449500D01*
X12039759Y-9464033D01*
X12034952Y-9466025D01*
X11965483Y-9473494D01*
X11940048Y-9466025D01*
X11935240Y-9464033D01*
X11862176Y-9449500D01*
X11862174Y-9449500D01*
X11712826Y-9449500D01*
X11712824Y-9449500D01*
X11639759Y-9464033D01*
X11634952Y-9466025D01*
X11565483Y-9473494D01*
X11540048Y-9466025D01*
X11535240Y-9464033D01*
X11462176Y-9449500D01*
X11462174Y-9449500D01*
X11312826Y-9449500D01*
X11312824Y-9449500D01*
X11239759Y-9464033D01*
X11234952Y-9466025D01*
X11165483Y-9473494D01*
X11140048Y-9466025D01*
X11135240Y-9464033D01*
X11062176Y-9449500D01*
X11062174Y-9449500D01*
X10912826Y-9449500D01*
X10912823Y-9449500D01*
X10839764Y-9464032D01*
X10839760Y-9464033D01*
X10756899Y-9519399D01*
X10701533Y-9602260D01*
X10701532Y-9602264D01*
X10687000Y-9675321D01*
X10687000Y-10375500D01*
X10667315Y-10442539D01*
X10614511Y-10488294D01*
X10563000Y-10499500D01*
X9862823Y-10499500D01*
X9789764Y-10514032D01*
X9789760Y-10514033D01*
X9706899Y-10569399D01*
X9651533Y-10652260D01*
X9651532Y-10652264D01*
X9637000Y-10725321D01*
X9637000Y-10725326D01*
X9637000Y-10874674D01*
X9637000Y-10874676D01*
X9636999Y-10874676D01*
X8032459Y-10874676D01*
X9049948Y-10188371D01*
X9091928Y-10146024D01*
X9122130Y-10072199D01*
X9121782Y-9992436D01*
X9098723Y-9937446D01*
X8517444Y-9075665D01*
X8475097Y-9033685D01*
X8475096Y-9033684D01*
X8401273Y-9003483D01*
X8401272Y-9003483D01*
X8400926Y-9003484D01*
X8321509Y-9003830D01*
X8266519Y-9026890D01*
X6746339Y-10052265D01*
X6741504Y-10055526D01*
X6699527Y-10097870D01*
X6669326Y-10171693D01*
X3351678Y-10171693D01*
X3394225Y-10026525D01*
X3394957Y-10024118D01*
X3457675Y-9825630D01*
X3458436Y-9823305D01*
X3525297Y-9626169D01*
X3526107Y-9623860D01*
X3597087Y-9428158D01*
X3597965Y-9425814D01*
X3673047Y-9231594D01*
X3673955Y-9229316D01*
X3753093Y-9036695D01*
X3754028Y-9034484D01*
X3837212Y-8843496D01*
X3838203Y-8841286D01*
X3925346Y-8652131D01*
X3926411Y-8649881D01*
X4017507Y-8462569D01*
X4018615Y-8460353D01*
X4113607Y-8275006D01*
X4114799Y-8272740D01*
X4126609Y-8250840D01*
X4208432Y-8099099D01*
X5271344Y-8099099D01*
X5271691Y-8178863D01*
X5285081Y-8210794D01*
X5294751Y-8233854D01*
X5876030Y-9095635D01*
X5876032Y-9095637D01*
X5876033Y-9095638D01*
X5918201Y-9137441D01*
X5918377Y-9137615D01*
X5992202Y-9167817D01*
X6071965Y-9167469D01*
X6126955Y-9144410D01*
X6578365Y-8839930D01*
X18439655Y-8839930D01*
X18451229Y-8972222D01*
X18503119Y-9094470D01*
X18503120Y-9094472D01*
X18566878Y-9167817D01*
X18568332Y-9169489D01*
X18954030Y-9493127D01*
X19039230Y-9544321D01*
X19168632Y-9574196D01*
X19168634Y-9574195D01*
X19168636Y-9574196D01*
X19256832Y-9566479D01*
X19300932Y-9562621D01*
X19423180Y-9510730D01*
X19498197Y-9445519D01*
X19870044Y-9002368D01*
X19921238Y-8917168D01*
X19951112Y-8787765D01*
X19951111Y-8787761D01*
X19951112Y-8787759D01*
X19939538Y-8655467D01*
X19939177Y-8654617D01*
X19895778Y-8552373D01*
X19887648Y-8533219D01*
X19887647Y-8533217D01*
X19822438Y-8458203D01*
X19792558Y-8433131D01*
X19469272Y-8161862D01*
X19436737Y-8134562D01*
X19351537Y-8083368D01*
X19252010Y-8060391D01*
X19222136Y-8053494D01*
X19222135Y-8053494D01*
X19222131Y-8053493D01*
X19089837Y-8065068D01*
X18967590Y-8116958D01*
X18967584Y-8116962D01*
X18892573Y-8182168D01*
X18520723Y-8625322D01*
X18469530Y-8710521D01*
X18469529Y-8710523D01*
X18439656Y-8839924D01*
X18439655Y-8839930D01*
X6578365Y-8839930D01*
X7651966Y-8115777D01*
X7693946Y-8073430D01*
X7724148Y-7999605D01*
X7723800Y-7919842D01*
X7700741Y-7864852D01*
X7675574Y-7827540D01*
X17233135Y-7827540D01*
X17244709Y-7959832D01*
X17296599Y-8082080D01*
X17296600Y-8082082D01*
X17342221Y-8134563D01*
X17361812Y-8157099D01*
X17747510Y-8480737D01*
X17832710Y-8531931D01*
X17962112Y-8561806D01*
X17962114Y-8561805D01*
X17962116Y-8561806D01*
X18050312Y-8554089D01*
X18094412Y-8550231D01*
X18216660Y-8498340D01*
X18291677Y-8433129D01*
X18663524Y-7989978D01*
X18714718Y-7904778D01*
X18744592Y-7775375D01*
X18744591Y-7775371D01*
X18744592Y-7775369D01*
X18733018Y-7643077D01*
X18701661Y-7569204D01*
X18681127Y-7520827D01*
X18670732Y-7508869D01*
X18615918Y-7445813D01*
X18545405Y-7386646D01*
X18358784Y-7230052D01*
X18230217Y-7122172D01*
X18145017Y-7070978D01*
X18045490Y-7048001D01*
X18015616Y-7041104D01*
X18015615Y-7041104D01*
X18015611Y-7041103D01*
X17883317Y-7052678D01*
X17761070Y-7104568D01*
X17761064Y-7104572D01*
X17686053Y-7169778D01*
X17314203Y-7612932D01*
X17263010Y-7698131D01*
X17263009Y-7698133D01*
X17233136Y-7827534D01*
X17233135Y-7827540D01*
X7675574Y-7827540D01*
X7119462Y-7003071D01*
X7077115Y-6961091D01*
X7077114Y-6961090D01*
X7003291Y-6930889D01*
X7003290Y-6930889D01*
X7002944Y-6930890D01*
X6923527Y-6931236D01*
X6868537Y-6954296D01*
X5382306Y-7956772D01*
X5343522Y-7982932D01*
X5301545Y-8025276D01*
X5271344Y-8099099D01*
X4208432Y-8099099D01*
X4213642Y-8089438D01*
X4214883Y-8087196D01*
X4249385Y-8026302D01*
X4317544Y-7906006D01*
X4318782Y-7903874D01*
X4425303Y-7724723D01*
X4426547Y-7722679D01*
X4536835Y-7545739D01*
X4538149Y-7543681D01*
X4652050Y-7369196D01*
X4653449Y-7367102D01*
X4662172Y-7354332D01*
X4770991Y-7195020D01*
X4772400Y-7193002D01*
X4893567Y-7023358D01*
X4894988Y-7021411D01*
X5019711Y-6854300D01*
X5021209Y-6852335D01*
X5149401Y-6687876D01*
X5150902Y-6685990D01*
X5282539Y-6524217D01*
X5284125Y-6522309D01*
X5419108Y-6363345D01*
X5420715Y-6361492D01*
X5558950Y-6205442D01*
X5560676Y-6203535D01*
X5565047Y-6198805D01*
X5702195Y-6050363D01*
X5703965Y-6048489D01*
X5730859Y-6020577D01*
X5821051Y-5926971D01*
X7099431Y-5926971D01*
X7099431Y-5926978D01*
X7115065Y-6038228D01*
X7115066Y-6038231D01*
X7127621Y-6060717D01*
X7169835Y-6136322D01*
X7188148Y-6153771D01*
X7467454Y-6364243D01*
X7489275Y-6377037D01*
X7598664Y-6402647D01*
X7709917Y-6387011D01*
X7727781Y-6377037D01*
X7808006Y-6332244D01*
X7808006Y-6332243D01*
X7808009Y-6332242D01*
X7825459Y-6313930D01*
X7999821Y-6082541D01*
X8012616Y-6060720D01*
X8015480Y-6048489D01*
X8038224Y-5951336D01*
X8038224Y-5951335D01*
X8038225Y-5951331D01*
X8022590Y-5840078D01*
X7967821Y-5741986D01*
X7949508Y-5724537D01*
X7915753Y-5699101D01*
X7670202Y-5514065D01*
X7648381Y-5501271D01*
X7648377Y-5501270D01*
X7538995Y-5475661D01*
X7538991Y-5475661D01*
X7427738Y-5491296D01*
X7427736Y-5491297D01*
X7329649Y-5546063D01*
X7312190Y-5564385D01*
X7137840Y-5795758D01*
X7137835Y-5795767D01*
X7125038Y-5817590D01*
X7099431Y-5926971D01*
X5821051Y-5926971D01*
X5848603Y-5898376D01*
X5850409Y-5896541D01*
X5902083Y-5845112D01*
X5998209Y-5749439D01*
X6000009Y-5747684D01*
X6150945Y-5603628D01*
X6152730Y-5601960D01*
X6306686Y-5461061D01*
X6308524Y-5459414D01*
X6465395Y-5321774D01*
X6467219Y-5320206D01*
X6600991Y-5207703D01*
X8479297Y-5207703D01*
X8515873Y-5313928D01*
X8515874Y-5313929D01*
X8585475Y-5396361D01*
X8588355Y-5399771D01*
X8605771Y-5410915D01*
X8609659Y-5413403D01*
X8923994Y-5566713D01*
X8924000Y-5566715D01*
X8924002Y-5566716D01*
X8947852Y-5575108D01*
X8947855Y-5575109D01*
X9060120Y-5579376D01*
X9166346Y-5542800D01*
X9252186Y-5470320D01*
X9265820Y-5449015D01*
X9392828Y-5188607D01*
X9401224Y-5164746D01*
X9405491Y-5052481D01*
X9368914Y-4946255D01*
X9296435Y-4860415D01*
X9296433Y-4860414D01*
X9296432Y-4860412D01*
X9275134Y-4846784D01*
X9275132Y-4846783D01*
X9275129Y-4846781D01*
X8960794Y-4693471D01*
X8960791Y-4693469D01*
X8960785Y-4693467D01*
X8936935Y-4685075D01*
X8936937Y-4685075D01*
X8824668Y-4680808D01*
X8718440Y-4717384D01*
X8632600Y-4789865D01*
X8632599Y-4789866D01*
X8618973Y-4811159D01*
X8491956Y-5071585D01*
X8483564Y-5095434D01*
X8479297Y-5207703D01*
X6600991Y-5207703D01*
X6626960Y-5185863D01*
X6628900Y-5184265D01*
X6791346Y-5053359D01*
X6793340Y-5051784D01*
X6958609Y-4924213D01*
X6960599Y-4922710D01*
X7128452Y-4798670D01*
X7130495Y-4797193D01*
X7300930Y-4676679D01*
X7303051Y-4675214D01*
X7359959Y-4636737D01*
X7475915Y-4558335D01*
X7478002Y-4556955D01*
X7653472Y-4443594D01*
X7655523Y-4442299D01*
X7833217Y-4332710D01*
X7835425Y-4331381D01*
X8015368Y-4225538D01*
X8017589Y-4224262D01*
X8144496Y-4153150D01*
X8199750Y-4122189D01*
X8202029Y-4120943D01*
X8386310Y-4022695D01*
X8388548Y-4021532D01*
X8574900Y-3927138D01*
X8577131Y-3926036D01*
X8765457Y-3835548D01*
X8767714Y-3834493D01*
X8957948Y-3747943D01*
X8960174Y-3746959D01*
X9152218Y-3664396D01*
X9154447Y-3663465D01*
X9348180Y-3584942D01*
X9350477Y-3584039D01*
X9545816Y-3509588D01*
X9548087Y-3508749D01*
X9744991Y-3438388D01*
X9747394Y-3437558D01*
X9925328Y-3378147D01*
X9995148Y-3375588D01*
X10055271Y-3411183D01*
X10083179Y-3459510D01*
X10105519Y-3532582D01*
X10105519Y-3532581D01*
X10105520Y-3532583D01*
X10428754Y-3439769D01*
X10432749Y-3438696D01*
X10756917Y-3357496D01*
X10761019Y-3356543D01*
X11087741Y-3286475D01*
X11091852Y-3285666D01*
X11420812Y-3226798D01*
X11424931Y-3226134D01*
X11755724Y-3178539D01*
X11759812Y-3178022D01*
X12092052Y-3141758D01*
X12096213Y-3141375D01*
X12429457Y-3116489D01*
X12433674Y-3116247D01*
X12767566Y-3102764D01*
X12771686Y-3102668D01*
X13105948Y-3100601D01*
X13110074Y-3100647D01*
G37*
%TD.AperFunction*%
%TA.AperFunction,Conductor*%
G36*
X9472527Y-1502038D02*
G01*
X9499024Y-1548828D01*
X9546633Y-1704549D01*
X9761729Y-2408097D01*
X9762505Y-2477962D01*
X9725385Y-2537156D01*
X9679935Y-2562768D01*
X9633937Y-2577057D01*
X9621721Y-2582363D01*
X9534923Y-2611331D01*
X9521979Y-2614423D01*
X9470782Y-2632709D01*
X9468334Y-2633555D01*
X9416726Y-2650780D01*
X9404620Y-2656342D01*
X9399969Y-2658004D01*
X9318459Y-2687118D01*
X9305581Y-2690481D01*
X9302059Y-2691823D01*
X9254754Y-2709845D01*
X9252357Y-2710730D01*
X9233058Y-2717624D01*
X9201103Y-2729038D01*
X9189132Y-2734846D01*
X9103658Y-2767411D01*
X9090850Y-2771042D01*
X9040476Y-2791453D01*
X9038060Y-2792403D01*
X8987205Y-2811778D01*
X8975346Y-2817841D01*
X8890601Y-2852177D01*
X8877865Y-2856079D01*
X8827876Y-2877562D01*
X8825485Y-2878560D01*
X8775088Y-2898980D01*
X8763372Y-2905284D01*
X8679376Y-2941382D01*
X8666729Y-2945548D01*
X8625278Y-2964401D01*
X8617203Y-2968072D01*
X8614855Y-2969111D01*
X8564884Y-2990588D01*
X8553294Y-2997139D01*
X8470099Y-3034977D01*
X8457538Y-3039409D01*
X8408502Y-3062962D01*
X8406153Y-3064060D01*
X8356652Y-3086574D01*
X8345202Y-3093367D01*
X8262825Y-3132935D01*
X8250376Y-3137622D01*
X8201858Y-3162190D01*
X8199533Y-3163337D01*
X8150502Y-3186888D01*
X8139193Y-3193921D01*
X8057696Y-3235189D01*
X8045330Y-3240144D01*
X7997311Y-3265736D01*
X7995009Y-3266932D01*
X7946512Y-3291489D01*
X7935351Y-3298759D01*
X7854746Y-3341719D01*
X7842496Y-3346928D01*
X7795058Y-3373501D01*
X7792783Y-3374744D01*
X7744780Y-3400328D01*
X7733774Y-3407831D01*
X7654103Y-3452461D01*
X7641963Y-3457925D01*
X7595066Y-3485500D01*
X7592820Y-3486789D01*
X7545379Y-3513365D01*
X7534538Y-3521093D01*
X7455836Y-3567370D01*
X7443813Y-3573088D01*
X7397547Y-3601614D01*
X7395326Y-3602951D01*
X7348422Y-3630532D01*
X7337737Y-3638490D01*
X7260046Y-3686391D01*
X7248138Y-3692364D01*
X7202409Y-3721896D01*
X7200221Y-3723277D01*
X7153961Y-3751801D01*
X7143454Y-3759975D01*
X7066799Y-3809481D01*
X7055027Y-3815697D01*
X7009972Y-3846151D01*
X7007809Y-3847580D01*
X6962116Y-3877091D01*
X6951773Y-3885491D01*
X6876198Y-3936576D01*
X6864557Y-3943037D01*
X6820128Y-3974443D01*
X6817996Y-3975917D01*
X6772949Y-4006367D01*
X6762793Y-4014974D01*
X6688305Y-4067629D01*
X6676798Y-4074336D01*
X6633036Y-4106665D01*
X6630937Y-4108183D01*
X6586544Y-4139565D01*
X6576571Y-4148383D01*
X6503227Y-4202568D01*
X6491862Y-4209515D01*
X6448823Y-4242726D01*
X6446757Y-4244287D01*
X6402993Y-4276621D01*
X6393208Y-4285644D01*
X6321023Y-4341346D01*
X6309810Y-4348528D01*
X6267469Y-4382639D01*
X6265435Y-4384243D01*
X6222369Y-4417477D01*
X6212773Y-4426704D01*
X6141793Y-4483890D01*
X6130731Y-4491305D01*
X6089093Y-4526313D01*
X6087093Y-4527959D01*
X6044743Y-4562080D01*
X6035348Y-4571502D01*
X5965588Y-4630154D01*
X5954702Y-4637785D01*
X5913853Y-4673617D01*
X5911888Y-4675304D01*
X5870215Y-4710343D01*
X5861009Y-4719970D01*
X5792524Y-4780044D01*
X5781770Y-4787925D01*
X5741652Y-4824630D01*
X5739722Y-4826360D01*
X5698827Y-4862233D01*
X5689835Y-4872040D01*
X5622627Y-4933531D01*
X5612055Y-4941624D01*
X5572716Y-4979160D01*
X5570822Y-4980930D01*
X5530685Y-5017654D01*
X5521895Y-5027653D01*
X5456015Y-5090513D01*
X5445612Y-5098828D01*
X5407055Y-5137192D01*
X5405198Y-5139001D01*
X5365858Y-5176539D01*
X5357273Y-5186725D01*
X5292735Y-5250943D01*
X5282504Y-5259477D01*
X5244752Y-5298647D01*
X5242935Y-5300494D01*
X5204397Y-5338841D01*
X5196035Y-5349194D01*
X5132860Y-5414745D01*
X5122816Y-5423487D01*
X5085912Y-5463419D01*
X5084134Y-5465304D01*
X5046383Y-5504474D01*
X5038239Y-5515004D01*
X4976468Y-5581843D01*
X4966619Y-5590785D01*
X4930572Y-5631466D01*
X4928832Y-5633388D01*
X4891899Y-5673351D01*
X4883972Y-5684057D01*
X4842578Y-5730773D01*
X4823633Y-5752155D01*
X4813967Y-5761306D01*
X4778774Y-5802740D01*
X4777076Y-5804697D01*
X4740985Y-5845430D01*
X4733286Y-5856296D01*
X4674412Y-5925612D01*
X4664926Y-5934978D01*
X4630568Y-5977188D01*
X4628913Y-5979179D01*
X4593728Y-6020606D01*
X4586266Y-6031619D01*
X4528852Y-6102158D01*
X4519581Y-6111703D01*
X4486100Y-6154642D01*
X4484487Y-6156665D01*
X4450189Y-6198805D01*
X4442953Y-6209981D01*
X4387043Y-6281689D01*
X4377975Y-6291425D01*
X4351205Y-6327283D01*
X4295325Y-6369226D01*
X4225640Y-6374300D01*
X4164274Y-6340894D01*
X4148978Y-6322345D01*
X4108019Y-6261501D01*
X4049348Y-6215182D01*
X4049346Y-6215181D01*
X3259350Y-5759077D01*
X3259337Y-5759071D01*
X3189908Y-5731428D01*
X3137883Y-5727838D01*
X3072896Y-5723353D01*
X3007371Y-5699101D01*
X2965360Y-5643272D01*
X2960201Y-5573594D01*
X2981754Y-5525892D01*
X2986206Y-5519874D01*
X3016847Y-5478465D01*
X3018059Y-5476856D01*
X3116019Y-5349194D01*
X3149654Y-5305361D01*
X3150922Y-5303736D01*
X3285448Y-5134614D01*
X3286682Y-5133090D01*
X3424213Y-4966250D01*
X3425520Y-4964693D01*
X3565862Y-4800373D01*
X3567273Y-4798752D01*
X3710360Y-4637022D01*
X3711779Y-4635446D01*
X3857798Y-4476093D01*
X3859156Y-4474636D01*
X4007994Y-4317796D01*
X4009332Y-4316411D01*
X4054908Y-4270032D01*
X4115934Y-4236015D01*
X4180255Y-4238566D01*
X4256830Y-4262440D01*
X4257042Y-4262507D01*
X4319161Y-4282093D01*
X4319164Y-4282093D01*
X4319170Y-4282095D01*
X4319719Y-4282191D01*
X4320033Y-4282246D01*
X4320746Y-4282371D01*
X4320758Y-4282371D01*
X4320760Y-4282372D01*
X4385765Y-4285000D01*
X4450820Y-4287841D01*
X4450821Y-4287840D01*
X4450832Y-4287841D01*
X4451856Y-4287749D01*
X4452427Y-4287698D01*
X4452432Y-4287696D01*
X4452436Y-4287697D01*
X4504437Y-4275992D01*
X4515850Y-4273424D01*
X4516241Y-4273337D01*
X4579480Y-4259318D01*
X4579483Y-4259316D01*
X4579489Y-4259315D01*
X4579944Y-4259149D01*
X4580271Y-4259029D01*
X4580988Y-4258767D01*
X4580999Y-4258761D01*
X4581004Y-4258760D01*
X4638579Y-4228552D01*
X4696374Y-4198466D01*
X4696374Y-4198465D01*
X4696385Y-4198460D01*
X4696901Y-4198097D01*
X4697208Y-4197881D01*
X4697688Y-4197544D01*
X4697697Y-4197535D01*
X4697702Y-4197533D01*
X4745528Y-4153423D01*
X4745529Y-4153422D01*
X4745592Y-4153491D01*
X4745818Y-4153157D01*
X4903173Y-4008967D01*
X4904618Y-4007667D01*
X5061251Y-3869089D01*
X5062836Y-3867713D01*
X5221742Y-3731995D01*
X5223399Y-3730604D01*
X5384760Y-3597588D01*
X5386397Y-3596261D01*
X5550071Y-3466070D01*
X5551564Y-3464903D01*
X5717552Y-3337538D01*
X5719133Y-3336346D01*
X5887371Y-3211855D01*
X5888846Y-3210783D01*
X6059247Y-3089238D01*
X6060886Y-3088090D01*
X6233212Y-2969654D01*
X6234956Y-2968479D01*
X6409273Y-2853103D01*
X6411058Y-2851942D01*
X6587449Y-2739568D01*
X6589076Y-2738551D01*
X6767517Y-2629202D01*
X6769152Y-2628220D01*
X6949381Y-2522058D01*
X6951126Y-2521051D01*
X7133229Y-2418023D01*
X7134917Y-2417087D01*
X7318803Y-2317244D01*
X7320504Y-2316340D01*
X7506120Y-2219714D01*
X7507798Y-2218859D01*
X7695008Y-2125520D01*
X7696844Y-2124624D01*
X7885644Y-2034572D01*
X7887519Y-2033698D01*
X8077792Y-1946985D01*
X8079539Y-1946207D01*
X8271501Y-1862739D01*
X8273295Y-1861979D01*
X8466538Y-1781934D01*
X8468344Y-1781205D01*
X8663109Y-1704486D01*
X8664839Y-1703823D01*
X8860845Y-1630538D01*
X8862550Y-1629917D01*
X9059886Y-1560036D01*
X9061749Y-1559395D01*
X9260128Y-1493019D01*
X9261983Y-1492416D01*
X9343157Y-1466821D01*
X9413011Y-1465436D01*
X9472527Y-1502038D01*
G37*
%TD.AperFunction*%
%TD*%
M02*
