M48
; DRILL file KiCad 10.0.6 date 2026-09-05T05:49:35
; FORMAT={-:-/ absolute / metric / decimal}
; #@! TF.CreationDate,2026-09-05T05:49:35+08:00
; #@! TF.GenerationSoftware,Kicad,Pcbnew,10.0.6
; #@! TF.FileFunction,Plated,1,4,PTH
FMAT,2
METRIC
; #@! TA.AperFunction,Plated,PTH,ViaDrill
T1C0.250
%
G90
G05
T1
X1.654Y-17.177
X4.2Y-13.0
X4.392Y-14.83
X4.961Y-9.421
X4.961Y-16.579
X5.236Y-11.342
X5.37Y-12.292
X6.0Y-13.0
X6.239Y-11.188
X6.938Y-16.5
X7.606Y-19.529
X7.613Y-11.903
X8.05Y-17.95
X8.643Y-20.397
X8.893Y-12.704
X9.5Y-6.938
X10.281Y-4.631
X10.4Y-8.497
X10.4Y-17.503
X10.521Y-15.772
X11.188Y-6.239
X12.08Y-4.248
X12.097Y-7.879
X12.489Y-19.32
X12.827Y-21.979
X13.0Y-6.0
X13.372Y-20.097
X13.407Y-20.899
X13.92Y-4.248
X14.7Y-24.6
X14.812Y-6.239
X15.007Y-20.329
X15.6Y-17.503
X15.719Y-4.631
X16.481Y-21.057
X16.5Y-19.062
X16.983Y-16.342
X17.95Y-17.95
X18.2Y-13.0
X18.429Y-15.502
X18.888Y-6.46
X19.761Y-14.812
X19.905Y-12.568
X20.119Y-7.827
X21.039Y-9.421
X21.062Y-16.73
X21.8Y-13.0
X22.02Y-9.898
X22.204Y-14.658
M30
