%TF.GenerationSoftware,KiCad,Pcbnew,10.0.6*%
%TF.CreationDate,2026-09-05T06:06:38+08:00*%
%TF.ProjectId,halo_rev_a,68616c6f-5f72-4657-965f-612e6b696361,rev?*%
%TF.SameCoordinates,Original*%
%TF.FileFunction,Copper,L3,Inr*%
%TF.FilePolarity,Positive*%
%FSLAX46Y46*%
G04 Gerber Fmt 4.6, Leading zero omitted, Abs format (unit mm)*
G04 Created by KiCad (PCBNEW 10.0.6) date 2026-09-05 06:06:38*
%MOMM*%
%LPD*%
G01*
G04 APERTURE LIST*
%TA.AperFunction,ViaPad*%
%ADD10C,0.450000*%
%TD*%
G04 APERTURE END LIST*
D10*
%TO.N,GND*%
X9500000Y-6937822D03*
X4392301Y-14829623D03*
X12097029Y-7879000D03*
X21061832Y-16730240D03*
X13919850Y-4248207D03*
X16480903Y-21056775D03*
X10400000Y-17503332D03*
X10280650Y-4630703D03*
X10400000Y-8496668D03*
X19904897Y-12567510D03*
X4200000Y-13000000D03*
X4960800Y-9420718D03*
X16983431Y-16342496D03*
X22020388Y-9897785D03*
X12488903Y-19320384D03*
X16500000Y-19062178D03*
X13000000Y-6000000D03*
X6937822Y-16500000D03*
X15600000Y-17503332D03*
X8050253Y-17949747D03*
X6238519Y-11188267D03*
X8642820Y-20396537D03*
X19761481Y-14811733D03*
X11188267Y-6238519D03*
X5369524Y-12292358D03*
X18429464Y-15502151D03*
X18200000Y-13000000D03*
X17949747Y-17949747D03*
X18888349Y-6460326D03*
X15719350Y-4630703D03*
X21039200Y-9420718D03*
X20119350Y-7827490D03*
X6000000Y-13000000D03*
X7613154Y-11903315D03*
X22204082Y-14658300D03*
X4960800Y-16579282D03*
X13372306Y-20096909D03*
X21800000Y-13000000D03*
X14811733Y-6238519D03*
X12080150Y-4248207D03*
%TO.N,VDD*%
X14700000Y-24600000D03*
X1653745Y-17176579D03*
X15006539Y-20329356D03*
X13407284Y-20898537D03*
X12827284Y-21978537D03*
X10520869Y-15772190D03*
X8892938Y-12703670D03*
X7606380Y-19529047D03*
X5235918Y-11341700D03*
%TD*%
%TA.AperFunction,Conductor*%
%TO.N,VDD*%
G36*
X9472527Y-1502038D02*
G01*
X9499024Y-1548828D01*
X9540630Y-1684913D01*
X10105519Y-3532582D01*
X10105519Y-3532581D01*
X10105520Y-3532583D01*
X10428754Y-3439769D01*
X10432749Y-3438696D01*
X10756917Y-3357496D01*
X10761019Y-3356543D01*
X11087741Y-3286475D01*
X11091852Y-3285666D01*
X11420812Y-3226798D01*
X11424931Y-3226134D01*
X11755724Y-3178539D01*
X11759812Y-3178022D01*
X12092052Y-3141758D01*
X12096213Y-3141375D01*
X12429457Y-3116489D01*
X12433674Y-3116247D01*
X12767566Y-3102764D01*
X12771686Y-3102668D01*
X13105948Y-3100601D01*
X13110074Y-3100647D01*
X13444133Y-3110002D01*
X13448295Y-3110190D01*
X13781796Y-3130953D01*
X13786006Y-3131287D01*
X14104128Y-3162036D01*
X14118612Y-3163436D01*
X14122822Y-3163916D01*
X14454074Y-3207403D01*
X14458267Y-3208026D01*
X14478030Y-3211311D01*
X14787907Y-3262819D01*
X14792070Y-3263586D01*
X14879425Y-3281193D01*
X15119598Y-3329602D01*
X15123689Y-3330499D01*
X15448833Y-3407684D01*
X15452868Y-3408714D01*
X15774629Y-3496815D01*
X15775184Y-3496967D01*
X15779247Y-3498154D01*
X16098320Y-3597356D01*
X16102288Y-3598665D01*
X16417842Y-3708732D01*
X16421725Y-3710161D01*
X16733326Y-3830945D01*
X16737237Y-3832539D01*
X17044458Y-3963870D01*
X17048326Y-3965602D01*
X17350911Y-4107370D01*
X17354717Y-4109234D01*
X17440675Y-4153150D01*
X17652234Y-4261235D01*
X17655951Y-4263214D01*
X17847422Y-4369440D01*
X17948149Y-4425322D01*
X17951819Y-4427441D01*
X18238268Y-4599415D01*
X18241864Y-4601658D01*
X18522292Y-4783335D01*
X18525809Y-4785700D01*
X18799857Y-4976850D01*
X18803280Y-4979325D01*
X19070673Y-5179755D01*
X19073967Y-5182314D01*
X19228363Y-5306507D01*
X19334328Y-5391743D01*
X19337585Y-5394456D01*
X19590620Y-5612646D01*
X19593781Y-5615467D01*
X19839221Y-5842183D01*
X19842285Y-5845112D01*
X19899732Y-5901936D01*
X20063395Y-6063824D01*
X20079831Y-6080081D01*
X20082784Y-6083104D01*
X20283869Y-6296086D01*
X20312157Y-6326047D01*
X20315003Y-6329166D01*
X20399920Y-6425500D01*
X20535975Y-6579847D01*
X20538722Y-6583074D01*
X20652652Y-6721589D01*
X20727436Y-6812512D01*
X20750944Y-6841092D01*
X20753571Y-6844399D01*
X20956912Y-7109597D01*
X20959397Y-7112955D01*
X21153538Y-7384921D01*
X21155931Y-7388398D01*
X21338285Y-7663253D01*
X21340662Y-7666835D01*
X21342935Y-7670393D01*
X21505760Y-7935017D01*
X21518035Y-7954966D01*
X21520188Y-7958603D01*
X21568358Y-8043239D01*
X21685459Y-8248992D01*
X21687492Y-8252710D01*
X21842749Y-8548586D01*
X21844648Y-8552362D01*
X21897799Y-8662657D01*
X21989696Y-8853358D01*
X21991470Y-8857206D01*
X22126145Y-9162975D01*
X22127787Y-9166882D01*
X22181949Y-9302210D01*
X22188584Y-9371764D01*
X22156562Y-9433863D01*
X22096049Y-9468792D01*
X22066827Y-9472285D01*
X21964370Y-9472285D01*
X21856151Y-9501282D01*
X21856148Y-9501283D01*
X21759128Y-9557298D01*
X21759122Y-9557302D01*
X21679905Y-9636519D01*
X21679901Y-9636525D01*
X21671628Y-9650853D01*
X21671622Y-9650863D01*
X21623885Y-9733548D01*
X21594888Y-9841767D01*
X21594888Y-9953803D01*
X21623885Y-10062022D01*
X21679903Y-10159048D01*
X21759125Y-10238270D01*
X21856151Y-10294288D01*
X21964370Y-10323285D01*
X21964372Y-10323285D01*
X22076404Y-10323285D01*
X22076406Y-10323285D01*
X22184625Y-10294288D01*
X22281651Y-10238270D01*
X22306811Y-10213109D01*
X22368130Y-10179626D01*
X22437822Y-10184610D01*
X22493756Y-10226480D01*
X22513723Y-10266742D01*
X22521590Y-10294288D01*
X22563945Y-10442609D01*
X22565039Y-10446703D01*
X22646264Y-10772985D01*
X24667491Y-10306347D01*
X24737239Y-10310447D01*
X24793700Y-10351604D01*
X24816445Y-10400330D01*
X24834840Y-10483303D01*
X24835290Y-10485420D01*
X24876962Y-10690242D01*
X24877375Y-10692367D01*
X24915472Y-10897920D01*
X24915839Y-10900005D01*
X24940041Y-11044629D01*
X24950333Y-11106132D01*
X24950671Y-11108269D01*
X24981570Y-11315018D01*
X24981871Y-11317160D01*
X25009147Y-11524338D01*
X25009411Y-11526487D01*
X25033078Y-11734215D01*
X25033304Y-11736367D01*
X25053334Y-11944380D01*
X25053523Y-11946537D01*
X25069920Y-12154896D01*
X25070071Y-12157054D01*
X25082831Y-12365680D01*
X25082944Y-12367841D01*
X25092062Y-12576674D01*
X25092138Y-12578837D01*
X25097609Y-12787767D01*
X25097646Y-12789931D01*
X25099470Y-12998917D01*
X25099470Y-13001081D01*
X25097646Y-13210067D01*
X25097609Y-13212231D01*
X25092138Y-13421161D01*
X25092062Y-13423324D01*
X25082944Y-13632157D01*
X25082831Y-13634318D01*
X25070071Y-13842944D01*
X25069920Y-13845102D01*
X25053523Y-14053461D01*
X25053334Y-14055618D01*
X25033304Y-14263631D01*
X25033078Y-14265783D01*
X25009411Y-14473511D01*
X25009147Y-14475660D01*
X24981871Y-14682838D01*
X24981570Y-14684980D01*
X24950671Y-14891729D01*
X24950333Y-14893866D01*
X24924316Y-15049344D01*
X24915848Y-15099946D01*
X24915472Y-15102078D01*
X24877375Y-15307631D01*
X24876962Y-15309756D01*
X24835290Y-15514579D01*
X24834840Y-15516696D01*
X24788627Y-15725144D01*
X24788540Y-15725531D01*
X24774304Y-15788782D01*
X24774256Y-15789342D01*
X24774220Y-15789739D01*
X24774164Y-15790356D01*
X24774165Y-15790383D01*
X24774165Y-15790385D01*
X24776446Y-15842637D01*
X24776989Y-15855059D01*
X24777006Y-15855458D01*
X24779634Y-15920472D01*
X24779771Y-15921243D01*
X24779844Y-15921658D01*
X24779908Y-15922028D01*
X24779912Y-15922043D01*
X24779913Y-15922044D01*
X24795883Y-15972697D01*
X24799372Y-15983761D01*
X24799491Y-15984141D01*
X24818860Y-16046268D01*
X24819008Y-16046585D01*
X24819196Y-16046990D01*
X24819525Y-16047703D01*
X24819541Y-16047728D01*
X24854542Y-16102670D01*
X24855066Y-16103498D01*
X24889318Y-16157645D01*
X24889943Y-16158390D01*
X24890179Y-16158673D01*
X24890345Y-16158873D01*
X24933546Y-16198457D01*
X24938457Y-16202957D01*
X24977315Y-16238795D01*
X24997494Y-16257405D01*
X25033429Y-16317325D01*
X25032917Y-16381695D01*
X25015565Y-16444264D01*
X25014969Y-16446344D01*
X24953609Y-16653491D01*
X24952976Y-16655561D01*
X24888025Y-16861556D01*
X24887356Y-16863615D01*
X24818823Y-17068434D01*
X24818119Y-17070478D01*
X24746017Y-17274092D01*
X24745276Y-17276127D01*
X24669669Y-17478347D01*
X24668894Y-17480367D01*
X24589720Y-17681363D01*
X24588909Y-17683370D01*
X24506246Y-17882935D01*
X24505400Y-17884927D01*
X24419253Y-18083052D01*
X24418373Y-18085030D01*
X24328847Y-18281474D01*
X24327933Y-18283434D01*
X24234909Y-18478465D01*
X24233960Y-18480411D01*
X24137604Y-18673670D01*
X24136621Y-18675598D01*
X24036880Y-18867198D01*
X24035864Y-18869109D01*
X23932796Y-19058937D01*
X23931747Y-19060830D01*
X23825375Y-19248841D01*
X23824293Y-19250714D01*
X23714719Y-19436737D01*
X23713604Y-19438593D01*
X23600715Y-19622810D01*
X23599578Y-19624629D01*
X23553315Y-19697248D01*
X23483552Y-19806753D01*
X23482374Y-19808567D01*
X23363154Y-19988690D01*
X23361944Y-19990484D01*
X23239577Y-20168529D01*
X23238335Y-20170302D01*
X23112893Y-20346164D01*
X23111622Y-20347915D01*
X22983149Y-20521536D01*
X22981892Y-20523204D01*
X22920173Y-20603638D01*
X22850373Y-20694603D01*
X22849040Y-20696308D01*
X22714590Y-20865333D01*
X22713229Y-20867015D01*
X22575834Y-21033689D01*
X22574443Y-21035346D01*
X22434194Y-21199559D01*
X22432773Y-21201193D01*
X22289628Y-21362988D01*
X22288180Y-21364596D01*
X22142282Y-21523816D01*
X22140806Y-21525399D01*
X21992118Y-21682083D01*
X21990615Y-21683640D01*
X21839202Y-21837718D01*
X21837671Y-21839248D01*
X21683672Y-21990581D01*
X21682117Y-21992084D01*
X21525425Y-22140782D01*
X21523841Y-22142259D01*
X21364552Y-22288219D01*
X21362944Y-22289666D01*
X21201246Y-22432725D01*
X21199613Y-22434145D01*
X21035352Y-22574437D01*
X21033694Y-22575829D01*
X20866952Y-22713280D01*
X20865270Y-22714642D01*
X20696342Y-22849013D01*
X20694637Y-22850344D01*
X20523183Y-22981907D01*
X20521454Y-22983210D01*
X20347865Y-23111659D01*
X20346114Y-23112931D01*
X20170299Y-23238338D01*
X20168526Y-23239580D01*
X19990518Y-23361921D01*
X19988724Y-23363131D01*
X19808605Y-23482348D01*
X19806791Y-23483526D01*
X19624652Y-23599563D01*
X19622816Y-23600710D01*
X19438607Y-23713594D01*
X19436751Y-23714709D01*
X19250718Y-23824290D01*
X19248845Y-23825372D01*
X19060756Y-23931789D01*
X19058864Y-23932837D01*
X18890720Y-24024132D01*
X18869123Y-24035858D01*
X18867212Y-24036874D01*
X18675603Y-24136619D01*
X18673675Y-24137602D01*
X18480393Y-24233969D01*
X18478447Y-24234918D01*
X18283455Y-24327923D01*
X18281495Y-24328837D01*
X18084990Y-24418391D01*
X18083012Y-24419271D01*
X17884971Y-24505382D01*
X17882979Y-24506228D01*
X17683370Y-24588909D01*
X17681363Y-24589720D01*
X17480367Y-24668894D01*
X17478347Y-24669669D01*
X17276127Y-24745276D01*
X17274093Y-24746017D01*
X17070421Y-24818140D01*
X17068375Y-24818844D01*
X16863584Y-24887367D01*
X16861525Y-24888036D01*
X16655586Y-24952968D01*
X16653517Y-24953601D01*
X16446344Y-25014969D01*
X16444263Y-25015565D01*
X16236109Y-25073291D01*
X16234019Y-25073851D01*
X16024983Y-25127912D01*
X16022883Y-25128436D01*
X15812837Y-25178863D01*
X15810728Y-25179350D01*
X15599803Y-25226110D01*
X15597686Y-25226560D01*
X15386100Y-25269607D01*
X15383977Y-25270020D01*
X15171539Y-25309394D01*
X15169406Y-25309769D01*
X14956419Y-25345410D01*
X14954283Y-25345749D01*
X14740640Y-25377679D01*
X14738496Y-25377980D01*
X14524367Y-25406170D01*
X14522219Y-25406434D01*
X14307626Y-25430884D01*
X14305474Y-25431110D01*
X14090478Y-25451812D01*
X14088321Y-25452001D01*
X13873004Y-25468946D01*
X13870846Y-25469097D01*
X13655240Y-25482284D01*
X13653079Y-25482397D01*
X13437338Y-25491817D01*
X13435175Y-25491893D01*
X13219177Y-25497549D01*
X13217013Y-25497586D01*
X13001082Y-25499470D01*
X12998918Y-25499470D01*
X12782987Y-25497586D01*
X12780823Y-25497549D01*
X12564822Y-25491893D01*
X12562659Y-25491817D01*
X12346919Y-25482397D01*
X12344758Y-25482284D01*
X12129152Y-25469097D01*
X12126993Y-25468946D01*
X11911630Y-25451997D01*
X11909474Y-25451808D01*
X11694542Y-25431112D01*
X11692390Y-25430886D01*
X11477773Y-25406433D01*
X11475625Y-25406169D01*
X11261492Y-25377978D01*
X11259349Y-25377677D01*
X11045740Y-25345753D01*
X11043603Y-25345415D01*
X10830518Y-25309758D01*
X10828385Y-25309381D01*
X10616086Y-25270032D01*
X10613963Y-25269620D01*
X10402312Y-25226560D01*
X10400195Y-25226110D01*
X10189270Y-25179350D01*
X10187174Y-25178866D01*
X10150802Y-25170134D01*
X9977130Y-25128439D01*
X9975030Y-25127915D01*
X9912176Y-25111660D01*
X9852201Y-25075818D01*
X9822249Y-25018838D01*
X9804610Y-24940468D01*
X9804523Y-24940076D01*
X9790489Y-24876767D01*
X9790281Y-24876201D01*
X9790149Y-24875841D01*
X9789942Y-24875272D01*
X9759663Y-24817561D01*
X9729640Y-24759888D01*
X9729639Y-24759887D01*
X9729628Y-24759865D01*
X9729067Y-24759069D01*
X9728869Y-24758788D01*
X9728712Y-24758565D01*
X9728708Y-24758561D01*
X9728708Y-24758560D01*
X9684590Y-24710724D01*
X9667240Y-24691789D01*
X9640607Y-24662722D01*
X9640431Y-24662576D01*
X9640157Y-24662347D01*
X9639388Y-24661702D01*
X9639365Y-24661687D01*
X9639364Y-24661686D01*
X9584559Y-24627018D01*
X9584344Y-24626881D01*
X9529444Y-24591906D01*
X9528828Y-24591622D01*
X9528422Y-24591433D01*
X9528013Y-24591242D01*
X9523131Y-24589720D01*
X9465911Y-24571880D01*
X9465531Y-24571761D01*
X9262083Y-24507614D01*
X9260025Y-24506945D01*
X9061792Y-24440617D01*
X9059786Y-24439927D01*
X8862648Y-24370116D01*
X8860726Y-24369416D01*
X8826034Y-24356445D01*
X8664941Y-24296214D01*
X8663011Y-24295473D01*
X8468442Y-24218832D01*
X8466457Y-24218030D01*
X8273397Y-24138062D01*
X8271405Y-24137217D01*
X8079650Y-24053840D01*
X8077673Y-24052959D01*
X7887563Y-23966320D01*
X7885602Y-23965406D01*
X7696898Y-23875399D01*
X7694953Y-23874450D01*
X7584634Y-23819448D01*
X7507889Y-23781184D01*
X7506029Y-23780237D01*
X7320594Y-23683705D01*
X7318699Y-23682698D01*
X7237392Y-23638552D01*
X7134992Y-23582952D01*
X7133178Y-23581947D01*
X6951164Y-23478969D01*
X6949317Y-23477902D01*
X6786428Y-23381954D01*
X6769238Y-23371828D01*
X6767434Y-23370745D01*
X6589140Y-23261486D01*
X6587321Y-23260349D01*
X6554720Y-23239580D01*
X6462786Y-23181011D01*
X6411106Y-23148087D01*
X6409291Y-23146909D01*
X6234955Y-23031519D01*
X6233161Y-23030309D01*
X6060916Y-22911928D01*
X6059172Y-22910707D01*
X5888921Y-22789268D01*
X5887270Y-22788069D01*
X5875280Y-22779197D01*
X5719204Y-22663705D01*
X5717477Y-22662403D01*
X5604650Y-22575829D01*
X5551635Y-22535150D01*
X5549999Y-22533872D01*
X5423765Y-22433460D01*
X5386442Y-22403772D01*
X5384760Y-22402410D01*
X5223399Y-22269394D01*
X5221742Y-22268003D01*
X5062836Y-22132285D01*
X5061202Y-22130865D01*
X4904671Y-21992378D01*
X4903063Y-21990930D01*
X4745823Y-21846846D01*
X4745529Y-21846576D01*
X4697686Y-21802452D01*
X4697263Y-21802156D01*
X4696878Y-21801885D01*
X4696397Y-21801546D01*
X4638744Y-21771532D01*
X4638394Y-21771350D01*
X4619488Y-21761431D01*
X4581004Y-21741240D01*
X4581002Y-21741239D01*
X4580971Y-21741223D01*
X4580205Y-21740945D01*
X4579756Y-21740781D01*
X4579492Y-21740684D01*
X4515944Y-21726595D01*
X4515557Y-21726509D01*
X4452415Y-21712298D01*
X4451934Y-21712256D01*
X4451568Y-21712223D01*
X4450845Y-21712157D01*
X4386058Y-21714986D01*
X4385662Y-21715003D01*
X4339987Y-21716850D01*
X4320760Y-21717628D01*
X4320759Y-21717628D01*
X4320737Y-21717629D01*
X4320234Y-21717718D01*
X4319792Y-21717795D01*
X4319183Y-21717900D01*
X4257219Y-21737436D01*
X4256841Y-21737554D01*
X4180256Y-21761431D01*
X4110396Y-21762592D01*
X4054906Y-21729964D01*
X4042872Y-21717718D01*
X4009384Y-21683640D01*
X4007913Y-21682117D01*
X3955776Y-21627177D01*
X3859210Y-21525418D01*
X3857739Y-21523841D01*
X3711779Y-21364552D01*
X3710332Y-21362944D01*
X3567273Y-21201246D01*
X3565853Y-21199612D01*
X3457857Y-21073164D01*
X3457854Y-21073162D01*
X3425561Y-21035352D01*
X3424169Y-21033694D01*
X3397018Y-21000757D01*
X16055403Y-21000757D01*
X16055403Y-21112793D01*
X16084400Y-21221012D01*
X16140418Y-21318038D01*
X16219640Y-21397260D01*
X16316666Y-21453278D01*
X16424885Y-21482275D01*
X16424887Y-21482275D01*
X16536919Y-21482275D01*
X16536921Y-21482275D01*
X16645140Y-21453278D01*
X16742166Y-21397260D01*
X16821388Y-21318038D01*
X16877406Y-21221012D01*
X16906403Y-21112793D01*
X16906403Y-21000757D01*
X16877406Y-20892538D01*
X16821388Y-20795512D01*
X16742166Y-20716290D01*
X16645140Y-20660272D01*
X16536921Y-20631275D01*
X16424885Y-20631275D01*
X16316666Y-20660272D01*
X16316663Y-20660273D01*
X16219643Y-20716288D01*
X16219637Y-20716292D01*
X16140420Y-20795509D01*
X16140416Y-20795515D01*
X16084401Y-20892535D01*
X16084400Y-20892538D01*
X16055403Y-21000757D01*
X3397018Y-21000757D01*
X3286718Y-20866952D01*
X3285403Y-20865328D01*
X3150958Y-20696308D01*
X3149654Y-20694637D01*
X3018091Y-20523183D01*
X3016832Y-20521513D01*
X2888307Y-20347821D01*
X2887099Y-20346159D01*
X2883076Y-20340519D01*
X8217320Y-20340519D01*
X8217320Y-20452555D01*
X8246317Y-20560774D01*
X8302335Y-20657800D01*
X8381557Y-20737022D01*
X8478583Y-20793040D01*
X8586802Y-20822037D01*
X8586804Y-20822037D01*
X8698836Y-20822037D01*
X8698838Y-20822037D01*
X8807057Y-20793040D01*
X8904083Y-20737022D01*
X8983305Y-20657800D01*
X9039323Y-20560774D01*
X9068320Y-20452555D01*
X9068320Y-20340519D01*
X9039323Y-20232300D01*
X8983305Y-20135274D01*
X8904083Y-20056052D01*
X8877823Y-20040891D01*
X12946806Y-20040891D01*
X12946806Y-20152927D01*
X12975803Y-20261146D01*
X13031821Y-20358172D01*
X13111043Y-20437394D01*
X13208069Y-20493412D01*
X13316288Y-20522409D01*
X13316290Y-20522409D01*
X13428322Y-20522409D01*
X13428324Y-20522409D01*
X13536543Y-20493412D01*
X13633569Y-20437394D01*
X13712791Y-20358172D01*
X13768809Y-20261146D01*
X13797806Y-20152927D01*
X13797806Y-20040891D01*
X13768809Y-19932672D01*
X13712791Y-19835646D01*
X13633569Y-19756424D01*
X13536543Y-19700406D01*
X13428324Y-19671409D01*
X13316288Y-19671409D01*
X13208069Y-19700406D01*
X13208066Y-19700407D01*
X13111046Y-19756422D01*
X13111040Y-19756426D01*
X13031823Y-19835643D01*
X13031819Y-19835649D01*
X12975804Y-19932669D01*
X12975803Y-19932672D01*
X12946806Y-20040891D01*
X8877823Y-20040891D01*
X8807057Y-20000034D01*
X8698838Y-19971037D01*
X8586802Y-19971037D01*
X8478583Y-20000034D01*
X8478580Y-20000035D01*
X8381560Y-20056050D01*
X8381554Y-20056054D01*
X8302337Y-20135271D01*
X8302333Y-20135277D01*
X8246318Y-20232297D01*
X8246317Y-20232300D01*
X8217320Y-20340519D01*
X2883076Y-20340519D01*
X2805681Y-20232014D01*
X2761660Y-20170299D01*
X2760418Y-20168526D01*
X2638077Y-19990518D01*
X2636867Y-19988724D01*
X2517650Y-19808605D01*
X2516472Y-19806791D01*
X2400435Y-19624652D01*
X2399288Y-19622816D01*
X2399284Y-19622810D01*
X2286388Y-19438582D01*
X2285295Y-19436761D01*
X2216032Y-19319175D01*
X2216031Y-19319174D01*
X2183747Y-19264366D01*
X12063403Y-19264366D01*
X12063403Y-19376402D01*
X12085450Y-19458681D01*
X12092400Y-19484620D01*
X12092401Y-19484623D01*
X12094164Y-19487677D01*
X12148418Y-19581647D01*
X12227640Y-19660869D01*
X12324666Y-19716887D01*
X12432885Y-19745884D01*
X12432887Y-19745884D01*
X12544919Y-19745884D01*
X12544921Y-19745884D01*
X12653140Y-19716887D01*
X12750166Y-19660869D01*
X12829388Y-19581647D01*
X12885406Y-19484621D01*
X12914403Y-19376402D01*
X12914403Y-19264366D01*
X12885406Y-19156147D01*
X12835784Y-19070199D01*
X12829915Y-19060033D01*
X12829914Y-19060032D01*
X12829392Y-19059127D01*
X12829389Y-19059124D01*
X12829388Y-19059121D01*
X12776427Y-19006160D01*
X16074500Y-19006160D01*
X16074500Y-19118196D01*
X16103497Y-19226415D01*
X16159515Y-19323441D01*
X16238737Y-19402663D01*
X16335763Y-19458681D01*
X16443982Y-19487678D01*
X16443984Y-19487678D01*
X16556016Y-19487678D01*
X16556018Y-19487678D01*
X16664237Y-19458681D01*
X16761263Y-19402663D01*
X16840485Y-19323441D01*
X16896503Y-19226415D01*
X16925500Y-19118196D01*
X16925500Y-19006160D01*
X16896503Y-18897941D01*
X16840485Y-18800915D01*
X16761263Y-18721693D01*
X16679713Y-18674610D01*
X16664239Y-18665676D01*
X16664238Y-18665675D01*
X16664237Y-18665675D01*
X16556018Y-18636678D01*
X16443982Y-18636678D01*
X16335763Y-18665675D01*
X16335760Y-18665676D01*
X16238740Y-18721691D01*
X16238734Y-18721695D01*
X16159517Y-18800912D01*
X16159513Y-18800918D01*
X16103498Y-18897938D01*
X16103497Y-18897941D01*
X16074500Y-19006160D01*
X12776427Y-19006160D01*
X12750166Y-18979899D01*
X12653140Y-18923881D01*
X12544921Y-18894884D01*
X12432885Y-18894884D01*
X12324666Y-18923881D01*
X12324663Y-18923882D01*
X12227643Y-18979897D01*
X12227637Y-18979901D01*
X12148420Y-19059118D01*
X12148416Y-19059124D01*
X12092401Y-19156144D01*
X12092400Y-19156147D01*
X12063403Y-19264366D01*
X2183747Y-19264366D01*
X2175691Y-19250690D01*
X2174609Y-19248816D01*
X2161935Y-19226415D01*
X2068187Y-19060716D01*
X2067201Y-19058937D01*
X1964083Y-18869016D01*
X1963155Y-18867272D01*
X1863363Y-18675573D01*
X1862396Y-18673675D01*
X1858407Y-18665675D01*
X1766022Y-18480380D01*
X1765080Y-18478447D01*
X1672065Y-18283434D01*
X1671151Y-18281474D01*
X1581556Y-18084875D01*
X1580745Y-18083052D01*
X1498424Y-17893729D01*
X7624753Y-17893729D01*
X7624753Y-18005765D01*
X7653750Y-18113984D01*
X7709768Y-18211010D01*
X7788990Y-18290232D01*
X7886016Y-18346250D01*
X7994235Y-18375247D01*
X7994237Y-18375247D01*
X8106269Y-18375247D01*
X8106271Y-18375247D01*
X8214490Y-18346250D01*
X8311516Y-18290232D01*
X8390738Y-18211010D01*
X8446756Y-18113984D01*
X8475753Y-18005765D01*
X8475753Y-17893729D01*
X8446756Y-17785510D01*
X8390738Y-17688484D01*
X8311516Y-17609262D01*
X8225064Y-17559349D01*
X8214492Y-17553245D01*
X8214490Y-17553244D01*
X8106271Y-17524247D01*
X7994235Y-17524247D01*
X7886016Y-17553244D01*
X7886013Y-17553245D01*
X7788993Y-17609260D01*
X7788987Y-17609264D01*
X7709770Y-17688481D01*
X7709766Y-17688487D01*
X7653751Y-17785507D01*
X7653750Y-17785510D01*
X7624753Y-17893729D01*
X1498424Y-17893729D01*
X1494578Y-17884884D01*
X1493770Y-17882979D01*
X1477547Y-17843814D01*
X1411077Y-17683341D01*
X1410278Y-17681363D01*
X1407946Y-17675444D01*
X1331104Y-17480367D01*
X1330329Y-17478347D01*
X1318726Y-17447314D01*
X9974500Y-17447314D01*
X9974500Y-17559350D01*
X9987875Y-17609264D01*
X10003497Y-17667568D01*
X10003498Y-17667571D01*
X10015572Y-17688484D01*
X10059515Y-17764595D01*
X10138737Y-17843817D01*
X10235763Y-17899835D01*
X10343982Y-17928832D01*
X10343984Y-17928832D01*
X10456016Y-17928832D01*
X10456018Y-17928832D01*
X10564237Y-17899835D01*
X10661263Y-17843817D01*
X10740485Y-17764595D01*
X10796503Y-17667569D01*
X10825500Y-17559350D01*
X10825500Y-17447314D01*
X15174500Y-17447314D01*
X15174500Y-17559350D01*
X15187875Y-17609264D01*
X15203497Y-17667568D01*
X15203498Y-17667571D01*
X15215572Y-17688484D01*
X15259515Y-17764595D01*
X15338737Y-17843817D01*
X15435763Y-17899835D01*
X15543982Y-17928832D01*
X15543984Y-17928832D01*
X15656016Y-17928832D01*
X15656018Y-17928832D01*
X15764237Y-17899835D01*
X15774813Y-17893729D01*
X17524247Y-17893729D01*
X17524247Y-18005765D01*
X17553244Y-18113984D01*
X17609262Y-18211010D01*
X17688484Y-18290232D01*
X17785510Y-18346250D01*
X17893729Y-18375247D01*
X17893731Y-18375247D01*
X18005763Y-18375247D01*
X18005765Y-18375247D01*
X18113984Y-18346250D01*
X18211010Y-18290232D01*
X18290232Y-18211010D01*
X18346250Y-18113984D01*
X18375247Y-18005765D01*
X18375247Y-17893729D01*
X18346250Y-17785510D01*
X18290232Y-17688484D01*
X18211010Y-17609262D01*
X18124558Y-17559349D01*
X18113986Y-17553245D01*
X18113985Y-17553244D01*
X18113984Y-17553244D01*
X18005765Y-17524247D01*
X17893729Y-17524247D01*
X17785510Y-17553244D01*
X17785507Y-17553245D01*
X17688487Y-17609260D01*
X17688481Y-17609264D01*
X17609264Y-17688481D01*
X17609260Y-17688487D01*
X17553245Y-17785507D01*
X17553244Y-17785510D01*
X17524247Y-17893729D01*
X15774813Y-17893729D01*
X15861263Y-17843817D01*
X15940485Y-17764595D01*
X15996503Y-17667569D01*
X16025500Y-17559350D01*
X16025500Y-17447314D01*
X15996503Y-17339095D01*
X15940485Y-17242069D01*
X15861263Y-17162847D01*
X15775873Y-17113547D01*
X15764239Y-17106830D01*
X15764238Y-17106829D01*
X15764237Y-17106829D01*
X15656018Y-17077832D01*
X15543982Y-17077832D01*
X15435763Y-17106829D01*
X15435760Y-17106830D01*
X15338740Y-17162845D01*
X15338734Y-17162849D01*
X15259517Y-17242066D01*
X15259513Y-17242072D01*
X15203498Y-17339092D01*
X15203497Y-17339095D01*
X15174500Y-17447314D01*
X10825500Y-17447314D01*
X10796503Y-17339095D01*
X10740485Y-17242069D01*
X10661263Y-17162847D01*
X10575873Y-17113547D01*
X10564239Y-17106830D01*
X10564238Y-17106829D01*
X10564237Y-17106829D01*
X10456018Y-17077832D01*
X10343982Y-17077832D01*
X10235763Y-17106829D01*
X10235760Y-17106830D01*
X10138740Y-17162845D01*
X10138734Y-17162849D01*
X10059517Y-17242066D01*
X10059513Y-17242072D01*
X10003498Y-17339092D01*
X10003497Y-17339095D01*
X9974500Y-17447314D01*
X1318726Y-17447314D01*
X1254686Y-17276029D01*
X1254001Y-17274148D01*
X1181858Y-17070421D01*
X1181154Y-17068375D01*
X1159876Y-17004782D01*
X1112621Y-16863553D01*
X1111962Y-16861525D01*
X1105346Y-16840541D01*
X1047019Y-16655551D01*
X1046397Y-16653517D01*
X1046389Y-16653491D01*
X1007815Y-16523266D01*
X1007814Y-16523264D01*
X4535300Y-16523264D01*
X4535300Y-16635300D01*
X4563086Y-16738997D01*
X4564297Y-16743518D01*
X4564298Y-16743521D01*
X4574543Y-16761265D01*
X4620315Y-16840545D01*
X4699537Y-16919767D01*
X4796563Y-16975785D01*
X4904782Y-17004782D01*
X4904784Y-17004782D01*
X5016816Y-17004782D01*
X5016818Y-17004782D01*
X5125037Y-16975785D01*
X5222063Y-16919767D01*
X5301285Y-16840545D01*
X5357303Y-16743519D01*
X5386300Y-16635300D01*
X5386300Y-16523264D01*
X5365057Y-16443982D01*
X6512322Y-16443982D01*
X6512322Y-16556018D01*
X6541319Y-16664237D01*
X6597337Y-16761263D01*
X6676559Y-16840485D01*
X6773585Y-16896503D01*
X6881804Y-16925500D01*
X6881806Y-16925500D01*
X6993838Y-16925500D01*
X6993840Y-16925500D01*
X7102059Y-16896503D01*
X7199085Y-16840485D01*
X7278307Y-16761263D01*
X7334325Y-16664237D01*
X7363322Y-16556018D01*
X7363322Y-16443982D01*
X7334325Y-16335763D01*
X7305870Y-16286478D01*
X16557931Y-16286478D01*
X16557931Y-16398514D01*
X16586928Y-16506733D01*
X16642946Y-16603759D01*
X16722168Y-16682981D01*
X16819194Y-16738999D01*
X16927413Y-16767996D01*
X16927415Y-16767996D01*
X17039447Y-16767996D01*
X17039449Y-16767996D01*
X17147668Y-16738999D01*
X17244694Y-16682981D01*
X17253453Y-16674222D01*
X20636332Y-16674222D01*
X20636332Y-16786258D01*
X20657052Y-16863584D01*
X20665329Y-16894476D01*
X20665330Y-16894479D01*
X20666498Y-16896502D01*
X20721347Y-16991503D01*
X20800569Y-17070725D01*
X20897595Y-17126743D01*
X21005814Y-17155740D01*
X21005816Y-17155740D01*
X21117848Y-17155740D01*
X21117850Y-17155740D01*
X21226069Y-17126743D01*
X21323095Y-17070725D01*
X21402317Y-16991503D01*
X21458335Y-16894477D01*
X21487332Y-16786258D01*
X21487332Y-16674222D01*
X21458335Y-16566003D01*
X21402317Y-16468977D01*
X21323095Y-16389755D01*
X21226069Y-16333737D01*
X21117850Y-16304740D01*
X21005814Y-16304740D01*
X20897595Y-16333737D01*
X20897592Y-16333738D01*
X20800572Y-16389753D01*
X20800566Y-16389757D01*
X20721349Y-16468974D01*
X20721345Y-16468980D01*
X20665330Y-16566000D01*
X20665329Y-16566003D01*
X20636332Y-16674222D01*
X17253453Y-16674222D01*
X17323916Y-16603759D01*
X17379934Y-16506733D01*
X17408931Y-16398514D01*
X17408931Y-16286478D01*
X17379934Y-16178259D01*
X17323916Y-16081233D01*
X17244694Y-16002011D01*
X17147668Y-15945993D01*
X17039449Y-15916996D01*
X16927413Y-15916996D01*
X16819194Y-15945993D01*
X16819191Y-15945994D01*
X16722171Y-16002009D01*
X16722165Y-16002013D01*
X16642948Y-16081230D01*
X16642944Y-16081236D01*
X16586929Y-16178256D01*
X16586928Y-16178259D01*
X16557931Y-16286478D01*
X7305870Y-16286478D01*
X7278307Y-16238737D01*
X7199085Y-16159515D01*
X7102059Y-16103497D01*
X6993840Y-16074500D01*
X6881804Y-16074500D01*
X6773585Y-16103497D01*
X6773582Y-16103498D01*
X6676562Y-16159513D01*
X6676556Y-16159517D01*
X6597339Y-16238734D01*
X6597335Y-16238740D01*
X6541320Y-16335760D01*
X6541319Y-16335763D01*
X6512322Y-16443982D01*
X5365057Y-16443982D01*
X5357303Y-16415045D01*
X5301285Y-16318019D01*
X5222063Y-16238797D01*
X5125037Y-16182779D01*
X5016818Y-16153782D01*
X4904782Y-16153782D01*
X4796563Y-16182779D01*
X4796560Y-16182780D01*
X4699540Y-16238795D01*
X4699534Y-16238799D01*
X4620317Y-16318016D01*
X4620313Y-16318022D01*
X4564298Y-16415042D01*
X4564298Y-16415043D01*
X4564297Y-16415045D01*
X4535300Y-16523264D01*
X1007814Y-16523264D01*
X985030Y-16446344D01*
X984433Y-16444263D01*
X926703Y-16236094D01*
X926143Y-16234004D01*
X914918Y-16190601D01*
X872066Y-16024903D01*
X871581Y-16022959D01*
X821112Y-15812740D01*
X820664Y-15810799D01*
X787066Y-15659248D01*
X773888Y-15599803D01*
X773438Y-15597686D01*
X742605Y-15446133D01*
X18003964Y-15446133D01*
X18003964Y-15558169D01*
X18032961Y-15666388D01*
X18088979Y-15763414D01*
X18168201Y-15842636D01*
X18265227Y-15898654D01*
X18373446Y-15927651D01*
X18373448Y-15927651D01*
X18485480Y-15927651D01*
X18485482Y-15927651D01*
X18593701Y-15898654D01*
X18690727Y-15842636D01*
X18769949Y-15763414D01*
X18825967Y-15666388D01*
X18854964Y-15558169D01*
X18854964Y-15446133D01*
X18825967Y-15337914D01*
X18769949Y-15240888D01*
X18690727Y-15161666D01*
X18604563Y-15111919D01*
X18593703Y-15105649D01*
X18593702Y-15105648D01*
X18593701Y-15105648D01*
X18485482Y-15076651D01*
X18373446Y-15076651D01*
X18265227Y-15105648D01*
X18265224Y-15105649D01*
X18168204Y-15161664D01*
X18168198Y-15161668D01*
X18088981Y-15240885D01*
X18088977Y-15240891D01*
X18032962Y-15337911D01*
X18032961Y-15337914D01*
X18003964Y-15446133D01*
X742605Y-15446133D01*
X730388Y-15386087D01*
X729978Y-15383977D01*
X721440Y-15337911D01*
X690598Y-15171509D01*
X690229Y-15169406D01*
X654588Y-14956419D01*
X654258Y-14954341D01*
X627246Y-14773605D01*
X3966801Y-14773605D01*
X3966801Y-14885641D01*
X3995798Y-14993860D01*
X4051816Y-15090886D01*
X4131038Y-15170108D01*
X4228064Y-15226126D01*
X4336283Y-15255123D01*
X4336285Y-15255123D01*
X4448317Y-15255123D01*
X4448319Y-15255123D01*
X4556538Y-15226126D01*
X4653564Y-15170108D01*
X4732786Y-15090886D01*
X4788804Y-14993860D01*
X4817801Y-14885641D01*
X4817801Y-14773605D01*
X4813007Y-14755715D01*
X19335981Y-14755715D01*
X19335981Y-14867751D01*
X19359740Y-14956419D01*
X19364978Y-14975969D01*
X19364979Y-14975972D01*
X19378150Y-14998785D01*
X19420996Y-15072996D01*
X19500218Y-15152218D01*
X19597244Y-15208236D01*
X19705463Y-15237233D01*
X19705465Y-15237233D01*
X19817497Y-15237233D01*
X19817499Y-15237233D01*
X19925718Y-15208236D01*
X20022744Y-15152218D01*
X20101966Y-15072996D01*
X20157984Y-14975970D01*
X20186981Y-14867751D01*
X20186981Y-14755715D01*
X20157984Y-14647496D01*
X20131880Y-14602282D01*
X21778582Y-14602282D01*
X21778582Y-14714318D01*
X21794469Y-14773607D01*
X21807579Y-14822536D01*
X21807580Y-14822539D01*
X21826251Y-14854879D01*
X21863597Y-14919563D01*
X21942819Y-14998785D01*
X22039845Y-15054803D01*
X22148064Y-15083800D01*
X22148066Y-15083800D01*
X22260098Y-15083800D01*
X22260100Y-15083800D01*
X22368319Y-15054803D01*
X22465345Y-14998785D01*
X22544567Y-14919563D01*
X22600585Y-14822537D01*
X22629582Y-14714318D01*
X22629582Y-14602282D01*
X22600585Y-14494063D01*
X22544567Y-14397037D01*
X22465345Y-14317815D01*
X22368319Y-14261797D01*
X22260100Y-14232800D01*
X22148064Y-14232800D01*
X22039845Y-14261797D01*
X22039842Y-14261798D01*
X21942822Y-14317813D01*
X21942816Y-14317817D01*
X21863599Y-14397034D01*
X21863595Y-14397040D01*
X21807580Y-14494060D01*
X21807579Y-14494063D01*
X21778582Y-14602282D01*
X20131880Y-14602282D01*
X20101966Y-14550470D01*
X20022744Y-14471248D01*
X19925718Y-14415230D01*
X19817499Y-14386233D01*
X19705463Y-14386233D01*
X19597244Y-14415230D01*
X19597241Y-14415231D01*
X19500221Y-14471246D01*
X19500215Y-14471250D01*
X19420998Y-14550467D01*
X19420994Y-14550473D01*
X19364979Y-14647493D01*
X19364978Y-14647496D01*
X19335981Y-14755715D01*
X4813007Y-14755715D01*
X4788804Y-14665386D01*
X4732786Y-14568360D01*
X4653564Y-14489138D01*
X4588880Y-14451792D01*
X4556540Y-14433121D01*
X4556539Y-14433120D01*
X4556538Y-14433120D01*
X4448319Y-14404123D01*
X4336283Y-14404123D01*
X4228064Y-14433120D01*
X4228061Y-14433121D01*
X4131041Y-14489136D01*
X4131035Y-14489140D01*
X4051818Y-14568357D01*
X4051814Y-14568363D01*
X3995799Y-14665383D01*
X3995799Y-14665384D01*
X3995798Y-14665386D01*
X3966801Y-14773605D01*
X627246Y-14773605D01*
X622313Y-14740599D01*
X622018Y-14738496D01*
X617796Y-14706429D01*
X593826Y-14524355D01*
X593564Y-14522219D01*
X588136Y-14474580D01*
X569111Y-14307600D01*
X568888Y-14305474D01*
X548178Y-14090394D01*
X548003Y-14088394D01*
X531052Y-13873004D01*
X530901Y-13870846D01*
X517714Y-13655240D01*
X517601Y-13653079D01*
X516735Y-13633253D01*
X508179Y-13437298D01*
X508105Y-13435175D01*
X507324Y-13405361D01*
X502448Y-13219159D01*
X502412Y-13217013D01*
X502361Y-13211194D01*
X500528Y-13001031D01*
X500528Y-12998916D01*
X501008Y-12943982D01*
X3774500Y-12943982D01*
X3774500Y-13056017D01*
X3803497Y-13164236D01*
X3803498Y-13164239D01*
X3806708Y-13169798D01*
X3859515Y-13261263D01*
X3938737Y-13340485D01*
X4035763Y-13396503D01*
X4143982Y-13425500D01*
X4143984Y-13425500D01*
X4256016Y-13425500D01*
X4256018Y-13425500D01*
X4364237Y-13396503D01*
X4461263Y-13340485D01*
X4540485Y-13261263D01*
X4596503Y-13164237D01*
X4625500Y-13056018D01*
X4625500Y-12943982D01*
X4596503Y-12835763D01*
X4540485Y-12738737D01*
X4461263Y-12659515D01*
X4373074Y-12608599D01*
X4364239Y-12603498D01*
X4364238Y-12603497D01*
X4364237Y-12603497D01*
X4256018Y-12574500D01*
X4143982Y-12574500D01*
X4035763Y-12603497D01*
X4035760Y-12603498D01*
X3938740Y-12659513D01*
X3938734Y-12659517D01*
X3859517Y-12738734D01*
X3859513Y-12738740D01*
X3803498Y-12835760D01*
X3803497Y-12835763D01*
X3774500Y-12943982D01*
X501008Y-12943982D01*
X501088Y-12934772D01*
X501088Y-12934771D01*
X502107Y-12818003D01*
X502412Y-12782963D01*
X502449Y-12780821D01*
X504420Y-12705563D01*
X508106Y-12564781D01*
X508181Y-12562660D01*
X509051Y-12542754D01*
X517602Y-12346897D01*
X517714Y-12344758D01*
X520069Y-12306250D01*
X524345Y-12236340D01*
X4944024Y-12236340D01*
X4944024Y-12348376D01*
X4973021Y-12456595D01*
X5029039Y-12553621D01*
X5108261Y-12632843D01*
X5205287Y-12688861D01*
X5313506Y-12717858D01*
X5313508Y-12717858D01*
X5425539Y-12717858D01*
X5425542Y-12717858D01*
X5443843Y-12712954D01*
X5513689Y-12714615D01*
X5571552Y-12753775D01*
X5599059Y-12818003D01*
X5595711Y-12864821D01*
X5574500Y-12943982D01*
X5574500Y-13056017D01*
X5603497Y-13164236D01*
X5603498Y-13164239D01*
X5606708Y-13169798D01*
X5659515Y-13261263D01*
X5738737Y-13340485D01*
X5835763Y-13396503D01*
X5943982Y-13425500D01*
X5943984Y-13425500D01*
X6056016Y-13425500D01*
X6056018Y-13425500D01*
X6164237Y-13396503D01*
X6261263Y-13340485D01*
X6340485Y-13261263D01*
X6396503Y-13164237D01*
X6425500Y-13056018D01*
X6425500Y-12943982D01*
X17774500Y-12943982D01*
X17774500Y-13056017D01*
X17803497Y-13164236D01*
X17803498Y-13164239D01*
X17806708Y-13169798D01*
X17859515Y-13261263D01*
X17938737Y-13340485D01*
X18035763Y-13396503D01*
X18143982Y-13425500D01*
X18143984Y-13425500D01*
X18256016Y-13425500D01*
X18256018Y-13425500D01*
X18364237Y-13396503D01*
X18461263Y-13340485D01*
X18540485Y-13261263D01*
X18596503Y-13164237D01*
X18625500Y-13056018D01*
X18625500Y-12943982D01*
X18596503Y-12835763D01*
X18540485Y-12738737D01*
X18461263Y-12659515D01*
X18373074Y-12608599D01*
X18364239Y-12603498D01*
X18364238Y-12603497D01*
X18364237Y-12603497D01*
X18256018Y-12574500D01*
X18143982Y-12574500D01*
X18035763Y-12603497D01*
X18035760Y-12603498D01*
X17938740Y-12659513D01*
X17938734Y-12659517D01*
X17859517Y-12738734D01*
X17859513Y-12738740D01*
X17803498Y-12835760D01*
X17803497Y-12835763D01*
X17774500Y-12943982D01*
X6425500Y-12943982D01*
X6396503Y-12835763D01*
X6340485Y-12738737D01*
X6261263Y-12659515D01*
X6173074Y-12608599D01*
X6164239Y-12603498D01*
X6164238Y-12603497D01*
X6164237Y-12603497D01*
X6056018Y-12574500D01*
X5943982Y-12574500D01*
X5943980Y-12574500D01*
X5925679Y-12579404D01*
X5855829Y-12577741D01*
X5797967Y-12538577D01*
X5786369Y-12511492D01*
X19479397Y-12511492D01*
X19479397Y-12623528D01*
X19508394Y-12731747D01*
X19564412Y-12828773D01*
X19643634Y-12907995D01*
X19740660Y-12964013D01*
X19848879Y-12993010D01*
X19848881Y-12993010D01*
X19960913Y-12993010D01*
X19960915Y-12993010D01*
X20069134Y-12964013D01*
X20103829Y-12943982D01*
X21374500Y-12943982D01*
X21374500Y-13056017D01*
X21403497Y-13164236D01*
X21403498Y-13164239D01*
X21406708Y-13169798D01*
X21459515Y-13261263D01*
X21538737Y-13340485D01*
X21635763Y-13396503D01*
X21743982Y-13425500D01*
X21743984Y-13425500D01*
X21856016Y-13425500D01*
X21856018Y-13425500D01*
X21964237Y-13396503D01*
X22061263Y-13340485D01*
X22140485Y-13261263D01*
X22196503Y-13164237D01*
X22225500Y-13056018D01*
X22225500Y-12943982D01*
X22196503Y-12835763D01*
X22140485Y-12738737D01*
X22061263Y-12659515D01*
X21973074Y-12608599D01*
X21964239Y-12603498D01*
X21964238Y-12603497D01*
X21964237Y-12603497D01*
X21856018Y-12574500D01*
X21743982Y-12574500D01*
X21635763Y-12603497D01*
X21635760Y-12603498D01*
X21538740Y-12659513D01*
X21538734Y-12659517D01*
X21459517Y-12738734D01*
X21459513Y-12738740D01*
X21403498Y-12835760D01*
X21403497Y-12835763D01*
X21374500Y-12943982D01*
X20103829Y-12943982D01*
X20166160Y-12907995D01*
X20245382Y-12828773D01*
X20301400Y-12731747D01*
X20330397Y-12623528D01*
X20330397Y-12511492D01*
X20301400Y-12403273D01*
X20245382Y-12306247D01*
X20166160Y-12227025D01*
X20069134Y-12171007D01*
X19960915Y-12142010D01*
X19848879Y-12142010D01*
X19740660Y-12171007D01*
X19740657Y-12171008D01*
X19643637Y-12227023D01*
X19643631Y-12227027D01*
X19564414Y-12306244D01*
X19564410Y-12306250D01*
X19508395Y-12403270D01*
X19508394Y-12403273D01*
X19479397Y-12511492D01*
X5786369Y-12511492D01*
X5770464Y-12474348D01*
X5773811Y-12427543D01*
X5795024Y-12348376D01*
X5795024Y-12236340D01*
X5766027Y-12128121D01*
X5710009Y-12031095D01*
X5630787Y-11951873D01*
X5559333Y-11910619D01*
X5533763Y-11895856D01*
X5533762Y-11895855D01*
X5533761Y-11895855D01*
X5425542Y-11866858D01*
X5313506Y-11866858D01*
X5205287Y-11895855D01*
X5205284Y-11895856D01*
X5108264Y-11951871D01*
X5108258Y-11951875D01*
X5029041Y-12031092D01*
X5029037Y-12031098D01*
X4973022Y-12128118D01*
X4973021Y-12128121D01*
X4944024Y-12236340D01*
X524345Y-12236340D01*
X530901Y-12129144D01*
X531052Y-12126994D01*
X531635Y-12119585D01*
X548004Y-11911594D01*
X548177Y-11909614D01*
X554178Y-11847297D01*
X7187654Y-11847297D01*
X7187654Y-11959333D01*
X7216651Y-12067552D01*
X7272669Y-12164578D01*
X7351891Y-12243800D01*
X7448917Y-12299818D01*
X7557136Y-12328815D01*
X7557138Y-12328815D01*
X7669170Y-12328815D01*
X7669172Y-12328815D01*
X7777391Y-12299818D01*
X7874417Y-12243800D01*
X7953639Y-12164578D01*
X8009657Y-12067552D01*
X8038654Y-11959333D01*
X8038654Y-11847297D01*
X8009657Y-11739078D01*
X7953639Y-11642052D01*
X7874417Y-11562830D01*
X7777391Y-11506812D01*
X7669172Y-11477815D01*
X7557136Y-11477815D01*
X7448917Y-11506812D01*
X7448914Y-11506813D01*
X7351894Y-11562828D01*
X7351888Y-11562832D01*
X7272671Y-11642049D01*
X7272667Y-11642055D01*
X7216652Y-11739075D01*
X7216651Y-11739078D01*
X7187654Y-11847297D01*
X554178Y-11847297D01*
X568892Y-11694485D01*
X569114Y-11692372D01*
X573449Y-11654331D01*
X593567Y-11477753D01*
X593828Y-11475631D01*
X609752Y-11354675D01*
X622023Y-11261459D01*
X622319Y-11259358D01*
X624572Y-11244283D01*
X641316Y-11132249D01*
X5813019Y-11132249D01*
X5813019Y-11244285D01*
X5842016Y-11352504D01*
X5898034Y-11449530D01*
X5977256Y-11528752D01*
X6074282Y-11584770D01*
X6182501Y-11613767D01*
X6182503Y-11613767D01*
X6294535Y-11613767D01*
X6294537Y-11613767D01*
X6402756Y-11584770D01*
X6499782Y-11528752D01*
X6579004Y-11449530D01*
X6635022Y-11352504D01*
X6664019Y-11244285D01*
X6664019Y-11132249D01*
X6635022Y-11024030D01*
X6579004Y-10927004D01*
X6499782Y-10847782D01*
X6402756Y-10791764D01*
X6294537Y-10762767D01*
X6182501Y-10762767D01*
X6074282Y-10791764D01*
X6074279Y-10791765D01*
X5977259Y-10847780D01*
X5977253Y-10847784D01*
X5898036Y-10927001D01*
X5898032Y-10927007D01*
X5842017Y-11024027D01*
X5842016Y-11024030D01*
X5813019Y-11132249D01*
X641316Y-11132249D01*
X654260Y-11045640D01*
X654588Y-11043579D01*
X690229Y-10830592D01*
X690604Y-10828459D01*
X691592Y-10823133D01*
X729984Y-10615986D01*
X730391Y-10613898D01*
X756746Y-10484360D01*
X773440Y-10402300D01*
X773888Y-10400195D01*
X790938Y-10323285D01*
X820670Y-10189174D01*
X821106Y-10187283D01*
X871587Y-9977013D01*
X872059Y-9975122D01*
X926149Y-9765969D01*
X926707Y-9763889D01*
X981838Y-9565094D01*
X984444Y-9555696D01*
X985026Y-9553668D01*
X985027Y-9553662D01*
X1041001Y-9364700D01*
X4535300Y-9364700D01*
X4535300Y-9476736D01*
X4564297Y-9584955D01*
X4620315Y-9681981D01*
X4699537Y-9761203D01*
X4796563Y-9817221D01*
X4904782Y-9846218D01*
X4904784Y-9846218D01*
X5016816Y-9846218D01*
X5016818Y-9846218D01*
X5125037Y-9817221D01*
X5222063Y-9761203D01*
X5301285Y-9681981D01*
X5357303Y-9584955D01*
X5386300Y-9476736D01*
X5386300Y-9364700D01*
X20613700Y-9364700D01*
X20613700Y-9476736D01*
X20642697Y-9584955D01*
X20698715Y-9681981D01*
X20777937Y-9761203D01*
X20874963Y-9817221D01*
X20983182Y-9846218D01*
X20983184Y-9846218D01*
X21095216Y-9846218D01*
X21095218Y-9846218D01*
X21203437Y-9817221D01*
X21300463Y-9761203D01*
X21379685Y-9681981D01*
X21435703Y-9584955D01*
X21464700Y-9476736D01*
X21464700Y-9364700D01*
X21435703Y-9256481D01*
X21379685Y-9159455D01*
X21300463Y-9080233D01*
X21203437Y-9024215D01*
X21095218Y-8995218D01*
X20983182Y-8995218D01*
X20874963Y-9024215D01*
X20874960Y-9024216D01*
X20777940Y-9080231D01*
X20777934Y-9080235D01*
X20698717Y-9159452D01*
X20698713Y-9159458D01*
X20642698Y-9256478D01*
X20642697Y-9256481D01*
X20613700Y-9364700D01*
X5386300Y-9364700D01*
X5357303Y-9256481D01*
X5301285Y-9159455D01*
X5222063Y-9080233D01*
X5125037Y-9024215D01*
X5016818Y-8995218D01*
X4904782Y-8995218D01*
X4796563Y-9024215D01*
X4796560Y-9024216D01*
X4699540Y-9080231D01*
X4699534Y-9080235D01*
X4620317Y-9159452D01*
X4620313Y-9159458D01*
X4564298Y-9256478D01*
X4564297Y-9256481D01*
X4535300Y-9364700D01*
X1041001Y-9364700D01*
X1046417Y-9346415D01*
X1047009Y-9344480D01*
X1111982Y-9138409D01*
X1112609Y-9136479D01*
X1181166Y-8931587D01*
X1181858Y-8929577D01*
X1194750Y-8893171D01*
X1254014Y-8725814D01*
X1254672Y-8724007D01*
X1330355Y-8521581D01*
X1331104Y-8519631D01*
X1360661Y-8444596D01*
X1362215Y-8440650D01*
X9974500Y-8440650D01*
X9974500Y-8552686D01*
X9988425Y-8604653D01*
X10003497Y-8660904D01*
X10003498Y-8660907D01*
X10007062Y-8667080D01*
X10059515Y-8757931D01*
X10138737Y-8837153D01*
X10235763Y-8893171D01*
X10343982Y-8922168D01*
X10343984Y-8922168D01*
X10456016Y-8922168D01*
X10456018Y-8922168D01*
X10564237Y-8893171D01*
X10661263Y-8837153D01*
X10740485Y-8757931D01*
X10796503Y-8660905D01*
X10825500Y-8552686D01*
X10825500Y-8440650D01*
X10796503Y-8332431D01*
X10740485Y-8235405D01*
X10661263Y-8156183D01*
X10589979Y-8115027D01*
X10564239Y-8100166D01*
X10564238Y-8100165D01*
X10564237Y-8100165D01*
X10456018Y-8071168D01*
X10343982Y-8071168D01*
X10235763Y-8100165D01*
X10235760Y-8100166D01*
X10138740Y-8156181D01*
X10138734Y-8156185D01*
X10059517Y-8235402D01*
X10059513Y-8235408D01*
X10003498Y-8332428D01*
X10003497Y-8332431D01*
X9974500Y-8440650D01*
X1362215Y-8440650D01*
X1410305Y-8318566D01*
X1411061Y-8316697D01*
X1493806Y-8116933D01*
X1494578Y-8115116D01*
X1580789Y-7916846D01*
X1581537Y-7915164D01*
X1623547Y-7822982D01*
X11671529Y-7822982D01*
X11671529Y-7935018D01*
X11700526Y-8043237D01*
X11756544Y-8140263D01*
X11835766Y-8219485D01*
X11932792Y-8275503D01*
X12041011Y-8304500D01*
X12041013Y-8304500D01*
X12153045Y-8304500D01*
X12153047Y-8304500D01*
X12261266Y-8275503D01*
X12358292Y-8219485D01*
X12437514Y-8140263D01*
X12493532Y-8043237D01*
X12522529Y-7935018D01*
X12522529Y-7822982D01*
X12508727Y-7771472D01*
X19693850Y-7771472D01*
X19693850Y-7883508D01*
X19722847Y-7991727D01*
X19778865Y-8088753D01*
X19858087Y-8167975D01*
X19955113Y-8223993D01*
X20063332Y-8252990D01*
X20063334Y-8252990D01*
X20175366Y-8252990D01*
X20175368Y-8252990D01*
X20283587Y-8223993D01*
X20380613Y-8167975D01*
X20459835Y-8088753D01*
X20515853Y-7991727D01*
X20544850Y-7883508D01*
X20544850Y-7771472D01*
X20515853Y-7663253D01*
X20459835Y-7566227D01*
X20380613Y-7487005D01*
X20283587Y-7430987D01*
X20175368Y-7401990D01*
X20063332Y-7401990D01*
X19955113Y-7430987D01*
X19955110Y-7430988D01*
X19858090Y-7487003D01*
X19858084Y-7487007D01*
X19778867Y-7566224D01*
X19778863Y-7566230D01*
X19722848Y-7663250D01*
X19722847Y-7663253D01*
X19693850Y-7771472D01*
X12508727Y-7771472D01*
X12493532Y-7714763D01*
X12437514Y-7617737D01*
X12358292Y-7538515D01*
X12261266Y-7482497D01*
X12153047Y-7453500D01*
X12041011Y-7453500D01*
X11932792Y-7482497D01*
X11932789Y-7482498D01*
X11835769Y-7538513D01*
X11835763Y-7538517D01*
X11756546Y-7617734D01*
X11756542Y-7617740D01*
X11700527Y-7714760D01*
X11700526Y-7714763D01*
X11671529Y-7822982D01*
X1623547Y-7822982D01*
X1671171Y-7718481D01*
X1672065Y-7716564D01*
X1672924Y-7714763D01*
X1765108Y-7521493D01*
X1766000Y-7519663D01*
X1862408Y-7326301D01*
X1863354Y-7324444D01*
X1963201Y-7132639D01*
X1964055Y-7131033D01*
X2067237Y-6940995D01*
X2068159Y-6939330D01*
X2100706Y-6881804D01*
X9074500Y-6881804D01*
X9074500Y-6993840D01*
X9103497Y-7102059D01*
X9159515Y-7199085D01*
X9238737Y-7278307D01*
X9335763Y-7334325D01*
X9443982Y-7363322D01*
X9443984Y-7363322D01*
X9556016Y-7363322D01*
X9556018Y-7363322D01*
X9664237Y-7334325D01*
X9761263Y-7278307D01*
X9840485Y-7199085D01*
X9896503Y-7102059D01*
X9925500Y-6993840D01*
X9925500Y-6881804D01*
X9896503Y-6773585D01*
X9840485Y-6676559D01*
X9761263Y-6597337D01*
X9664237Y-6541319D01*
X9556018Y-6512322D01*
X9443982Y-6512322D01*
X9335763Y-6541319D01*
X9335760Y-6541320D01*
X9238740Y-6597335D01*
X9238734Y-6597339D01*
X9159517Y-6676556D01*
X9159513Y-6676562D01*
X9103498Y-6773582D01*
X9103497Y-6773585D01*
X9074500Y-6881804D01*
X2100706Y-6881804D01*
X2174648Y-6751114D01*
X2175663Y-6749356D01*
X2285325Y-6563186D01*
X2286368Y-6561450D01*
X2399321Y-6377128D01*
X2400402Y-6375398D01*
X2516490Y-6193178D01*
X2517650Y-6191393D01*
X2523536Y-6182501D01*
X10762767Y-6182501D01*
X10762767Y-6294537D01*
X10791764Y-6402756D01*
X10847782Y-6499782D01*
X10927004Y-6579004D01*
X11024030Y-6635022D01*
X11132249Y-6664019D01*
X11132251Y-6664019D01*
X11244283Y-6664019D01*
X11244285Y-6664019D01*
X11352504Y-6635022D01*
X11449530Y-6579004D01*
X11528752Y-6499782D01*
X11584770Y-6402756D01*
X11613767Y-6294537D01*
X11613767Y-6182501D01*
X11584770Y-6074282D01*
X11528752Y-5977256D01*
X11495478Y-5943982D01*
X12574500Y-5943982D01*
X12574500Y-6056018D01*
X12603497Y-6164237D01*
X12659515Y-6261263D01*
X12738737Y-6340485D01*
X12835763Y-6396503D01*
X12943982Y-6425500D01*
X12943984Y-6425500D01*
X13056016Y-6425500D01*
X13056018Y-6425500D01*
X13164237Y-6396503D01*
X13261263Y-6340485D01*
X13340485Y-6261263D01*
X13385958Y-6182501D01*
X14386233Y-6182501D01*
X14386233Y-6294537D01*
X14415230Y-6402756D01*
X14471248Y-6499782D01*
X14550470Y-6579004D01*
X14647496Y-6635022D01*
X14755715Y-6664019D01*
X14755717Y-6664019D01*
X14867749Y-6664019D01*
X14867751Y-6664019D01*
X14975970Y-6635022D01*
X15072996Y-6579004D01*
X15152218Y-6499782D01*
X15207340Y-6404308D01*
X18462849Y-6404308D01*
X18462849Y-6516344D01*
X18487226Y-6607318D01*
X18491846Y-6624562D01*
X18491847Y-6624565D01*
X18510518Y-6656905D01*
X18547864Y-6721589D01*
X18627086Y-6800811D01*
X18724112Y-6856829D01*
X18832331Y-6885826D01*
X18832333Y-6885826D01*
X18944365Y-6885826D01*
X18944367Y-6885826D01*
X19052586Y-6856829D01*
X19149612Y-6800811D01*
X19228834Y-6721589D01*
X19284852Y-6624563D01*
X19313849Y-6516344D01*
X19313849Y-6404308D01*
X19284852Y-6296089D01*
X19228834Y-6199063D01*
X19149612Y-6119841D01*
X19052586Y-6063823D01*
X18944367Y-6034826D01*
X18832331Y-6034826D01*
X18724112Y-6063823D01*
X18724109Y-6063824D01*
X18627089Y-6119839D01*
X18627083Y-6119843D01*
X18547866Y-6199060D01*
X18547862Y-6199066D01*
X18491847Y-6296086D01*
X18491846Y-6296089D01*
X18462849Y-6404308D01*
X15207340Y-6404308D01*
X15208236Y-6402756D01*
X15237233Y-6294537D01*
X15237233Y-6182501D01*
X15208236Y-6074282D01*
X15152218Y-5977256D01*
X15072996Y-5898034D01*
X14982554Y-5845817D01*
X14975972Y-5842017D01*
X14975971Y-5842016D01*
X14975970Y-5842016D01*
X14867751Y-5813019D01*
X14755715Y-5813019D01*
X14647496Y-5842016D01*
X14647493Y-5842017D01*
X14550473Y-5898032D01*
X14550467Y-5898036D01*
X14471250Y-5977253D01*
X14471246Y-5977259D01*
X14415231Y-6074279D01*
X14415230Y-6074282D01*
X14386233Y-6182501D01*
X13385958Y-6182501D01*
X13396503Y-6164237D01*
X13425500Y-6056018D01*
X13425500Y-5943982D01*
X13396503Y-5835763D01*
X13340485Y-5738737D01*
X13261263Y-5659515D01*
X13164237Y-5603497D01*
X13056018Y-5574500D01*
X12943982Y-5574500D01*
X12835763Y-5603497D01*
X12835760Y-5603498D01*
X12738740Y-5659513D01*
X12738734Y-5659517D01*
X12659517Y-5738734D01*
X12659513Y-5738740D01*
X12603498Y-5835760D01*
X12603497Y-5835763D01*
X12574500Y-5943982D01*
X11495478Y-5943982D01*
X11449530Y-5898034D01*
X11359088Y-5845817D01*
X11352506Y-5842017D01*
X11352505Y-5842016D01*
X11352504Y-5842016D01*
X11244285Y-5813019D01*
X11132249Y-5813019D01*
X11024030Y-5842016D01*
X11024027Y-5842017D01*
X10927007Y-5898032D01*
X10927001Y-5898036D01*
X10847784Y-5977253D01*
X10847780Y-5977259D01*
X10791765Y-6074279D01*
X10791764Y-6074282D01*
X10762767Y-6182501D01*
X2523536Y-6182501D01*
X2636867Y-6011275D01*
X2638042Y-6009531D01*
X2760438Y-5831443D01*
X2761660Y-5829699D01*
X2773558Y-5813019D01*
X2887139Y-5653784D01*
X2888267Y-5652231D01*
X3016873Y-5478430D01*
X3018059Y-5476857D01*
X3083370Y-5391743D01*
X3149654Y-5305361D01*
X3150922Y-5303736D01*
X3285448Y-5134614D01*
X3286682Y-5133090D01*
X3424213Y-4966250D01*
X3425520Y-4964693D01*
X3565862Y-4800373D01*
X3567273Y-4798752D01*
X3570646Y-4794940D01*
X3710360Y-4637022D01*
X3711779Y-4635446D01*
X3743791Y-4600511D01*
X3767456Y-4574685D01*
X9855150Y-4574685D01*
X9855150Y-4686721D01*
X9884147Y-4794940D01*
X9940165Y-4891966D01*
X10019387Y-4971188D01*
X10116413Y-5027206D01*
X10224632Y-5056203D01*
X10224634Y-5056203D01*
X10336666Y-5056203D01*
X10336668Y-5056203D01*
X10444887Y-5027206D01*
X10541913Y-4971188D01*
X10621135Y-4891966D01*
X10677153Y-4794940D01*
X10706150Y-4686721D01*
X10706150Y-4574685D01*
X10677153Y-4466466D01*
X10621135Y-4369440D01*
X10541913Y-4290218D01*
X10537548Y-4287698D01*
X10444889Y-4234201D01*
X10444888Y-4234200D01*
X10444887Y-4234200D01*
X10336668Y-4205203D01*
X10224632Y-4205203D01*
X10116413Y-4234200D01*
X10116410Y-4234201D01*
X10019390Y-4290216D01*
X10019384Y-4290220D01*
X9940167Y-4369437D01*
X9940163Y-4369443D01*
X9884148Y-4466463D01*
X9884147Y-4466466D01*
X9855150Y-4574685D01*
X3767456Y-4574685D01*
X3857753Y-4476142D01*
X3859158Y-4474634D01*
X4007994Y-4317796D01*
X4009332Y-4316411D01*
X4054908Y-4270032D01*
X4115934Y-4236015D01*
X4180255Y-4238566D01*
X4256830Y-4262440D01*
X4257042Y-4262507D01*
X4319161Y-4282093D01*
X4319164Y-4282093D01*
X4319170Y-4282095D01*
X4319719Y-4282191D01*
X4320033Y-4282246D01*
X4320746Y-4282371D01*
X4320758Y-4282371D01*
X4320760Y-4282372D01*
X4385765Y-4285000D01*
X4450820Y-4287841D01*
X4450821Y-4287840D01*
X4450832Y-4287841D01*
X4451856Y-4287749D01*
X4452427Y-4287698D01*
X4452432Y-4287696D01*
X4452436Y-4287697D01*
X4504437Y-4275992D01*
X4515850Y-4273424D01*
X4516241Y-4273337D01*
X4579480Y-4259318D01*
X4579483Y-4259316D01*
X4579489Y-4259315D01*
X4579944Y-4259149D01*
X4580271Y-4259029D01*
X4580988Y-4258767D01*
X4580999Y-4258761D01*
X4581004Y-4258760D01*
X4638579Y-4228552D01*
X4696374Y-4198466D01*
X4696374Y-4198465D01*
X4696385Y-4198460D01*
X4696901Y-4198097D01*
X4697208Y-4197881D01*
X4697688Y-4197544D01*
X4697697Y-4197535D01*
X4697702Y-4197533D01*
X4703496Y-4192189D01*
X11654650Y-4192189D01*
X11654650Y-4304225D01*
X11673031Y-4372822D01*
X11683647Y-4412443D01*
X11683648Y-4412446D01*
X11702319Y-4444786D01*
X11739665Y-4509470D01*
X11818887Y-4588692D01*
X11915913Y-4644710D01*
X12024132Y-4673707D01*
X12024134Y-4673707D01*
X12136166Y-4673707D01*
X12136168Y-4673707D01*
X12244387Y-4644710D01*
X12341413Y-4588692D01*
X12420635Y-4509470D01*
X12476653Y-4412444D01*
X12505650Y-4304225D01*
X12505650Y-4192189D01*
X13494350Y-4192189D01*
X13494350Y-4304225D01*
X13512731Y-4372822D01*
X13523347Y-4412443D01*
X13523348Y-4412446D01*
X13542019Y-4444786D01*
X13579365Y-4509470D01*
X13658587Y-4588692D01*
X13755613Y-4644710D01*
X13863832Y-4673707D01*
X13863834Y-4673707D01*
X13975866Y-4673707D01*
X13975868Y-4673707D01*
X14084087Y-4644710D01*
X14181113Y-4588692D01*
X14195120Y-4574685D01*
X15293850Y-4574685D01*
X15293850Y-4686721D01*
X15322847Y-4794940D01*
X15378865Y-4891966D01*
X15458087Y-4971188D01*
X15555113Y-5027206D01*
X15663332Y-5056203D01*
X15663334Y-5056203D01*
X15775366Y-5056203D01*
X15775368Y-5056203D01*
X15883587Y-5027206D01*
X15980613Y-4971188D01*
X16059835Y-4891966D01*
X16115853Y-4794940D01*
X16144850Y-4686721D01*
X16144850Y-4574685D01*
X16115853Y-4466466D01*
X16059835Y-4369440D01*
X15980613Y-4290218D01*
X15883587Y-4234200D01*
X15775368Y-4205203D01*
X15663332Y-4205203D01*
X15555113Y-4234200D01*
X15555110Y-4234201D01*
X15458090Y-4290216D01*
X15458084Y-4290220D01*
X15378867Y-4369437D01*
X15378863Y-4369443D01*
X15322848Y-4466463D01*
X15322847Y-4466466D01*
X15293850Y-4574685D01*
X14195120Y-4574685D01*
X14260335Y-4509470D01*
X14316353Y-4412444D01*
X14345350Y-4304225D01*
X14345350Y-4192189D01*
X14316353Y-4083970D01*
X14260335Y-3986944D01*
X14181113Y-3907722D01*
X14084087Y-3851704D01*
X13975868Y-3822707D01*
X13863832Y-3822707D01*
X13755613Y-3851704D01*
X13755610Y-3851705D01*
X13658590Y-3907720D01*
X13658584Y-3907724D01*
X13579367Y-3986941D01*
X13579363Y-3986947D01*
X13523348Y-4083967D01*
X13523347Y-4083970D01*
X13494350Y-4192189D01*
X12505650Y-4192189D01*
X12476653Y-4083970D01*
X12420635Y-3986944D01*
X12341413Y-3907722D01*
X12244387Y-3851704D01*
X12136168Y-3822707D01*
X12024132Y-3822707D01*
X11915913Y-3851704D01*
X11915910Y-3851705D01*
X11818890Y-3907720D01*
X11818884Y-3907724D01*
X11739667Y-3986941D01*
X11739663Y-3986947D01*
X11683648Y-4083967D01*
X11683647Y-4083970D01*
X11654650Y-4192189D01*
X4703496Y-4192189D01*
X4745528Y-4153423D01*
X4745529Y-4153422D01*
X4745592Y-4153491D01*
X4745818Y-4153157D01*
X4903173Y-4008967D01*
X4904618Y-4007667D01*
X5061251Y-3869089D01*
X5062836Y-3867713D01*
X5221742Y-3731995D01*
X5223399Y-3730604D01*
X5384760Y-3597588D01*
X5386397Y-3596261D01*
X5550071Y-3466070D01*
X5551564Y-3464903D01*
X5717552Y-3337538D01*
X5719133Y-3336346D01*
X5887371Y-3211855D01*
X5888846Y-3210783D01*
X6059247Y-3089238D01*
X6060886Y-3088090D01*
X6233214Y-2969653D01*
X6234902Y-2968514D01*
X6409353Y-2853048D01*
X6411039Y-2851953D01*
X6587421Y-2739586D01*
X6589058Y-2738562D01*
X6767517Y-2629202D01*
X6769152Y-2628220D01*
X6949383Y-2522057D01*
X6951080Y-2521077D01*
X7133264Y-2418002D01*
X7134903Y-2417094D01*
X7318803Y-2317244D01*
X7320504Y-2316340D01*
X7506120Y-2219714D01*
X7507798Y-2218859D01*
X7695008Y-2125520D01*
X7696844Y-2124624D01*
X7885644Y-2034572D01*
X7887519Y-2033698D01*
X8077792Y-1946985D01*
X8079539Y-1946207D01*
X8271501Y-1862739D01*
X8273295Y-1861979D01*
X8466538Y-1781934D01*
X8468344Y-1781205D01*
X8663109Y-1704486D01*
X8664839Y-1703823D01*
X8860845Y-1630538D01*
X8862550Y-1629917D01*
X9059886Y-1560036D01*
X9061749Y-1559395D01*
X9260128Y-1493019D01*
X9261983Y-1492416D01*
X9343157Y-1466821D01*
X9413011Y-1465436D01*
X9472527Y-1502038D01*
G37*
%TD.AperFunction*%
%TD*%
M02*
