M48
; DRILL file KiCad 10.0.6 date 2026-09-05T02:27:37
; FORMAT={-:-/ absolute / metric / decimal}
; #@! TF.CreationDate,2026-09-05T02:27:37+08:00
; #@! TF.GenerationSoftware,Kicad,Pcbnew,10.0.6
; #@! TF.FileFunction,Plated,1,4,PTH
FMAT,2
METRIC
; #@! TA.AperFunction,Plated,PTH,ViaDrill
T1C0.250
%
G90
G05
T1
X1.654Y-17.177
X4.961Y-9.421
X5.236Y-11.342
X5.37Y-12.292
X6.0Y-13.0
X6.239Y-11.188
X6.938Y-16.5
X7.613Y-11.903
X7.731Y-19.518
X8.05Y-17.95
X8.518Y-20.407
X8.893Y-12.704
X9.017Y-9.658
X9.5Y-6.938
X10.281Y-4.631
X10.4Y-8.497
X10.4Y-17.503
X10.521Y-15.772
X11.188Y-6.239
X12.08Y-4.248
X12.097Y-7.879
X12.489Y-19.32
X12.827Y-21.979
X13.0Y-6.0
X13.372Y-20.097
X13.407Y-20.899
X13.92Y-4.248
X14.7Y-24.6
X14.812Y-6.239
X14.812Y-19.761
X15.433Y-20.576
X15.6Y-17.503
X15.719Y-4.631
X16.012Y-15.771
X16.5Y-19.062
X16.524Y-21.303
X16.983Y-16.342
X17.95Y-17.95
X18.2Y-13.0
X18.281Y-15.542
X18.888Y-6.46
X19.761Y-14.812
X19.905Y-12.568
X20.119Y-7.827
X20.538Y-18.033
X21.039Y-9.421
X21.115Y-17.031
X21.8Y-13.0
X22.02Y-9.898
X22.204Y-14.658
M30
