%TF.GenerationSoftware,KiCad,Pcbnew,10.0.6*%
%TF.CreationDate,2026-09-04T17:42:04+08:00*%
%TF.ProjectId,halo_rev_a,68616c6f-5f72-4657-965f-612e6b696361,rev?*%
%TF.SameCoordinates,Original*%
%TF.FileFunction,Soldermask,Bot*%
%TF.FilePolarity,Negative*%
%FSLAX46Y46*%
G04 Gerber Fmt 4.6, Leading zero omitted, Abs format (unit mm)*
G04 Created by KiCad (PCBNEW 10.0.6) date 2026-09-04 17:42:04*
%MOMM*%
%LPD*%
G01*
G04 APERTURE LIST*
G04 Aperture macros list*
%AMRoundRect*
0 Rectangle with rounded corners*
0 $1 Rounding radius*
0 $2 $3 $4 $5 $6 $7 $8 $9 X,Y pos of 4 corners*
0 Add a 4 corners polygon primitive as box body*
4,1,4,$2,$3,$4,$5,$6,$7,$8,$9,$2,$3,0*
0 Add four circle primitives for the rounded corners*
1,1,$1+$1,$2,$3*
1,1,$1+$1,$4,$5*
1,1,$1+$1,$6,$7*
1,1,$1+$1,$8,$9*
0 Add four rect primitives between the rounded corners*
20,1,$1+$1,$2,$3,$4,$5,0*
20,1,$1+$1,$4,$5,$6,$7,0*
20,1,$1+$1,$6,$7,$8,$9,0*
20,1,$1+$1,$8,$9,$2,$3,0*%
%AMRotRect*
0 Rectangle, with rotation*
0 The origin of the aperture is its center*
0 $1 length*
0 $2 width*
0 $3 Rotation angle, in degrees counterclockwise*
0 Add horizontal line*
21,1,$1,$2,0,0,$3*%
G04 Aperture macros list end*
%ADD10RoundRect,0.062500X-0.388841X0.053525X0.352295X-0.173063X0.388841X-0.053525X-0.352295X0.173063X0*%
%ADD11RotRect,0.200000X1.600000X343.000000*%
%ADD12RoundRect,0.100000X-0.163238X-0.015915X0.057254X-0.153694X0.163238X0.015915X-0.057254X0.153694X0*%
%ADD13RoundRect,0.100000X-0.160680X-0.032891X0.073006X-0.146868X0.160680X0.032891X-0.073006X0.146868X0*%
%ADD14RoundRect,0.218750X-0.332287X-0.055689X0.002858X-0.336909X0.332287X0.055689X-0.002858X0.336909X0*%
%ADD15RoundRect,0.180000X1.020000X0.420000X-1.020000X0.420000X-1.020000X-0.420000X1.020000X-0.420000X0*%
%ADD16RoundRect,0.180000X-0.873731X0.673346X0.146269X-1.093346X0.873731X-0.673346X-0.146269X1.093346X0*%
%ADD17RoundRect,0.180000X-0.146269X-1.093346X0.873731X0.673346X0.146269X1.093346X-0.873731X-0.673346X0*%
%ADD18RoundRect,0.140000X-0.200354X-0.091423X0.051308X-0.214167X0.200354X0.091423X-0.051308X0.214167X0*%
%ADD19RoundRect,0.100000X-0.164004X-0.001628X0.043641X-0.158100X0.164004X0.001628X-0.043641X0.158100X0*%
%ADD20RoundRect,0.050000X-0.375000X-0.050000X0.375000X-0.050000X0.375000X0.050000X-0.375000X0.050000X0*%
%ADD21RoundRect,0.050000X-0.050000X-0.375000X0.050000X-0.375000X0.050000X0.375000X-0.050000X0.375000X0*%
%ADD22R,4.400000X4.400000*%
%ADD23RotRect,1.000000X1.800000X304.000000*%
%ADD24RoundRect,0.140000X-0.187830X0.114978X-0.148861X-0.162297X0.187830X-0.114978X0.148861X0.162297X0*%
%ADD25RoundRect,0.100000X-0.163718X0.009817X0.032506X-0.160759X0.163718X-0.009817X-0.032506X0.160759X0*%
%ADD26RoundRect,0.200000X-0.298205X0.116506X-0.048205X-0.316506X0.298205X-0.116506X0.048205X0.316506X0*%
%ADD27R,0.375000X0.350000*%
%ADD28R,0.350000X0.375000*%
%ADD29RoundRect,0.140000X-0.017173X-0.219557X0.212189X-0.058955X0.017173X0.219557X-0.212189X0.058955X0*%
G04 APERTURE END LIST*
D10*
%TO.C,U3*%
X4436962Y-15434912D03*
X4583148Y-14956760D03*
X4729334Y-14478607D03*
X4875520Y-14000455D03*
X7600988Y-14833714D03*
X7454802Y-15311866D03*
X7308616Y-15790019D03*
X7162430Y-16268171D03*
D11*
X6018975Y-15134313D03*
%TD*%
D12*
%TO.C,C17*%
X17285931Y-20123640D03*
X17828681Y-20462788D03*
%TD*%
D13*
%TO.C,C14*%
X8942394Y-5130092D03*
X9517622Y-5410650D03*
%TD*%
D14*
%TO.C,L1*%
X17988864Y-7801455D03*
X19195384Y-8813845D03*
%TD*%
D15*
%TO.C,BT1*%
X13000000Y-24600000D03*
D16*
X23045900Y-7200000D03*
D17*
X2954100Y-7200000D03*
%TD*%
D18*
%TO.C,C10*%
X16294734Y-20429331D03*
X17157576Y-20850167D03*
%TD*%
D19*
%TO.C,C15*%
X7568828Y-5939154D03*
X8079954Y-6324316D03*
%TD*%
D20*
%TO.C,U1*%
X10262500Y-15200000D03*
X10262500Y-14800000D03*
X10262500Y-14400000D03*
X10262500Y-14000000D03*
X10262500Y-13600000D03*
X10262500Y-13200000D03*
X10262500Y-12800000D03*
X10262500Y-12400000D03*
X10262500Y-12000000D03*
X10262500Y-11600000D03*
X10262500Y-11200000D03*
X10262500Y-10800000D03*
D21*
X10987500Y-10075000D03*
X11387500Y-10075000D03*
X11787500Y-10075000D03*
X12187500Y-10075000D03*
X12587500Y-10075000D03*
X12987500Y-10075000D03*
X13387500Y-10075000D03*
X13787500Y-10075000D03*
X14187500Y-10075000D03*
X14587500Y-10075000D03*
X14987500Y-10075000D03*
X15387500Y-10075000D03*
D20*
X16112500Y-10800000D03*
X16112500Y-11200000D03*
X16112500Y-11600000D03*
X16112500Y-12000000D03*
X16112500Y-12400000D03*
X16112500Y-12800000D03*
X16112500Y-13200000D03*
X16112500Y-13600000D03*
X16112500Y-14000000D03*
X16112500Y-14400000D03*
X16112500Y-14800000D03*
X16112500Y-15200000D03*
D21*
X15387500Y-15925000D03*
X14987500Y-15925000D03*
X14587500Y-15925000D03*
X14187500Y-15925000D03*
X13787500Y-15925000D03*
X13387500Y-15925000D03*
X12987500Y-15925000D03*
X12587500Y-15925000D03*
X12187500Y-15925000D03*
X11787500Y-15925000D03*
X11387500Y-15925000D03*
X10987500Y-15925000D03*
D22*
X13187500Y-13000000D03*
%TD*%
D23*
%TO.C,X1*%
X7895728Y-10121947D03*
X6497746Y-8049353D03*
%TD*%
D24*
%TO.C,C11*%
X4515918Y-11341700D03*
X4649524Y-12292358D03*
%TD*%
D25*
%TO.C,C16*%
X18400601Y-19280563D03*
X18883615Y-19700441D03*
%TD*%
D26*
%TO.C,X2*%
X19534902Y-15818782D03*
X20234902Y-17031218D03*
X19282274Y-17581218D03*
X18582274Y-16368782D03*
%TD*%
D27*
%TO.C,U2*%
X11302284Y-21398537D03*
X11302284Y-20898537D03*
X11302284Y-20398537D03*
X11302284Y-19898537D03*
D28*
X11814784Y-19886037D03*
X12314784Y-19886037D03*
D27*
X12827284Y-19898537D03*
X12827284Y-20398537D03*
X12827284Y-20898537D03*
X12827284Y-21398537D03*
D28*
X12314784Y-21411037D03*
X11814784Y-21411037D03*
%TD*%
D24*
%TO.C,C9*%
X21350476Y-13707642D03*
X21484082Y-14658300D03*
%TD*%
D29*
%TO.C,C12*%
X7731407Y-20238109D03*
X8517793Y-19687475D03*
%TD*%
M02*
