%TF.GenerationSoftware,KiCad,Pcbnew,10.0.6*%
%TF.CreationDate,2026-09-05T05:49:35+08:00*%
%TF.ProjectId,halo_rev_a,68616c6f-5f72-4657-965f-612e6b696361,rev?*%
%TF.SameCoordinates,Original*%
%TF.FileFunction,Drillmap*%
%TF.FilePolarity,Positive*%
%FSLAX45Y45*%
G04 Gerber Fmt 4.5, Leading zero omitted, Abs format (unit mm)*
G04 Created by KiCad (PCBNEW 10.0.6) date 2026-09-05 05:49:35*
%MOMM*%
%LPD*%
G01*
G04 APERTURE LIST*
%ADD10C,0.100000*%
%ADD11C,0.200000*%
G04 APERTURE END LIST*
D10*
X0Y-1300000D02*
X198Y-1322688D01*
X198Y-1277312D02*
X0Y-1300000D01*
X198Y-1322688D02*
X792Y-1345369D01*
X792Y-1254631D02*
X198Y-1277312D01*
X792Y-1345369D02*
X1782Y-1368037D01*
X1782Y-1231963D02*
X792Y-1254631D01*
X1782Y-1368037D02*
X3167Y-1390683D01*
X3167Y-1209317D02*
X1782Y-1231963D01*
X3167Y-1390683D02*
X4947Y-1413302D01*
X4947Y-1186698D02*
X3167Y-1209317D01*
X4947Y-1413302D02*
X7121Y-1435887D01*
X7121Y-1164113D02*
X4947Y-1186698D01*
X7121Y-1435887D02*
X9690Y-1458430D01*
X9690Y-1141570D02*
X7121Y-1164113D01*
X9690Y-1458430D02*
X12651Y-1480925D01*
X12651Y-1119075D02*
X9690Y-1141570D01*
X12651Y-1480925D02*
X16005Y-1503365D01*
X16005Y-1096635D02*
X12651Y-1119075D01*
X16005Y-1503365D02*
X19750Y-1525743D01*
X19750Y-1074257D02*
X16005Y-1096635D01*
X19750Y-1525743D02*
X23885Y-1548052D01*
X23885Y-1051948D02*
X19750Y-1074257D01*
X23885Y-1548052D02*
X28408Y-1570285D01*
X28408Y-1029715D02*
X23885Y-1051948D01*
X28408Y-1570285D02*
X33319Y-1592436D01*
X33319Y-1007564D02*
X28408Y-1029715D01*
X33319Y-1592436D02*
X38616Y-1614498D01*
X38616Y-985501D02*
X33319Y-1007564D01*
X38616Y-1614498D02*
X44296Y-1636465D01*
X44296Y-963535D02*
X38616Y-985501D01*
X44296Y-1636465D02*
X50360Y-1658329D01*
X50360Y-941671D02*
X44296Y-963535D01*
X50360Y-1658329D02*
X56804Y-1680083D01*
X56804Y-919917D02*
X50360Y-941671D01*
X56804Y-1680083D02*
X63626Y-1701722D01*
X63626Y-898278D02*
X56804Y-919917D01*
X63626Y-1701722D02*
X70826Y-1723239D01*
X70826Y-876761D02*
X63626Y-898278D01*
X70826Y-1723239D02*
X78400Y-1744626D01*
X78400Y-855374D02*
X70826Y-876761D01*
X78400Y-1744626D02*
X86345Y-1765878D01*
X86345Y-834122D02*
X78400Y-855374D01*
X86345Y-1765878D02*
X94661Y-1786989D01*
X94661Y-813011D02*
X86345Y-834122D01*
X94661Y-1786989D02*
X103344Y-1807950D01*
X103344Y-792049D02*
X94661Y-813011D01*
X103344Y-1807950D02*
X112391Y-1828758D01*
X112391Y-771242D02*
X103344Y-792049D01*
X112391Y-1828758D02*
X121800Y-1849404D01*
X121800Y-750596D02*
X112391Y-771242D01*
X121800Y-1849404D02*
X131568Y-1869882D01*
X131568Y-730117D02*
X121800Y-750596D01*
X131568Y-1869882D02*
X141692Y-1890188D01*
X141692Y-709812D02*
X131568Y-730117D01*
X141692Y-1890188D02*
X152168Y-1910313D01*
X152168Y-689687D02*
X141692Y-709812D01*
X152168Y-1910313D02*
X162994Y-1930252D01*
X162994Y-669748D02*
X152168Y-689687D01*
X162994Y-1930252D02*
X174167Y-1950000D01*
X174167Y-650000D02*
X162994Y-669748D01*
X174167Y-1950000D02*
X185682Y-1969549D01*
X185682Y-630451D02*
X174167Y-650000D01*
X185682Y-1969549D02*
X197537Y-1988895D01*
X197537Y-611105D02*
X185682Y-630451D01*
X197537Y-1988895D02*
X209728Y-2008031D01*
X209728Y-591969D02*
X197537Y-611105D01*
X209728Y-2008031D02*
X222251Y-2026951D01*
X222251Y-573049D02*
X209728Y-591969D01*
X222251Y-2026951D02*
X235102Y-2045649D01*
X235102Y-554351D02*
X222251Y-573049D01*
X235102Y-2045649D02*
X248278Y-2064121D01*
X248278Y-535879D02*
X235102Y-554351D01*
X248278Y-2064121D02*
X261774Y-2082359D01*
X261774Y-517640D02*
X248278Y-535879D01*
X261774Y-2082359D02*
X275586Y-2100360D01*
X275586Y-499640D02*
X261774Y-517640D01*
X275586Y-2100360D02*
X289710Y-2118117D01*
X289710Y-481883D02*
X275586Y-499640D01*
X289710Y-2118117D02*
X304142Y-2135624D01*
X304142Y-464376D02*
X289710Y-481883D01*
X304142Y-2135624D02*
X318878Y-2152877D01*
X318878Y-447123D02*
X304142Y-464376D01*
X318878Y-2152877D02*
X333912Y-2169870D01*
X333912Y-430130D02*
X318878Y-447123D01*
X333912Y-2169870D02*
X349240Y-2186598D01*
X349240Y-413402D02*
X333912Y-430130D01*
X349240Y-2186598D02*
X364858Y-2203056D01*
X364858Y-396944D02*
X349240Y-413402D01*
X364858Y-2203056D02*
X380761Y-2219239D01*
X380761Y-380761D02*
X364858Y-396944D01*
X380761Y-2219239D02*
X396944Y-2235142D01*
X396944Y-364858D02*
X380761Y-380761D01*
X396944Y-2235142D02*
X440682Y-2221506D01*
X440682Y-378494D02*
X396944Y-364858D01*
X440682Y-2221506D02*
X456895Y-2236363D01*
X456895Y-363637D02*
X440682Y-378494D01*
X456895Y-2236363D02*
X473366Y-2250934D01*
X473366Y-349066D02*
X456895Y-363637D01*
X473366Y-2250934D02*
X490088Y-2265216D01*
X490088Y-334784D02*
X473366Y-349066D01*
X490088Y-2265216D02*
X507056Y-2279204D01*
X507056Y-320796D02*
X490088Y-334784D01*
X507056Y-2279204D02*
X524266Y-2292894D01*
X524266Y-307107D02*
X507056Y-320796D01*
X524266Y-2292894D02*
X541713Y-2306281D01*
X541713Y-293719D02*
X524266Y-307107D01*
X541713Y-2306281D02*
X559391Y-2319361D01*
X559391Y-280639D02*
X541713Y-293719D01*
X559391Y-2319361D02*
X577294Y-2332132D01*
X577294Y-267868D02*
X559391Y-280639D01*
X577294Y-2332132D02*
X595417Y-2344587D01*
X595417Y-255413D02*
X577294Y-267868D01*
X595417Y-2344587D02*
X613755Y-2356725D01*
X613755Y-243275D02*
X595417Y-255413D01*
X613755Y-2356725D02*
X632302Y-2368541D01*
X632302Y-231459D02*
X613755Y-243275D01*
X632302Y-2368541D02*
X651052Y-2380031D01*
X651052Y-219969D02*
X632302Y-231459D01*
X651052Y-2380031D02*
X670000Y-2391192D01*
X670000Y-208808D02*
X651052Y-219969D01*
X670000Y-2391192D02*
X689140Y-2402021D01*
X689140Y-197979D02*
X670000Y-208808D01*
X689140Y-2402021D02*
X708466Y-2412514D01*
X708466Y-187486D02*
X689140Y-197979D01*
X708466Y-2412514D02*
X727972Y-2422668D01*
X727972Y-177332D02*
X708466Y-187486D01*
X727972Y-2422668D02*
X747652Y-2432481D01*
X747652Y-167520D02*
X727972Y-177332D01*
X747652Y-2432481D02*
X767501Y-2441948D01*
X767501Y-158052D02*
X747652Y-167520D01*
X767501Y-2441948D02*
X787512Y-2451067D01*
X787512Y-148933D02*
X767501Y-158052D01*
X787512Y-2451067D02*
X807679Y-2459836D01*
X807679Y-140164D02*
X787512Y-148933D01*
X807679Y-2459836D02*
X827996Y-2468252D01*
X827996Y-131748D02*
X807679Y-140164D01*
X827996Y-2468252D02*
X848456Y-2476311D01*
X848456Y-123689D02*
X827996Y-131748D01*
X848456Y-2476311D02*
X869055Y-2484013D01*
X869055Y-115987D02*
X848456Y-123689D01*
X869055Y-2484013D02*
X889784Y-2491353D01*
X889784Y-108647D02*
X869055Y-115987D01*
X889784Y-2491353D02*
X910639Y-2498331D01*
X910639Y-101669D02*
X889784Y-108647D01*
X910639Y-2498331D02*
X931612Y-2504944D01*
X931612Y-95056D02*
X910639Y-101669D01*
X931612Y-2504944D02*
X941671Y-2549640D01*
X941671Y-50360D02*
X931612Y-95056D01*
X941671Y-2549640D02*
X963535Y-2555704D01*
X963535Y-44296D02*
X941671Y-50360D01*
X963535Y-2555704D02*
X985501Y-2561384D01*
X985501Y-38616D02*
X963535Y-44296D01*
X985501Y-2561384D02*
X1007564Y-2566681D01*
X1007564Y-33319D02*
X985501Y-38616D01*
X1007564Y-2566681D02*
X1029715Y-2571592D01*
X1029715Y-28408D02*
X1007564Y-33319D01*
X1029715Y-2571592D02*
X1051948Y-2576115D01*
X1051948Y-23885D02*
X1029715Y-28408D01*
X1051948Y-2576115D02*
X1074257Y-2580250D01*
X1074257Y-19750D02*
X1051948Y-23885D01*
X1074257Y-2580250D02*
X1096635Y-2583995D01*
X1096635Y-16005D02*
X1074257Y-19750D01*
X1096635Y-2583995D02*
X1119075Y-2587349D01*
X1119075Y-12651D02*
X1096635Y-16005D01*
X1119075Y-2587349D02*
X1141570Y-2590310D01*
X1141570Y-9690D02*
X1119075Y-12651D01*
X1141570Y-2590310D02*
X1164113Y-2592879D01*
X1164113Y-7121D02*
X1141570Y-9690D01*
X1164113Y-2592879D02*
X1186698Y-2595053D01*
X1186698Y-4947D02*
X1164113Y-7121D01*
X1186698Y-2595053D02*
X1209317Y-2596833D01*
X1209317Y-3167D02*
X1186698Y-4947D01*
X1209317Y-2596833D02*
X1231963Y-2598218D01*
X1231963Y-1782D02*
X1209317Y-3167D01*
X1231963Y-2598218D02*
X1254631Y-2599208D01*
X1254631Y-792D02*
X1231963Y-1782D01*
X1254631Y-2599208D02*
X1277312Y-2599802D01*
X1277312Y-198D02*
X1254631Y-792D01*
X1277312Y-2599802D02*
X1300000Y-2600000D01*
X1300000Y0D02*
X1277312Y-198D01*
X1300000Y-2600000D02*
X1322688Y-2599802D01*
X1322688Y-198D02*
X1300000Y0D01*
X1322688Y-2599802D02*
X1345369Y-2599208D01*
X1345369Y-792D02*
X1322688Y-198D01*
X1345369Y-2599208D02*
X1368037Y-2598218D01*
X1368037Y-1782D02*
X1345369Y-792D01*
X1368037Y-2598218D02*
X1390683Y-2596833D01*
X1390683Y-3167D02*
X1368037Y-1782D01*
X1390683Y-2596833D02*
X1413302Y-2595053D01*
X1413302Y-4947D02*
X1390683Y-3167D01*
X1413302Y-2595053D02*
X1435887Y-2592879D01*
X1435887Y-7121D02*
X1413302Y-4947D01*
X1435887Y-2592879D02*
X1458430Y-2590310D01*
X1458430Y-9690D02*
X1435887Y-7121D01*
X1458430Y-2590310D02*
X1480925Y-2587349D01*
X1480925Y-12651D02*
X1458430Y-9690D01*
X1480925Y-2587349D02*
X1503365Y-2583995D01*
X1503365Y-16005D02*
X1480925Y-12651D01*
X1503365Y-2583995D02*
X1525743Y-2580250D01*
X1525743Y-19750D02*
X1503365Y-16005D01*
X1525743Y-2580250D02*
X1548052Y-2576115D01*
X1548052Y-23885D02*
X1525743Y-19750D01*
X1548052Y-2576115D02*
X1570285Y-2571592D01*
X1570285Y-28408D02*
X1548052Y-23885D01*
X1570285Y-2571592D02*
X1592436Y-2566681D01*
X1592436Y-33319D02*
X1570285Y-28408D01*
X1592436Y-2566681D02*
X1614498Y-2561384D01*
X1614498Y-38616D02*
X1592436Y-33319D01*
X1614498Y-2561384D02*
X1636465Y-2555704D01*
X1636465Y-44296D02*
X1614498Y-38616D01*
X1636465Y-2555704D02*
X1658329Y-2549640D01*
X1658329Y-50360D02*
X1636465Y-44296D01*
X1658329Y-2549640D02*
X1680083Y-2543196D01*
X1680083Y-56804D02*
X1658329Y-50360D01*
X1680083Y-2543196D02*
X1701722Y-2536374D01*
X1701722Y-63626D02*
X1680083Y-56804D01*
X1701722Y-2536374D02*
X1723239Y-2529174D01*
X1723239Y-70826D02*
X1701722Y-63626D01*
X1723239Y-2529174D02*
X1744626Y-2521600D01*
X1744626Y-78400D02*
X1723239Y-70826D01*
X1744626Y-2521600D02*
X1765878Y-2513655D01*
X1765878Y-86345D02*
X1744626Y-78400D01*
X1765878Y-2513655D02*
X1786989Y-2505339D01*
X1786989Y-94661D02*
X1765878Y-86345D01*
X1786989Y-2505339D02*
X1807950Y-2496656D01*
X1807950Y-103344D02*
X1786989Y-94661D01*
X1807950Y-2496656D02*
X1828758Y-2487609D01*
X1828758Y-112391D02*
X1807950Y-103344D01*
X1828758Y-2487609D02*
X1849404Y-2478200D01*
X1849404Y-121800D02*
X1828758Y-112391D01*
X1849404Y-2478200D02*
X1869882Y-2468432D01*
X1869882Y-131568D02*
X1849404Y-121800D01*
X1869882Y-2468432D02*
X1890188Y-2458309D01*
X1890188Y-141692D02*
X1869882Y-131568D01*
X1890188Y-2458309D02*
X1910313Y-2447832D01*
X1910313Y-152168D02*
X1890188Y-141692D01*
X1910313Y-2447832D02*
X1930252Y-2437006D01*
X1930252Y-162994D02*
X1910313Y-152168D01*
X1930252Y-2437006D02*
X1950000Y-2425833D01*
X1950000Y-174167D02*
X1930252Y-162994D01*
X1950000Y-2425833D02*
X1969549Y-2414318D01*
X1969549Y-185682D02*
X1950000Y-174167D01*
X1969549Y-2414318D02*
X1988895Y-2402463D01*
X1988895Y-197537D02*
X1969549Y-185682D01*
X1988895Y-2402463D02*
X2008031Y-2390272D01*
X2008031Y-209728D02*
X1988895Y-197537D01*
X2008031Y-2390272D02*
X2026951Y-2377749D01*
X2026951Y-222251D02*
X2008031Y-209728D01*
X2026951Y-2377749D02*
X2045649Y-2364898D01*
X2045649Y-235102D02*
X2026951Y-222251D01*
X2045649Y-2364898D02*
X2064121Y-2351722D01*
X2064121Y-248278D02*
X2045649Y-235102D01*
X2064121Y-2351722D02*
X2082359Y-2338226D01*
X2082359Y-261774D02*
X2064121Y-248278D01*
X2082359Y-2338226D02*
X2100360Y-2324414D01*
X2100360Y-275586D02*
X2082359Y-261774D01*
X2100360Y-2324414D02*
X2118117Y-2310290D01*
X2118117Y-289710D02*
X2100360Y-275586D01*
X2118117Y-2310290D02*
X2135624Y-2295858D01*
X2135624Y-304142D02*
X2118117Y-289710D01*
X2135624Y-2295858D02*
X2152877Y-2281123D01*
X2152877Y-318878D02*
X2135624Y-304142D01*
X2152877Y-2281123D02*
X2169870Y-2266088D01*
X2169870Y-333912D02*
X2152877Y-318878D01*
X2169870Y-2266088D02*
X2186598Y-2250760D01*
X2186598Y-349240D02*
X2169870Y-333912D01*
X2186598Y-2250760D02*
X2203056Y-2235142D01*
X2203056Y-364858D02*
X2186598Y-349240D01*
X2203056Y-2235142D02*
X2219239Y-2219239D01*
X2219239Y-380761D02*
X2203056Y-364858D01*
X2219239Y-2219239D02*
X2235142Y-2203056D01*
X2235142Y-396944D02*
X2219239Y-380761D01*
X2235142Y-2203056D02*
X2250760Y-2186598D01*
X2250760Y-413402D02*
X2235142Y-396944D01*
X2250760Y-2186598D02*
X2266088Y-2169870D01*
X2266088Y-430130D02*
X2250760Y-413402D01*
X2266088Y-2169870D02*
X2281123Y-2152877D01*
X2281123Y-447123D02*
X2266088Y-430130D01*
X2281123Y-2152877D02*
X2295858Y-2135624D01*
X2295858Y-464376D02*
X2281123Y-447123D01*
X2295858Y-2135624D02*
X2310290Y-2118117D01*
X2310290Y-481883D02*
X2295858Y-464376D01*
X2310290Y-2118117D02*
X2324414Y-2100360D01*
X2324414Y-499640D02*
X2310290Y-481883D01*
X2324414Y-2100360D02*
X2338226Y-2082359D01*
X2338226Y-517640D02*
X2324414Y-499640D01*
X2338226Y-2082359D02*
X2351722Y-2064121D01*
X2351722Y-535879D02*
X2338226Y-517640D01*
X2351722Y-2064121D02*
X2364898Y-2045649D01*
X2364898Y-554351D02*
X2351722Y-535879D01*
X2364898Y-2045649D02*
X2377749Y-2026951D01*
X2377749Y-573049D02*
X2364898Y-554351D01*
X2377749Y-2026951D02*
X2390272Y-2008031D01*
X2390272Y-591969D02*
X2377749Y-573049D01*
X2390272Y-2008031D02*
X2402463Y-1988895D01*
X2402463Y-611105D02*
X2390272Y-591969D01*
X2402463Y-1988895D02*
X2414318Y-1969549D01*
X2414318Y-630451D02*
X2402463Y-611105D01*
X2414318Y-1969549D02*
X2425833Y-1950000D01*
X2425833Y-650000D02*
X2414318Y-630451D01*
X2425833Y-1950000D02*
X2437006Y-1930252D01*
X2437006Y-669748D02*
X2425833Y-650000D01*
X2437006Y-1930252D02*
X2447832Y-1910313D01*
X2447832Y-689687D02*
X2437006Y-669748D01*
X2447832Y-1910313D02*
X2458309Y-1890188D01*
X2458309Y-709812D02*
X2447832Y-689687D01*
X2458309Y-1890188D02*
X2468432Y-1869882D01*
X2468432Y-730117D02*
X2458309Y-709812D01*
X2468432Y-1869882D02*
X2478200Y-1849404D01*
X2478200Y-750596D02*
X2468432Y-730117D01*
X2478200Y-1849404D02*
X2487609Y-1828758D01*
X2487609Y-771242D02*
X2478200Y-750596D01*
X2487609Y-1828758D02*
X2496656Y-1807950D01*
X2496656Y-792049D02*
X2487609Y-771242D01*
X2496656Y-1807950D02*
X2505339Y-1786989D01*
X2505339Y-813011D02*
X2496656Y-792049D01*
X2505339Y-1786989D02*
X2513655Y-1765878D01*
X2513655Y-834122D02*
X2505339Y-813011D01*
X2513655Y-1765878D02*
X2521600Y-1744626D01*
X2521600Y-855374D02*
X2513655Y-834122D01*
X2521600Y-1744626D02*
X2529174Y-1723239D01*
X2527706Y-1016562D02*
X2561384Y-985501D01*
X2527706Y-1583438D02*
X2532466Y-1561969D01*
X2529174Y-876761D02*
X2521600Y-855374D01*
X2529174Y-1723239D02*
X2536374Y-1701722D01*
X2532466Y-1038031D02*
X2527706Y-1016562D01*
X2532466Y-1561969D02*
X2536850Y-1540419D01*
X2536374Y-898278D02*
X2529174Y-876761D01*
X2536374Y-1701722D02*
X2543196Y-1680083D01*
X2536850Y-1059581D02*
X2532466Y-1038031D01*
X2536850Y-1540419D02*
X2540858Y-1518797D01*
X2540858Y-1081203D02*
X2536850Y-1059581D01*
X2540858Y-1518797D02*
X2544487Y-1497107D01*
X2543196Y-919917D02*
X2536374Y-898278D01*
X2543196Y-1680083D02*
X2549640Y-1658329D01*
X2544487Y-1102893D02*
X2540858Y-1081203D01*
X2544487Y-1497107D02*
X2547738Y-1475358D01*
X2547738Y-1124642D02*
X2544487Y-1102893D01*
X2547738Y-1475358D02*
X2550608Y-1453555D01*
X2549640Y-941671D02*
X2543196Y-919917D01*
X2549640Y-1658329D02*
X2555704Y-1636465D01*
X2550608Y-1146445D02*
X2547738Y-1124642D01*
X2550608Y-1453555D02*
X2553098Y-1431706D01*
X2553098Y-1168294D02*
X2550608Y-1146445D01*
X2553098Y-1431706D02*
X2555205Y-1409816D01*
X2555205Y-1190184D02*
X2553098Y-1168294D01*
X2555205Y-1409816D02*
X2556931Y-1387893D01*
X2555704Y-963535D02*
X2549640Y-941671D01*
X2555704Y-1636465D02*
X2561384Y-1614498D01*
X2556931Y-1212107D02*
X2555205Y-1190184D01*
X2556931Y-1387893D02*
X2558273Y-1365943D01*
X2558273Y-1234057D02*
X2556931Y-1212107D01*
X2558273Y-1365943D02*
X2559232Y-1343973D01*
X2559232Y-1256027D02*
X2558273Y-1234057D01*
X2559232Y-1343973D02*
X2559808Y-1321990D01*
X2559808Y-1278010D02*
X2559232Y-1256027D01*
X2559808Y-1321990D02*
X2560000Y-1300000D01*
X2560000Y-1300000D02*
X2559808Y-1278010D01*
X2561384Y-985501D02*
X2555704Y-963535D01*
X2561384Y-1614498D02*
X2527706Y-1583438D01*
D11*
D10*
X152875Y-1705158D02*
X177874Y-1730158D01*
X177874Y-1705158D02*
X152875Y-1730158D01*
X407500Y-1287500D02*
X432500Y-1312500D01*
X432500Y-1287500D02*
X407500Y-1312500D01*
X426730Y-1470462D02*
X451730Y-1495462D01*
X451730Y-1470462D02*
X426730Y-1495462D01*
X483580Y-929572D02*
X508580Y-954572D01*
X508580Y-929572D02*
X483580Y-954572D01*
X483580Y-1645428D02*
X508580Y-1670428D01*
X508580Y-1645428D02*
X483580Y-1670428D01*
X511092Y-1121670D02*
X536092Y-1146670D01*
X536092Y-1121670D02*
X511092Y-1146670D01*
X524452Y-1216736D02*
X549452Y-1241736D01*
X549452Y-1216736D02*
X524452Y-1241736D01*
X587500Y-1287500D02*
X612500Y-1312500D01*
X612500Y-1287500D02*
X587500Y-1312500D01*
X611352Y-1106327D02*
X636352Y-1131327D01*
X636352Y-1106327D02*
X611352Y-1131327D01*
X681282Y-1637500D02*
X706282Y-1662500D01*
X706282Y-1637500D02*
X681282Y-1662500D01*
X748138Y-1940405D02*
X773138Y-1965405D01*
X773138Y-1940405D02*
X748138Y-1965405D01*
X748815Y-1177832D02*
X773815Y-1202832D01*
X773815Y-1177832D02*
X748815Y-1202832D01*
X792525Y-1782475D02*
X817525Y-1807475D01*
X817525Y-1782475D02*
X792525Y-1807475D01*
X851782Y-2027154D02*
X876782Y-2052154D01*
X876782Y-2027154D02*
X851782Y-2052154D01*
X876794Y-1257867D02*
X901794Y-1282867D01*
X901794Y-1257867D02*
X876794Y-1282867D01*
X937500Y-681282D02*
X962500Y-706282D01*
X962500Y-681282D02*
X937500Y-706282D01*
X1015565Y-450570D02*
X1040565Y-475570D01*
X1040565Y-450570D02*
X1015565Y-475570D01*
X1027500Y-837167D02*
X1052500Y-862167D01*
X1052500Y-837167D02*
X1027500Y-862167D01*
X1027500Y-1737833D02*
X1052500Y-1762833D01*
X1052500Y-1737833D02*
X1027500Y-1762833D01*
X1039587Y-1564719D02*
X1064587Y-1589719D01*
X1064587Y-1564719D02*
X1039587Y-1589719D01*
X1106327Y-611352D02*
X1131327Y-636352D01*
X1131327Y-611352D02*
X1106327Y-636352D01*
X1195515Y-412321D02*
X1220515Y-437321D01*
X1220515Y-412321D02*
X1195515Y-437321D01*
X1197203Y-775400D02*
X1222203Y-800400D01*
X1222203Y-775400D02*
X1197203Y-800400D01*
X1236390Y-1919538D02*
X1261390Y-1944538D01*
X1261390Y-1919538D02*
X1236390Y-1944538D01*
X1270228Y-2185354D02*
X1295228Y-2210354D01*
X1295228Y-2185354D02*
X1270228Y-2210354D01*
X1287500Y-587500D02*
X1312500Y-612500D01*
X1312500Y-587500D02*
X1287500Y-612500D01*
X1324731Y-1997191D02*
X1349731Y-2022191D01*
X1349731Y-1997191D02*
X1324731Y-2022191D01*
X1328228Y-2077354D02*
X1353228Y-2102354D01*
X1353228Y-2077354D02*
X1328228Y-2102354D01*
X1379485Y-412321D02*
X1404485Y-437321D01*
X1404485Y-412321D02*
X1379485Y-437321D01*
X1457500Y-2447500D02*
X1482500Y-2472500D01*
X1482500Y-2447500D02*
X1457500Y-2472500D01*
X1468673Y-611352D02*
X1493673Y-636352D01*
X1493673Y-611352D02*
X1468673Y-636352D01*
X1488154Y-2020436D02*
X1513154Y-2045436D01*
X1513154Y-2020436D02*
X1488154Y-2045436D01*
X1547500Y-1737833D02*
X1572500Y-1762833D01*
X1572500Y-1737833D02*
X1547500Y-1762833D01*
X1559435Y-450570D02*
X1584435Y-475570D01*
X1584435Y-450570D02*
X1559435Y-475570D01*
X1635590Y-2093177D02*
X1660590Y-2118178D01*
X1660590Y-2093177D02*
X1635590Y-2118178D01*
X1637500Y-1893718D02*
X1662500Y-1918718D01*
X1662500Y-1893718D02*
X1637500Y-1918718D01*
X1685843Y-1621750D02*
X1710843Y-1646750D01*
X1710843Y-1621750D02*
X1685843Y-1646750D01*
X1782475Y-1782475D02*
X1807475Y-1807475D01*
X1807475Y-1782475D02*
X1782475Y-1807475D01*
X1807500Y-1287500D02*
X1832500Y-1312500D01*
X1832500Y-1287500D02*
X1807500Y-1312500D01*
X1830446Y-1537715D02*
X1855446Y-1562715D01*
X1855446Y-1537715D02*
X1830446Y-1562715D01*
X1876335Y-633533D02*
X1901335Y-658533D01*
X1901335Y-633533D02*
X1876335Y-658533D01*
X1963648Y-1468673D02*
X1988648Y-1493673D01*
X1988648Y-1468673D02*
X1963648Y-1493673D01*
X1977990Y-1244251D02*
X2002990Y-1269251D01*
X2002990Y-1244251D02*
X1977990Y-1269251D01*
X1999435Y-770249D02*
X2024435Y-795249D01*
X2024435Y-770249D02*
X1999435Y-795249D01*
X2091420Y-929572D02*
X2116420Y-954572D01*
X2116420Y-929572D02*
X2091420Y-954572D01*
X2093683Y-1660524D02*
X2118683Y-1685524D01*
X2118683Y-1660524D02*
X2093683Y-1685524D01*
X2167500Y-1287500D02*
X2192500Y-1312500D01*
X2192500Y-1287500D02*
X2167500Y-1312500D01*
X2189539Y-977278D02*
X2214539Y-1002278D01*
X2214539Y-977278D02*
X2189539Y-1002278D01*
X2207908Y-1453330D02*
X2232908Y-1478330D01*
X2232908Y-1453330D02*
X2207908Y-1478330D01*
D11*
X255777Y-2916484D02*
X255777Y-2716484D01*
X255777Y-2716484D02*
X303396Y-2716484D01*
X303396Y-2716484D02*
X331967Y-2726008D01*
X331967Y-2726008D02*
X351015Y-2745055D01*
X351015Y-2745055D02*
X360539Y-2764103D01*
X360539Y-2764103D02*
X370062Y-2802198D01*
X370062Y-2802198D02*
X370062Y-2830769D01*
X370062Y-2830769D02*
X360539Y-2868865D01*
X360539Y-2868865D02*
X351015Y-2887912D01*
X351015Y-2887912D02*
X331967Y-2906960D01*
X331967Y-2906960D02*
X303396Y-2916484D01*
X303396Y-2916484D02*
X255777Y-2916484D01*
X455777Y-2916484D02*
X455777Y-2783150D01*
X455777Y-2821246D02*
X465301Y-2802198D01*
X465301Y-2802198D02*
X474824Y-2792674D01*
X474824Y-2792674D02*
X493872Y-2783150D01*
X493872Y-2783150D02*
X512920Y-2783150D01*
X579586Y-2916484D02*
X579586Y-2783150D01*
X579586Y-2716484D02*
X570063Y-2726008D01*
X570063Y-2726008D02*
X579586Y-2735531D01*
X579586Y-2735531D02*
X589110Y-2726008D01*
X589110Y-2726008D02*
X579586Y-2716484D01*
X579586Y-2716484D02*
X579586Y-2735531D01*
X703396Y-2916484D02*
X684348Y-2906960D01*
X684348Y-2906960D02*
X674824Y-2887912D01*
X674824Y-2887912D02*
X674824Y-2716484D01*
X808158Y-2916484D02*
X789110Y-2906960D01*
X789110Y-2906960D02*
X779586Y-2887912D01*
X779586Y-2887912D02*
X779586Y-2716484D01*
X1036729Y-2916484D02*
X1036729Y-2716484D01*
X1036729Y-2716484D02*
X1103396Y-2859341D01*
X1103396Y-2859341D02*
X1170063Y-2716484D01*
X1170063Y-2716484D02*
X1170063Y-2916484D01*
X1351015Y-2916484D02*
X1351015Y-2811722D01*
X1351015Y-2811722D02*
X1341491Y-2792674D01*
X1341491Y-2792674D02*
X1322444Y-2783150D01*
X1322444Y-2783150D02*
X1284348Y-2783150D01*
X1284348Y-2783150D02*
X1265301Y-2792674D01*
X1351015Y-2906960D02*
X1331967Y-2916484D01*
X1331967Y-2916484D02*
X1284348Y-2916484D01*
X1284348Y-2916484D02*
X1265301Y-2906960D01*
X1265301Y-2906960D02*
X1255777Y-2887912D01*
X1255777Y-2887912D02*
X1255777Y-2868865D01*
X1255777Y-2868865D02*
X1265301Y-2849817D01*
X1265301Y-2849817D02*
X1284348Y-2840293D01*
X1284348Y-2840293D02*
X1331967Y-2840293D01*
X1331967Y-2840293D02*
X1351015Y-2830769D01*
X1446253Y-2783150D02*
X1446253Y-2983150D01*
X1446253Y-2792674D02*
X1465301Y-2783150D01*
X1465301Y-2783150D02*
X1503396Y-2783150D01*
X1503396Y-2783150D02*
X1522443Y-2792674D01*
X1522443Y-2792674D02*
X1531967Y-2802198D01*
X1531967Y-2802198D02*
X1541491Y-2821246D01*
X1541491Y-2821246D02*
X1541491Y-2878388D01*
X1541491Y-2878388D02*
X1531967Y-2897436D01*
X1531967Y-2897436D02*
X1522443Y-2906960D01*
X1522443Y-2906960D02*
X1503396Y-2916484D01*
X1503396Y-2916484D02*
X1465301Y-2916484D01*
X1465301Y-2916484D02*
X1446253Y-2906960D01*
X1627205Y-2897436D02*
X1636729Y-2906960D01*
X1636729Y-2906960D02*
X1627205Y-2916484D01*
X1627205Y-2916484D02*
X1617682Y-2906960D01*
X1617682Y-2906960D02*
X1627205Y-2897436D01*
X1627205Y-2897436D02*
X1627205Y-2916484D01*
X1627205Y-2792674D02*
X1636729Y-2802198D01*
X1636729Y-2802198D02*
X1627205Y-2811722D01*
X1627205Y-2811722D02*
X1617682Y-2802198D01*
X1617682Y-2802198D02*
X1627205Y-2792674D01*
X1627205Y-2792674D02*
X1627205Y-2811722D01*
D10*
X-30000Y-3232500D02*
X-5000Y-3257500D01*
X-5000Y-3232500D02*
X-30000Y-3257500D01*
D11*
X293872Y-3136484D02*
X312920Y-3136484D01*
X312920Y-3136484D02*
X331967Y-3146008D01*
X331967Y-3146008D02*
X341491Y-3155531D01*
X341491Y-3155531D02*
X351015Y-3174579D01*
X351015Y-3174579D02*
X360539Y-3212674D01*
X360539Y-3212674D02*
X360539Y-3260293D01*
X360539Y-3260293D02*
X351015Y-3298388D01*
X351015Y-3298388D02*
X341491Y-3317436D01*
X341491Y-3317436D02*
X331967Y-3326960D01*
X331967Y-3326960D02*
X312920Y-3336484D01*
X312920Y-3336484D02*
X293872Y-3336484D01*
X293872Y-3336484D02*
X274824Y-3326960D01*
X274824Y-3326960D02*
X265301Y-3317436D01*
X265301Y-3317436D02*
X255777Y-3298388D01*
X255777Y-3298388D02*
X246253Y-3260293D01*
X246253Y-3260293D02*
X246253Y-3212674D01*
X246253Y-3212674D02*
X255777Y-3174579D01*
X255777Y-3174579D02*
X265301Y-3155531D01*
X265301Y-3155531D02*
X274824Y-3146008D01*
X274824Y-3146008D02*
X293872Y-3136484D01*
X446253Y-3317436D02*
X455777Y-3326960D01*
X455777Y-3326960D02*
X446253Y-3336484D01*
X446253Y-3336484D02*
X436729Y-3326960D01*
X436729Y-3326960D02*
X446253Y-3317436D01*
X446253Y-3317436D02*
X446253Y-3336484D01*
X531967Y-3155531D02*
X541491Y-3146008D01*
X541491Y-3146008D02*
X560539Y-3136484D01*
X560539Y-3136484D02*
X608158Y-3136484D01*
X608158Y-3136484D02*
X627205Y-3146008D01*
X627205Y-3146008D02*
X636729Y-3155531D01*
X636729Y-3155531D02*
X646253Y-3174579D01*
X646253Y-3174579D02*
X646253Y-3193627D01*
X646253Y-3193627D02*
X636729Y-3222198D01*
X636729Y-3222198D02*
X522443Y-3336484D01*
X522443Y-3336484D02*
X646253Y-3336484D01*
X827205Y-3136484D02*
X731967Y-3136484D01*
X731967Y-3136484D02*
X722443Y-3231722D01*
X722443Y-3231722D02*
X731967Y-3222198D01*
X731967Y-3222198D02*
X751015Y-3212674D01*
X751015Y-3212674D02*
X798634Y-3212674D01*
X798634Y-3212674D02*
X817682Y-3222198D01*
X817682Y-3222198D02*
X827205Y-3231722D01*
X827205Y-3231722D02*
X836729Y-3250769D01*
X836729Y-3250769D02*
X836729Y-3298388D01*
X836729Y-3298388D02*
X827205Y-3317436D01*
X827205Y-3317436D02*
X817682Y-3326960D01*
X817682Y-3326960D02*
X798634Y-3336484D01*
X798634Y-3336484D02*
X751015Y-3336484D01*
X751015Y-3336484D02*
X731967Y-3326960D01*
X731967Y-3326960D02*
X722443Y-3317436D01*
X960539Y-3136484D02*
X979586Y-3136484D01*
X979586Y-3136484D02*
X998634Y-3146008D01*
X998634Y-3146008D02*
X1008158Y-3155531D01*
X1008158Y-3155531D02*
X1017682Y-3174579D01*
X1017682Y-3174579D02*
X1027205Y-3212674D01*
X1027205Y-3212674D02*
X1027205Y-3260293D01*
X1027205Y-3260293D02*
X1017682Y-3298388D01*
X1017682Y-3298388D02*
X1008158Y-3317436D01*
X1008158Y-3317436D02*
X998634Y-3326960D01*
X998634Y-3326960D02*
X979586Y-3336484D01*
X979586Y-3336484D02*
X960539Y-3336484D01*
X960539Y-3336484D02*
X941491Y-3326960D01*
X941491Y-3326960D02*
X931967Y-3317436D01*
X931967Y-3317436D02*
X922443Y-3298388D01*
X922443Y-3298388D02*
X912920Y-3260293D01*
X912920Y-3260293D02*
X912920Y-3212674D01*
X912920Y-3212674D02*
X922443Y-3174579D01*
X922443Y-3174579D02*
X931967Y-3155531D01*
X931967Y-3155531D02*
X941491Y-3146008D01*
X941491Y-3146008D02*
X960539Y-3136484D01*
X1112920Y-3336484D02*
X1112920Y-3203150D01*
X1112920Y-3222198D02*
X1122444Y-3212674D01*
X1122444Y-3212674D02*
X1141491Y-3203150D01*
X1141491Y-3203150D02*
X1170063Y-3203150D01*
X1170063Y-3203150D02*
X1189110Y-3212674D01*
X1189110Y-3212674D02*
X1198634Y-3231722D01*
X1198634Y-3231722D02*
X1198634Y-3336484D01*
X1198634Y-3231722D02*
X1208158Y-3212674D01*
X1208158Y-3212674D02*
X1227205Y-3203150D01*
X1227205Y-3203150D02*
X1255777Y-3203150D01*
X1255777Y-3203150D02*
X1274825Y-3212674D01*
X1274825Y-3212674D02*
X1284348Y-3231722D01*
X1284348Y-3231722D02*
X1284348Y-3336484D01*
X1379586Y-3336484D02*
X1379586Y-3203150D01*
X1379586Y-3222198D02*
X1389110Y-3212674D01*
X1389110Y-3212674D02*
X1408158Y-3203150D01*
X1408158Y-3203150D02*
X1436729Y-3203150D01*
X1436729Y-3203150D02*
X1455777Y-3212674D01*
X1455777Y-3212674D02*
X1465301Y-3231722D01*
X1465301Y-3231722D02*
X1465301Y-3336484D01*
X1465301Y-3231722D02*
X1474824Y-3212674D01*
X1474824Y-3212674D02*
X1493872Y-3203150D01*
X1493872Y-3203150D02*
X1522443Y-3203150D01*
X1522443Y-3203150D02*
X1541491Y-3212674D01*
X1541491Y-3212674D02*
X1551015Y-3231722D01*
X1551015Y-3231722D02*
X1551015Y-3336484D01*
X1941491Y-3126960D02*
X1770063Y-3384103D01*
X2198634Y-3136484D02*
X2217682Y-3136484D01*
X2217682Y-3136484D02*
X2236729Y-3146008D01*
X2236729Y-3146008D02*
X2246253Y-3155531D01*
X2246253Y-3155531D02*
X2255777Y-3174579D01*
X2255777Y-3174579D02*
X2265301Y-3212674D01*
X2265301Y-3212674D02*
X2265301Y-3260293D01*
X2265301Y-3260293D02*
X2255777Y-3298388D01*
X2255777Y-3298388D02*
X2246253Y-3317436D01*
X2246253Y-3317436D02*
X2236729Y-3326960D01*
X2236729Y-3326960D02*
X2217682Y-3336484D01*
X2217682Y-3336484D02*
X2198634Y-3336484D01*
X2198634Y-3336484D02*
X2179587Y-3326960D01*
X2179587Y-3326960D02*
X2170063Y-3317436D01*
X2170063Y-3317436D02*
X2160539Y-3298388D01*
X2160539Y-3298388D02*
X2151015Y-3260293D01*
X2151015Y-3260293D02*
X2151015Y-3212674D01*
X2151015Y-3212674D02*
X2160539Y-3174579D01*
X2160539Y-3174579D02*
X2170063Y-3155531D01*
X2170063Y-3155531D02*
X2179587Y-3146008D01*
X2179587Y-3146008D02*
X2198634Y-3136484D01*
X2351015Y-3317436D02*
X2360539Y-3326960D01*
X2360539Y-3326960D02*
X2351015Y-3336484D01*
X2351015Y-3336484D02*
X2341491Y-3326960D01*
X2341491Y-3326960D02*
X2351015Y-3317436D01*
X2351015Y-3317436D02*
X2351015Y-3336484D01*
X2484348Y-3136484D02*
X2503396Y-3136484D01*
X2503396Y-3136484D02*
X2522444Y-3146008D01*
X2522444Y-3146008D02*
X2531968Y-3155531D01*
X2531968Y-3155531D02*
X2541491Y-3174579D01*
X2541491Y-3174579D02*
X2551015Y-3212674D01*
X2551015Y-3212674D02*
X2551015Y-3260293D01*
X2551015Y-3260293D02*
X2541491Y-3298388D01*
X2541491Y-3298388D02*
X2531968Y-3317436D01*
X2531968Y-3317436D02*
X2522444Y-3326960D01*
X2522444Y-3326960D02*
X2503396Y-3336484D01*
X2503396Y-3336484D02*
X2484348Y-3336484D01*
X2484348Y-3336484D02*
X2465301Y-3326960D01*
X2465301Y-3326960D02*
X2455777Y-3317436D01*
X2455777Y-3317436D02*
X2446253Y-3298388D01*
X2446253Y-3298388D02*
X2436729Y-3260293D01*
X2436729Y-3260293D02*
X2436729Y-3212674D01*
X2436729Y-3212674D02*
X2446253Y-3174579D01*
X2446253Y-3174579D02*
X2455777Y-3155531D01*
X2455777Y-3155531D02*
X2465301Y-3146008D01*
X2465301Y-3146008D02*
X2484348Y-3136484D01*
X2674825Y-3136484D02*
X2693872Y-3136484D01*
X2693872Y-3136484D02*
X2712920Y-3146008D01*
X2712920Y-3146008D02*
X2722444Y-3155531D01*
X2722444Y-3155531D02*
X2731968Y-3174579D01*
X2731968Y-3174579D02*
X2741491Y-3212674D01*
X2741491Y-3212674D02*
X2741491Y-3260293D01*
X2741491Y-3260293D02*
X2731968Y-3298388D01*
X2731968Y-3298388D02*
X2722444Y-3317436D01*
X2722444Y-3317436D02*
X2712920Y-3326960D01*
X2712920Y-3326960D02*
X2693872Y-3336484D01*
X2693872Y-3336484D02*
X2674825Y-3336484D01*
X2674825Y-3336484D02*
X2655777Y-3326960D01*
X2655777Y-3326960D02*
X2646253Y-3317436D01*
X2646253Y-3317436D02*
X2636729Y-3298388D01*
X2636729Y-3298388D02*
X2627206Y-3260293D01*
X2627206Y-3260293D02*
X2627206Y-3212674D01*
X2627206Y-3212674D02*
X2636729Y-3174579D01*
X2636729Y-3174579D02*
X2646253Y-3155531D01*
X2646253Y-3155531D02*
X2655777Y-3146008D01*
X2655777Y-3146008D02*
X2674825Y-3136484D01*
X2836729Y-3336484D02*
X2874825Y-3336484D01*
X2874825Y-3336484D02*
X2893872Y-3326960D01*
X2893872Y-3326960D02*
X2903396Y-3317436D01*
X2903396Y-3317436D02*
X2922444Y-3288865D01*
X2922444Y-3288865D02*
X2931967Y-3250769D01*
X2931967Y-3250769D02*
X2931967Y-3174579D01*
X2931967Y-3174579D02*
X2922444Y-3155531D01*
X2922444Y-3155531D02*
X2912920Y-3146008D01*
X2912920Y-3146008D02*
X2893872Y-3136484D01*
X2893872Y-3136484D02*
X2855777Y-3136484D01*
X2855777Y-3136484D02*
X2836729Y-3146008D01*
X2836729Y-3146008D02*
X2827206Y-3155531D01*
X2827206Y-3155531D02*
X2817682Y-3174579D01*
X2817682Y-3174579D02*
X2817682Y-3222198D01*
X2817682Y-3222198D02*
X2827206Y-3241246D01*
X2827206Y-3241246D02*
X2836729Y-3250769D01*
X2836729Y-3250769D02*
X2855777Y-3260293D01*
X2855777Y-3260293D02*
X2893872Y-3260293D01*
X2893872Y-3260293D02*
X2912920Y-3250769D01*
X2912920Y-3250769D02*
X2922444Y-3241246D01*
X2922444Y-3241246D02*
X2931967Y-3222198D01*
X3046253Y-3222198D02*
X3027206Y-3212674D01*
X3027206Y-3212674D02*
X3017682Y-3203150D01*
X3017682Y-3203150D02*
X3008158Y-3184103D01*
X3008158Y-3184103D02*
X3008158Y-3174579D01*
X3008158Y-3174579D02*
X3017682Y-3155531D01*
X3017682Y-3155531D02*
X3027206Y-3146008D01*
X3027206Y-3146008D02*
X3046253Y-3136484D01*
X3046253Y-3136484D02*
X3084348Y-3136484D01*
X3084348Y-3136484D02*
X3103396Y-3146008D01*
X3103396Y-3146008D02*
X3112920Y-3155531D01*
X3112920Y-3155531D02*
X3122444Y-3174579D01*
X3122444Y-3174579D02*
X3122444Y-3184103D01*
X3122444Y-3184103D02*
X3112920Y-3203150D01*
X3112920Y-3203150D02*
X3103396Y-3212674D01*
X3103396Y-3212674D02*
X3084348Y-3222198D01*
X3084348Y-3222198D02*
X3046253Y-3222198D01*
X3046253Y-3222198D02*
X3027206Y-3231722D01*
X3027206Y-3231722D02*
X3017682Y-3241246D01*
X3017682Y-3241246D02*
X3008158Y-3260293D01*
X3008158Y-3260293D02*
X3008158Y-3298388D01*
X3008158Y-3298388D02*
X3017682Y-3317436D01*
X3017682Y-3317436D02*
X3027206Y-3326960D01*
X3027206Y-3326960D02*
X3046253Y-3336484D01*
X3046253Y-3336484D02*
X3084348Y-3336484D01*
X3084348Y-3336484D02*
X3103396Y-3326960D01*
X3103396Y-3326960D02*
X3112920Y-3317436D01*
X3112920Y-3317436D02*
X3122444Y-3298388D01*
X3122444Y-3298388D02*
X3122444Y-3260293D01*
X3122444Y-3260293D02*
X3112920Y-3241246D01*
X3112920Y-3241246D02*
X3103396Y-3231722D01*
X3103396Y-3231722D02*
X3084348Y-3222198D01*
X3198634Y-3136484D02*
X3198634Y-3174579D01*
X3274825Y-3136484D02*
X3274825Y-3174579D01*
X3570063Y-3412674D02*
X3560539Y-3403150D01*
X3560539Y-3403150D02*
X3541491Y-3374579D01*
X3541491Y-3374579D02*
X3531968Y-3355531D01*
X3531968Y-3355531D02*
X3522444Y-3326960D01*
X3522444Y-3326960D02*
X3512920Y-3279341D01*
X3512920Y-3279341D02*
X3512920Y-3241246D01*
X3512920Y-3241246D02*
X3522444Y-3193627D01*
X3522444Y-3193627D02*
X3531968Y-3165055D01*
X3531968Y-3165055D02*
X3541491Y-3146008D01*
X3541491Y-3146008D02*
X3560539Y-3117436D01*
X3560539Y-3117436D02*
X3570063Y-3107912D01*
X3731968Y-3203150D02*
X3731968Y-3336484D01*
X3684348Y-3126960D02*
X3636729Y-3269817D01*
X3636729Y-3269817D02*
X3760539Y-3269817D01*
X3846253Y-3336484D02*
X3884348Y-3336484D01*
X3884348Y-3336484D02*
X3903396Y-3326960D01*
X3903396Y-3326960D02*
X3912920Y-3317436D01*
X3912920Y-3317436D02*
X3931968Y-3288865D01*
X3931968Y-3288865D02*
X3941491Y-3250769D01*
X3941491Y-3250769D02*
X3941491Y-3174579D01*
X3941491Y-3174579D02*
X3931968Y-3155531D01*
X3931968Y-3155531D02*
X3922444Y-3146008D01*
X3922444Y-3146008D02*
X3903396Y-3136484D01*
X3903396Y-3136484D02*
X3865301Y-3136484D01*
X3865301Y-3136484D02*
X3846253Y-3146008D01*
X3846253Y-3146008D02*
X3836729Y-3155531D01*
X3836729Y-3155531D02*
X3827206Y-3174579D01*
X3827206Y-3174579D02*
X3827206Y-3222198D01*
X3827206Y-3222198D02*
X3836729Y-3241246D01*
X3836729Y-3241246D02*
X3846253Y-3250769D01*
X3846253Y-3250769D02*
X3865301Y-3260293D01*
X3865301Y-3260293D02*
X3903396Y-3260293D01*
X3903396Y-3260293D02*
X3922444Y-3250769D01*
X3922444Y-3250769D02*
X3931968Y-3241246D01*
X3931968Y-3241246D02*
X3941491Y-3222198D01*
X4179587Y-3336484D02*
X4179587Y-3136484D01*
X4265301Y-3336484D02*
X4265301Y-3231722D01*
X4265301Y-3231722D02*
X4255777Y-3212674D01*
X4255777Y-3212674D02*
X4236730Y-3203150D01*
X4236730Y-3203150D02*
X4208158Y-3203150D01*
X4208158Y-3203150D02*
X4189110Y-3212674D01*
X4189110Y-3212674D02*
X4179587Y-3222198D01*
X4389111Y-3336484D02*
X4370063Y-3326960D01*
X4370063Y-3326960D02*
X4360539Y-3317436D01*
X4360539Y-3317436D02*
X4351015Y-3298388D01*
X4351015Y-3298388D02*
X4351015Y-3241246D01*
X4351015Y-3241246D02*
X4360539Y-3222198D01*
X4360539Y-3222198D02*
X4370063Y-3212674D01*
X4370063Y-3212674D02*
X4389111Y-3203150D01*
X4389111Y-3203150D02*
X4417682Y-3203150D01*
X4417682Y-3203150D02*
X4436730Y-3212674D01*
X4436730Y-3212674D02*
X4446253Y-3222198D01*
X4446253Y-3222198D02*
X4455777Y-3241246D01*
X4455777Y-3241246D02*
X4455777Y-3298388D01*
X4455777Y-3298388D02*
X4446253Y-3317436D01*
X4446253Y-3317436D02*
X4436730Y-3326960D01*
X4436730Y-3326960D02*
X4417682Y-3336484D01*
X4417682Y-3336484D02*
X4389111Y-3336484D01*
X4570063Y-3336484D02*
X4551015Y-3326960D01*
X4551015Y-3326960D02*
X4541492Y-3307912D01*
X4541492Y-3307912D02*
X4541492Y-3136484D01*
X4722444Y-3326960D02*
X4703396Y-3336484D01*
X4703396Y-3336484D02*
X4665301Y-3336484D01*
X4665301Y-3336484D02*
X4646253Y-3326960D01*
X4646253Y-3326960D02*
X4636730Y-3307912D01*
X4636730Y-3307912D02*
X4636730Y-3231722D01*
X4636730Y-3231722D02*
X4646253Y-3212674D01*
X4646253Y-3212674D02*
X4665301Y-3203150D01*
X4665301Y-3203150D02*
X4703396Y-3203150D01*
X4703396Y-3203150D02*
X4722444Y-3212674D01*
X4722444Y-3212674D02*
X4731968Y-3231722D01*
X4731968Y-3231722D02*
X4731968Y-3250769D01*
X4731968Y-3250769D02*
X4636730Y-3269817D01*
X4808158Y-3326960D02*
X4827206Y-3336484D01*
X4827206Y-3336484D02*
X4865301Y-3336484D01*
X4865301Y-3336484D02*
X4884349Y-3326960D01*
X4884349Y-3326960D02*
X4893873Y-3307912D01*
X4893873Y-3307912D02*
X4893873Y-3298388D01*
X4893873Y-3298388D02*
X4884349Y-3279341D01*
X4884349Y-3279341D02*
X4865301Y-3269817D01*
X4865301Y-3269817D02*
X4836730Y-3269817D01*
X4836730Y-3269817D02*
X4817682Y-3260293D01*
X4817682Y-3260293D02*
X4808158Y-3241246D01*
X4808158Y-3241246D02*
X4808158Y-3231722D01*
X4808158Y-3231722D02*
X4817682Y-3212674D01*
X4817682Y-3212674D02*
X4836730Y-3203150D01*
X4836730Y-3203150D02*
X4865301Y-3203150D01*
X4865301Y-3203150D02*
X4884349Y-3212674D01*
X4960539Y-3412674D02*
X4970063Y-3403150D01*
X4970063Y-3403150D02*
X4989111Y-3374579D01*
X4989111Y-3374579D02*
X4998634Y-3355531D01*
X4998634Y-3355531D02*
X5008158Y-3326960D01*
X5008158Y-3326960D02*
X5017682Y-3279341D01*
X5017682Y-3279341D02*
X5017682Y-3241246D01*
X5017682Y-3241246D02*
X5008158Y-3193627D01*
X5008158Y-3193627D02*
X4998634Y-3165055D01*
X4998634Y-3165055D02*
X4989111Y-3146008D01*
X4989111Y-3146008D02*
X4970063Y-3117436D01*
X4970063Y-3117436D02*
X4960539Y-3107912D01*
M02*
