0
SECTION
2
HEADER
9
$INSUNITS
70
4
9
$ACADVER
1
AC1014
9
$HANDSEED
5
FFFF
0
ENDSEC
0
SECTION
2
TABLES
0
TABLE
2
VPORT
5
8
100
AcDbSymbolTable
0
ENDTAB
0
TABLE
2
LTYPE
5
5
100
AcDbSymbolTable
0
LTYPE
5
14
100
AcDbSymbolTableRecord
100
AcDbLinetypeTableRecord
2
BYBLOCK
70
0
0
LTYPE
5
15
100
AcDbSymbolTableRecord
100
AcDbLinetypeTableRecord
2
BYLAYER
70
0
0
ENDTAB
0
TABLE
2
LAYER
5
2
100
AcDbSymbolTable
70
2
0
LAYER
5
50
100
AcDbSymbolTableRecord
100
AcDbLayerTableRecord
2
0
70
0
6
CONTINUOUS
0
ENDTAB
0
TABLE
2
STYLE
5
3
100
AcDbSymbolTable
70
1
0
STYLE
5
11
100
AcDbSymbolTableRecord
100
AcDbTextStyleTableRecord
2
STANDARD
70
0
0
ENDTAB
0
TABLE
2
VIEW
5
6
100
AcDbSymbolTable
70
0
0
ENDTAB
0
TABLE
2
UCS
5
7
100
AcDbSymbolTable
70
0
0
ENDTAB
0
TABLE
2
APPID
5
9
100
AcDbSymbolTable
70
2
0
APPID
5
12
100
AcDbSymbolTableRecord
100
AcDbRegAppTableRecord
2
ACAD
70
0
0
ENDTAB
0
TABLE
2
DIMSTYLE
5
A
100
AcDbSymbolTable
70
1
0
ENDTAB
0
TABLE
2
BLOCK_RECORD
5
1
100
AcDbSymbolTable
70
1
0
BLOCK_RECORD
5
1F
100
AcDbSymbolTableRecord
100
AcDbBlockTableRecord
2
*MODEL_SPACE
0
BLOCK_RECORD
5
1B
100
AcDbSymbolTableRecord
100
AcDbBlockTableRecord
2
*PAPER_SPACE
0
ENDTAB
0
ENDSEC
0
SECTION
2
BLOCKS
0
BLOCK
5
20
100
AcDbEntity
100
AcDbBlockBegin
2
*MODEL_SPACE
0
ENDBLK
5
21
100
AcDbEntity
100
AcDbBlockEnd
0
BLOCK
5
1C
100
AcDbEntity
100
AcDbBlockBegin
2
*PAPER_SPACE
0
ENDBLK
5
1D
100
AcDbEntity
100
AcDbBlockEnd
0
ENDSEC
0
SECTION
2
ENTITIES
0
SPLINE
5
100
100
AcDbEntity
8
0
100
AcDbSpline
70
4
71
5
72
131
73
125
74
0
42
0.000000001
43
0.0000000001
44
0.0000000001
40
0
40
0
40
0
40
0
40
0
40
0
40
0.0083333333333333332
40
0.016666666666666666
40
0.025000000000000001
40
0.033333333333333333
40
0.041666666666666664
40
0.049999999999999996
40
0.058333333333333327
40
0.066666666666666666
40
0.074999999999999997
40
0.083333333333333329
40
0.09166666666666666
40
0.099999999999999992
40
0.10833333333333332
40
0.11666666666666665
40
0.12499999999999999
40
0.13333333333333333
40
0.14166666666666666
40
0.14999999999999999
40
0.15833333333333333
40
0.16666666666666666
40
0.17499999999999999
40
0.18333333333333332
40
0.19166666666666665
40
0.19999999999999998
40
0.20833333333333331
40
0.21666666666666665
40
0.22499999999999998
40
0.23333333333333331
40
0.24166666666666664
40
0.24999999999999997
40
0.2583333333333333
40
0.26666666666666666
40
0.27500000000000002
40
0.28333333333333338
40
0.29166666666666674
40
0.3000000000000001
40
0.30833333333333346
40
0.31666666666666682
40
0.32500000000000018
40
0.33333333333333354
40
0.3416666666666669
40
0.35000000000000026
40
0.35833333333333361
40
0.36666666666666697
40
0.37500000000000033
40
0.38333333333333369
40
0.39166666666666705
40
0.40000000000000041
40
0.40833333333333377
40
0.41666666666666713
40
0.42500000000000049
40
0.43333333333333385
40
0.44166666666666721
40
0.45000000000000057
40
0.45833333333333393
40
0.46666666666666728
40
0.47500000000000064
40
0.483333333333334
40
0.49166666666666736
40
0.50000000000000067
40
0.50833333333333397
40
0.51666666666666727
40
0.52500000000000058
40
0.53333333333333388
40
0.54166666666666718
40
0.55000000000000049
40
0.55833333333333379
40
0.5666666666666671
40
0.5750000000000004
40
0.5833333333333337
40
0.59166666666666701
40
0.60000000000000031
40
0.60833333333333361
40
0.61666666666666692
40
0.62500000000000022
40
0.63333333333333353
40
0.64166666666666683
40
0.65000000000000013
40
0.65833333333333344
40
0.66666666666666674
40
0.67500000000000004
40
0.68333333333333335
40
0.69166666666666665
40
0.69999999999999996
40
0.70833333333333326
40
0.71666666666666656
40
0.72499999999999987
40
0.73333333333333317
40
0.74166666666666647
40
0.74999999999999978
40
0.75833333333333308
40
0.76666666666666639
40
0.77499999999999969
40
0.78333333333333299
40
0.7916666666666663
40
0.7999999999999996
40
0.8083333333333329
40
0.81666666666666621
40
0.82499999999999951
40
0.83333333333333282
40
0.84166666666666612
40
0.84999999999999942
40
0.85833333333333273
40
0.86666666666666603
40
0.87499999999999933
40
0.88333333333333264
40
0.89166666666666594
40
0.89999999999999925
40
0.90833333333333255
40
0.91666666666666585
40
0.92499999999999916
40
0.93333333333333246
40
0.94166666666666576
40
0.94999999999999907
40
0.95833333333333237
40
0.96666666666666567
40
0.97499999999999898
40
0.98333333333333228
40
0.99166666666666559
40
1
40
1
40
1
40
1
40
1
40
1
41
1
41
1
41
1
41
1
41
1
41
1
41
1
41
1
41
1
41
1
41
1
41
1
41
1
41
1
41
1
41
1
41
1
41
1
41
1
41
1
41
1
41
1
41
1
41
1
41
1
41
1
41
1
41
1
41
1
41
1
41
1
41
1
41
1
41
1
41
1
41
1
41
1
41
1
41
1
41
1
41
1
41
1
41
1
41
1
41
1
41
1
41
1
41
1
41
1
41
1
41
1
41
1
41
1
41
1
41
1
41
1
41
1
41
1
41
1
41
1
41
1
41
1
41
1
41
1
41
1
41
1
41
1
41
1
41
1
41
1
41
1
41
1
41
1
41
1
41
1
41
1
41
1
41
1
41
1
41
1
41
1
41
1
41
1
41
1
41
1
41
1
41
1
41
1
41
1
41
1
41
1
41
1
41
1
41
1
41
1
41
1
41
1
41
1
41
1
41
1
41
1
41
1
41
1
41
1
41
1
41
1
41
1
41
1
41
1
41
1
41
1
41
1
41
1
41
1
41
1
41
1
41
1
41
1
41
1
41
1
41
1
41
1
41
1
41
1
41
1
10
15.93
20
7.9800000000000004
30
0
10
15.896834186845405
20
7.9797277813115794
30
0
10
15.830504517122437
20
7.9791556605105427
30
0
10
15.731015882286496
20
7.9782144291747814
30
0
10
15.59837611008475
20
7.9767933338047445
30
0
10
15.432595197371446
20
7.9747508791784067
30
0
10
15.266830778353931
20
7.9724748534382783
30
0
10
15.101078221693982
20
7.9700304766928864
30
0
10
14.935329804140906
20
7.9675265141455078
30
0
10
14.769573911894266
20
7.9651265137005112
30
0
10
14.603798719344752
20
7.9629982436886344
30
0
10
14.437995883008909
20
7.9612628923250259
30
0
10
14.27216425282654
20
7.9599440952910019
30
0
10
14.106313528892542
20
7.958917558677304
30
0
10
13.94046808332873
20
7.9578588214014223
30
0
10
13.774657252510149
20
7.956345466267754
30
0
10
13.60890550793912
20
7.9539608634960848
30
0
10
13.44322259587344
20
7.9503978826305977
30
0
10
13.277593856895393
20
7.9455614046544278
30
0
10
13.111969987152584
20
7.9396748622123514
30
0
10
12.946288393152205
20
7.9331539716569885
30
0
10
12.780495013538351
20
7.9264767411421975
30
0
10
12.614566164182222
20
7.9200540621200481
30
0
10
12.448529938787814
20
7.9141019602754161
30
0
10
12.282489039369475
20
7.9085078172625725
30
0
10
12.116584018304092
20
7.9029543675584621
30
0
10
11.950955174885035
20
7.897049699146824
30
0
10
11.785704626063129
20
7.8904560630681209
30
0
10
11.620859037100661
20
7.8830167401223319
30
0
10
11.456330000306298
20
7.8748905053645455
30
0
10
11.291953949382643
20
7.866425249736956
30
0
10
11.127534640307378
20
7.8580232334068079
30
0
10
10.962884787019293
20
7.8500088963150718
30
0
10
10.797867784213766
20
7.8424968464789568
30
0
10
10.6324401501744
20
7.8352561901510374
30
0
10
10.466635065150555
20
7.8278481119860155
30
0
10
10.300544966764472
20
7.8197673275686661
30
0
10
10.134304558142082
20
7.8105828848362133
30
0
10
9.968073588482337
20
7.8000773459824257
30
0
10
9.8020199482629913
20
7.7883919699897683
30
0
10
9.6362936425088961
20
7.7759010765666003
30
0
10
9.4710007576513497
20
7.7630804250430874
30
0
10
9.3061770114693534
20
7.750376854012706
30
0
10
9.1417623703648161
20
7.7380797047478023
30
0
10
8.9775726580228579
20
7.726185121421131
30
0
10
8.8133611371538745
20
7.7144877295694521
30
0
10
8.6488831018314638
20
7.702680286434016
30
0
10
8.4839597692453275
20
7.6904508081964913
30
0
10
8.3185415523325954
20
7.677579692546713
30
0
10
8.1527742130120302
20
7.6640397599785972
30
0
10
7.98691846329704
20
7.6499300927420837
30
0
10
7.8212667886166543
20
7.6354065195840173
30
0
10
7.6560605809473694
20
7.6206128150513006
30
0
10
7.4914088273809254
20
7.6056128898868565
30
0
10
7.3272014495707793
20
7.590319015037573
30
0
10
7.1631915999291165
20
7.5745483776084557
30
0
10
6.9990836692009806
20
7.5580840254217723
30
0
10
6.8346197022977107
20
7.5407345272442772
30
0
10
6.6696652639618232
20
7.5223933809169221
30
0
10
6.5042989413183951
20
7.503100747059456
30
0
10
6.3387372450276409
20
7.482997277983829
30
0
10
6.1732557099427066
20
7.4622753484656723
30
0
10
6.0081106203862191
20
7.4411309395231946
30
0
10
5.8434623407354147
20
7.4197160260502901
30
0
10
5.6792928553841984
20
7.3980886379695825
30
0
10
5.5154645201557067
20
7.3762220328615804
30
0
10
5.351785267815937
20
7.3540167655165787
30
0
10
5.1880720471604693
20
7.331311555570589
30
0
10
5.0242135751195072
20
7.30789488128051
30
0
10
4.8602372849327065
20
7.2835155649983925
30
0
10
4.6962665682350782
20
7.2579117583024741
30
0
10
4.5324730559719812
20
7.2308405237318123
30
0
10
4.369030253365155
20
7.2021076418307981
30
0
10
4.2060677299223794
20
7.1715963472499151
30
0
10
4.0436220229707924
20
7.1392992554918546
30
0
10
3.8816635552140779
20
7.1052827293903817
30
0
10
3.7201275901040498
20
7.0696477449780515
30
0
10
3.5589439438149206
20
7.0324917748882187
30
0
10
3.3980666426647748
20
6.9938708855214529
30
0
10
3.2375051633721572
20
6.9537599965922023
30
0
10
3.0773166509593923
20
6.9120570342185852
30
0
10
2.9175960086505719
20
6.8685895522238702
30
0
10
2.7584667331545716
20
6.8231202932104784
30
0
10
2.60007156521517
20
6.7753534590720381
30
0
10
2.4425629133222824
20
6.7249398632947246
30
0
10
2.2861017744577588
20
6.6715017963985348
30
0
10
2.1308572349782033
20
6.61465867448144
30
0
10
1.977005566655192
20
6.5540528088867509
30
0
10
1.8247299431822817
20
6.4893742038561699
30
0
10
1.674218683616896
20
6.4203883133573232
30
0
10
1.5256978456524561
20
6.3468923232169763
30
0
10
1.3794652233358995
20
6.2686685267439071
30
0
10
1.2359242245346511
20
6.1854379933050705
30
0
10
1.0956170081310455
20
6.0968158608305822
30
0
10
0.95926026899684602
20
6.0022610976304671
30
0
10
0.82771425708375423
20
5.9011661200757448
30
0
10
0.70194881811413889
20
5.7929524197777171
30
0
10
0.58301051837277929
20
5.6771647029865679
30
0
10
0.47198947406687564
20
5.5535641041820574
30
0
10
0.36998598577536834
20
5.4222262656582441
30
0
10
0.27808794439900764
20
5.2835000079171213
30
0
10
0.19734868785075288
20
5.1379603441390049
30
0
10
0.12876471973520798
20
4.9863634875406726
30
0
10
0.073253337247171785
20
4.8296015637218943
30
0
10
0.031630567655977167
20
4.6686563062382564
30
0
10
0.0045761603936210586
20
4.5046031662857597
30
0
10
-0.0074018353251643311
20
4.3386169927485598
30
0
10
-0.0040025140269084637
20
4.171977365459532
30
0
10
0.014832542697924592
20
4.0060737007943779
30
0
10
0.048883206103516041
20
3.842411678191894
30
0
10
0.097671698452536856
20
3.6825006562856473
30
0
10
0.160484114760508
20
3.5277397534821513
30
0
10
0.23639152010005604
20
3.3793041831460799
30
0
10
0.32427126744420476
20
3.2380318454209345
30
0
10
0.42282767040785346
20
3.1043083869216233
30
0
10
0.53069190451403125
20
2.9781774802752281
30
0
10
0.64652245582923251
20
2.859452579570581
30
0
10
0.76910527318510213
20
2.7478279331765694
30
0
10
0.8974542854321117
20
2.6429899893479956
30
0
10
1.0309112989690377
20
2.5447281690766621
30
0
10
1.1690801903485784
20
2.4529143555615978
30
0
10
1.2832255028659276
20
2.3845691954033548
30
0
10
1.370834900353499
20
2.3361718916742489
30
0
10
1.4301301380291149
20
2.3051786865693509
30
0
10
1.46
20
2.29
30
0
0
SPLINE
5
101
100
AcDbEntity
8
0
100
AcDbSpline
70
4
71
5
72
76
73
70
74
0
42
0.000000001
43
0.0000000001
44
0.0000000001
40
0
40
0
40
0
40
0
40
0
40
0
40
0.015384615384615385
40
0.030769230769230771
40
0.046153846153846156
40
0.061538461538461542
40
0.076923076923076927
40
0.092307692307692313
40
0.1076923076923077
40
0.12307692307692308
40
0.13846153846153847
40
0.15384615384615385
40
0.16923076923076924
40
0.18461538461538463
40
0.20000000000000001
40
0.2153846153846154
40
0.23076923076923078
40
0.24615384615384617
40
0.26153846153846155
40
0.27692307692307694
40
0.29230769230769232
40
0.30769230769230771
40
0.32307692307692309
40
0.33846153846153848
40
0.35384615384615387
40
0.36923076923076925
40
0.38461538461538464
40
0.40000000000000002
40
0.41538461538461541
40
0.43076923076923079
40
0.44615384615384618
40
0.46153846153846156
40
0.47692307692307695
40
0.49230769230769234
40
0.50769230769230766
40
0.52307692307692299
40
0.53846153846153832
40
0.55384615384615365
40
0.56923076923076898
40
0.58461538461538431
40
0.59999999999999964
40
0.61538461538461497
40
0.6307692307692303
40
0.64615384615384563
40
0.66153846153846096
40
0.67692307692307629
40
0.69230769230769162
40
0.70769230769230695
40
0.72307692307692228
40
0.73846153846153761
40
0.75384615384615294
40
0.76923076923076827
40
0.7846153846153836
40
0.79999999999999893
40
0.81538461538461426
40
0.83076923076922959
40
0.84615384615384492
40
0.86153846153846025
40
0.87692307692307558
40
0.89230769230769091
40
0.90769230769230624
40
0.92307692307692157
40
0.9384615384615369
40
0.95384615384615223
40
0.96923076923076756
40
0.98461538461538289
40
1
40
1
40
1
40
1
40
1
40
1
41
1
41
1
41
1
41
1
41
1
41
1
41
1
41
1
41
1
41
1
41
1
41
1
41
1
41
1
41
1
41
1
41
1
41
1
41
1
41
1
41
1
41
1
41
1
41
1
41
1
41
1
41
1
41
1
41
1
41
1
41
1
41
1
41
1
41
1
41
1
41
1
41
1
41
1
41
1
41
1
41
1
41
1
41
1
41
1
41
1
41
1
41
1
41
1
41
1
41
1
41
1
41
1
41
1
41
1
41
1
41
1
41
1
41
1
41
1
41
1
41
1
41
1
41
1
41
1
41
1
41
1
41
1
41
1
41
1
41
1
10
3.21
20
0.87999999999999967
30
0
10
3.2485585709234845
20
0.8745559399382532
30
0
10
3.3257365635897598
20
0.8637158131234961
30
0
10
3.4416861051593841
20
0.84759960285049396
30
0
10
3.5966507388231443
20
0.82639939315541977
30
0
10
3.790952733428274
20
0.80037742613249119
30
0
10
3.985811868791203
20
0.77482716650572692
30
0
10
4.181148944694594
20
0.74973459909332296
30
0
10
4.376830835813732
20
0.72507558026200303
30
0
10
4.5726569642412604
20
0.70081319378678442
30
0
10
4.7684037159866151
20
0.67690801478376905
30
0
10
4.963868462395518
20
0.65332828281714783
30
0
10
5.1589138195833515
20
0.63006013652503778
30
0
10
5.3535117179019434
20
0.60711778896586233
30
0
10
5.5477882045918765
20
0.58455391698875325
30
0
10
5.7419614407777155
20
0.56243685026063439
30
0
10
5.9362791768461758
20
0.54082756888572381
30
0
10
6.1309565732526146
20
0.51975681076558045
30
0
10
6.3261136722897611
20
0.49920198563362728
30
0
10
6.5217133867727108
20
0.4790643773428177
30
0
10
6.7176180797788767
20
0.45921535888720116
30
0
10
6.9136454301972989
20
0.43954221253217568
30
0
10
7.1096244930325163
20
0.41999413337293701
30
0
10
7.3054516022368174
20
0.40062815295327908
30
0
10
7.5011466012305963
20
0.38165546789524057
30
0
10
7.6968035960123737
20
0.36336088009019463
30
0
10
7.8925416523597489
20
0.34602217118914325
30
0
10
8.0884554782932021
20
0.32982934814329673
30
0
10
8.28456631792724
20
0.31480422275818665
30
0
10
8.4807720473791299
20
0.30071851942552774
30
0
10
8.6769015603005997
20
0.28719685877127366
30
0
10
8.872769734144649
20
0.27382073355390774
30
0
10
9.0682322618363891
20
0.26023222540773355
30
0
10
9.26324029345807
20
0.24623735495139626
30
0
10
9.4578960922710174
20
0.23191125261281492
30
0
10
9.6523970116457054
20
0.2175013137771788
30
0
10
9.8469785365809521
20
0.20332864853755983
30
0
10
10.041857872319298
20
0.18969055262205403
30
0
10
10.237177035421212
20
0.17676202335410926
30
0
10
10.432946790120523
20
0.16449899433907136
30
0
10
10.629084465043629
20
0.15272884102291107
30
0
10
10.825450849752157
20
0.14123918634744068
30
0
10
11.021887277379198
20
0.12986700330042758
30
0
10
11.218252682122623
20
0.1185881504552576
30
0
10
11.414460381116193
20
0.10760545378388343
30
0
10
11.610473933111237
20
0.097241022449885556
30
0
10
11.806303430401
20
0.087830234992631387
30
0
10
12.00200167506576
20
0.07961545973516701
30
0
10
12.197660549807654
20
0.072639098374910616
30
0
10
12.393407175907862
20
0.066638513226803101
30
0
10
12.58937591196508
20
0.061178000056234597
30
0
10
12.78568052197874
20
0.055778578269376426
30
0
10
12.982386363240687
20
0.050048074179801172
30
0
10
13.179482254682721
20
0.043812054762345939
30
0
10
13.376853039743718
20
0.037242196725402875
30
0
10
13.574321984186113
20
0.030726073799740183
30
0
10
13.771692286018574
20
0.024740208377818134
30
0
10
13.968788921274058
20
0.019721935231433417
30
0
10
14.165500233319763
20
0.01594214943105645
30
0
10
14.36182007646857
20
0.013376389591749022
30
0
10
14.557818640213958
20
0.011788139429866009
30
0
10
14.753612952732759
20
0.010813093764322141
30
0
10
14.949337577455415
20
0.010042865010922688
30
0
10
15.145115307789967
20
0.0091087066636492426
30
0
10
15.341027763999692
20
0.0077655241890303203
30
0
10
15.537123662890258
20
0.0058670300979475707
30
0
10
15.694166465826399
20
0.0038459457442468923
30
0
10
15.812045537137404
20
0.0020369461329510351
30
0
10
15.890674665568644
20
0.00070069122543446778
30
0
10
15.93
20
0
30
0
0
LWPOLYLINE
5
102
100
AcDbEntity
8
0
100
AcDbPolyline
90
6
70
1
43
0.0
10
3.2049999999999992
20
1.8900000000000001
10
15.93
20
1.8900000000000001
10
15.93
20
0.87999999999999967
10
3.2049999999999992
20
0.87999999999999967
10
3.1549999999999989
20
0.92999999999999972
10
3.1549999999999989
20
1.8399999999999999
0
LINE
5
103
100
AcDbEntity
8
0
100
AcDbLine
10
15.93
20
7.9800000000000004
30
0
11
15.93
21
0
31
0
0
LWPOLYLINE
5
104
100
AcDbEntity
8
0
100
AcDbPolyline
90
4
70
1
43
0.0
10
4.375
20
2.29
10
15.93
20
2.29
10
15.93
20
1.8900000000000001
10
4.375
20
1.8900000000000001
0
LINE
5
105
100
AcDbEntity
8
0
100
AcDbLine
10
1.46
20
2.29
30
0
11
4.375
21
2.29
31
0
0
ENDSEC
0
SECTION
2
OBJECTS
0
DICTIONARY
5
C
100
AcDbDictionary
3
ACAD_GROUP
350
D
3
ACAD_MLINESTYLE
350
17
0
DICTIONARY
5
D
100
AcDbDictionary
0
DICTIONARY
5
1A
330
C
100
AcDbDictionary
0
DICTIONARY
5
17
100
AcDbDictionary
0
ENDSEC
0
EOF
